%TF.GenerationSoftware,KiCad,Pcbnew,7.0.8-1.fc38*%
%TF.CreationDate,2023-11-06T19:13:25+00:00*%
%TF.ProjectId,Dev_habit_reminder,4465765f-6861-4626-9974-5f72656d696e,rev?*%
%TF.SameCoordinates,Original*%
%TF.FileFunction,Legend,Bot*%
%TF.FilePolarity,Positive*%
%FSLAX46Y46*%
G04 Gerber Fmt 4.6, Leading zero omitted, Abs format (unit mm)*
G04 Created by KiCad (PCBNEW 7.0.8-1.fc38) date 2023-11-06 19:13:25*
%MOMM*%
%LPD*%
G01*
G04 APERTURE LIST*
%ADD10C,0.010000*%
G04 APERTURE END LIST*
%TO.C,REF\u002A\u002A*%
D10*
X124151121Y-110986350D02*
X124174186Y-111021023D01*
X124225001Y-111104324D01*
X124301015Y-111231823D01*
X124399674Y-111399091D01*
X124518426Y-111601699D01*
X124654719Y-111835218D01*
X124806001Y-112095216D01*
X124969719Y-112377266D01*
X125143320Y-112676937D01*
X125324253Y-112989801D01*
X125509964Y-113311427D01*
X125697902Y-113637386D01*
X125885515Y-113963248D01*
X126070249Y-114284584D01*
X126249552Y-114596965D01*
X126420872Y-114895961D01*
X126581657Y-115177143D01*
X126729354Y-115436080D01*
X126861411Y-115668344D01*
X126975275Y-115869505D01*
X127068395Y-116035134D01*
X127138217Y-116160800D01*
X127182189Y-116242075D01*
X127197759Y-116274529D01*
X127197774Y-116274776D01*
X127172666Y-116308832D01*
X127100517Y-116366559D01*
X126988834Y-116442494D01*
X126845122Y-116531175D01*
X126748746Y-116587905D01*
X126610065Y-116666793D01*
X126513469Y-116716509D01*
X126452485Y-116739849D01*
X126420640Y-116739612D01*
X126411464Y-116718594D01*
X126410765Y-116715167D01*
X126384537Y-116673364D01*
X126328000Y-116602279D01*
X126251572Y-116515167D01*
X126216311Y-116477750D01*
X126106964Y-116377024D01*
X125986044Y-116290931D01*
X125846365Y-116216947D01*
X125680741Y-116152546D01*
X125481985Y-116095204D01*
X125242910Y-116042397D01*
X124956332Y-115991600D01*
X124615063Y-115940290D01*
X124222269Y-115882454D01*
X123842549Y-115820346D01*
X123510521Y-115758088D01*
X123218764Y-115693884D01*
X122959854Y-115625938D01*
X122726367Y-115552453D01*
X122510881Y-115471635D01*
X122305971Y-115381687D01*
X122155377Y-115307509D01*
X122011530Y-115229450D01*
X121897773Y-115159764D01*
X121822998Y-115103930D01*
X121796098Y-115067429D01*
X121796892Y-115064740D01*
X121818561Y-115021724D01*
X121867690Y-114931645D01*
X121941371Y-114799544D01*
X122036695Y-114630466D01*
X122150753Y-114429455D01*
X122280637Y-114201552D01*
X122423438Y-113951802D01*
X122576248Y-113685248D01*
X122736158Y-113406934D01*
X122900260Y-113121902D01*
X123065644Y-112835197D01*
X123229403Y-112551860D01*
X123388627Y-112276937D01*
X123540408Y-112015469D01*
X123681838Y-111772501D01*
X123810008Y-111553076D01*
X123922009Y-111362237D01*
X124014933Y-111205028D01*
X124085871Y-111086491D01*
X124131915Y-111011671D01*
X124150155Y-110985610D01*
X124151121Y-110986350D01*
G36*
X124151121Y-110986350D02*
G01*
X124174186Y-111021023D01*
X124225001Y-111104324D01*
X124301015Y-111231823D01*
X124399674Y-111399091D01*
X124518426Y-111601699D01*
X124654719Y-111835218D01*
X124806001Y-112095216D01*
X124969719Y-112377266D01*
X125143320Y-112676937D01*
X125324253Y-112989801D01*
X125509964Y-113311427D01*
X125697902Y-113637386D01*
X125885515Y-113963248D01*
X126070249Y-114284584D01*
X126249552Y-114596965D01*
X126420872Y-114895961D01*
X126581657Y-115177143D01*
X126729354Y-115436080D01*
X126861411Y-115668344D01*
X126975275Y-115869505D01*
X127068395Y-116035134D01*
X127138217Y-116160800D01*
X127182189Y-116242075D01*
X127197759Y-116274529D01*
X127197774Y-116274776D01*
X127172666Y-116308832D01*
X127100517Y-116366559D01*
X126988834Y-116442494D01*
X126845122Y-116531175D01*
X126748746Y-116587905D01*
X126610065Y-116666793D01*
X126513469Y-116716509D01*
X126452485Y-116739849D01*
X126420640Y-116739612D01*
X126411464Y-116718594D01*
X126410765Y-116715167D01*
X126384537Y-116673364D01*
X126328000Y-116602279D01*
X126251572Y-116515167D01*
X126216311Y-116477750D01*
X126106964Y-116377024D01*
X125986044Y-116290931D01*
X125846365Y-116216947D01*
X125680741Y-116152546D01*
X125481985Y-116095204D01*
X125242910Y-116042397D01*
X124956332Y-115991600D01*
X124615063Y-115940290D01*
X124222269Y-115882454D01*
X123842549Y-115820346D01*
X123510521Y-115758088D01*
X123218764Y-115693884D01*
X122959854Y-115625938D01*
X122726367Y-115552453D01*
X122510881Y-115471635D01*
X122305971Y-115381687D01*
X122155377Y-115307509D01*
X122011530Y-115229450D01*
X121897773Y-115159764D01*
X121822998Y-115103930D01*
X121796098Y-115067429D01*
X121796892Y-115064740D01*
X121818561Y-115021724D01*
X121867690Y-114931645D01*
X121941371Y-114799544D01*
X122036695Y-114630466D01*
X122150753Y-114429455D01*
X122280637Y-114201552D01*
X122423438Y-113951802D01*
X122576248Y-113685248D01*
X122736158Y-113406934D01*
X122900260Y-113121902D01*
X123065644Y-112835197D01*
X123229403Y-112551860D01*
X123388627Y-112276937D01*
X123540408Y-112015469D01*
X123681838Y-111772501D01*
X123810008Y-111553076D01*
X123922009Y-111362237D01*
X124014933Y-111205028D01*
X124085871Y-111086491D01*
X124131915Y-111011671D01*
X124150155Y-110985610D01*
X124151121Y-110986350D01*
G37*
X120625672Y-117324726D02*
X120654047Y-117352065D01*
X120736784Y-117435439D01*
X120846214Y-117548945D01*
X120977021Y-117686795D01*
X121123886Y-117843198D01*
X121281492Y-118012365D01*
X121444521Y-118188506D01*
X121607655Y-118365832D01*
X121765576Y-118538553D01*
X121912966Y-118700879D01*
X122044508Y-118847020D01*
X122154883Y-118971188D01*
X122238773Y-119067591D01*
X122290862Y-119130441D01*
X122305830Y-119153948D01*
X122300693Y-119156544D01*
X122251570Y-119183957D01*
X122154409Y-119239227D01*
X122013304Y-119319996D01*
X121832347Y-119423910D01*
X121615630Y-119548610D01*
X121367248Y-119691743D01*
X121091291Y-119850950D01*
X120791853Y-120023877D01*
X120473026Y-120208167D01*
X120138903Y-120401464D01*
X120014016Y-120473735D01*
X119685767Y-120663613D01*
X119374716Y-120843428D01*
X119084909Y-121010848D01*
X118820391Y-121163542D01*
X118585208Y-121299178D01*
X118383405Y-121415422D01*
X118219027Y-121509942D01*
X118096119Y-121580407D01*
X118018728Y-121624484D01*
X117990898Y-121639841D01*
X117992150Y-121631663D01*
X118014986Y-121584661D01*
X118056987Y-121509573D01*
X118082752Y-121465128D01*
X118137545Y-121370347D01*
X118218174Y-121230755D01*
X118322019Y-121050889D01*
X118446462Y-120835284D01*
X118588886Y-120588480D01*
X118746670Y-120315012D01*
X118917197Y-120019418D01*
X119097848Y-119706235D01*
X119286005Y-119380000D01*
X119470243Y-119060646D01*
X119649360Y-118750374D01*
X119817787Y-118458824D01*
X119972994Y-118190367D01*
X120112451Y-117949370D01*
X120233628Y-117740204D01*
X120333996Y-117567238D01*
X120411025Y-117434843D01*
X120462184Y-117347386D01*
X120484944Y-117309238D01*
X120531641Y-117236403D01*
X120625672Y-117324726D01*
G36*
X120625672Y-117324726D02*
G01*
X120654047Y-117352065D01*
X120736784Y-117435439D01*
X120846214Y-117548945D01*
X120977021Y-117686795D01*
X121123886Y-117843198D01*
X121281492Y-118012365D01*
X121444521Y-118188506D01*
X121607655Y-118365832D01*
X121765576Y-118538553D01*
X121912966Y-118700879D01*
X122044508Y-118847020D01*
X122154883Y-118971188D01*
X122238773Y-119067591D01*
X122290862Y-119130441D01*
X122305830Y-119153948D01*
X122300693Y-119156544D01*
X122251570Y-119183957D01*
X122154409Y-119239227D01*
X122013304Y-119319996D01*
X121832347Y-119423910D01*
X121615630Y-119548610D01*
X121367248Y-119691743D01*
X121091291Y-119850950D01*
X120791853Y-120023877D01*
X120473026Y-120208167D01*
X120138903Y-120401464D01*
X120014016Y-120473735D01*
X119685767Y-120663613D01*
X119374716Y-120843428D01*
X119084909Y-121010848D01*
X118820391Y-121163542D01*
X118585208Y-121299178D01*
X118383405Y-121415422D01*
X118219027Y-121509942D01*
X118096119Y-121580407D01*
X118018728Y-121624484D01*
X117990898Y-121639841D01*
X117992150Y-121631663D01*
X118014986Y-121584661D01*
X118056987Y-121509573D01*
X118082752Y-121465128D01*
X118137545Y-121370347D01*
X118218174Y-121230755D01*
X118322019Y-121050889D01*
X118446462Y-120835284D01*
X118588886Y-120588480D01*
X118746670Y-120315012D01*
X118917197Y-120019418D01*
X119097848Y-119706235D01*
X119286005Y-119380000D01*
X119470243Y-119060646D01*
X119649360Y-118750374D01*
X119817787Y-118458824D01*
X119972994Y-118190367D01*
X120112451Y-117949370D01*
X120233628Y-117740204D01*
X120333996Y-117567238D01*
X120411025Y-117434843D01*
X120462184Y-117347386D01*
X120484944Y-117309238D01*
X120531641Y-117236403D01*
X120625672Y-117324726D01*
G37*
X127880095Y-117432080D02*
X127891604Y-117449250D01*
X127932730Y-117516692D01*
X128000359Y-117630401D01*
X128091901Y-117785937D01*
X128204767Y-117978864D01*
X128336368Y-118204743D01*
X128484116Y-118459136D01*
X128645422Y-118737606D01*
X128817696Y-119035715D01*
X128998351Y-119349025D01*
X129047895Y-119435043D01*
X129243800Y-119775151D01*
X129441018Y-120117509D01*
X129635520Y-120455125D01*
X129823277Y-120781007D01*
X130000262Y-121088164D01*
X130162444Y-121369603D01*
X130305796Y-121618332D01*
X130426289Y-121827360D01*
X130519894Y-121989695D01*
X130962061Y-122756342D01*
X124762152Y-122756342D01*
X124505843Y-122756319D01*
X123895000Y-122756085D01*
X123302864Y-122755604D01*
X122732319Y-122754889D01*
X122186247Y-122753952D01*
X121667531Y-122752807D01*
X121179054Y-122751464D01*
X120723699Y-122749937D01*
X120304348Y-122748238D01*
X119923886Y-122746379D01*
X119585194Y-122744373D01*
X119291156Y-122742231D01*
X119044654Y-122739966D01*
X118848572Y-122737592D01*
X118705792Y-122735118D01*
X118619197Y-122732560D01*
X118591671Y-122729927D01*
X118612109Y-122716608D01*
X118682622Y-122674167D01*
X118798443Y-122605841D01*
X118954861Y-122514342D01*
X119147166Y-122402380D01*
X119370646Y-122272666D01*
X119620592Y-122127908D01*
X119892292Y-121970819D01*
X120181036Y-121804109D01*
X120482112Y-121630487D01*
X120790811Y-121452665D01*
X121102421Y-121273352D01*
X121412232Y-121095259D01*
X121715533Y-120921097D01*
X122007613Y-120753576D01*
X122283762Y-120595406D01*
X122539268Y-120449298D01*
X122769422Y-120317962D01*
X122969512Y-120204109D01*
X123134828Y-120110449D01*
X123260659Y-120039692D01*
X123342294Y-119994548D01*
X123375022Y-119977729D01*
X123396379Y-119981898D01*
X123460716Y-120019817D01*
X123552443Y-120090065D01*
X123661480Y-120185339D01*
X123759690Y-120280713D01*
X123884778Y-120410633D01*
X124024737Y-120562311D01*
X124172393Y-120727396D01*
X124320571Y-120897536D01*
X124462097Y-121064381D01*
X124589797Y-121219578D01*
X124696495Y-121354778D01*
X124775018Y-121461628D01*
X124818191Y-121531778D01*
X124847012Y-121583010D01*
X124925287Y-121689032D01*
X125025917Y-121801825D01*
X125134553Y-121906924D01*
X125236848Y-121989861D01*
X125318455Y-122036172D01*
X125408584Y-122046876D01*
X125528853Y-122017291D01*
X125643158Y-121949453D01*
X125731866Y-121852106D01*
X125747227Y-121826850D01*
X125766784Y-121785487D01*
X125779531Y-121735708D01*
X125786285Y-121666819D01*
X125787863Y-121568124D01*
X125785082Y-121428929D01*
X125778762Y-121238537D01*
X125774233Y-121128404D01*
X125764609Y-120954234D01*
X125753251Y-120801799D01*
X125741217Y-120684498D01*
X125729566Y-120615732D01*
X125701358Y-120537176D01*
X125617733Y-120382480D01*
X125487790Y-120199183D01*
X125309941Y-119985134D01*
X125082600Y-119738180D01*
X124983944Y-119634132D01*
X124869876Y-119511393D01*
X124775729Y-119407330D01*
X124709248Y-119330533D01*
X124678178Y-119289593D01*
X124674984Y-119283092D01*
X124671154Y-119255107D01*
X124690290Y-119224078D01*
X124740230Y-119183319D01*
X124828813Y-119126143D01*
X124963876Y-119045864D01*
X125078695Y-118978844D01*
X125289984Y-118856247D01*
X125456342Y-118761018D01*
X125583356Y-118690066D01*
X125676613Y-118640299D01*
X125741701Y-118608626D01*
X125784208Y-118591954D01*
X125828194Y-118573456D01*
X125853903Y-118548615D01*
X125856308Y-118542756D01*
X125893923Y-118510168D01*
X125962670Y-118468196D01*
X126071438Y-118409621D01*
X126151748Y-118484384D01*
X126180115Y-118514673D01*
X126246111Y-118596987D01*
X126326693Y-118706891D01*
X126410365Y-118829062D01*
X126588672Y-119098978D01*
X126574678Y-120498470D01*
X126472787Y-120597467D01*
X126438549Y-120632759D01*
X126328753Y-120791320D01*
X126264661Y-120979870D01*
X126242824Y-121207561D01*
X126248247Y-121329559D01*
X126286522Y-121544756D01*
X126356282Y-121741166D01*
X126451484Y-121898764D01*
X126517590Y-121956228D01*
X126635099Y-121999875D01*
X126768122Y-122004909D01*
X126899632Y-121973656D01*
X127012603Y-121908440D01*
X127090007Y-121811586D01*
X127092540Y-121806337D01*
X127139327Y-121710451D01*
X127188879Y-121610244D01*
X127230945Y-121516174D01*
X127291288Y-121357621D01*
X127357864Y-121162145D01*
X127428359Y-120938457D01*
X127500458Y-120695269D01*
X127571850Y-120441290D01*
X127640220Y-120185232D01*
X127703254Y-119935804D01*
X127758640Y-119701719D01*
X127804064Y-119491687D01*
X127837212Y-119314418D01*
X127855771Y-119178624D01*
X127857428Y-119093014D01*
X127853695Y-119073565D01*
X127817317Y-118975112D01*
X127749814Y-118843398D01*
X127657110Y-118690331D01*
X127621529Y-118635170D01*
X127478565Y-118410245D01*
X127357040Y-118213544D01*
X127259634Y-118049665D01*
X127189029Y-117923210D01*
X127147904Y-117838780D01*
X127138939Y-117800974D01*
X127139977Y-117799641D01*
X127177090Y-117772410D01*
X127256404Y-117722638D01*
X127367053Y-117656952D01*
X127498168Y-117581977D01*
X127509253Y-117575752D01*
X127651615Y-117497425D01*
X127750763Y-117447473D01*
X127815813Y-117422317D01*
X127855885Y-117418379D01*
X127880095Y-117432080D01*
G36*
X127880095Y-117432080D02*
G01*
X127891604Y-117449250D01*
X127932730Y-117516692D01*
X128000359Y-117630401D01*
X128091901Y-117785937D01*
X128204767Y-117978864D01*
X128336368Y-118204743D01*
X128484116Y-118459136D01*
X128645422Y-118737606D01*
X128817696Y-119035715D01*
X128998351Y-119349025D01*
X129047895Y-119435043D01*
X129243800Y-119775151D01*
X129441018Y-120117509D01*
X129635520Y-120455125D01*
X129823277Y-120781007D01*
X130000262Y-121088164D01*
X130162444Y-121369603D01*
X130305796Y-121618332D01*
X130426289Y-121827360D01*
X130519894Y-121989695D01*
X130962061Y-122756342D01*
X124762152Y-122756342D01*
X124505843Y-122756319D01*
X123895000Y-122756085D01*
X123302864Y-122755604D01*
X122732319Y-122754889D01*
X122186247Y-122753952D01*
X121667531Y-122752807D01*
X121179054Y-122751464D01*
X120723699Y-122749937D01*
X120304348Y-122748238D01*
X119923886Y-122746379D01*
X119585194Y-122744373D01*
X119291156Y-122742231D01*
X119044654Y-122739966D01*
X118848572Y-122737592D01*
X118705792Y-122735118D01*
X118619197Y-122732560D01*
X118591671Y-122729927D01*
X118612109Y-122716608D01*
X118682622Y-122674167D01*
X118798443Y-122605841D01*
X118954861Y-122514342D01*
X119147166Y-122402380D01*
X119370646Y-122272666D01*
X119620592Y-122127908D01*
X119892292Y-121970819D01*
X120181036Y-121804109D01*
X120482112Y-121630487D01*
X120790811Y-121452665D01*
X121102421Y-121273352D01*
X121412232Y-121095259D01*
X121715533Y-120921097D01*
X122007613Y-120753576D01*
X122283762Y-120595406D01*
X122539268Y-120449298D01*
X122769422Y-120317962D01*
X122969512Y-120204109D01*
X123134828Y-120110449D01*
X123260659Y-120039692D01*
X123342294Y-119994548D01*
X123375022Y-119977729D01*
X123396379Y-119981898D01*
X123460716Y-120019817D01*
X123552443Y-120090065D01*
X123661480Y-120185339D01*
X123759690Y-120280713D01*
X123884778Y-120410633D01*
X124024737Y-120562311D01*
X124172393Y-120727396D01*
X124320571Y-120897536D01*
X124462097Y-121064381D01*
X124589797Y-121219578D01*
X124696495Y-121354778D01*
X124775018Y-121461628D01*
X124818191Y-121531778D01*
X124847012Y-121583010D01*
X124925287Y-121689032D01*
X125025917Y-121801825D01*
X125134553Y-121906924D01*
X125236848Y-121989861D01*
X125318455Y-122036172D01*
X125408584Y-122046876D01*
X125528853Y-122017291D01*
X125643158Y-121949453D01*
X125731866Y-121852106D01*
X125747227Y-121826850D01*
X125766784Y-121785487D01*
X125779531Y-121735708D01*
X125786285Y-121666819D01*
X125787863Y-121568124D01*
X125785082Y-121428929D01*
X125778762Y-121238537D01*
X125774233Y-121128404D01*
X125764609Y-120954234D01*
X125753251Y-120801799D01*
X125741217Y-120684498D01*
X125729566Y-120615732D01*
X125701358Y-120537176D01*
X125617733Y-120382480D01*
X125487790Y-120199183D01*
X125309941Y-119985134D01*
X125082600Y-119738180D01*
X124983944Y-119634132D01*
X124869876Y-119511393D01*
X124775729Y-119407330D01*
X124709248Y-119330533D01*
X124678178Y-119289593D01*
X124674984Y-119283092D01*
X124671154Y-119255107D01*
X124690290Y-119224078D01*
X124740230Y-119183319D01*
X124828813Y-119126143D01*
X124963876Y-119045864D01*
X125078695Y-118978844D01*
X125289984Y-118856247D01*
X125456342Y-118761018D01*
X125583356Y-118690066D01*
X125676613Y-118640299D01*
X125741701Y-118608626D01*
X125784208Y-118591954D01*
X125828194Y-118573456D01*
X125853903Y-118548615D01*
X125856308Y-118542756D01*
X125893923Y-118510168D01*
X125962670Y-118468196D01*
X126071438Y-118409621D01*
X126151748Y-118484384D01*
X126180115Y-118514673D01*
X126246111Y-118596987D01*
X126326693Y-118706891D01*
X126410365Y-118829062D01*
X126588672Y-119098978D01*
X126574678Y-120498470D01*
X126472787Y-120597467D01*
X126438549Y-120632759D01*
X126328753Y-120791320D01*
X126264661Y-120979870D01*
X126242824Y-121207561D01*
X126248247Y-121329559D01*
X126286522Y-121544756D01*
X126356282Y-121741166D01*
X126451484Y-121898764D01*
X126517590Y-121956228D01*
X126635099Y-121999875D01*
X126768122Y-122004909D01*
X126899632Y-121973656D01*
X127012603Y-121908440D01*
X127090007Y-121811586D01*
X127092540Y-121806337D01*
X127139327Y-121710451D01*
X127188879Y-121610244D01*
X127230945Y-121516174D01*
X127291288Y-121357621D01*
X127357864Y-121162145D01*
X127428359Y-120938457D01*
X127500458Y-120695269D01*
X127571850Y-120441290D01*
X127640220Y-120185232D01*
X127703254Y-119935804D01*
X127758640Y-119701719D01*
X127804064Y-119491687D01*
X127837212Y-119314418D01*
X127855771Y-119178624D01*
X127857428Y-119093014D01*
X127853695Y-119073565D01*
X127817317Y-118975112D01*
X127749814Y-118843398D01*
X127657110Y-118690331D01*
X127621529Y-118635170D01*
X127478565Y-118410245D01*
X127357040Y-118213544D01*
X127259634Y-118049665D01*
X127189029Y-117923210D01*
X127147904Y-117838780D01*
X127138939Y-117800974D01*
X127139977Y-117799641D01*
X127177090Y-117772410D01*
X127256404Y-117722638D01*
X127367053Y-117656952D01*
X127498168Y-117581977D01*
X127509253Y-117575752D01*
X127651615Y-117497425D01*
X127750763Y-117447473D01*
X127815813Y-117422317D01*
X127855885Y-117418379D01*
X127880095Y-117432080D01*
G37*
X125181634Y-92423172D02*
X125294216Y-93020363D01*
X125709629Y-93191610D01*
X126125043Y-93362857D01*
X126623400Y-93023978D01*
X126722036Y-92957170D01*
X126852797Y-92869479D01*
X126966008Y-92794580D01*
X127055789Y-92736320D01*
X127116261Y-92698545D01*
X127141544Y-92685098D01*
X127157072Y-92694661D01*
X127203487Y-92734730D01*
X127273730Y-92800487D01*
X127361848Y-92885895D01*
X127461889Y-92984915D01*
X127567902Y-93091509D01*
X127673935Y-93199640D01*
X127774035Y-93303268D01*
X127862251Y-93396358D01*
X127932632Y-93472869D01*
X127979225Y-93526765D01*
X127996079Y-93552007D01*
X127992158Y-93562852D01*
X127965012Y-93611228D01*
X127915439Y-93690842D01*
X127847459Y-93795454D01*
X127765091Y-93918822D01*
X127672353Y-94054706D01*
X127621460Y-94128815D01*
X127533912Y-94257835D01*
X127458853Y-94370434D01*
X127400285Y-94460505D01*
X127362209Y-94521942D01*
X127348628Y-94548640D01*
X127348851Y-94550119D01*
X127360831Y-94583962D01*
X127388316Y-94653071D01*
X127427474Y-94748416D01*
X127474474Y-94860972D01*
X127525485Y-94981710D01*
X127576676Y-95101602D01*
X127624215Y-95211622D01*
X127664271Y-95302740D01*
X127693013Y-95365931D01*
X127706610Y-95392165D01*
X127714655Y-95394492D01*
X127763535Y-95404988D01*
X127850652Y-95422376D01*
X127969033Y-95445295D01*
X128111704Y-95472389D01*
X128271692Y-95502296D01*
X128356015Y-95518153D01*
X128510783Y-95548407D01*
X128646104Y-95576347D01*
X128754582Y-95600369D01*
X128828820Y-95618868D01*
X128861422Y-95630238D01*
X128867278Y-95641511D01*
X128876992Y-95696586D01*
X128884624Y-95788317D01*
X128890180Y-95908073D01*
X128893666Y-96047221D01*
X128895087Y-96197131D01*
X128894450Y-96349172D01*
X128891760Y-96494712D01*
X128887024Y-96625121D01*
X128880247Y-96731766D01*
X128871436Y-96806018D01*
X128860595Y-96839245D01*
X128854017Y-96842993D01*
X128804955Y-96859069D01*
X128719847Y-96880338D01*
X128608529Y-96904472D01*
X128480840Y-96929143D01*
X128437757Y-96937000D01*
X128238773Y-96973542D01*
X128082388Y-97002910D01*
X127963183Y-97026321D01*
X127875737Y-97044994D01*
X127814628Y-97060146D01*
X127774435Y-97072995D01*
X127749738Y-97084758D01*
X127735116Y-97096653D01*
X127733416Y-97098649D01*
X127709504Y-97140271D01*
X127674119Y-97216430D01*
X127630692Y-97318193D01*
X127582651Y-97436624D01*
X127533425Y-97562789D01*
X127486445Y-97687754D01*
X127445140Y-97802584D01*
X127412939Y-97898344D01*
X127393271Y-97966100D01*
X127389565Y-97996917D01*
X127392043Y-98000915D01*
X127417689Y-98039584D01*
X127465920Y-98110907D01*
X127532262Y-98208314D01*
X127612245Y-98325234D01*
X127701397Y-98455098D01*
X127725865Y-98490828D01*
X127811903Y-98618990D01*
X127886258Y-98733608D01*
X127944688Y-98827887D01*
X127982947Y-98895029D01*
X127996792Y-98928235D01*
X127993809Y-98936965D01*
X127962711Y-98979982D01*
X127901355Y-99050230D01*
X127814137Y-99142979D01*
X127705449Y-99253502D01*
X127579685Y-99377071D01*
X127507800Y-99446235D01*
X127394139Y-99553957D01*
X127294657Y-99646225D01*
X127214695Y-99718181D01*
X127159595Y-99764968D01*
X127134698Y-99781727D01*
X127117593Y-99775515D01*
X127064929Y-99746126D01*
X126988449Y-99698063D01*
X126898129Y-99637412D01*
X126833911Y-99593153D01*
X126705705Y-99505261D01*
X126568894Y-99411915D01*
X126443932Y-99327091D01*
X126199137Y-99161515D01*
X125993649Y-99272620D01*
X125945263Y-99298265D01*
X125857270Y-99342130D01*
X125789223Y-99372414D01*
X125752856Y-99383706D01*
X125740954Y-99369205D01*
X125711400Y-99313992D01*
X125667748Y-99222962D01*
X125612426Y-99101892D01*
X125547863Y-98956559D01*
X125476489Y-98792741D01*
X125400732Y-98616213D01*
X125323022Y-98432753D01*
X125245786Y-98248138D01*
X125171456Y-98068146D01*
X125102458Y-97898552D01*
X125041223Y-97745135D01*
X124990179Y-97613670D01*
X124951755Y-97509936D01*
X124928380Y-97439709D01*
X124922483Y-97408766D01*
X124922883Y-97407862D01*
X124950349Y-97379257D01*
X125007799Y-97334457D01*
X125083373Y-97282751D01*
X125107227Y-97266962D01*
X125288734Y-97117174D01*
X125438953Y-96938767D01*
X125554327Y-96739165D01*
X125631299Y-96525797D01*
X125666314Y-96306087D01*
X125655813Y-96087462D01*
X125613277Y-95893011D01*
X125536903Y-95696657D01*
X125425565Y-95521484D01*
X125272774Y-95355082D01*
X125212739Y-95301924D01*
X125018658Y-95170951D01*
X124808999Y-95082744D01*
X124589837Y-95036512D01*
X124367247Y-95031467D01*
X124147307Y-95066820D01*
X123936090Y-95141779D01*
X123739673Y-95255557D01*
X123564132Y-95407363D01*
X123415542Y-95596409D01*
X123386974Y-95643224D01*
X123289873Y-95857204D01*
X123238303Y-96080026D01*
X123230914Y-96305922D01*
X123266355Y-96529119D01*
X123343276Y-96743847D01*
X123460326Y-96944336D01*
X123616155Y-97124814D01*
X123809413Y-97279510D01*
X123815689Y-97283679D01*
X123890461Y-97336370D01*
X123946504Y-97381169D01*
X123972100Y-97408766D01*
X123968870Y-97430402D01*
X123948790Y-97493399D01*
X123913184Y-97591038D01*
X123864480Y-97717542D01*
X123805108Y-97867132D01*
X123737494Y-98034030D01*
X123664066Y-98212457D01*
X123587254Y-98396636D01*
X123509484Y-98580787D01*
X123433185Y-98759133D01*
X123360784Y-98925895D01*
X123294710Y-99075294D01*
X123237391Y-99201554D01*
X123191255Y-99298894D01*
X123158730Y-99361538D01*
X123142243Y-99383706D01*
X123128533Y-99380703D01*
X123074670Y-99359126D01*
X122995064Y-99321293D01*
X122901449Y-99272620D01*
X122695962Y-99161515D01*
X122451167Y-99327091D01*
X122378845Y-99376120D01*
X122244326Y-99467729D01*
X122110215Y-99559485D01*
X121996970Y-99637412D01*
X121934470Y-99679881D01*
X121853239Y-99732644D01*
X121793009Y-99768765D01*
X121763591Y-99782157D01*
X121750953Y-99776471D01*
X121705267Y-99741645D01*
X121634838Y-99680329D01*
X121545796Y-99598554D01*
X121444272Y-99502351D01*
X121336394Y-99397751D01*
X121228295Y-99290786D01*
X121126103Y-99187485D01*
X121035950Y-99093882D01*
X120963964Y-99016006D01*
X120916278Y-98959889D01*
X120899020Y-98931562D01*
X120900015Y-98926172D01*
X120920555Y-98882304D01*
X120964434Y-98806407D01*
X121027412Y-98705336D01*
X121105247Y-98585948D01*
X121193701Y-98455098D01*
X121218509Y-98419005D01*
X121305618Y-98292000D01*
X121382347Y-98179718D01*
X121444224Y-98088730D01*
X121486777Y-98025606D01*
X121505534Y-97996917D01*
X121505995Y-97995687D01*
X121500459Y-97960588D01*
X121479320Y-97889484D01*
X121446005Y-97791310D01*
X121403945Y-97675002D01*
X121356570Y-97549493D01*
X121307308Y-97423718D01*
X121259589Y-97306612D01*
X121216842Y-97207110D01*
X121182497Y-97134145D01*
X121159983Y-97096653D01*
X121157728Y-97094325D01*
X121141608Y-97082549D01*
X121114383Y-97070673D01*
X121070633Y-97057481D01*
X121004935Y-97041754D01*
X120911870Y-97022274D01*
X120786016Y-96997824D01*
X120621953Y-96967186D01*
X120414259Y-96929143D01*
X120371181Y-96921136D01*
X120247777Y-96896384D01*
X120143972Y-96872933D01*
X120069601Y-96853110D01*
X120034504Y-96839245D01*
X120028632Y-96827677D01*
X120018842Y-96772110D01*
X120011085Y-96679990D01*
X120005365Y-96559951D01*
X120001689Y-96420622D01*
X120000062Y-96270635D01*
X120000491Y-96118621D01*
X120002982Y-95973212D01*
X120007540Y-95843037D01*
X120014171Y-95736730D01*
X120022881Y-95662919D01*
X120033677Y-95630238D01*
X120044699Y-95625410D01*
X120099531Y-95610191D01*
X120192213Y-95588666D01*
X120315351Y-95562439D01*
X120461548Y-95533114D01*
X120623406Y-95502296D01*
X120711784Y-95485831D01*
X120863259Y-95457279D01*
X120993640Y-95432277D01*
X121095954Y-95412185D01*
X121163228Y-95398362D01*
X121188489Y-95392165D01*
X121189438Y-95390888D01*
X121205526Y-95358437D01*
X121236194Y-95290452D01*
X121277611Y-95195954D01*
X121325941Y-95083964D01*
X121377354Y-94963500D01*
X121428014Y-94843584D01*
X121474089Y-94733235D01*
X121511746Y-94641473D01*
X121537151Y-94577319D01*
X121546471Y-94549792D01*
X121542360Y-94540106D01*
X121515000Y-94494018D01*
X121465370Y-94416440D01*
X121397460Y-94313461D01*
X121315255Y-94191167D01*
X121222746Y-94055646D01*
X121171991Y-93981429D01*
X121084403Y-93851309D01*
X121009306Y-93737112D01*
X120950707Y-93645066D01*
X120912609Y-93581398D01*
X120899020Y-93552337D01*
X120908462Y-93536573D01*
X120947960Y-93489471D01*
X121012758Y-93418186D01*
X121096909Y-93328760D01*
X121194464Y-93227232D01*
X121299474Y-93119643D01*
X121405993Y-93012034D01*
X121508071Y-92910445D01*
X121599760Y-92820917D01*
X121675112Y-92749489D01*
X121728180Y-92702203D01*
X121753014Y-92685098D01*
X121766799Y-92691749D01*
X121817418Y-92722592D01*
X121899105Y-92775083D01*
X122005972Y-92845375D01*
X122132132Y-92929622D01*
X122271698Y-93023978D01*
X122770056Y-93362857D01*
X123185469Y-93191610D01*
X123600883Y-93020363D01*
X123713465Y-92423172D01*
X123826048Y-91825980D01*
X125069051Y-91825980D01*
X125181634Y-92423172D01*
G36*
X125181634Y-92423172D02*
G01*
X125294216Y-93020363D01*
X125709629Y-93191610D01*
X126125043Y-93362857D01*
X126623400Y-93023978D01*
X126722036Y-92957170D01*
X126852797Y-92869479D01*
X126966008Y-92794580D01*
X127055789Y-92736320D01*
X127116261Y-92698545D01*
X127141544Y-92685098D01*
X127157072Y-92694661D01*
X127203487Y-92734730D01*
X127273730Y-92800487D01*
X127361848Y-92885895D01*
X127461889Y-92984915D01*
X127567902Y-93091509D01*
X127673935Y-93199640D01*
X127774035Y-93303268D01*
X127862251Y-93396358D01*
X127932632Y-93472869D01*
X127979225Y-93526765D01*
X127996079Y-93552007D01*
X127992158Y-93562852D01*
X127965012Y-93611228D01*
X127915439Y-93690842D01*
X127847459Y-93795454D01*
X127765091Y-93918822D01*
X127672353Y-94054706D01*
X127621460Y-94128815D01*
X127533912Y-94257835D01*
X127458853Y-94370434D01*
X127400285Y-94460505D01*
X127362209Y-94521942D01*
X127348628Y-94548640D01*
X127348851Y-94550119D01*
X127360831Y-94583962D01*
X127388316Y-94653071D01*
X127427474Y-94748416D01*
X127474474Y-94860972D01*
X127525485Y-94981710D01*
X127576676Y-95101602D01*
X127624215Y-95211622D01*
X127664271Y-95302740D01*
X127693013Y-95365931D01*
X127706610Y-95392165D01*
X127714655Y-95394492D01*
X127763535Y-95404988D01*
X127850652Y-95422376D01*
X127969033Y-95445295D01*
X128111704Y-95472389D01*
X128271692Y-95502296D01*
X128356015Y-95518153D01*
X128510783Y-95548407D01*
X128646104Y-95576347D01*
X128754582Y-95600369D01*
X128828820Y-95618868D01*
X128861422Y-95630238D01*
X128867278Y-95641511D01*
X128876992Y-95696586D01*
X128884624Y-95788317D01*
X128890180Y-95908073D01*
X128893666Y-96047221D01*
X128895087Y-96197131D01*
X128894450Y-96349172D01*
X128891760Y-96494712D01*
X128887024Y-96625121D01*
X128880247Y-96731766D01*
X128871436Y-96806018D01*
X128860595Y-96839245D01*
X128854017Y-96842993D01*
X128804955Y-96859069D01*
X128719847Y-96880338D01*
X128608529Y-96904472D01*
X128480840Y-96929143D01*
X128437757Y-96937000D01*
X128238773Y-96973542D01*
X128082388Y-97002910D01*
X127963183Y-97026321D01*
X127875737Y-97044994D01*
X127814628Y-97060146D01*
X127774435Y-97072995D01*
X127749738Y-97084758D01*
X127735116Y-97096653D01*
X127733416Y-97098649D01*
X127709504Y-97140271D01*
X127674119Y-97216430D01*
X127630692Y-97318193D01*
X127582651Y-97436624D01*
X127533425Y-97562789D01*
X127486445Y-97687754D01*
X127445140Y-97802584D01*
X127412939Y-97898344D01*
X127393271Y-97966100D01*
X127389565Y-97996917D01*
X127392043Y-98000915D01*
X127417689Y-98039584D01*
X127465920Y-98110907D01*
X127532262Y-98208314D01*
X127612245Y-98325234D01*
X127701397Y-98455098D01*
X127725865Y-98490828D01*
X127811903Y-98618990D01*
X127886258Y-98733608D01*
X127944688Y-98827887D01*
X127982947Y-98895029D01*
X127996792Y-98928235D01*
X127993809Y-98936965D01*
X127962711Y-98979982D01*
X127901355Y-99050230D01*
X127814137Y-99142979D01*
X127705449Y-99253502D01*
X127579685Y-99377071D01*
X127507800Y-99446235D01*
X127394139Y-99553957D01*
X127294657Y-99646225D01*
X127214695Y-99718181D01*
X127159595Y-99764968D01*
X127134698Y-99781727D01*
X127117593Y-99775515D01*
X127064929Y-99746126D01*
X126988449Y-99698063D01*
X126898129Y-99637412D01*
X126833911Y-99593153D01*
X126705705Y-99505261D01*
X126568894Y-99411915D01*
X126443932Y-99327091D01*
X126199137Y-99161515D01*
X125993649Y-99272620D01*
X125945263Y-99298265D01*
X125857270Y-99342130D01*
X125789223Y-99372414D01*
X125752856Y-99383706D01*
X125740954Y-99369205D01*
X125711400Y-99313992D01*
X125667748Y-99222962D01*
X125612426Y-99101892D01*
X125547863Y-98956559D01*
X125476489Y-98792741D01*
X125400732Y-98616213D01*
X125323022Y-98432753D01*
X125245786Y-98248138D01*
X125171456Y-98068146D01*
X125102458Y-97898552D01*
X125041223Y-97745135D01*
X124990179Y-97613670D01*
X124951755Y-97509936D01*
X124928380Y-97439709D01*
X124922483Y-97408766D01*
X124922883Y-97407862D01*
X124950349Y-97379257D01*
X125007799Y-97334457D01*
X125083373Y-97282751D01*
X125107227Y-97266962D01*
X125288734Y-97117174D01*
X125438953Y-96938767D01*
X125554327Y-96739165D01*
X125631299Y-96525797D01*
X125666314Y-96306087D01*
X125655813Y-96087462D01*
X125613277Y-95893011D01*
X125536903Y-95696657D01*
X125425565Y-95521484D01*
X125272774Y-95355082D01*
X125212739Y-95301924D01*
X125018658Y-95170951D01*
X124808999Y-95082744D01*
X124589837Y-95036512D01*
X124367247Y-95031467D01*
X124147307Y-95066820D01*
X123936090Y-95141779D01*
X123739673Y-95255557D01*
X123564132Y-95407363D01*
X123415542Y-95596409D01*
X123386974Y-95643224D01*
X123289873Y-95857204D01*
X123238303Y-96080026D01*
X123230914Y-96305922D01*
X123266355Y-96529119D01*
X123343276Y-96743847D01*
X123460326Y-96944336D01*
X123616155Y-97124814D01*
X123809413Y-97279510D01*
X123815689Y-97283679D01*
X123890461Y-97336370D01*
X123946504Y-97381169D01*
X123972100Y-97408766D01*
X123968870Y-97430402D01*
X123948790Y-97493399D01*
X123913184Y-97591038D01*
X123864480Y-97717542D01*
X123805108Y-97867132D01*
X123737494Y-98034030D01*
X123664066Y-98212457D01*
X123587254Y-98396636D01*
X123509484Y-98580787D01*
X123433185Y-98759133D01*
X123360784Y-98925895D01*
X123294710Y-99075294D01*
X123237391Y-99201554D01*
X123191255Y-99298894D01*
X123158730Y-99361538D01*
X123142243Y-99383706D01*
X123128533Y-99380703D01*
X123074670Y-99359126D01*
X122995064Y-99321293D01*
X122901449Y-99272620D01*
X122695962Y-99161515D01*
X122451167Y-99327091D01*
X122378845Y-99376120D01*
X122244326Y-99467729D01*
X122110215Y-99559485D01*
X121996970Y-99637412D01*
X121934470Y-99679881D01*
X121853239Y-99732644D01*
X121793009Y-99768765D01*
X121763591Y-99782157D01*
X121750953Y-99776471D01*
X121705267Y-99741645D01*
X121634838Y-99680329D01*
X121545796Y-99598554D01*
X121444272Y-99502351D01*
X121336394Y-99397751D01*
X121228295Y-99290786D01*
X121126103Y-99187485D01*
X121035950Y-99093882D01*
X120963964Y-99016006D01*
X120916278Y-98959889D01*
X120899020Y-98931562D01*
X120900015Y-98926172D01*
X120920555Y-98882304D01*
X120964434Y-98806407D01*
X121027412Y-98705336D01*
X121105247Y-98585948D01*
X121193701Y-98455098D01*
X121218509Y-98419005D01*
X121305618Y-98292000D01*
X121382347Y-98179718D01*
X121444224Y-98088730D01*
X121486777Y-98025606D01*
X121505534Y-97996917D01*
X121505995Y-97995687D01*
X121500459Y-97960588D01*
X121479320Y-97889484D01*
X121446005Y-97791310D01*
X121403945Y-97675002D01*
X121356570Y-97549493D01*
X121307308Y-97423718D01*
X121259589Y-97306612D01*
X121216842Y-97207110D01*
X121182497Y-97134145D01*
X121159983Y-97096653D01*
X121157728Y-97094325D01*
X121141608Y-97082549D01*
X121114383Y-97070673D01*
X121070633Y-97057481D01*
X121004935Y-97041754D01*
X120911870Y-97022274D01*
X120786016Y-96997824D01*
X120621953Y-96967186D01*
X120414259Y-96929143D01*
X120371181Y-96921136D01*
X120247777Y-96896384D01*
X120143972Y-96872933D01*
X120069601Y-96853110D01*
X120034504Y-96839245D01*
X120028632Y-96827677D01*
X120018842Y-96772110D01*
X120011085Y-96679990D01*
X120005365Y-96559951D01*
X120001689Y-96420622D01*
X120000062Y-96270635D01*
X120000491Y-96118621D01*
X120002982Y-95973212D01*
X120007540Y-95843037D01*
X120014171Y-95736730D01*
X120022881Y-95662919D01*
X120033677Y-95630238D01*
X120044699Y-95625410D01*
X120099531Y-95610191D01*
X120192213Y-95588666D01*
X120315351Y-95562439D01*
X120461548Y-95533114D01*
X120623406Y-95502296D01*
X120711784Y-95485831D01*
X120863259Y-95457279D01*
X120993640Y-95432277D01*
X121095954Y-95412185D01*
X121163228Y-95398362D01*
X121188489Y-95392165D01*
X121189438Y-95390888D01*
X121205526Y-95358437D01*
X121236194Y-95290452D01*
X121277611Y-95195954D01*
X121325941Y-95083964D01*
X121377354Y-94963500D01*
X121428014Y-94843584D01*
X121474089Y-94733235D01*
X121511746Y-94641473D01*
X121537151Y-94577319D01*
X121546471Y-94549792D01*
X121542360Y-94540106D01*
X121515000Y-94494018D01*
X121465370Y-94416440D01*
X121397460Y-94313461D01*
X121315255Y-94191167D01*
X121222746Y-94055646D01*
X121171991Y-93981429D01*
X121084403Y-93851309D01*
X121009306Y-93737112D01*
X120950707Y-93645066D01*
X120912609Y-93581398D01*
X120899020Y-93552337D01*
X120908462Y-93536573D01*
X120947960Y-93489471D01*
X121012758Y-93418186D01*
X121096909Y-93328760D01*
X121194464Y-93227232D01*
X121299474Y-93119643D01*
X121405993Y-93012034D01*
X121508071Y-92910445D01*
X121599760Y-92820917D01*
X121675112Y-92749489D01*
X121728180Y-92702203D01*
X121753014Y-92685098D01*
X121766799Y-92691749D01*
X121817418Y-92722592D01*
X121899105Y-92775083D01*
X122005972Y-92845375D01*
X122132132Y-92929622D01*
X122271698Y-93023978D01*
X122770056Y-93362857D01*
X123185469Y-93191610D01*
X123600883Y-93020363D01*
X123713465Y-92423172D01*
X123826048Y-91825980D01*
X125069051Y-91825980D01*
X125181634Y-92423172D01*
G37*
X124655810Y-100677820D02*
X124799629Y-100713866D01*
X124904691Y-100780677D01*
X124971594Y-100878702D01*
X125000940Y-101008387D01*
X124994999Y-101132544D01*
X124952114Y-101237266D01*
X124869876Y-101314693D01*
X124746635Y-101366337D01*
X124580744Y-101393710D01*
X124472952Y-101408057D01*
X124374566Y-101439099D01*
X124323771Y-101484053D01*
X124320704Y-101542838D01*
X124341146Y-101579493D01*
X124404454Y-101622935D01*
X124494449Y-101643483D01*
X124599913Y-101640673D01*
X124709626Y-101614042D01*
X124812368Y-101563128D01*
X124914804Y-101495339D01*
X125004902Y-101586508D01*
X125095000Y-101677676D01*
X125020295Y-101738655D01*
X124991246Y-101759842D01*
X124909517Y-101807978D01*
X124821079Y-101849457D01*
X124751087Y-101873262D01*
X124648602Y-101890504D01*
X124522255Y-101890732D01*
X124367318Y-101871748D01*
X124227745Y-101823630D01*
X124128950Y-101747195D01*
X124070701Y-101642254D01*
X124052762Y-101508617D01*
X124065747Y-101391054D01*
X124107431Y-101294803D01*
X124182477Y-101225873D01*
X124295635Y-101180030D01*
X124451654Y-101153042D01*
X124469574Y-101151088D01*
X124566714Y-101138630D01*
X124645514Y-101125592D01*
X124690344Y-101114499D01*
X124705304Y-101105567D01*
X124730596Y-101059509D01*
X124726488Y-101000553D01*
X124692688Y-100949373D01*
X124674939Y-100938210D01*
X124600981Y-100920326D01*
X124505451Y-100921529D01*
X124405836Y-100940561D01*
X124319621Y-100976168D01*
X124229031Y-101029618D01*
X124158763Y-100947505D01*
X124141712Y-100926644D01*
X124103298Y-100870761D01*
X124087483Y-100832887D01*
X124104090Y-100809664D01*
X124155469Y-100773412D01*
X124229657Y-100734402D01*
X124240110Y-100729633D01*
X124337941Y-100692229D01*
X124432241Y-100674345D01*
X124549262Y-100670754D01*
X124655810Y-100677820D01*
G36*
X124655810Y-100677820D02*
G01*
X124799629Y-100713866D01*
X124904691Y-100780677D01*
X124971594Y-100878702D01*
X125000940Y-101008387D01*
X124994999Y-101132544D01*
X124952114Y-101237266D01*
X124869876Y-101314693D01*
X124746635Y-101366337D01*
X124580744Y-101393710D01*
X124472952Y-101408057D01*
X124374566Y-101439099D01*
X124323771Y-101484053D01*
X124320704Y-101542838D01*
X124341146Y-101579493D01*
X124404454Y-101622935D01*
X124494449Y-101643483D01*
X124599913Y-101640673D01*
X124709626Y-101614042D01*
X124812368Y-101563128D01*
X124914804Y-101495339D01*
X125004902Y-101586508D01*
X125095000Y-101677676D01*
X125020295Y-101738655D01*
X124991246Y-101759842D01*
X124909517Y-101807978D01*
X124821079Y-101849457D01*
X124751087Y-101873262D01*
X124648602Y-101890504D01*
X124522255Y-101890732D01*
X124367318Y-101871748D01*
X124227745Y-101823630D01*
X124128950Y-101747195D01*
X124070701Y-101642254D01*
X124052762Y-101508617D01*
X124065747Y-101391054D01*
X124107431Y-101294803D01*
X124182477Y-101225873D01*
X124295635Y-101180030D01*
X124451654Y-101153042D01*
X124469574Y-101151088D01*
X124566714Y-101138630D01*
X124645514Y-101125592D01*
X124690344Y-101114499D01*
X124705304Y-101105567D01*
X124730596Y-101059509D01*
X124726488Y-101000553D01*
X124692688Y-100949373D01*
X124674939Y-100938210D01*
X124600981Y-100920326D01*
X124505451Y-100921529D01*
X124405836Y-100940561D01*
X124319621Y-100976168D01*
X124229031Y-101029618D01*
X124158763Y-100947505D01*
X124141712Y-100926644D01*
X124103298Y-100870761D01*
X124087483Y-100832887D01*
X124104090Y-100809664D01*
X124155469Y-100773412D01*
X124229657Y-100734402D01*
X124240110Y-100729633D01*
X124337941Y-100692229D01*
X124432241Y-100674345D01*
X124549262Y-100670754D01*
X124655810Y-100677820D01*
G37*
X127841123Y-103434559D02*
X127840841Y-103437844D01*
X127810497Y-103565772D01*
X127743002Y-103661986D01*
X127635000Y-103731318D01*
X127579189Y-103748186D01*
X127483593Y-103761333D01*
X127379055Y-103764472D01*
X127284738Y-103757237D01*
X127219808Y-103739262D01*
X127180370Y-103724864D01*
X127141758Y-103739262D01*
X127127634Y-103747604D01*
X127071261Y-103761131D01*
X126995020Y-103766471D01*
X126875491Y-103766471D01*
X126875491Y-103339278D01*
X127149412Y-103339278D01*
X127158619Y-103412143D01*
X127194951Y-103476239D01*
X127215744Y-103490110D01*
X127289958Y-103511731D01*
X127382610Y-103517129D01*
X127473468Y-103506162D01*
X127542303Y-103478686D01*
X127576595Y-103442358D01*
X127597647Y-103377808D01*
X127578977Y-103326639D01*
X127517259Y-103282148D01*
X127418047Y-103253605D01*
X127287173Y-103243530D01*
X127149412Y-103243530D01*
X127149412Y-103339278D01*
X126875491Y-103339278D01*
X126875491Y-103284565D01*
X126875500Y-103242890D01*
X126875954Y-103085810D01*
X126877658Y-102969029D01*
X126881385Y-102884788D01*
X126887911Y-102825329D01*
X126898008Y-102782891D01*
X126912452Y-102749716D01*
X126932016Y-102718045D01*
X126994949Y-102643837D01*
X127084130Y-102587180D01*
X127201280Y-102555922D01*
X127355653Y-102546313D01*
X127360671Y-102546323D01*
X127467980Y-102551170D01*
X127564028Y-102563252D01*
X127629575Y-102580191D01*
X127647545Y-102588679D01*
X127704740Y-102624627D01*
X127756499Y-102667352D01*
X127790553Y-102705800D01*
X127794635Y-102728916D01*
X127786669Y-102735164D01*
X127699875Y-102801855D01*
X127641839Y-102841188D01*
X127603465Y-102857057D01*
X127575659Y-102853359D01*
X127549327Y-102833990D01*
X127500730Y-102809809D01*
X127418833Y-102793687D01*
X127326273Y-102789505D01*
X127242519Y-102798015D01*
X127187035Y-102819972D01*
X127184116Y-102822644D01*
X127159183Y-102872836D01*
X127149412Y-102947755D01*
X127149412Y-103044314D01*
X127379755Y-103044407D01*
X127485565Y-103046082D01*
X127574632Y-103053368D01*
X127638345Y-103068357D01*
X127689821Y-103093110D01*
X127701800Y-103100712D01*
X127788466Y-103184282D01*
X127834564Y-103294790D01*
X127838460Y-103377808D01*
X127841123Y-103434559D01*
G36*
X127841123Y-103434559D02*
G01*
X127840841Y-103437844D01*
X127810497Y-103565772D01*
X127743002Y-103661986D01*
X127635000Y-103731318D01*
X127579189Y-103748186D01*
X127483593Y-103761333D01*
X127379055Y-103764472D01*
X127284738Y-103757237D01*
X127219808Y-103739262D01*
X127180370Y-103724864D01*
X127141758Y-103739262D01*
X127127634Y-103747604D01*
X127071261Y-103761131D01*
X126995020Y-103766471D01*
X126875491Y-103766471D01*
X126875491Y-103339278D01*
X127149412Y-103339278D01*
X127158619Y-103412143D01*
X127194951Y-103476239D01*
X127215744Y-103490110D01*
X127289958Y-103511731D01*
X127382610Y-103517129D01*
X127473468Y-103506162D01*
X127542303Y-103478686D01*
X127576595Y-103442358D01*
X127597647Y-103377808D01*
X127578977Y-103326639D01*
X127517259Y-103282148D01*
X127418047Y-103253605D01*
X127287173Y-103243530D01*
X127149412Y-103243530D01*
X127149412Y-103339278D01*
X126875491Y-103339278D01*
X126875491Y-103284565D01*
X126875500Y-103242890D01*
X126875954Y-103085810D01*
X126877658Y-102969029D01*
X126881385Y-102884788D01*
X126887911Y-102825329D01*
X126898008Y-102782891D01*
X126912452Y-102749716D01*
X126932016Y-102718045D01*
X126994949Y-102643837D01*
X127084130Y-102587180D01*
X127201280Y-102555922D01*
X127355653Y-102546313D01*
X127360671Y-102546323D01*
X127467980Y-102551170D01*
X127564028Y-102563252D01*
X127629575Y-102580191D01*
X127647545Y-102588679D01*
X127704740Y-102624627D01*
X127756499Y-102667352D01*
X127790553Y-102705800D01*
X127794635Y-102728916D01*
X127786669Y-102735164D01*
X127699875Y-102801855D01*
X127641839Y-102841188D01*
X127603465Y-102857057D01*
X127575659Y-102853359D01*
X127549327Y-102833990D01*
X127500730Y-102809809D01*
X127418833Y-102793687D01*
X127326273Y-102789505D01*
X127242519Y-102798015D01*
X127187035Y-102819972D01*
X127184116Y-102822644D01*
X127159183Y-102872836D01*
X127149412Y-102947755D01*
X127149412Y-103044314D01*
X127379755Y-103044407D01*
X127485565Y-103046082D01*
X127574632Y-103053368D01*
X127638345Y-103068357D01*
X127689821Y-103093110D01*
X127701800Y-103100712D01*
X127788466Y-103184282D01*
X127834564Y-103294790D01*
X127838460Y-103377808D01*
X127841123Y-103434559D01*
G37*
X126626471Y-103766471D02*
X126377451Y-103766471D01*
X126377451Y-103382111D01*
X126377176Y-103292706D01*
X126374344Y-103144629D01*
X126367176Y-103035003D01*
X126354116Y-102956252D01*
X126333608Y-102900798D01*
X126304098Y-102861061D01*
X126264031Y-102829465D01*
X126220290Y-102805921D01*
X126168496Y-102799246D01*
X126094831Y-102814090D01*
X126071159Y-102820271D01*
X126012069Y-102829572D01*
X125969818Y-102816245D01*
X125920848Y-102774996D01*
X125911555Y-102766026D01*
X125860179Y-102710534D01*
X125827047Y-102665415D01*
X125822502Y-102654545D01*
X125831508Y-102614409D01*
X125877174Y-102582320D01*
X125949246Y-102559799D01*
X126037471Y-102548367D01*
X126131594Y-102549544D01*
X126221362Y-102564850D01*
X126296520Y-102595806D01*
X126320343Y-102610260D01*
X126360449Y-102631417D01*
X126375296Y-102626572D01*
X126377451Y-102595712D01*
X126377957Y-102584633D01*
X126389970Y-102560091D01*
X126427236Y-102548921D01*
X126501961Y-102546275D01*
X126626471Y-102546275D01*
X126626471Y-103766471D01*
G36*
X126626471Y-103766471D02*
G01*
X126377451Y-103766471D01*
X126377451Y-103382111D01*
X126377176Y-103292706D01*
X126374344Y-103144629D01*
X126367176Y-103035003D01*
X126354116Y-102956252D01*
X126333608Y-102900798D01*
X126304098Y-102861061D01*
X126264031Y-102829465D01*
X126220290Y-102805921D01*
X126168496Y-102799246D01*
X126094831Y-102814090D01*
X126071159Y-102820271D01*
X126012069Y-102829572D01*
X125969818Y-102816245D01*
X125920848Y-102774996D01*
X125911555Y-102766026D01*
X125860179Y-102710534D01*
X125827047Y-102665415D01*
X125822502Y-102654545D01*
X125831508Y-102614409D01*
X125877174Y-102582320D01*
X125949246Y-102559799D01*
X126037471Y-102548367D01*
X126131594Y-102549544D01*
X126221362Y-102564850D01*
X126296520Y-102595806D01*
X126320343Y-102610260D01*
X126360449Y-102631417D01*
X126375296Y-102626572D01*
X126377451Y-102595712D01*
X126377957Y-102584633D01*
X126389970Y-102560091D01*
X126427236Y-102548921D01*
X126501961Y-102546275D01*
X126626471Y-102546275D01*
X126626471Y-103766471D01*
G37*
X121067842Y-100669381D02*
X121128889Y-100688439D01*
X121204069Y-100720115D01*
X121240469Y-100737138D01*
X121266740Y-100740215D01*
X121272549Y-100716620D01*
X121272555Y-100715952D01*
X121284856Y-100693426D01*
X121327281Y-100681879D01*
X121409510Y-100678628D01*
X121546471Y-100678628D01*
X121546471Y-101873922D01*
X121272549Y-101873922D01*
X121272549Y-101049779D01*
X121204454Y-100986670D01*
X121183180Y-100968735D01*
X121119811Y-100938091D01*
X121041776Y-100936863D01*
X120935520Y-100963903D01*
X120899701Y-100965615D01*
X120857683Y-100939383D01*
X120801757Y-100877035D01*
X120774628Y-100842547D01*
X120742543Y-100793852D01*
X120737599Y-100762855D01*
X120755563Y-100736707D01*
X120810710Y-100703641D01*
X120896363Y-100677472D01*
X120989292Y-100664496D01*
X121067842Y-100669381D01*
G36*
X121067842Y-100669381D02*
G01*
X121128889Y-100688439D01*
X121204069Y-100720115D01*
X121240469Y-100737138D01*
X121266740Y-100740215D01*
X121272549Y-100716620D01*
X121272555Y-100715952D01*
X121284856Y-100693426D01*
X121327281Y-100681879D01*
X121409510Y-100678628D01*
X121546471Y-100678628D01*
X121546471Y-101873922D01*
X121272549Y-101873922D01*
X121272549Y-101049779D01*
X121204454Y-100986670D01*
X121183180Y-100968735D01*
X121119811Y-100938091D01*
X121041776Y-100936863D01*
X120935520Y-100963903D01*
X120899701Y-100965615D01*
X120857683Y-100939383D01*
X120801757Y-100877035D01*
X120774628Y-100842547D01*
X120742543Y-100793852D01*
X120737599Y-100762855D01*
X120755563Y-100736707D01*
X120810710Y-100703641D01*
X120896363Y-100677472D01*
X120989292Y-100664496D01*
X121067842Y-100669381D01*
G37*
X122044510Y-101066245D02*
X122046611Y-101240624D01*
X122054833Y-101381460D01*
X122071491Y-101483825D01*
X122098891Y-101553458D01*
X122139343Y-101596093D01*
X122195152Y-101617468D01*
X122268628Y-101623318D01*
X122338783Y-101618097D01*
X122395443Y-101597659D01*
X122436626Y-101556254D01*
X122464640Y-101488147D01*
X122481793Y-101387600D01*
X122490392Y-101248879D01*
X122492746Y-101066245D01*
X122492746Y-100678628D01*
X122741765Y-100678628D01*
X122741765Y-101145928D01*
X122741338Y-101270659D01*
X122738018Y-101431955D01*
X122729687Y-101554965D01*
X122714326Y-101646729D01*
X122689919Y-101714291D01*
X122654447Y-101764691D01*
X122605892Y-101804971D01*
X122542235Y-101842174D01*
X122408562Y-101889270D01*
X122269055Y-101892342D01*
X122137524Y-101848971D01*
X122080135Y-101820857D01*
X122051664Y-101816654D01*
X122044510Y-101836520D01*
X122032632Y-101858826D01*
X121990116Y-101870576D01*
X121907549Y-101873922D01*
X121770589Y-101873922D01*
X121770589Y-100678628D01*
X122044510Y-100678628D01*
X122044510Y-101066245D01*
G36*
X122044510Y-101066245D02*
G01*
X122046611Y-101240624D01*
X122054833Y-101381460D01*
X122071491Y-101483825D01*
X122098891Y-101553458D01*
X122139343Y-101596093D01*
X122195152Y-101617468D01*
X122268628Y-101623318D01*
X122338783Y-101618097D01*
X122395443Y-101597659D01*
X122436626Y-101556254D01*
X122464640Y-101488147D01*
X122481793Y-101387600D01*
X122490392Y-101248879D01*
X122492746Y-101066245D01*
X122492746Y-100678628D01*
X122741765Y-100678628D01*
X122741765Y-101145928D01*
X122741338Y-101270659D01*
X122738018Y-101431955D01*
X122729687Y-101554965D01*
X122714326Y-101646729D01*
X122689919Y-101714291D01*
X122654447Y-101764691D01*
X122605892Y-101804971D01*
X122542235Y-101842174D01*
X122408562Y-101889270D01*
X122269055Y-101892342D01*
X122137524Y-101848971D01*
X122080135Y-101820857D01*
X122051664Y-101816654D01*
X122044510Y-101836520D01*
X122032632Y-101858826D01*
X121990116Y-101870576D01*
X121907549Y-101873922D01*
X121770589Y-101873922D01*
X121770589Y-100678628D01*
X122044510Y-100678628D01*
X122044510Y-101066245D01*
G37*
X125827979Y-103249570D02*
X125824822Y-103356032D01*
X125818474Y-103430192D01*
X125817386Y-103436989D01*
X125774660Y-103558555D01*
X125696634Y-103661619D01*
X125594274Y-103731444D01*
X125484354Y-103760346D01*
X125349151Y-103758103D01*
X125224776Y-103719351D01*
X125192379Y-103702998D01*
X125150720Y-103685475D01*
X125134867Y-103690927D01*
X125132353Y-103719351D01*
X125131199Y-103733525D01*
X125116292Y-103754488D01*
X125074889Y-103764140D01*
X124995393Y-103766471D01*
X124858432Y-103766471D01*
X124858432Y-103168607D01*
X125132353Y-103168607D01*
X125134316Y-103272181D01*
X125142283Y-103341138D01*
X125159292Y-103388379D01*
X125188383Y-103427968D01*
X125265196Y-103486831D01*
X125355086Y-103506564D01*
X125442254Y-103482162D01*
X125515669Y-103414090D01*
X125535075Y-103364278D01*
X125549410Y-103276070D01*
X125555711Y-103169052D01*
X125553726Y-103059284D01*
X125543199Y-102962827D01*
X125523876Y-102895743D01*
X125517703Y-102884742D01*
X125458193Y-102829453D01*
X125377546Y-102804959D01*
X125290933Y-102810656D01*
X125213522Y-102845940D01*
X125160486Y-102910208D01*
X125158294Y-102915613D01*
X125145143Y-102975921D01*
X125135866Y-103066039D01*
X125132353Y-103168607D01*
X124858432Y-103168607D01*
X124858432Y-102073137D01*
X125132353Y-102073137D01*
X125132353Y-102653601D01*
X125183090Y-102607685D01*
X125231942Y-102579146D01*
X125324402Y-102555290D01*
X125432485Y-102547603D01*
X125538036Y-102557040D01*
X125622900Y-102584557D01*
X125683641Y-102623699D01*
X125746207Y-102690379D01*
X125788315Y-102780053D01*
X125813627Y-102901355D01*
X125825806Y-103062918D01*
X125827596Y-103128225D01*
X125827725Y-103169052D01*
X125827979Y-103249570D01*
G36*
X125827979Y-103249570D02*
G01*
X125824822Y-103356032D01*
X125818474Y-103430192D01*
X125817386Y-103436989D01*
X125774660Y-103558555D01*
X125696634Y-103661619D01*
X125594274Y-103731444D01*
X125484354Y-103760346D01*
X125349151Y-103758103D01*
X125224776Y-103719351D01*
X125192379Y-103702998D01*
X125150720Y-103685475D01*
X125134867Y-103690927D01*
X125132353Y-103719351D01*
X125131199Y-103733525D01*
X125116292Y-103754488D01*
X125074889Y-103764140D01*
X124995393Y-103766471D01*
X124858432Y-103766471D01*
X124858432Y-103168607D01*
X125132353Y-103168607D01*
X125134316Y-103272181D01*
X125142283Y-103341138D01*
X125159292Y-103388379D01*
X125188383Y-103427968D01*
X125265196Y-103486831D01*
X125355086Y-103506564D01*
X125442254Y-103482162D01*
X125515669Y-103414090D01*
X125535075Y-103364278D01*
X125549410Y-103276070D01*
X125555711Y-103169052D01*
X125553726Y-103059284D01*
X125543199Y-102962827D01*
X125523876Y-102895743D01*
X125517703Y-102884742D01*
X125458193Y-102829453D01*
X125377546Y-102804959D01*
X125290933Y-102810656D01*
X125213522Y-102845940D01*
X125160486Y-102910208D01*
X125158294Y-102915613D01*
X125145143Y-102975921D01*
X125135866Y-103066039D01*
X125132353Y-103168607D01*
X124858432Y-103168607D01*
X124858432Y-102073137D01*
X125132353Y-102073137D01*
X125132353Y-102653601D01*
X125183090Y-102607685D01*
X125231942Y-102579146D01*
X125324402Y-102555290D01*
X125432485Y-102547603D01*
X125538036Y-102557040D01*
X125622900Y-102584557D01*
X125683641Y-102623699D01*
X125746207Y-102690379D01*
X125788315Y-102780053D01*
X125813627Y-102901355D01*
X125825806Y-103062918D01*
X125827596Y-103128225D01*
X125827725Y-103169052D01*
X125827979Y-103249570D01*
G37*
X121430525Y-102562675D02*
X121505760Y-102597886D01*
X121571373Y-102649497D01*
X121571373Y-102597886D01*
X121573008Y-102578290D01*
X121588221Y-102557513D01*
X121629362Y-102548337D01*
X121708334Y-102546275D01*
X121845295Y-102546275D01*
X121845295Y-103766471D01*
X121571373Y-103766471D01*
X121571373Y-103369211D01*
X121571340Y-103346405D01*
X121569003Y-103186089D01*
X121563268Y-103055500D01*
X121554544Y-102961314D01*
X121543241Y-102910208D01*
X121532862Y-102890915D01*
X121468968Y-102830406D01*
X121381937Y-102803622D01*
X121286904Y-102816117D01*
X121263594Y-102824586D01*
X121213937Y-102839555D01*
X121179999Y-102834907D01*
X121145850Y-102804479D01*
X121095559Y-102742111D01*
X121013992Y-102639123D01*
X121071323Y-102592699D01*
X121125823Y-102564755D01*
X121221554Y-102545883D01*
X121329456Y-102545265D01*
X121430525Y-102562675D01*
G36*
X121430525Y-102562675D02*
G01*
X121505760Y-102597886D01*
X121571373Y-102649497D01*
X121571373Y-102597886D01*
X121573008Y-102578290D01*
X121588221Y-102557513D01*
X121629362Y-102548337D01*
X121708334Y-102546275D01*
X121845295Y-102546275D01*
X121845295Y-103766471D01*
X121571373Y-103766471D01*
X121571373Y-103369211D01*
X121571340Y-103346405D01*
X121569003Y-103186089D01*
X121563268Y-103055500D01*
X121554544Y-102961314D01*
X121543241Y-102910208D01*
X121532862Y-102890915D01*
X121468968Y-102830406D01*
X121381937Y-102803622D01*
X121286904Y-102816117D01*
X121263594Y-102824586D01*
X121213937Y-102839555D01*
X121179999Y-102834907D01*
X121145850Y-102804479D01*
X121095559Y-102742111D01*
X121013992Y-102639123D01*
X121071323Y-102592699D01*
X121125823Y-102564755D01*
X121221554Y-102545883D01*
X121329456Y-102545265D01*
X121430525Y-102562675D01*
G37*
X127840573Y-101126685D02*
X127849286Y-101301108D01*
X127847109Y-101377224D01*
X127822559Y-101543570D01*
X127768460Y-101674728D01*
X127681982Y-101776101D01*
X127560295Y-101853096D01*
X127442249Y-101889039D01*
X127294161Y-101895915D01*
X127144748Y-101869468D01*
X127011472Y-101811037D01*
X126962083Y-101778532D01*
X126907668Y-101736868D01*
X126882840Y-101709452D01*
X126884247Y-101698140D01*
X126912039Y-101659597D01*
X126964272Y-101612901D01*
X127054791Y-101543858D01*
X127160858Y-101596831D01*
X127189540Y-101609943D01*
X127273971Y-101638441D01*
X127344737Y-101649804D01*
X127396919Y-101640441D01*
X127478806Y-101595351D01*
X127547637Y-101525355D01*
X127587007Y-101444363D01*
X127603047Y-101375882D01*
X126850589Y-101375882D01*
X126850728Y-101245147D01*
X126851867Y-101203713D01*
X126860182Y-101114805D01*
X127124510Y-101114805D01*
X127124995Y-101119899D01*
X127138687Y-101135760D01*
X127177378Y-101145505D01*
X127249317Y-101150413D01*
X127362757Y-101151765D01*
X127400042Y-101151749D01*
X127496873Y-101150854D01*
X127555083Y-101146988D01*
X127583306Y-101137968D01*
X127590173Y-101121611D01*
X127584317Y-101095735D01*
X127583423Y-101092802D01*
X127532973Y-101002759D01*
X127453442Y-100940766D01*
X127358603Y-100917686D01*
X127323547Y-100919532D01*
X127258481Y-100941611D01*
X127196061Y-100997766D01*
X127179247Y-101017621D01*
X127140137Y-101074326D01*
X127124510Y-101114805D01*
X126860182Y-101114805D01*
X126861251Y-101103376D01*
X126876988Y-101020349D01*
X126894236Y-100973868D01*
X126954879Y-100872769D01*
X127036094Y-100780951D01*
X127121981Y-100718037D01*
X127146796Y-100706354D01*
X127291290Y-100667600D01*
X127438842Y-100671686D01*
X127577567Y-100716882D01*
X127695579Y-100801461D01*
X127759410Y-100879461D01*
X127811601Y-100989343D01*
X127839503Y-101121611D01*
X127840573Y-101126685D01*
G36*
X127840573Y-101126685D02*
G01*
X127849286Y-101301108D01*
X127847109Y-101377224D01*
X127822559Y-101543570D01*
X127768460Y-101674728D01*
X127681982Y-101776101D01*
X127560295Y-101853096D01*
X127442249Y-101889039D01*
X127294161Y-101895915D01*
X127144748Y-101869468D01*
X127011472Y-101811037D01*
X126962083Y-101778532D01*
X126907668Y-101736868D01*
X126882840Y-101709452D01*
X126884247Y-101698140D01*
X126912039Y-101659597D01*
X126964272Y-101612901D01*
X127054791Y-101543858D01*
X127160858Y-101596831D01*
X127189540Y-101609943D01*
X127273971Y-101638441D01*
X127344737Y-101649804D01*
X127396919Y-101640441D01*
X127478806Y-101595351D01*
X127547637Y-101525355D01*
X127587007Y-101444363D01*
X127603047Y-101375882D01*
X126850589Y-101375882D01*
X126850728Y-101245147D01*
X126851867Y-101203713D01*
X126860182Y-101114805D01*
X127124510Y-101114805D01*
X127124995Y-101119899D01*
X127138687Y-101135760D01*
X127177378Y-101145505D01*
X127249317Y-101150413D01*
X127362757Y-101151765D01*
X127400042Y-101151749D01*
X127496873Y-101150854D01*
X127555083Y-101146988D01*
X127583306Y-101137968D01*
X127590173Y-101121611D01*
X127584317Y-101095735D01*
X127583423Y-101092802D01*
X127532973Y-101002759D01*
X127453442Y-100940766D01*
X127358603Y-100917686D01*
X127323547Y-100919532D01*
X127258481Y-100941611D01*
X127196061Y-100997766D01*
X127179247Y-101017621D01*
X127140137Y-101074326D01*
X127124510Y-101114805D01*
X126860182Y-101114805D01*
X126861251Y-101103376D01*
X126876988Y-101020349D01*
X126894236Y-100973868D01*
X126954879Y-100872769D01*
X127036094Y-100780951D01*
X127121981Y-100718037D01*
X127146796Y-100706354D01*
X127291290Y-100667600D01*
X127438842Y-100671686D01*
X127577567Y-100716882D01*
X127695579Y-100801461D01*
X127759410Y-100879461D01*
X127811601Y-100989343D01*
X127839503Y-101121611D01*
X127840573Y-101126685D01*
G37*
X123930953Y-101362173D02*
X123924005Y-101440982D01*
X123893299Y-101591438D01*
X123838376Y-101706246D01*
X123754780Y-101792966D01*
X123638058Y-101859155D01*
X123592739Y-101874908D01*
X123475373Y-101894562D01*
X123351866Y-101894027D01*
X123247651Y-101872439D01*
X123245603Y-101871655D01*
X123161618Y-101822251D01*
X123076770Y-101745770D01*
X123006366Y-101658311D01*
X122965714Y-101575969D01*
X122953663Y-101515779D01*
X122943346Y-101403084D01*
X122941617Y-101302632D01*
X123192502Y-101302632D01*
X123207500Y-101423119D01*
X123242735Y-101522123D01*
X123296117Y-101586815D01*
X123316350Y-101597922D01*
X123393506Y-101618111D01*
X123482749Y-101622265D01*
X123557828Y-101608235D01*
X123587132Y-101588116D01*
X123628264Y-101517760D01*
X123654146Y-101407645D01*
X123663138Y-101263145D01*
X123662994Y-101221549D01*
X123659870Y-101137264D01*
X123649482Y-101082281D01*
X123627688Y-101041655D01*
X123590347Y-101000437D01*
X123519293Y-100950481D01*
X123426791Y-100930057D01*
X123337418Y-100949509D01*
X123263210Y-101005771D01*
X123216201Y-101095775D01*
X123199828Y-101173494D01*
X123192502Y-101302632D01*
X122941617Y-101302632D01*
X122941137Y-101274738D01*
X122946672Y-101146993D01*
X122959588Y-101036101D01*
X122979522Y-100958315D01*
X123025953Y-100870245D01*
X123124498Y-100761959D01*
X123250453Y-100693364D01*
X123400074Y-100666213D01*
X123569615Y-100682259D01*
X123597825Y-100689094D01*
X123729201Y-100748040D01*
X123828198Y-100844814D01*
X123894820Y-100979423D01*
X123929070Y-101151874D01*
X123930067Y-101263145D01*
X123930953Y-101362173D01*
G36*
X123930953Y-101362173D02*
G01*
X123924005Y-101440982D01*
X123893299Y-101591438D01*
X123838376Y-101706246D01*
X123754780Y-101792966D01*
X123638058Y-101859155D01*
X123592739Y-101874908D01*
X123475373Y-101894562D01*
X123351866Y-101894027D01*
X123247651Y-101872439D01*
X123245603Y-101871655D01*
X123161618Y-101822251D01*
X123076770Y-101745770D01*
X123006366Y-101658311D01*
X122965714Y-101575969D01*
X122953663Y-101515779D01*
X122943346Y-101403084D01*
X122941617Y-101302632D01*
X123192502Y-101302632D01*
X123207500Y-101423119D01*
X123242735Y-101522123D01*
X123296117Y-101586815D01*
X123316350Y-101597922D01*
X123393506Y-101618111D01*
X123482749Y-101622265D01*
X123557828Y-101608235D01*
X123587132Y-101588116D01*
X123628264Y-101517760D01*
X123654146Y-101407645D01*
X123663138Y-101263145D01*
X123662994Y-101221549D01*
X123659870Y-101137264D01*
X123649482Y-101082281D01*
X123627688Y-101041655D01*
X123590347Y-101000437D01*
X123519293Y-100950481D01*
X123426791Y-100930057D01*
X123337418Y-100949509D01*
X123263210Y-101005771D01*
X123216201Y-101095775D01*
X123199828Y-101173494D01*
X123192502Y-101302632D01*
X122941617Y-101302632D01*
X122941137Y-101274738D01*
X122946672Y-101146993D01*
X122959588Y-101036101D01*
X122979522Y-100958315D01*
X123025953Y-100870245D01*
X123124498Y-100761959D01*
X123250453Y-100693364D01*
X123400074Y-100666213D01*
X123569615Y-100682259D01*
X123597825Y-100689094D01*
X123729201Y-100748040D01*
X123828198Y-100844814D01*
X123894820Y-100979423D01*
X123929070Y-101151874D01*
X123930067Y-101263145D01*
X123930953Y-101362173D01*
G37*
X126207906Y-100676271D02*
X126321422Y-100711937D01*
X126371473Y-100736177D01*
X126396646Y-100738681D01*
X126402353Y-100716620D01*
X126402359Y-100715952D01*
X126414660Y-100693426D01*
X126457084Y-100681879D01*
X126539314Y-100678628D01*
X126676275Y-100678628D01*
X126676275Y-101873922D01*
X126402353Y-101873922D01*
X126402353Y-101461907D01*
X126402166Y-101322779D01*
X126400885Y-101208493D01*
X126397458Y-101128519D01*
X126390832Y-101074708D01*
X126379954Y-101038912D01*
X126363771Y-101012982D01*
X126341230Y-100988770D01*
X126310527Y-100963017D01*
X126222239Y-100928416D01*
X126129565Y-100938571D01*
X126044671Y-100993298D01*
X126020406Y-101018768D01*
X126002987Y-101044545D01*
X125991304Y-101078848D01*
X125984212Y-101129933D01*
X125980564Y-101206056D01*
X125979215Y-101315471D01*
X125979020Y-101466435D01*
X125979020Y-101873922D01*
X125705098Y-101873922D01*
X125705645Y-101431912D01*
X125705682Y-101412223D01*
X125708058Y-101224209D01*
X125715353Y-101078159D01*
X125729445Y-100966971D01*
X125752207Y-100883544D01*
X125785514Y-100820775D01*
X125831241Y-100771561D01*
X125891264Y-100728802D01*
X125953240Y-100699199D01*
X126078055Y-100672305D01*
X126207906Y-100676271D01*
G36*
X126207906Y-100676271D02*
G01*
X126321422Y-100711937D01*
X126371473Y-100736177D01*
X126396646Y-100738681D01*
X126402353Y-100716620D01*
X126402359Y-100715952D01*
X126414660Y-100693426D01*
X126457084Y-100681879D01*
X126539314Y-100678628D01*
X126676275Y-100678628D01*
X126676275Y-101873922D01*
X126402353Y-101873922D01*
X126402353Y-101461907D01*
X126402166Y-101322779D01*
X126400885Y-101208493D01*
X126397458Y-101128519D01*
X126390832Y-101074708D01*
X126379954Y-101038912D01*
X126363771Y-101012982D01*
X126341230Y-100988770D01*
X126310527Y-100963017D01*
X126222239Y-100928416D01*
X126129565Y-100938571D01*
X126044671Y-100993298D01*
X126020406Y-101018768D01*
X126002987Y-101044545D01*
X125991304Y-101078848D01*
X125984212Y-101129933D01*
X125980564Y-101206056D01*
X125979215Y-101315471D01*
X125979020Y-101466435D01*
X125979020Y-101873922D01*
X125705098Y-101873922D01*
X125705645Y-101431912D01*
X125705682Y-101412223D01*
X125708058Y-101224209D01*
X125715353Y-101078159D01*
X125729445Y-100966971D01*
X125752207Y-100883544D01*
X125785514Y-100820775D01*
X125831241Y-100771561D01*
X125891264Y-100728802D01*
X125953240Y-100699199D01*
X126078055Y-100672305D01*
X126207906Y-100676271D01*
G37*
X123052760Y-103438738D02*
X123022719Y-103551789D01*
X122957432Y-103648505D01*
X122858398Y-103718077D01*
X122848679Y-103722305D01*
X122740320Y-103752767D01*
X122618223Y-103764642D01*
X122502138Y-103757382D01*
X122411814Y-103730441D01*
X122375734Y-103712865D01*
X122349256Y-103708674D01*
X122343334Y-103730594D01*
X122332116Y-103750866D01*
X122288713Y-103762938D01*
X122204469Y-103766471D01*
X122065604Y-103766471D01*
X122072995Y-103330686D01*
X122343334Y-103330686D01*
X122352713Y-103395829D01*
X122393138Y-103467647D01*
X122408059Y-103480848D01*
X122469218Y-103508620D01*
X122561226Y-103515766D01*
X122616435Y-103512974D01*
X122719741Y-103491952D01*
X122783771Y-103452782D01*
X122805367Y-103398122D01*
X122781369Y-103330628D01*
X122767367Y-103312964D01*
X122704827Y-103273345D01*
X122605847Y-103250722D01*
X122464731Y-103243530D01*
X122343334Y-103243530D01*
X122343334Y-103330686D01*
X122072995Y-103330686D01*
X122073734Y-103287108D01*
X122075943Y-103176258D01*
X122081761Y-103010305D01*
X122091567Y-102883409D01*
X122107299Y-102788654D01*
X122130894Y-102719120D01*
X122164291Y-102667890D01*
X122209427Y-102628046D01*
X122268239Y-102592669D01*
X122298580Y-102579163D01*
X122403541Y-102553669D01*
X122530134Y-102543129D01*
X122661017Y-102547350D01*
X122778845Y-102566140D01*
X122866275Y-102599305D01*
X122896687Y-102618562D01*
X122966705Y-102675636D01*
X122990403Y-102723427D01*
X122984648Y-102732662D01*
X122948782Y-102764919D01*
X122890881Y-102807950D01*
X122861279Y-102828091D01*
X122810868Y-102856629D01*
X122778110Y-102859354D01*
X122747695Y-102839657D01*
X122671892Y-102799766D01*
X122569895Y-102783361D01*
X122465661Y-102795920D01*
X122463689Y-102796489D01*
X122390171Y-102828431D01*
X122353781Y-102878428D01*
X122343715Y-102961116D01*
X122343334Y-103039780D01*
X122603230Y-103048273D01*
X122644636Y-103049670D01*
X122749027Y-103054528D01*
X122819010Y-103062161D01*
X122866313Y-103075425D01*
X122902668Y-103097181D01*
X122939804Y-103130285D01*
X123001120Y-103206855D01*
X123046059Y-103320157D01*
X123050465Y-103398122D01*
X123052760Y-103438738D01*
G36*
X123052760Y-103438738D02*
G01*
X123022719Y-103551789D01*
X122957432Y-103648505D01*
X122858398Y-103718077D01*
X122848679Y-103722305D01*
X122740320Y-103752767D01*
X122618223Y-103764642D01*
X122502138Y-103757382D01*
X122411814Y-103730441D01*
X122375734Y-103712865D01*
X122349256Y-103708674D01*
X122343334Y-103730594D01*
X122332116Y-103750866D01*
X122288713Y-103762938D01*
X122204469Y-103766471D01*
X122065604Y-103766471D01*
X122072995Y-103330686D01*
X122343334Y-103330686D01*
X122352713Y-103395829D01*
X122393138Y-103467647D01*
X122408059Y-103480848D01*
X122469218Y-103508620D01*
X122561226Y-103515766D01*
X122616435Y-103512974D01*
X122719741Y-103491952D01*
X122783771Y-103452782D01*
X122805367Y-103398122D01*
X122781369Y-103330628D01*
X122767367Y-103312964D01*
X122704827Y-103273345D01*
X122605847Y-103250722D01*
X122464731Y-103243530D01*
X122343334Y-103243530D01*
X122343334Y-103330686D01*
X122072995Y-103330686D01*
X122073734Y-103287108D01*
X122075943Y-103176258D01*
X122081761Y-103010305D01*
X122091567Y-102883409D01*
X122107299Y-102788654D01*
X122130894Y-102719120D01*
X122164291Y-102667890D01*
X122209427Y-102628046D01*
X122268239Y-102592669D01*
X122298580Y-102579163D01*
X122403541Y-102553669D01*
X122530134Y-102543129D01*
X122661017Y-102547350D01*
X122778845Y-102566140D01*
X122866275Y-102599305D01*
X122896687Y-102618562D01*
X122966705Y-102675636D01*
X122990403Y-102723427D01*
X122984648Y-102732662D01*
X122948782Y-102764919D01*
X122890881Y-102807950D01*
X122861279Y-102828091D01*
X122810868Y-102856629D01*
X122778110Y-102859354D01*
X122747695Y-102839657D01*
X122671892Y-102799766D01*
X122569895Y-102783361D01*
X122465661Y-102795920D01*
X122463689Y-102796489D01*
X122390171Y-102828431D01*
X122353781Y-102878428D01*
X122343715Y-102961116D01*
X122343334Y-103039780D01*
X122603230Y-103048273D01*
X122644636Y-103049670D01*
X122749027Y-103054528D01*
X122819010Y-103062161D01*
X122866313Y-103075425D01*
X122902668Y-103097181D01*
X122939804Y-103130285D01*
X123001120Y-103206855D01*
X123046059Y-103320157D01*
X123050465Y-103398122D01*
X123052760Y-103438738D01*
G37*
X124129270Y-102937297D02*
X124162936Y-103037741D01*
X124202761Y-103148935D01*
X124236017Y-103233172D01*
X124259954Y-103283587D01*
X124271824Y-103293318D01*
X124274688Y-103284856D01*
X124290191Y-103232953D01*
X124314883Y-103146265D01*
X124346023Y-103034497D01*
X124380870Y-102907353D01*
X124475674Y-102558726D01*
X124620426Y-102551163D01*
X124632645Y-102550557D01*
X124710703Y-102549755D01*
X124748212Y-102557768D01*
X124752989Y-102576065D01*
X124746955Y-102593934D01*
X124727103Y-102655095D01*
X124696023Y-102751960D01*
X124655930Y-102877602D01*
X124609037Y-103025091D01*
X124557561Y-103187500D01*
X124374321Y-103766471D01*
X124145105Y-103766471D01*
X124037101Y-103399167D01*
X124017158Y-103331720D01*
X123980300Y-103209101D01*
X123948805Y-103106930D01*
X123925510Y-103034336D01*
X123913250Y-103000446D01*
X123909757Y-102997918D01*
X123892758Y-103019778D01*
X123868489Y-103077586D01*
X123840982Y-103162309D01*
X123839528Y-103167285D01*
X123802700Y-103292322D01*
X123760562Y-103433896D01*
X123721950Y-103562316D01*
X123659339Y-103769044D01*
X123428411Y-103754020D01*
X123321470Y-103417843D01*
X123274519Y-103270128D01*
X123221926Y-103104458D01*
X123171565Y-102945638D01*
X123129878Y-102813971D01*
X123045227Y-102546275D01*
X123328429Y-102546275D01*
X123397072Y-102801520D01*
X123415321Y-102868963D01*
X123449833Y-102994697D01*
X123481793Y-103109083D01*
X123506089Y-103193726D01*
X123546463Y-103330686D01*
X123675224Y-102944706D01*
X123803986Y-102558726D01*
X123902472Y-102551332D01*
X124000959Y-102543939D01*
X124129270Y-102937297D01*
G36*
X124129270Y-102937297D02*
G01*
X124162936Y-103037741D01*
X124202761Y-103148935D01*
X124236017Y-103233172D01*
X124259954Y-103283587D01*
X124271824Y-103293318D01*
X124274688Y-103284856D01*
X124290191Y-103232953D01*
X124314883Y-103146265D01*
X124346023Y-103034497D01*
X124380870Y-102907353D01*
X124475674Y-102558726D01*
X124620426Y-102551163D01*
X124632645Y-102550557D01*
X124710703Y-102549755D01*
X124748212Y-102557768D01*
X124752989Y-102576065D01*
X124746955Y-102593934D01*
X124727103Y-102655095D01*
X124696023Y-102751960D01*
X124655930Y-102877602D01*
X124609037Y-103025091D01*
X124557561Y-103187500D01*
X124374321Y-103766471D01*
X124145105Y-103766471D01*
X124037101Y-103399167D01*
X124017158Y-103331720D01*
X123980300Y-103209101D01*
X123948805Y-103106930D01*
X123925510Y-103034336D01*
X123913250Y-103000446D01*
X123909757Y-102997918D01*
X123892758Y-103019778D01*
X123868489Y-103077586D01*
X123840982Y-103162309D01*
X123839528Y-103167285D01*
X123802700Y-103292322D01*
X123760562Y-103433896D01*
X123721950Y-103562316D01*
X123659339Y-103769044D01*
X123428411Y-103754020D01*
X123321470Y-103417843D01*
X123274519Y-103270128D01*
X123221926Y-103104458D01*
X123171565Y-102945638D01*
X123129878Y-102813971D01*
X123045227Y-102546275D01*
X123328429Y-102546275D01*
X123397072Y-102801520D01*
X123415321Y-102868963D01*
X123449833Y-102994697D01*
X123481793Y-103109083D01*
X123506089Y-103193726D01*
X123546463Y-103330686D01*
X123675224Y-102944706D01*
X123803986Y-102558726D01*
X123902472Y-102551332D01*
X124000959Y-102543939D01*
X124129270Y-102937297D01*
G37*
X128967255Y-103769073D02*
X128836520Y-103761547D01*
X128705785Y-103754020D01*
X128699569Y-103355588D01*
X128697730Y-103258704D01*
X128692510Y-103113146D01*
X128683550Y-103006334D01*
X128669203Y-102931087D01*
X128647821Y-102880227D01*
X128617759Y-102846574D01*
X128577367Y-102822947D01*
X128501578Y-102798818D01*
X128426207Y-102808194D01*
X128346617Y-102859763D01*
X128270000Y-102924231D01*
X128270000Y-103766471D01*
X127996079Y-103766471D01*
X127996079Y-103309701D01*
X127996342Y-103166531D01*
X127997799Y-103039309D01*
X128001301Y-102946184D01*
X128007697Y-102878713D01*
X128017835Y-102828454D01*
X128032563Y-102786966D01*
X128052729Y-102745805D01*
X128057510Y-102737066D01*
X128121101Y-102651954D01*
X128195527Y-102592476D01*
X128285255Y-102561245D01*
X128404072Y-102547342D01*
X128523059Y-102554872D01*
X128619865Y-102584267D01*
X128693334Y-102622259D01*
X128693334Y-101800015D01*
X128592667Y-101852486D01*
X128550616Y-101871549D01*
X128417886Y-101898506D01*
X128285979Y-101879874D01*
X128163705Y-101817929D01*
X128059872Y-101714943D01*
X128043606Y-101690738D01*
X128027973Y-101655256D01*
X128017776Y-101607015D01*
X128011888Y-101536757D01*
X128009182Y-101435221D01*
X128008696Y-101329428D01*
X128271759Y-101329428D01*
X128271981Y-101417779D01*
X128278735Y-101476700D01*
X128293916Y-101518752D01*
X128319417Y-101556499D01*
X128351811Y-101591594D01*
X128403614Y-101618154D01*
X128481667Y-101624902D01*
X128550618Y-101619029D01*
X128618865Y-101589641D01*
X128662818Y-101530107D01*
X128686350Y-101434423D01*
X128693334Y-101296582D01*
X128691528Y-101223254D01*
X128673501Y-101084833D01*
X128636308Y-100991233D01*
X128580159Y-100943116D01*
X128523449Y-100929579D01*
X128424686Y-100935925D01*
X128341240Y-100975223D01*
X128321268Y-100993244D01*
X128300105Y-101024422D01*
X128287021Y-101070833D01*
X128279251Y-101144000D01*
X128274032Y-101255448D01*
X128271759Y-101329428D01*
X128008696Y-101329428D01*
X128008530Y-101293149D01*
X128008753Y-101228324D01*
X128012570Y-101077538D01*
X128023203Y-100964896D01*
X128043335Y-100881885D01*
X128075653Y-100819991D01*
X128122842Y-100770700D01*
X128187588Y-100725499D01*
X128240091Y-100699560D01*
X128364571Y-100670953D01*
X128495781Y-100674851D01*
X128612402Y-100711935D01*
X128662453Y-100736176D01*
X128687626Y-100738681D01*
X128693334Y-100716620D01*
X128693339Y-100715952D01*
X128705640Y-100693426D01*
X128748065Y-100681879D01*
X128830295Y-100678628D01*
X128967255Y-100678628D01*
X128967255Y-101296582D01*
X128967255Y-103769073D01*
G36*
X128967255Y-103769073D02*
G01*
X128836520Y-103761547D01*
X128705785Y-103754020D01*
X128699569Y-103355588D01*
X128697730Y-103258704D01*
X128692510Y-103113146D01*
X128683550Y-103006334D01*
X128669203Y-102931087D01*
X128647821Y-102880227D01*
X128617759Y-102846574D01*
X128577367Y-102822947D01*
X128501578Y-102798818D01*
X128426207Y-102808194D01*
X128346617Y-102859763D01*
X128270000Y-102924231D01*
X128270000Y-103766471D01*
X127996079Y-103766471D01*
X127996079Y-103309701D01*
X127996342Y-103166531D01*
X127997799Y-103039309D01*
X128001301Y-102946184D01*
X128007697Y-102878713D01*
X128017835Y-102828454D01*
X128032563Y-102786966D01*
X128052729Y-102745805D01*
X128057510Y-102737066D01*
X128121101Y-102651954D01*
X128195527Y-102592476D01*
X128285255Y-102561245D01*
X128404072Y-102547342D01*
X128523059Y-102554872D01*
X128619865Y-102584267D01*
X128693334Y-102622259D01*
X128693334Y-101800015D01*
X128592667Y-101852486D01*
X128550616Y-101871549D01*
X128417886Y-101898506D01*
X128285979Y-101879874D01*
X128163705Y-101817929D01*
X128059872Y-101714943D01*
X128043606Y-101690738D01*
X128027973Y-101655256D01*
X128017776Y-101607015D01*
X128011888Y-101536757D01*
X128009182Y-101435221D01*
X128008696Y-101329428D01*
X128271759Y-101329428D01*
X128271981Y-101417779D01*
X128278735Y-101476700D01*
X128293916Y-101518752D01*
X128319417Y-101556499D01*
X128351811Y-101591594D01*
X128403614Y-101618154D01*
X128481667Y-101624902D01*
X128550618Y-101619029D01*
X128618865Y-101589641D01*
X128662818Y-101530107D01*
X128686350Y-101434423D01*
X128693334Y-101296582D01*
X128691528Y-101223254D01*
X128673501Y-101084833D01*
X128636308Y-100991233D01*
X128580159Y-100943116D01*
X128523449Y-100929579D01*
X128424686Y-100935925D01*
X128341240Y-100975223D01*
X128321268Y-100993244D01*
X128300105Y-101024422D01*
X128287021Y-101070833D01*
X128279251Y-101144000D01*
X128274032Y-101255448D01*
X128271759Y-101329428D01*
X128008696Y-101329428D01*
X128008530Y-101293149D01*
X128008753Y-101228324D01*
X128012570Y-101077538D01*
X128023203Y-100964896D01*
X128043335Y-100881885D01*
X128075653Y-100819991D01*
X128122842Y-100770700D01*
X128187588Y-100725499D01*
X128240091Y-100699560D01*
X128364571Y-100670953D01*
X128495781Y-100674851D01*
X128612402Y-100711935D01*
X128662453Y-100736176D01*
X128687626Y-100738681D01*
X128693334Y-100716620D01*
X128693339Y-100715952D01*
X128705640Y-100693426D01*
X128748065Y-100681879D01*
X128830295Y-100678628D01*
X128967255Y-100678628D01*
X128967255Y-101296582D01*
X128967255Y-103769073D01*
G37*
X130133818Y-101344666D02*
X130130603Y-101422653D01*
X130123305Y-101517754D01*
X130110873Y-101585160D01*
X130090343Y-101638570D01*
X130058751Y-101691685D01*
X130057406Y-101693699D01*
X129979616Y-101779755D01*
X129884438Y-101845391D01*
X129773760Y-101884339D01*
X129628163Y-101896985D01*
X129485463Y-101872119D01*
X129357909Y-101812198D01*
X129257753Y-101719681D01*
X129228999Y-101675967D01*
X129175301Y-101540073D01*
X129148670Y-101372408D01*
X129149125Y-101329997D01*
X129416763Y-101329997D01*
X129417267Y-101409314D01*
X129425677Y-101462267D01*
X129444838Y-101502956D01*
X129477598Y-101545479D01*
X129523058Y-101587676D01*
X129613980Y-101625333D01*
X129711608Y-101618338D01*
X129804914Y-101566002D01*
X129831234Y-101541006D01*
X129859336Y-101498214D01*
X129874920Y-101438068D01*
X129883753Y-101344348D01*
X129886186Y-101273944D01*
X129872856Y-101130168D01*
X129831947Y-101027231D01*
X129763281Y-100964567D01*
X129682789Y-100934560D01*
X129586794Y-100937086D01*
X129497811Y-100987746D01*
X129476538Y-101007031D01*
X129449693Y-101040774D01*
X129433766Y-101084920D01*
X129424929Y-101152601D01*
X129419355Y-101256950D01*
X129416763Y-101329997D01*
X129149125Y-101329997D01*
X129150724Y-101181126D01*
X129153345Y-101153996D01*
X129189918Y-100980229D01*
X129257581Y-100845334D01*
X129356478Y-100749163D01*
X129486753Y-100691568D01*
X129648550Y-100672402D01*
X129709679Y-100674201D01*
X129835039Y-100696211D01*
X129937546Y-100748746D01*
X130033115Y-100838686D01*
X130048400Y-100856737D01*
X130089624Y-100917530D01*
X130116717Y-100986367D01*
X130131740Y-101073600D01*
X130136754Y-101189582D01*
X130135156Y-101273944D01*
X130133818Y-101344666D01*
G36*
X130133818Y-101344666D02*
G01*
X130130603Y-101422653D01*
X130123305Y-101517754D01*
X130110873Y-101585160D01*
X130090343Y-101638570D01*
X130058751Y-101691685D01*
X130057406Y-101693699D01*
X129979616Y-101779755D01*
X129884438Y-101845391D01*
X129773760Y-101884339D01*
X129628163Y-101896985D01*
X129485463Y-101872119D01*
X129357909Y-101812198D01*
X129257753Y-101719681D01*
X129228999Y-101675967D01*
X129175301Y-101540073D01*
X129148670Y-101372408D01*
X129149125Y-101329997D01*
X129416763Y-101329997D01*
X129417267Y-101409314D01*
X129425677Y-101462267D01*
X129444838Y-101502956D01*
X129477598Y-101545479D01*
X129523058Y-101587676D01*
X129613980Y-101625333D01*
X129711608Y-101618338D01*
X129804914Y-101566002D01*
X129831234Y-101541006D01*
X129859336Y-101498214D01*
X129874920Y-101438068D01*
X129883753Y-101344348D01*
X129886186Y-101273944D01*
X129872856Y-101130168D01*
X129831947Y-101027231D01*
X129763281Y-100964567D01*
X129682789Y-100934560D01*
X129586794Y-100937086D01*
X129497811Y-100987746D01*
X129476538Y-101007031D01*
X129449693Y-101040774D01*
X129433766Y-101084920D01*
X129424929Y-101152601D01*
X129419355Y-101256950D01*
X129416763Y-101329997D01*
X129149125Y-101329997D01*
X129150724Y-101181126D01*
X129153345Y-101153996D01*
X129189918Y-100980229D01*
X129257581Y-100845334D01*
X129356478Y-100749163D01*
X129486753Y-100691568D01*
X129648550Y-100672402D01*
X129709679Y-100674201D01*
X129835039Y-100696211D01*
X129937546Y-100748746D01*
X130033115Y-100838686D01*
X130048400Y-100856737D01*
X130089624Y-100917530D01*
X130116717Y-100986367D01*
X130131740Y-101073600D01*
X130136754Y-101189582D01*
X130135156Y-101273944D01*
X130133818Y-101344666D01*
G37*
X120367341Y-100684329D02*
X120503218Y-100737267D01*
X120618135Y-100824655D01*
X120703013Y-100944680D01*
X120708745Y-100956918D01*
X120745135Y-101076281D01*
X120763316Y-101218864D01*
X120763173Y-101367318D01*
X120744590Y-101504297D01*
X120707452Y-101612451D01*
X120661599Y-101687831D01*
X120560669Y-101794620D01*
X120434469Y-101862500D01*
X120326497Y-101889950D01*
X120162088Y-101892947D01*
X120004764Y-101851549D01*
X119865251Y-101767546D01*
X119774954Y-101693116D01*
X119856284Y-101609205D01*
X119907665Y-101559496D01*
X119954141Y-101531820D01*
X119997235Y-101537914D01*
X120052353Y-101575098D01*
X120074331Y-101589655D01*
X120167178Y-101619449D01*
X120273895Y-101619431D01*
X120373808Y-101588723D01*
X120411429Y-101564064D01*
X120466613Y-101491245D01*
X120494278Y-101384290D01*
X120496058Y-101238517D01*
X120496053Y-101238435D01*
X120475470Y-101108014D01*
X120430128Y-101017587D01*
X120355518Y-100961652D01*
X120247128Y-100934704D01*
X120178871Y-100931079D01*
X120119231Y-100945921D01*
X120058065Y-100988918D01*
X119978912Y-101055520D01*
X119878672Y-100974965D01*
X119842050Y-100944105D01*
X119796307Y-100899889D01*
X119778432Y-100873832D01*
X119784762Y-100862089D01*
X119821221Y-100826036D01*
X119879301Y-100780185D01*
X119924744Y-100750348D01*
X120069024Y-100689056D01*
X120219583Y-100667654D01*
X120367341Y-100684329D01*
G36*
X120367341Y-100684329D02*
G01*
X120503218Y-100737267D01*
X120618135Y-100824655D01*
X120703013Y-100944680D01*
X120708745Y-100956918D01*
X120745135Y-101076281D01*
X120763316Y-101218864D01*
X120763173Y-101367318D01*
X120744590Y-101504297D01*
X120707452Y-101612451D01*
X120661599Y-101687831D01*
X120560669Y-101794620D01*
X120434469Y-101862500D01*
X120326497Y-101889950D01*
X120162088Y-101892947D01*
X120004764Y-101851549D01*
X119865251Y-101767546D01*
X119774954Y-101693116D01*
X119856284Y-101609205D01*
X119907665Y-101559496D01*
X119954141Y-101531820D01*
X119997235Y-101537914D01*
X120052353Y-101575098D01*
X120074331Y-101589655D01*
X120167178Y-101619449D01*
X120273895Y-101619431D01*
X120373808Y-101588723D01*
X120411429Y-101564064D01*
X120466613Y-101491245D01*
X120494278Y-101384290D01*
X120496058Y-101238517D01*
X120496053Y-101238435D01*
X120475470Y-101108014D01*
X120430128Y-101017587D01*
X120355518Y-100961652D01*
X120247128Y-100934704D01*
X120178871Y-100931079D01*
X120119231Y-100945921D01*
X120058065Y-100988918D01*
X119978912Y-101055520D01*
X119878672Y-100974965D01*
X119842050Y-100944105D01*
X119796307Y-100899889D01*
X119778432Y-100873832D01*
X119784762Y-100862089D01*
X119821221Y-100826036D01*
X119879301Y-100780185D01*
X119924744Y-100750348D01*
X120069024Y-100689056D01*
X120219583Y-100667654D01*
X120367341Y-100684329D01*
G37*
X121022740Y-103156373D02*
X121019502Y-103249330D01*
X120990010Y-103427105D01*
X120929329Y-103566892D01*
X120836922Y-103669689D01*
X120712255Y-103736496D01*
X120671976Y-103748300D01*
X120528153Y-103764786D01*
X120376289Y-103750873D01*
X120239118Y-103707935D01*
X120190794Y-103683565D01*
X120121507Y-103641819D01*
X120079517Y-103607468D01*
X120073317Y-103599620D01*
X120061719Y-103570917D01*
X120078430Y-103539714D01*
X120129321Y-103492459D01*
X120153880Y-103471887D01*
X120202260Y-103434242D01*
X120227627Y-103418855D01*
X120234894Y-103420440D01*
X120276544Y-103437574D01*
X120338726Y-103467647D01*
X120359000Y-103477540D01*
X120478600Y-103514275D01*
X120582506Y-103504805D01*
X120673621Y-103448971D01*
X120684222Y-103438654D01*
X120734909Y-103374031D01*
X120763870Y-103312010D01*
X120779909Y-103243530D01*
X120027451Y-103243530D01*
X120027590Y-103112794D01*
X120027670Y-103099792D01*
X120037829Y-102994903D01*
X120301373Y-102994903D01*
X120304485Y-103016657D01*
X120320462Y-103031649D01*
X120358543Y-103039970D01*
X120427960Y-103043549D01*
X120537942Y-103044314D01*
X120599086Y-103043521D01*
X120689338Y-103038888D01*
X120751416Y-103031038D01*
X120774510Y-103021033D01*
X120754814Y-102938677D01*
X120697151Y-102861811D01*
X120613984Y-102808484D01*
X120517911Y-102790038D01*
X120447178Y-102810832D01*
X120376471Y-102861664D01*
X120322722Y-102927892D01*
X120301373Y-102994903D01*
X120037829Y-102994903D01*
X120043248Y-102938950D01*
X120088592Y-102808106D01*
X120167712Y-102695313D01*
X120215979Y-102647600D01*
X120315663Y-102583731D01*
X120434693Y-102552784D01*
X120585043Y-102550607D01*
X120657668Y-102559139D01*
X120791727Y-102603440D01*
X120894365Y-102684069D01*
X120966480Y-102802271D01*
X121008972Y-102959291D01*
X121013286Y-103021033D01*
X121022740Y-103156373D01*
G36*
X121022740Y-103156373D02*
G01*
X121019502Y-103249330D01*
X120990010Y-103427105D01*
X120929329Y-103566892D01*
X120836922Y-103669689D01*
X120712255Y-103736496D01*
X120671976Y-103748300D01*
X120528153Y-103764786D01*
X120376289Y-103750873D01*
X120239118Y-103707935D01*
X120190794Y-103683565D01*
X120121507Y-103641819D01*
X120079517Y-103607468D01*
X120073317Y-103599620D01*
X120061719Y-103570917D01*
X120078430Y-103539714D01*
X120129321Y-103492459D01*
X120153880Y-103471887D01*
X120202260Y-103434242D01*
X120227627Y-103418855D01*
X120234894Y-103420440D01*
X120276544Y-103437574D01*
X120338726Y-103467647D01*
X120359000Y-103477540D01*
X120478600Y-103514275D01*
X120582506Y-103504805D01*
X120673621Y-103448971D01*
X120684222Y-103438654D01*
X120734909Y-103374031D01*
X120763870Y-103312010D01*
X120779909Y-103243530D01*
X120027451Y-103243530D01*
X120027590Y-103112794D01*
X120027670Y-103099792D01*
X120037829Y-102994903D01*
X120301373Y-102994903D01*
X120304485Y-103016657D01*
X120320462Y-103031649D01*
X120358543Y-103039970D01*
X120427960Y-103043549D01*
X120537942Y-103044314D01*
X120599086Y-103043521D01*
X120689338Y-103038888D01*
X120751416Y-103031038D01*
X120774510Y-103021033D01*
X120754814Y-102938677D01*
X120697151Y-102861811D01*
X120613984Y-102808484D01*
X120517911Y-102790038D01*
X120447178Y-102810832D01*
X120376471Y-102861664D01*
X120322722Y-102927892D01*
X120301373Y-102994903D01*
X120037829Y-102994903D01*
X120043248Y-102938950D01*
X120088592Y-102808106D01*
X120167712Y-102695313D01*
X120215979Y-102647600D01*
X120315663Y-102583731D01*
X120434693Y-102552784D01*
X120585043Y-102550607D01*
X120657668Y-102559139D01*
X120791727Y-102603440D01*
X120894365Y-102684069D01*
X120966480Y-102802271D01*
X121008972Y-102959291D01*
X121013286Y-103021033D01*
X121022740Y-103156373D01*
G37*
X119745566Y-101196032D02*
X119742360Y-101386632D01*
X119741943Y-101390380D01*
X119706139Y-101565271D01*
X119641449Y-101701247D01*
X119545859Y-101801296D01*
X119417353Y-101868405D01*
X119393764Y-101876079D01*
X119247551Y-101898696D01*
X119096334Y-101886084D01*
X118955750Y-101841017D01*
X118841437Y-101766269D01*
X118755812Y-101687157D01*
X118846827Y-101615191D01*
X118937842Y-101543224D01*
X119047528Y-101596514D01*
X119174445Y-101639695D01*
X119286488Y-101640987D01*
X119378157Y-101601314D01*
X119444123Y-101521683D01*
X119467771Y-101473968D01*
X119480972Y-101433189D01*
X119473334Y-101405641D01*
X119439063Y-101388731D01*
X119372368Y-101379864D01*
X119267454Y-101376445D01*
X119118530Y-101375882D01*
X118757451Y-101375882D01*
X118757451Y-101203190D01*
X118760149Y-101127376D01*
X119014385Y-101127376D01*
X119026595Y-101141321D01*
X119062748Y-101148578D01*
X119131463Y-101151332D01*
X119241362Y-101151765D01*
X119300294Y-101151073D01*
X119393290Y-101146500D01*
X119456373Y-101138491D01*
X119479608Y-101128035D01*
X119473663Y-101089456D01*
X119431762Y-101015634D01*
X119361938Y-100954990D01*
X119278699Y-100918362D01*
X119196554Y-100916589D01*
X119134721Y-100945960D01*
X119064656Y-101012800D01*
X119020106Y-101095735D01*
X119017496Y-101104562D01*
X119014385Y-101127376D01*
X118760149Y-101127376D01*
X118760702Y-101111853D01*
X118770246Y-101021484D01*
X118783881Y-100960396D01*
X118793820Y-100937074D01*
X118866166Y-100833202D01*
X118970700Y-100746569D01*
X119092949Y-100689845D01*
X119156713Y-100674355D01*
X119308645Y-100667304D01*
X119444022Y-100703174D01*
X119559122Y-100777974D01*
X119650227Y-100887711D01*
X119713615Y-101028395D01*
X119732607Y-101128035D01*
X119745566Y-101196032D01*
G36*
X119745566Y-101196032D02*
G01*
X119742360Y-101386632D01*
X119741943Y-101390380D01*
X119706139Y-101565271D01*
X119641449Y-101701247D01*
X119545859Y-101801296D01*
X119417353Y-101868405D01*
X119393764Y-101876079D01*
X119247551Y-101898696D01*
X119096334Y-101886084D01*
X118955750Y-101841017D01*
X118841437Y-101766269D01*
X118755812Y-101687157D01*
X118846827Y-101615191D01*
X118937842Y-101543224D01*
X119047528Y-101596514D01*
X119174445Y-101639695D01*
X119286488Y-101640987D01*
X119378157Y-101601314D01*
X119444123Y-101521683D01*
X119467771Y-101473968D01*
X119480972Y-101433189D01*
X119473334Y-101405641D01*
X119439063Y-101388731D01*
X119372368Y-101379864D01*
X119267454Y-101376445D01*
X119118530Y-101375882D01*
X118757451Y-101375882D01*
X118757451Y-101203190D01*
X118760149Y-101127376D01*
X119014385Y-101127376D01*
X119026595Y-101141321D01*
X119062748Y-101148578D01*
X119131463Y-101151332D01*
X119241362Y-101151765D01*
X119300294Y-101151073D01*
X119393290Y-101146500D01*
X119456373Y-101138491D01*
X119479608Y-101128035D01*
X119473663Y-101089456D01*
X119431762Y-101015634D01*
X119361938Y-100954990D01*
X119278699Y-100918362D01*
X119196554Y-100916589D01*
X119134721Y-100945960D01*
X119064656Y-101012800D01*
X119020106Y-101095735D01*
X119017496Y-101104562D01*
X119014385Y-101127376D01*
X118760149Y-101127376D01*
X118760702Y-101111853D01*
X118770246Y-101021484D01*
X118783881Y-100960396D01*
X118793820Y-100937074D01*
X118866166Y-100833202D01*
X118970700Y-100746569D01*
X119092949Y-100689845D01*
X119156713Y-100674355D01*
X119308645Y-100667304D01*
X119444022Y-100703174D01*
X119559122Y-100777974D01*
X119650227Y-100887711D01*
X119713615Y-101028395D01*
X119732607Y-101128035D01*
X119745566Y-101196032D01*
G37*
X118928026Y-81127837D02*
X118933658Y-81134027D01*
X118938748Y-81142233D01*
X118942835Y-81154009D01*
X118946013Y-81171468D01*
X118948379Y-81196722D01*
X118950030Y-81231882D01*
X118951061Y-81279061D01*
X118951569Y-81340369D01*
X118951651Y-81417919D01*
X118951401Y-81513823D01*
X118950917Y-81630192D01*
X118950849Y-81644367D01*
X118950263Y-81706129D01*
X118948940Y-81749812D01*
X118946395Y-81779193D01*
X118942140Y-81798047D01*
X118935688Y-81810151D01*
X118926554Y-81819281D01*
X118893096Y-81836698D01*
X118858148Y-81833796D01*
X118827245Y-81809292D01*
X118818236Y-81796089D01*
X118810784Y-81777553D01*
X118806416Y-81751525D01*
X118804361Y-81712979D01*
X118803848Y-81656892D01*
X118803848Y-81534237D01*
X118307137Y-81534237D01*
X118307137Y-81669063D01*
X118307064Y-81704854D01*
X118306301Y-81751184D01*
X118304125Y-81781718D01*
X118299828Y-81800749D01*
X118292704Y-81812566D01*
X118282047Y-81821463D01*
X118249796Y-81836533D01*
X118214509Y-81833865D01*
X118183778Y-81809292D01*
X118179123Y-81803037D01*
X118173187Y-81792513D01*
X118168656Y-81778583D01*
X118165340Y-81758509D01*
X118163051Y-81729552D01*
X118161600Y-81688972D01*
X118160797Y-81634032D01*
X118160454Y-81561991D01*
X118160381Y-81470112D01*
X118160381Y-81160677D01*
X118188090Y-81132968D01*
X118219469Y-81110725D01*
X118252698Y-81108036D01*
X118284559Y-81127837D01*
X118292845Y-81137607D01*
X118300257Y-81153499D01*
X118304594Y-81177467D01*
X118306630Y-81214340D01*
X118307137Y-81268948D01*
X118307137Y-81387481D01*
X118803848Y-81387481D01*
X118803848Y-81271968D01*
X118804286Y-81220270D01*
X118806250Y-81185746D01*
X118810766Y-81163170D01*
X118818859Y-81147318D01*
X118831557Y-81132968D01*
X118862935Y-81110725D01*
X118896164Y-81108036D01*
X118928026Y-81127837D01*
G36*
X118928026Y-81127837D02*
G01*
X118933658Y-81134027D01*
X118938748Y-81142233D01*
X118942835Y-81154009D01*
X118946013Y-81171468D01*
X118948379Y-81196722D01*
X118950030Y-81231882D01*
X118951061Y-81279061D01*
X118951569Y-81340369D01*
X118951651Y-81417919D01*
X118951401Y-81513823D01*
X118950917Y-81630192D01*
X118950849Y-81644367D01*
X118950263Y-81706129D01*
X118948940Y-81749812D01*
X118946395Y-81779193D01*
X118942140Y-81798047D01*
X118935688Y-81810151D01*
X118926554Y-81819281D01*
X118893096Y-81836698D01*
X118858148Y-81833796D01*
X118827245Y-81809292D01*
X118818236Y-81796089D01*
X118810784Y-81777553D01*
X118806416Y-81751525D01*
X118804361Y-81712979D01*
X118803848Y-81656892D01*
X118803848Y-81534237D01*
X118307137Y-81534237D01*
X118307137Y-81669063D01*
X118307064Y-81704854D01*
X118306301Y-81751184D01*
X118304125Y-81781718D01*
X118299828Y-81800749D01*
X118292704Y-81812566D01*
X118282047Y-81821463D01*
X118249796Y-81836533D01*
X118214509Y-81833865D01*
X118183778Y-81809292D01*
X118179123Y-81803037D01*
X118173187Y-81792513D01*
X118168656Y-81778583D01*
X118165340Y-81758509D01*
X118163051Y-81729552D01*
X118161600Y-81688972D01*
X118160797Y-81634032D01*
X118160454Y-81561991D01*
X118160381Y-81470112D01*
X118160381Y-81160677D01*
X118188090Y-81132968D01*
X118219469Y-81110725D01*
X118252698Y-81108036D01*
X118284559Y-81127837D01*
X118292845Y-81137607D01*
X118300257Y-81153499D01*
X118304594Y-81177467D01*
X118306630Y-81214340D01*
X118307137Y-81268948D01*
X118307137Y-81387481D01*
X118803848Y-81387481D01*
X118803848Y-81271968D01*
X118804286Y-81220270D01*
X118806250Y-81185746D01*
X118810766Y-81163170D01*
X118818859Y-81147318D01*
X118831557Y-81132968D01*
X118862935Y-81110725D01*
X118896164Y-81108036D01*
X118928026Y-81127837D01*
G37*
X132117945Y-79899840D02*
X132116532Y-80006310D01*
X132114777Y-80098024D01*
X132112646Y-80176117D01*
X132110102Y-80241724D01*
X132107111Y-80295981D01*
X132103635Y-80340023D01*
X132099640Y-80374985D01*
X132095089Y-80402003D01*
X132089947Y-80422212D01*
X132084179Y-80436747D01*
X132077748Y-80446744D01*
X132070619Y-80453338D01*
X132062755Y-80457665D01*
X132054122Y-80460859D01*
X132044684Y-80464056D01*
X132034404Y-80468391D01*
X132028620Y-80470563D01*
X132018010Y-80472936D01*
X132002245Y-80475110D01*
X131980210Y-80477093D01*
X131950790Y-80478896D01*
X131912869Y-80480525D01*
X131865332Y-80481991D01*
X131807064Y-80483301D01*
X131736950Y-80484465D01*
X131653874Y-80485491D01*
X131556721Y-80486388D01*
X131444376Y-80487165D01*
X131315725Y-80487830D01*
X131169650Y-80488392D01*
X131005038Y-80488860D01*
X130820773Y-80489242D01*
X130615740Y-80489548D01*
X130388824Y-80489785D01*
X130138909Y-80489963D01*
X129864881Y-80490091D01*
X129565623Y-80490176D01*
X129240021Y-80490228D01*
X129136839Y-80490238D01*
X128818303Y-80490245D01*
X128525787Y-80490205D01*
X128258188Y-80490110D01*
X128014404Y-80489953D01*
X127793332Y-80489725D01*
X127593872Y-80489419D01*
X127414921Y-80489025D01*
X127255376Y-80488538D01*
X127114136Y-80487947D01*
X126990099Y-80487247D01*
X126882163Y-80486427D01*
X126789226Y-80485481D01*
X126710185Y-80484400D01*
X126643939Y-80483177D01*
X126589385Y-80481803D01*
X126545422Y-80480271D01*
X126510947Y-80478572D01*
X126484859Y-80476698D01*
X126466056Y-80474642D01*
X126453435Y-80472396D01*
X126445894Y-80469950D01*
X126443495Y-80468862D01*
X126433673Y-80465287D01*
X126424666Y-80462676D01*
X126416437Y-80459893D01*
X126408950Y-80455800D01*
X126402168Y-80449260D01*
X126396055Y-80439137D01*
X126390575Y-80424293D01*
X126385690Y-80403591D01*
X126381364Y-80375895D01*
X126377561Y-80340068D01*
X126374244Y-80294973D01*
X126371376Y-80239472D01*
X126368922Y-80172429D01*
X126366844Y-80092707D01*
X126365107Y-79999170D01*
X126363673Y-79890679D01*
X126363202Y-79840440D01*
X126725255Y-79840440D01*
X126725652Y-79845251D01*
X126732935Y-79849150D01*
X126749389Y-79852232D01*
X126777301Y-79854594D01*
X126818957Y-79856330D01*
X126876642Y-79857536D01*
X126952642Y-79858308D01*
X127049244Y-79858741D01*
X127168734Y-79858931D01*
X127313396Y-79858973D01*
X127919373Y-79858973D01*
X127868146Y-79766298D01*
X127816919Y-79673622D01*
X127816919Y-76982595D01*
X127868146Y-76889919D01*
X127919373Y-76797244D01*
X126836211Y-76797244D01*
X126828379Y-79646162D01*
X126789981Y-79728168D01*
X126769736Y-79768815D01*
X126746813Y-79809532D01*
X126729501Y-79834574D01*
X126729458Y-79834622D01*
X126725255Y-79840440D01*
X126363202Y-79840440D01*
X126362506Y-79766098D01*
X126361570Y-79624290D01*
X126360828Y-79464119D01*
X126360243Y-79284447D01*
X126359779Y-79084137D01*
X126359400Y-78862052D01*
X126359069Y-78617056D01*
X126358749Y-78348012D01*
X126358404Y-78053782D01*
X126357998Y-77733230D01*
X126357945Y-77694424D01*
X126357492Y-77375903D01*
X126357059Y-77083572D01*
X126356677Y-76816293D01*
X126356380Y-76572929D01*
X126356198Y-76352342D01*
X126356165Y-76153395D01*
X126356311Y-75974950D01*
X126356670Y-75815871D01*
X126357274Y-75675019D01*
X126358154Y-75551257D01*
X126359342Y-75443447D01*
X126360871Y-75350453D01*
X126362772Y-75271137D01*
X126365078Y-75204360D01*
X126367821Y-75148987D01*
X126371032Y-75103879D01*
X126374745Y-75067899D01*
X126378990Y-75039909D01*
X126383801Y-75018772D01*
X126389208Y-75003351D01*
X126395245Y-74992508D01*
X126401943Y-74985106D01*
X126409335Y-74980007D01*
X126417451Y-74976073D01*
X126426325Y-74972168D01*
X126435989Y-74967154D01*
X126438817Y-74965556D01*
X126481604Y-74950089D01*
X126528443Y-74943732D01*
X126581244Y-74943734D01*
X126582124Y-75063867D01*
X126582347Y-75077692D01*
X126599129Y-75218215D01*
X126641873Y-75350435D01*
X126709983Y-75472952D01*
X126802868Y-75584363D01*
X126852712Y-75629803D01*
X126963695Y-75705120D01*
X127084788Y-75757643D01*
X127212465Y-75787342D01*
X127343197Y-75794190D01*
X127473460Y-75778159D01*
X127599725Y-75739221D01*
X127703522Y-75685135D01*
X128162907Y-75685135D01*
X128223319Y-75728599D01*
X128274410Y-75769448D01*
X128346403Y-75836076D01*
X128428060Y-75919580D01*
X128516290Y-76016778D01*
X128608000Y-76124487D01*
X128631617Y-76153290D01*
X128671827Y-76202692D01*
X128724387Y-76267505D01*
X128787556Y-76345566D01*
X128859592Y-76434711D01*
X128938754Y-76532778D01*
X129023302Y-76637604D01*
X129111493Y-76747024D01*
X129151944Y-76797244D01*
X129201586Y-76858876D01*
X129291840Y-76970997D01*
X129380515Y-77081224D01*
X129465868Y-77187392D01*
X129546158Y-77287340D01*
X129619644Y-77378903D01*
X129684585Y-77459919D01*
X129739240Y-77528224D01*
X129781866Y-77581655D01*
X129810724Y-77618048D01*
X129824071Y-77635242D01*
X129825173Y-77641703D01*
X129821508Y-77653992D01*
X129812013Y-77673325D01*
X129795738Y-77701074D01*
X129771736Y-77738610D01*
X129739060Y-77787304D01*
X129696761Y-77848529D01*
X129643891Y-77923654D01*
X129579503Y-78014052D01*
X129502648Y-78121094D01*
X129412380Y-78246152D01*
X129307749Y-78390596D01*
X129187809Y-78555798D01*
X129092242Y-78687297D01*
X128975648Y-78847605D01*
X128873088Y-78988387D01*
X128783369Y-79111204D01*
X128705300Y-79217619D01*
X128637688Y-79309195D01*
X128579338Y-79387494D01*
X128529060Y-79454079D01*
X128485661Y-79510511D01*
X128447946Y-79558354D01*
X128414725Y-79599169D01*
X128384803Y-79634520D01*
X128356989Y-79665968D01*
X128330090Y-79695076D01*
X128302913Y-79723406D01*
X128274265Y-79752522D01*
X128168692Y-79858973D01*
X129588054Y-79859031D01*
X129583595Y-79773019D01*
X129583379Y-79768697D01*
X129582532Y-79734313D01*
X129584137Y-79701368D01*
X129589266Y-79668058D01*
X129598993Y-79632578D01*
X129614391Y-79593125D01*
X129636534Y-79547893D01*
X129666495Y-79495077D01*
X129705348Y-79432874D01*
X129754166Y-79359477D01*
X129814022Y-79273084D01*
X129885990Y-79171890D01*
X129971143Y-79054088D01*
X130070554Y-78917876D01*
X130185298Y-78761449D01*
X130590325Y-78210041D01*
X130593893Y-78849382D01*
X130594209Y-78909020D01*
X130594767Y-79069657D01*
X130594513Y-79206289D01*
X130593150Y-79321502D01*
X130590377Y-79417883D01*
X130585898Y-79498016D01*
X130579413Y-79564487D01*
X130570623Y-79619883D01*
X130559230Y-79666788D01*
X130544935Y-79707788D01*
X130527440Y-79745469D01*
X130506447Y-79782417D01*
X130481655Y-79821217D01*
X130456734Y-79858973D01*
X131751884Y-79858973D01*
X131718429Y-79814352D01*
X131713190Y-79807293D01*
X131671302Y-79742594D01*
X131642427Y-79677190D01*
X131623466Y-79602248D01*
X131611321Y-79508933D01*
X131610987Y-79504865D01*
X131609225Y-79466375D01*
X131607633Y-79402156D01*
X131606220Y-79313676D01*
X131604992Y-79202403D01*
X131603956Y-79069803D01*
X131603118Y-78917345D01*
X131602486Y-78746496D01*
X131602067Y-78558722D01*
X131601868Y-78355493D01*
X131601895Y-78138274D01*
X131602155Y-77908535D01*
X131602655Y-77667741D01*
X131603185Y-77451748D01*
X131603752Y-77216635D01*
X131604311Y-77006279D01*
X131604930Y-76819206D01*
X131605681Y-76653942D01*
X131606634Y-76509013D01*
X131607858Y-76382947D01*
X131609423Y-76274268D01*
X131611401Y-76181504D01*
X131613860Y-76103180D01*
X131616871Y-76037822D01*
X131620504Y-75983958D01*
X131624829Y-75940113D01*
X131629916Y-75904813D01*
X131635835Y-75876585D01*
X131642657Y-75853955D01*
X131650451Y-75835449D01*
X131659288Y-75819594D01*
X131669237Y-75804915D01*
X131680369Y-75789940D01*
X131692754Y-75773193D01*
X131704732Y-75756412D01*
X131727885Y-75723231D01*
X131741753Y-75702298D01*
X131742088Y-75701421D01*
X131737246Y-75697462D01*
X131720157Y-75694159D01*
X131688921Y-75691461D01*
X131641635Y-75689317D01*
X131576398Y-75687676D01*
X131491310Y-75686489D01*
X131384467Y-75685703D01*
X131253969Y-75685269D01*
X131097914Y-75685135D01*
X130443722Y-75685135D01*
X130478200Y-75726110D01*
X130498182Y-75754253D01*
X130531443Y-75820608D01*
X130560591Y-75903135D01*
X130582838Y-75994679D01*
X130584256Y-76003369D01*
X130588474Y-76049183D01*
X130591669Y-76119989D01*
X130593849Y-76216275D01*
X130595021Y-76338532D01*
X130595195Y-76487251D01*
X130594378Y-76662922D01*
X130590325Y-77249412D01*
X130171568Y-76719859D01*
X130159574Y-76704690D01*
X130053381Y-76570255D01*
X129962721Y-76455124D01*
X129886151Y-76357339D01*
X129822227Y-76274943D01*
X129769507Y-76205978D01*
X129726549Y-76148486D01*
X129691909Y-76100510D01*
X129664145Y-76060093D01*
X129641814Y-76025276D01*
X129623472Y-75994103D01*
X129607678Y-75964615D01*
X129592988Y-75934855D01*
X129570390Y-75882177D01*
X129555791Y-75826606D01*
X129551908Y-75766666D01*
X129552298Y-75685135D01*
X128162907Y-75685135D01*
X127703522Y-75685135D01*
X127718466Y-75677348D01*
X127826157Y-75592511D01*
X127856094Y-75562602D01*
X127944577Y-75451862D01*
X128007364Y-75331684D01*
X128044789Y-75201291D01*
X128057189Y-75059910D01*
X128057189Y-74943730D01*
X130028088Y-74943730D01*
X130151220Y-74943725D01*
X130415743Y-74943689D01*
X130654702Y-74943663D01*
X130869418Y-74943699D01*
X131061213Y-74943849D01*
X131231407Y-74944166D01*
X131381323Y-74944702D01*
X131512282Y-74945508D01*
X131625605Y-74946638D01*
X131722614Y-74948144D01*
X131804629Y-74950077D01*
X131872974Y-74952491D01*
X131928968Y-74955436D01*
X131973933Y-74958966D01*
X132009191Y-74963133D01*
X132036063Y-74967989D01*
X132055871Y-74973586D01*
X132069935Y-74979976D01*
X132079578Y-74987212D01*
X132086121Y-74995346D01*
X132090885Y-75004431D01*
X132095192Y-75014518D01*
X132100363Y-75025659D01*
X132100455Y-75025841D01*
X132102966Y-75033134D01*
X132105268Y-75045347D01*
X132107372Y-75063605D01*
X132109286Y-75089037D01*
X132111018Y-75122769D01*
X132112578Y-75165928D01*
X132113973Y-75219641D01*
X132115213Y-75285035D01*
X132116307Y-75363238D01*
X132117263Y-75455376D01*
X132118090Y-75562576D01*
X132118797Y-75685966D01*
X132119393Y-75826671D01*
X132119885Y-75985820D01*
X132120284Y-76164540D01*
X132120597Y-76363957D01*
X132120833Y-76585198D01*
X132121002Y-76829390D01*
X132121112Y-77097661D01*
X132121172Y-77391137D01*
X132121189Y-77710946D01*
X132121190Y-77773773D01*
X132121220Y-78090249D01*
X132121267Y-78380615D01*
X132121295Y-78646007D01*
X132121267Y-78887560D01*
X132121150Y-79106410D01*
X132120905Y-79303691D01*
X132120498Y-79480539D01*
X132119893Y-79638090D01*
X132119054Y-79777479D01*
X132118315Y-79858973D01*
X132117945Y-79899840D01*
G36*
X132117945Y-79899840D02*
G01*
X132116532Y-80006310D01*
X132114777Y-80098024D01*
X132112646Y-80176117D01*
X132110102Y-80241724D01*
X132107111Y-80295981D01*
X132103635Y-80340023D01*
X132099640Y-80374985D01*
X132095089Y-80402003D01*
X132089947Y-80422212D01*
X132084179Y-80436747D01*
X132077748Y-80446744D01*
X132070619Y-80453338D01*
X132062755Y-80457665D01*
X132054122Y-80460859D01*
X132044684Y-80464056D01*
X132034404Y-80468391D01*
X132028620Y-80470563D01*
X132018010Y-80472936D01*
X132002245Y-80475110D01*
X131980210Y-80477093D01*
X131950790Y-80478896D01*
X131912869Y-80480525D01*
X131865332Y-80481991D01*
X131807064Y-80483301D01*
X131736950Y-80484465D01*
X131653874Y-80485491D01*
X131556721Y-80486388D01*
X131444376Y-80487165D01*
X131315725Y-80487830D01*
X131169650Y-80488392D01*
X131005038Y-80488860D01*
X130820773Y-80489242D01*
X130615740Y-80489548D01*
X130388824Y-80489785D01*
X130138909Y-80489963D01*
X129864881Y-80490091D01*
X129565623Y-80490176D01*
X129240021Y-80490228D01*
X129136839Y-80490238D01*
X128818303Y-80490245D01*
X128525787Y-80490205D01*
X128258188Y-80490110D01*
X128014404Y-80489953D01*
X127793332Y-80489725D01*
X127593872Y-80489419D01*
X127414921Y-80489025D01*
X127255376Y-80488538D01*
X127114136Y-80487947D01*
X126990099Y-80487247D01*
X126882163Y-80486427D01*
X126789226Y-80485481D01*
X126710185Y-80484400D01*
X126643939Y-80483177D01*
X126589385Y-80481803D01*
X126545422Y-80480271D01*
X126510947Y-80478572D01*
X126484859Y-80476698D01*
X126466056Y-80474642D01*
X126453435Y-80472396D01*
X126445894Y-80469950D01*
X126443495Y-80468862D01*
X126433673Y-80465287D01*
X126424666Y-80462676D01*
X126416437Y-80459893D01*
X126408950Y-80455800D01*
X126402168Y-80449260D01*
X126396055Y-80439137D01*
X126390575Y-80424293D01*
X126385690Y-80403591D01*
X126381364Y-80375895D01*
X126377561Y-80340068D01*
X126374244Y-80294973D01*
X126371376Y-80239472D01*
X126368922Y-80172429D01*
X126366844Y-80092707D01*
X126365107Y-79999170D01*
X126363673Y-79890679D01*
X126363202Y-79840440D01*
X126725255Y-79840440D01*
X126725652Y-79845251D01*
X126732935Y-79849150D01*
X126749389Y-79852232D01*
X126777301Y-79854594D01*
X126818957Y-79856330D01*
X126876642Y-79857536D01*
X126952642Y-79858308D01*
X127049244Y-79858741D01*
X127168734Y-79858931D01*
X127313396Y-79858973D01*
X127919373Y-79858973D01*
X127868146Y-79766298D01*
X127816919Y-79673622D01*
X127816919Y-76982595D01*
X127868146Y-76889919D01*
X127919373Y-76797244D01*
X126836211Y-76797244D01*
X126828379Y-79646162D01*
X126789981Y-79728168D01*
X126769736Y-79768815D01*
X126746813Y-79809532D01*
X126729501Y-79834574D01*
X126729458Y-79834622D01*
X126725255Y-79840440D01*
X126363202Y-79840440D01*
X126362506Y-79766098D01*
X126361570Y-79624290D01*
X126360828Y-79464119D01*
X126360243Y-79284447D01*
X126359779Y-79084137D01*
X126359400Y-78862052D01*
X126359069Y-78617056D01*
X126358749Y-78348012D01*
X126358404Y-78053782D01*
X126357998Y-77733230D01*
X126357945Y-77694424D01*
X126357492Y-77375903D01*
X126357059Y-77083572D01*
X126356677Y-76816293D01*
X126356380Y-76572929D01*
X126356198Y-76352342D01*
X126356165Y-76153395D01*
X126356311Y-75974950D01*
X126356670Y-75815871D01*
X126357274Y-75675019D01*
X126358154Y-75551257D01*
X126359342Y-75443447D01*
X126360871Y-75350453D01*
X126362772Y-75271137D01*
X126365078Y-75204360D01*
X126367821Y-75148987D01*
X126371032Y-75103879D01*
X126374745Y-75067899D01*
X126378990Y-75039909D01*
X126383801Y-75018772D01*
X126389208Y-75003351D01*
X126395245Y-74992508D01*
X126401943Y-74985106D01*
X126409335Y-74980007D01*
X126417451Y-74976073D01*
X126426325Y-74972168D01*
X126435989Y-74967154D01*
X126438817Y-74965556D01*
X126481604Y-74950089D01*
X126528443Y-74943732D01*
X126581244Y-74943734D01*
X126582124Y-75063867D01*
X126582347Y-75077692D01*
X126599129Y-75218215D01*
X126641873Y-75350435D01*
X126709983Y-75472952D01*
X126802868Y-75584363D01*
X126852712Y-75629803D01*
X126963695Y-75705120D01*
X127084788Y-75757643D01*
X127212465Y-75787342D01*
X127343197Y-75794190D01*
X127473460Y-75778159D01*
X127599725Y-75739221D01*
X127703522Y-75685135D01*
X128162907Y-75685135D01*
X128223319Y-75728599D01*
X128274410Y-75769448D01*
X128346403Y-75836076D01*
X128428060Y-75919580D01*
X128516290Y-76016778D01*
X128608000Y-76124487D01*
X128631617Y-76153290D01*
X128671827Y-76202692D01*
X128724387Y-76267505D01*
X128787556Y-76345566D01*
X128859592Y-76434711D01*
X128938754Y-76532778D01*
X129023302Y-76637604D01*
X129111493Y-76747024D01*
X129151944Y-76797244D01*
X129201586Y-76858876D01*
X129291840Y-76970997D01*
X129380515Y-77081224D01*
X129465868Y-77187392D01*
X129546158Y-77287340D01*
X129619644Y-77378903D01*
X129684585Y-77459919D01*
X129739240Y-77528224D01*
X129781866Y-77581655D01*
X129810724Y-77618048D01*
X129824071Y-77635242D01*
X129825173Y-77641703D01*
X129821508Y-77653992D01*
X129812013Y-77673325D01*
X129795738Y-77701074D01*
X129771736Y-77738610D01*
X129739060Y-77787304D01*
X129696761Y-77848529D01*
X129643891Y-77923654D01*
X129579503Y-78014052D01*
X129502648Y-78121094D01*
X129412380Y-78246152D01*
X129307749Y-78390596D01*
X129187809Y-78555798D01*
X129092242Y-78687297D01*
X128975648Y-78847605D01*
X128873088Y-78988387D01*
X128783369Y-79111204D01*
X128705300Y-79217619D01*
X128637688Y-79309195D01*
X128579338Y-79387494D01*
X128529060Y-79454079D01*
X128485661Y-79510511D01*
X128447946Y-79558354D01*
X128414725Y-79599169D01*
X128384803Y-79634520D01*
X128356989Y-79665968D01*
X128330090Y-79695076D01*
X128302913Y-79723406D01*
X128274265Y-79752522D01*
X128168692Y-79858973D01*
X129588054Y-79859031D01*
X129583595Y-79773019D01*
X129583379Y-79768697D01*
X129582532Y-79734313D01*
X129584137Y-79701368D01*
X129589266Y-79668058D01*
X129598993Y-79632578D01*
X129614391Y-79593125D01*
X129636534Y-79547893D01*
X129666495Y-79495077D01*
X129705348Y-79432874D01*
X129754166Y-79359477D01*
X129814022Y-79273084D01*
X129885990Y-79171890D01*
X129971143Y-79054088D01*
X130070554Y-78917876D01*
X130185298Y-78761449D01*
X130590325Y-78210041D01*
X130593893Y-78849382D01*
X130594209Y-78909020D01*
X130594767Y-79069657D01*
X130594513Y-79206289D01*
X130593150Y-79321502D01*
X130590377Y-79417883D01*
X130585898Y-79498016D01*
X130579413Y-79564487D01*
X130570623Y-79619883D01*
X130559230Y-79666788D01*
X130544935Y-79707788D01*
X130527440Y-79745469D01*
X130506447Y-79782417D01*
X130481655Y-79821217D01*
X130456734Y-79858973D01*
X131751884Y-79858973D01*
X131718429Y-79814352D01*
X131713190Y-79807293D01*
X131671302Y-79742594D01*
X131642427Y-79677190D01*
X131623466Y-79602248D01*
X131611321Y-79508933D01*
X131610987Y-79504865D01*
X131609225Y-79466375D01*
X131607633Y-79402156D01*
X131606220Y-79313676D01*
X131604992Y-79202403D01*
X131603956Y-79069803D01*
X131603118Y-78917345D01*
X131602486Y-78746496D01*
X131602067Y-78558722D01*
X131601868Y-78355493D01*
X131601895Y-78138274D01*
X131602155Y-77908535D01*
X131602655Y-77667741D01*
X131603185Y-77451748D01*
X131603752Y-77216635D01*
X131604311Y-77006279D01*
X131604930Y-76819206D01*
X131605681Y-76653942D01*
X131606634Y-76509013D01*
X131607858Y-76382947D01*
X131609423Y-76274268D01*
X131611401Y-76181504D01*
X131613860Y-76103180D01*
X131616871Y-76037822D01*
X131620504Y-75983958D01*
X131624829Y-75940113D01*
X131629916Y-75904813D01*
X131635835Y-75876585D01*
X131642657Y-75853955D01*
X131650451Y-75835449D01*
X131659288Y-75819594D01*
X131669237Y-75804915D01*
X131680369Y-75789940D01*
X131692754Y-75773193D01*
X131704732Y-75756412D01*
X131727885Y-75723231D01*
X131741753Y-75702298D01*
X131742088Y-75701421D01*
X131737246Y-75697462D01*
X131720157Y-75694159D01*
X131688921Y-75691461D01*
X131641635Y-75689317D01*
X131576398Y-75687676D01*
X131491310Y-75686489D01*
X131384467Y-75685703D01*
X131253969Y-75685269D01*
X131097914Y-75685135D01*
X130443722Y-75685135D01*
X130478200Y-75726110D01*
X130498182Y-75754253D01*
X130531443Y-75820608D01*
X130560591Y-75903135D01*
X130582838Y-75994679D01*
X130584256Y-76003369D01*
X130588474Y-76049183D01*
X130591669Y-76119989D01*
X130593849Y-76216275D01*
X130595021Y-76338532D01*
X130595195Y-76487251D01*
X130594378Y-76662922D01*
X130590325Y-77249412D01*
X130171568Y-76719859D01*
X130159574Y-76704690D01*
X130053381Y-76570255D01*
X129962721Y-76455124D01*
X129886151Y-76357339D01*
X129822227Y-76274943D01*
X129769507Y-76205978D01*
X129726549Y-76148486D01*
X129691909Y-76100510D01*
X129664145Y-76060093D01*
X129641814Y-76025276D01*
X129623472Y-75994103D01*
X129607678Y-75964615D01*
X129592988Y-75934855D01*
X129570390Y-75882177D01*
X129555791Y-75826606D01*
X129551908Y-75766666D01*
X129552298Y-75685135D01*
X128162907Y-75685135D01*
X127703522Y-75685135D01*
X127718466Y-75677348D01*
X127826157Y-75592511D01*
X127856094Y-75562602D01*
X127944577Y-75451862D01*
X128007364Y-75331684D01*
X128044789Y-75201291D01*
X128057189Y-75059910D01*
X128057189Y-74943730D01*
X130028088Y-74943730D01*
X130151220Y-74943725D01*
X130415743Y-74943689D01*
X130654702Y-74943663D01*
X130869418Y-74943699D01*
X131061213Y-74943849D01*
X131231407Y-74944166D01*
X131381323Y-74944702D01*
X131512282Y-74945508D01*
X131625605Y-74946638D01*
X131722614Y-74948144D01*
X131804629Y-74950077D01*
X131872974Y-74952491D01*
X131928968Y-74955436D01*
X131973933Y-74958966D01*
X132009191Y-74963133D01*
X132036063Y-74967989D01*
X132055871Y-74973586D01*
X132069935Y-74979976D01*
X132079578Y-74987212D01*
X132086121Y-74995346D01*
X132090885Y-75004431D01*
X132095192Y-75014518D01*
X132100363Y-75025659D01*
X132100455Y-75025841D01*
X132102966Y-75033134D01*
X132105268Y-75045347D01*
X132107372Y-75063605D01*
X132109286Y-75089037D01*
X132111018Y-75122769D01*
X132112578Y-75165928D01*
X132113973Y-75219641D01*
X132115213Y-75285035D01*
X132116307Y-75363238D01*
X132117263Y-75455376D01*
X132118090Y-75562576D01*
X132118797Y-75685966D01*
X132119393Y-75826671D01*
X132119885Y-75985820D01*
X132120284Y-76164540D01*
X132120597Y-76363957D01*
X132120833Y-76585198D01*
X132121002Y-76829390D01*
X132121112Y-77097661D01*
X132121172Y-77391137D01*
X132121189Y-77710946D01*
X132121190Y-77773773D01*
X132121220Y-78090249D01*
X132121267Y-78380615D01*
X132121295Y-78646007D01*
X132121267Y-78887560D01*
X132121150Y-79106410D01*
X132120905Y-79303691D01*
X132120498Y-79480539D01*
X132119893Y-79638090D01*
X132119054Y-79777479D01*
X132118315Y-79858973D01*
X132117945Y-79899840D01*
G37*
X126577442Y-81110371D02*
X126683449Y-81126686D01*
X126777261Y-81154737D01*
X126856057Y-81193644D01*
X126917011Y-81242526D01*
X126943081Y-81275387D01*
X126972589Y-81324586D01*
X126997860Y-81378444D01*
X127015510Y-81429611D01*
X127022150Y-81470736D01*
X127020590Y-81490451D01*
X127007649Y-81541784D01*
X126984486Y-81598310D01*
X126954594Y-81652227D01*
X126921465Y-81695731D01*
X126911269Y-81706079D01*
X126844184Y-81757854D01*
X126764058Y-81797746D01*
X126677848Y-81822148D01*
X126622884Y-81830260D01*
X126529431Y-81836865D01*
X126439650Y-81834778D01*
X126357161Y-81824532D01*
X126285578Y-81806662D01*
X126228520Y-81781700D01*
X126189603Y-81750180D01*
X126188228Y-81748204D01*
X126181140Y-81722978D01*
X126176901Y-81675727D01*
X126175492Y-81606263D01*
X126176352Y-81544030D01*
X126181072Y-81496648D01*
X126192762Y-81464545D01*
X126214531Y-81444992D01*
X126249490Y-81435262D01*
X126300748Y-81432625D01*
X126371415Y-81434353D01*
X126420035Y-81437365D01*
X126470231Y-81445558D01*
X126502725Y-81459611D01*
X126520184Y-81480846D01*
X126525275Y-81510586D01*
X126525169Y-81515128D01*
X126516467Y-81549922D01*
X126492457Y-81573339D01*
X126451192Y-81586539D01*
X126390723Y-81590681D01*
X126322248Y-81590681D01*
X126322248Y-81629033D01*
X126322298Y-81638168D01*
X126324519Y-81655419D01*
X126333786Y-81665713D01*
X126355167Y-81672651D01*
X126393728Y-81679833D01*
X126399202Y-81680767D01*
X126496152Y-81690670D01*
X126586144Y-81687751D01*
X126667052Y-81673021D01*
X126736751Y-81647491D01*
X126793116Y-81612170D01*
X126834021Y-81568071D01*
X126857343Y-81516204D01*
X126860955Y-81457580D01*
X126855437Y-81428686D01*
X126828753Y-81372796D01*
X126782565Y-81327137D01*
X126717583Y-81292300D01*
X126634521Y-81268882D01*
X126609847Y-81264433D01*
X126520518Y-81253934D01*
X126440711Y-81255163D01*
X126362618Y-81268098D01*
X126327475Y-81274888D01*
X126282037Y-81275905D01*
X126250722Y-81263374D01*
X126230569Y-81236587D01*
X126224185Y-81208340D01*
X126233671Y-81177116D01*
X126243000Y-81163691D01*
X126277235Y-81140159D01*
X126329857Y-81122287D01*
X126398373Y-81110791D01*
X126480292Y-81106384D01*
X126577442Y-81110371D01*
G36*
X126577442Y-81110371D02*
G01*
X126683449Y-81126686D01*
X126777261Y-81154737D01*
X126856057Y-81193644D01*
X126917011Y-81242526D01*
X126943081Y-81275387D01*
X126972589Y-81324586D01*
X126997860Y-81378444D01*
X127015510Y-81429611D01*
X127022150Y-81470736D01*
X127020590Y-81490451D01*
X127007649Y-81541784D01*
X126984486Y-81598310D01*
X126954594Y-81652227D01*
X126921465Y-81695731D01*
X126911269Y-81706079D01*
X126844184Y-81757854D01*
X126764058Y-81797746D01*
X126677848Y-81822148D01*
X126622884Y-81830260D01*
X126529431Y-81836865D01*
X126439650Y-81834778D01*
X126357161Y-81824532D01*
X126285578Y-81806662D01*
X126228520Y-81781700D01*
X126189603Y-81750180D01*
X126188228Y-81748204D01*
X126181140Y-81722978D01*
X126176901Y-81675727D01*
X126175492Y-81606263D01*
X126176352Y-81544030D01*
X126181072Y-81496648D01*
X126192762Y-81464545D01*
X126214531Y-81444992D01*
X126249490Y-81435262D01*
X126300748Y-81432625D01*
X126371415Y-81434353D01*
X126420035Y-81437365D01*
X126470231Y-81445558D01*
X126502725Y-81459611D01*
X126520184Y-81480846D01*
X126525275Y-81510586D01*
X126525169Y-81515128D01*
X126516467Y-81549922D01*
X126492457Y-81573339D01*
X126451192Y-81586539D01*
X126390723Y-81590681D01*
X126322248Y-81590681D01*
X126322248Y-81629033D01*
X126322298Y-81638168D01*
X126324519Y-81655419D01*
X126333786Y-81665713D01*
X126355167Y-81672651D01*
X126393728Y-81679833D01*
X126399202Y-81680767D01*
X126496152Y-81690670D01*
X126586144Y-81687751D01*
X126667052Y-81673021D01*
X126736751Y-81647491D01*
X126793116Y-81612170D01*
X126834021Y-81568071D01*
X126857343Y-81516204D01*
X126860955Y-81457580D01*
X126855437Y-81428686D01*
X126828753Y-81372796D01*
X126782565Y-81327137D01*
X126717583Y-81292300D01*
X126634521Y-81268882D01*
X126609847Y-81264433D01*
X126520518Y-81253934D01*
X126440711Y-81255163D01*
X126362618Y-81268098D01*
X126327475Y-81274888D01*
X126282037Y-81275905D01*
X126250722Y-81263374D01*
X126230569Y-81236587D01*
X126224185Y-81208340D01*
X126233671Y-81177116D01*
X126243000Y-81163691D01*
X126277235Y-81140159D01*
X126329857Y-81122287D01*
X126398373Y-81110791D01*
X126480292Y-81106384D01*
X126577442Y-81110371D01*
G37*
X123633425Y-81716588D02*
X123631455Y-81749367D01*
X123628527Y-81772287D01*
X123624450Y-81788089D01*
X123619035Y-81799511D01*
X123612095Y-81809292D01*
X123588698Y-81839037D01*
X123423006Y-81838443D01*
X123388210Y-81838145D01*
X123289727Y-81834714D01*
X123208765Y-81827031D01*
X123141671Y-81814474D01*
X123084788Y-81796419D01*
X123034461Y-81772244D01*
X123031102Y-81770327D01*
X122973290Y-81733609D01*
X122930936Y-81696643D01*
X122898120Y-81653158D01*
X122868920Y-81596881D01*
X122864638Y-81587265D01*
X122842061Y-81524079D01*
X122836326Y-81478525D01*
X122985571Y-81478525D01*
X122991184Y-81503253D01*
X122996910Y-81519131D01*
X123029840Y-81579039D01*
X123077178Y-81624792D01*
X123140944Y-81657928D01*
X123223153Y-81679982D01*
X123225947Y-81680484D01*
X123272232Y-81686447D01*
X123328628Y-81690675D01*
X123383566Y-81692281D01*
X123477448Y-81692281D01*
X123477448Y-81252014D01*
X123389959Y-81252462D01*
X123323039Y-81254938D01*
X123230641Y-81266190D01*
X123151326Y-81285729D01*
X123089352Y-81312703D01*
X123058412Y-81333432D01*
X123030292Y-81363198D01*
X123006952Y-81405626D01*
X122999825Y-81421592D01*
X122988001Y-81454094D01*
X122985571Y-81478525D01*
X122836326Y-81478525D01*
X122835089Y-81468701D01*
X122843691Y-81413675D01*
X122867833Y-81351543D01*
X122868629Y-81349850D01*
X122909080Y-81280428D01*
X122959765Y-81223830D01*
X123022490Y-81179262D01*
X123099066Y-81145933D01*
X123191301Y-81123053D01*
X123301004Y-81109828D01*
X123429983Y-81105467D01*
X123433555Y-81105462D01*
X123493575Y-81105602D01*
X123535506Y-81106638D01*
X123563620Y-81109232D01*
X123582189Y-81114045D01*
X123595486Y-81121736D01*
X123607783Y-81132968D01*
X123635492Y-81160677D01*
X123635492Y-81470112D01*
X123635467Y-81531718D01*
X123635242Y-81610503D01*
X123634624Y-81671213D01*
X123634067Y-81692281D01*
X123633425Y-81716588D01*
G36*
X123633425Y-81716588D02*
G01*
X123631455Y-81749367D01*
X123628527Y-81772287D01*
X123624450Y-81788089D01*
X123619035Y-81799511D01*
X123612095Y-81809292D01*
X123588698Y-81839037D01*
X123423006Y-81838443D01*
X123388210Y-81838145D01*
X123289727Y-81834714D01*
X123208765Y-81827031D01*
X123141671Y-81814474D01*
X123084788Y-81796419D01*
X123034461Y-81772244D01*
X123031102Y-81770327D01*
X122973290Y-81733609D01*
X122930936Y-81696643D01*
X122898120Y-81653158D01*
X122868920Y-81596881D01*
X122864638Y-81587265D01*
X122842061Y-81524079D01*
X122836326Y-81478525D01*
X122985571Y-81478525D01*
X122991184Y-81503253D01*
X122996910Y-81519131D01*
X123029840Y-81579039D01*
X123077178Y-81624792D01*
X123140944Y-81657928D01*
X123223153Y-81679982D01*
X123225947Y-81680484D01*
X123272232Y-81686447D01*
X123328628Y-81690675D01*
X123383566Y-81692281D01*
X123477448Y-81692281D01*
X123477448Y-81252014D01*
X123389959Y-81252462D01*
X123323039Y-81254938D01*
X123230641Y-81266190D01*
X123151326Y-81285729D01*
X123089352Y-81312703D01*
X123058412Y-81333432D01*
X123030292Y-81363198D01*
X123006952Y-81405626D01*
X122999825Y-81421592D01*
X122988001Y-81454094D01*
X122985571Y-81478525D01*
X122836326Y-81478525D01*
X122835089Y-81468701D01*
X122843691Y-81413675D01*
X122867833Y-81351543D01*
X122868629Y-81349850D01*
X122909080Y-81280428D01*
X122959765Y-81223830D01*
X123022490Y-81179262D01*
X123099066Y-81145933D01*
X123191301Y-81123053D01*
X123301004Y-81109828D01*
X123429983Y-81105467D01*
X123433555Y-81105462D01*
X123493575Y-81105602D01*
X123535506Y-81106638D01*
X123563620Y-81109232D01*
X123582189Y-81114045D01*
X123595486Y-81121736D01*
X123607783Y-81132968D01*
X123635492Y-81160677D01*
X123635492Y-81470112D01*
X123635467Y-81531718D01*
X123635242Y-81610503D01*
X123634624Y-81671213D01*
X123634067Y-81692281D01*
X123633425Y-81716588D01*
G37*
X125780185Y-81104084D02*
X125791593Y-81110221D01*
X125802142Y-81120883D01*
X125813428Y-81135003D01*
X125817881Y-81140964D01*
X125823880Y-81151460D01*
X125828459Y-81165285D01*
X125831811Y-81185190D01*
X125834125Y-81213924D01*
X125835593Y-81254237D01*
X125836405Y-81308879D01*
X125836752Y-81380599D01*
X125836826Y-81472148D01*
X125836803Y-81530678D01*
X125836584Y-81609765D01*
X125835975Y-81670708D01*
X125834784Y-81716254D01*
X125832821Y-81749155D01*
X125829895Y-81772160D01*
X125825815Y-81788018D01*
X125820389Y-81799478D01*
X125813428Y-81809292D01*
X125783000Y-81833685D01*
X125748057Y-81836564D01*
X125711076Y-81817474D01*
X125706892Y-81813999D01*
X125698716Y-81805471D01*
X125692656Y-81793920D01*
X125688273Y-81776088D01*
X125685131Y-81748716D01*
X125682794Y-81708546D01*
X125680823Y-81652320D01*
X125678781Y-81576781D01*
X125673137Y-81357650D01*
X125407848Y-81598291D01*
X125334014Y-81665067D01*
X125268834Y-81723183D01*
X125216640Y-81768141D01*
X125175565Y-81801063D01*
X125143747Y-81823071D01*
X125119318Y-81835286D01*
X125100416Y-81838831D01*
X125085175Y-81834828D01*
X125071731Y-81824399D01*
X125058219Y-81808666D01*
X125051974Y-81800183D01*
X125046342Y-81789605D01*
X125042131Y-81775447D01*
X125039179Y-81754995D01*
X125037324Y-81725534D01*
X125036405Y-81684353D01*
X125036260Y-81628736D01*
X125036727Y-81555971D01*
X125037644Y-81463343D01*
X125040959Y-81148391D01*
X125067610Y-81126825D01*
X125093675Y-81110633D01*
X125126533Y-81107862D01*
X125161064Y-81126815D01*
X125165376Y-81130400D01*
X125173508Y-81138929D01*
X125179537Y-81150521D01*
X125183898Y-81168427D01*
X125187026Y-81195898D01*
X125189355Y-81236186D01*
X125191321Y-81292543D01*
X125193359Y-81368221D01*
X125199003Y-81588070D01*
X125379626Y-81424276D01*
X125466364Y-81345643D01*
X125542135Y-81277250D01*
X125604272Y-81221900D01*
X125654370Y-81178530D01*
X125694027Y-81146073D01*
X125724840Y-81123465D01*
X125748406Y-81109640D01*
X125766322Y-81103535D01*
X125780185Y-81104084D01*
G36*
X125780185Y-81104084D02*
G01*
X125791593Y-81110221D01*
X125802142Y-81120883D01*
X125813428Y-81135003D01*
X125817881Y-81140964D01*
X125823880Y-81151460D01*
X125828459Y-81165285D01*
X125831811Y-81185190D01*
X125834125Y-81213924D01*
X125835593Y-81254237D01*
X125836405Y-81308879D01*
X125836752Y-81380599D01*
X125836826Y-81472148D01*
X125836803Y-81530678D01*
X125836584Y-81609765D01*
X125835975Y-81670708D01*
X125834784Y-81716254D01*
X125832821Y-81749155D01*
X125829895Y-81772160D01*
X125825815Y-81788018D01*
X125820389Y-81799478D01*
X125813428Y-81809292D01*
X125783000Y-81833685D01*
X125748057Y-81836564D01*
X125711076Y-81817474D01*
X125706892Y-81813999D01*
X125698716Y-81805471D01*
X125692656Y-81793920D01*
X125688273Y-81776088D01*
X125685131Y-81748716D01*
X125682794Y-81708546D01*
X125680823Y-81652320D01*
X125678781Y-81576781D01*
X125673137Y-81357650D01*
X125407848Y-81598291D01*
X125334014Y-81665067D01*
X125268834Y-81723183D01*
X125216640Y-81768141D01*
X125175565Y-81801063D01*
X125143747Y-81823071D01*
X125119318Y-81835286D01*
X125100416Y-81838831D01*
X125085175Y-81834828D01*
X125071731Y-81824399D01*
X125058219Y-81808666D01*
X125051974Y-81800183D01*
X125046342Y-81789605D01*
X125042131Y-81775447D01*
X125039179Y-81754995D01*
X125037324Y-81725534D01*
X125036405Y-81684353D01*
X125036260Y-81628736D01*
X125036727Y-81555971D01*
X125037644Y-81463343D01*
X125040959Y-81148391D01*
X125067610Y-81126825D01*
X125093675Y-81110633D01*
X125126533Y-81107862D01*
X125161064Y-81126815D01*
X125165376Y-81130400D01*
X125173508Y-81138929D01*
X125179537Y-81150521D01*
X125183898Y-81168427D01*
X125187026Y-81195898D01*
X125189355Y-81236186D01*
X125191321Y-81292543D01*
X125193359Y-81368221D01*
X125199003Y-81588070D01*
X125379626Y-81424276D01*
X125466364Y-81345643D01*
X125542135Y-81277250D01*
X125604272Y-81221900D01*
X125654370Y-81178530D01*
X125694027Y-81146073D01*
X125724840Y-81123465D01*
X125748406Y-81109640D01*
X125766322Y-81103535D01*
X125780185Y-81104084D01*
G37*
X119803755Y-78489001D02*
X119800842Y-78616057D01*
X119792512Y-78728109D01*
X119778120Y-78831252D01*
X119757021Y-78931581D01*
X119728570Y-79035190D01*
X119685428Y-79159033D01*
X119606190Y-79326216D01*
X119508993Y-79475961D01*
X119395325Y-79606852D01*
X119266672Y-79717474D01*
X119124521Y-79806412D01*
X118970359Y-79872250D01*
X118805674Y-79913574D01*
X118803692Y-79913906D01*
X118683337Y-79925486D01*
X118551099Y-79923941D01*
X118416404Y-79910222D01*
X118288684Y-79885283D01*
X118177366Y-79850077D01*
X118129851Y-79828653D01*
X118067969Y-79796090D01*
X118004380Y-79758846D01*
X117945721Y-79721021D01*
X117898626Y-79686714D01*
X117869730Y-79660024D01*
X117863097Y-79652696D01*
X117855189Y-79650135D01*
X117849903Y-79662851D01*
X117846008Y-79694899D01*
X117842271Y-79750331D01*
X117835406Y-79865838D01*
X117309569Y-79869434D01*
X116783732Y-79873031D01*
X116820116Y-79810946D01*
X116822285Y-79807276D01*
X116832865Y-79790044D01*
X116842463Y-79774693D01*
X116851131Y-79759889D01*
X116858920Y-79744299D01*
X116865882Y-79726589D01*
X116872069Y-79705424D01*
X116877531Y-79679473D01*
X116882322Y-79647400D01*
X116886492Y-79607872D01*
X116890094Y-79559557D01*
X116893178Y-79501119D01*
X116895797Y-79431226D01*
X116898002Y-79348544D01*
X116899844Y-79251739D01*
X116901376Y-79139477D01*
X116902612Y-79014205D01*
X117904054Y-79014205D01*
X117972703Y-79059233D01*
X117999103Y-79075453D01*
X118059552Y-79107857D01*
X118116865Y-79133661D01*
X118141965Y-79142398D01*
X118221831Y-79159841D01*
X118322811Y-79168748D01*
X118374159Y-79170601D01*
X118421823Y-79170179D01*
X118457304Y-79165419D01*
X118489129Y-79155014D01*
X118525823Y-79137659D01*
X118596342Y-79091169D01*
X118657435Y-79025406D01*
X118706337Y-78940658D01*
X118743515Y-78835597D01*
X118769432Y-78708895D01*
X118784556Y-78559222D01*
X118789350Y-78385252D01*
X118789117Y-78345700D01*
X118782225Y-78162444D01*
X118765488Y-78002985D01*
X118738501Y-77865643D01*
X118700855Y-77748734D01*
X118652144Y-77650577D01*
X118591961Y-77569488D01*
X118566993Y-77544740D01*
X118489613Y-77493181D01*
X118398776Y-77461807D01*
X118298419Y-77450795D01*
X118192475Y-77460324D01*
X118084879Y-77490572D01*
X117979568Y-77541718D01*
X117904054Y-77586982D01*
X117904054Y-79014205D01*
X116902612Y-79014205D01*
X116902649Y-79010425D01*
X116903715Y-78863250D01*
X116904625Y-78696618D01*
X116905431Y-78509194D01*
X116906185Y-78299646D01*
X116906938Y-78066640D01*
X116907742Y-77808842D01*
X116908649Y-77524919D01*
X116915514Y-75431135D01*
X117461271Y-75427545D01*
X117500959Y-75427304D01*
X117617730Y-75426825D01*
X117724535Y-75426727D01*
X117818458Y-75426992D01*
X117896584Y-75427599D01*
X117955998Y-75428528D01*
X117993784Y-75429759D01*
X118007027Y-75431272D01*
X118005333Y-75436069D01*
X117992694Y-75458810D01*
X117971760Y-75491881D01*
X117969672Y-75495043D01*
X117953442Y-75520577D01*
X117939833Y-75545421D01*
X117928616Y-75572134D01*
X117919559Y-75603274D01*
X117912431Y-75641402D01*
X117907003Y-75689075D01*
X117903043Y-75748853D01*
X117900320Y-75823295D01*
X117898605Y-75914960D01*
X117897665Y-76026408D01*
X117897270Y-76160196D01*
X117897189Y-76318885D01*
X117897333Y-76442781D01*
X117897774Y-76564419D01*
X117898479Y-76674711D01*
X117899417Y-76770973D01*
X117900557Y-76850519D01*
X117901865Y-76910663D01*
X117903310Y-76948718D01*
X117904859Y-76962000D01*
X117909858Y-76959939D01*
X117931831Y-76945422D01*
X117963211Y-76921581D01*
X118008704Y-76889519D01*
X118094178Y-76842279D01*
X118191872Y-76800140D01*
X118292666Y-76767370D01*
X118377352Y-76750660D01*
X118482823Y-76740009D01*
X118596971Y-76736318D01*
X118710989Y-76739594D01*
X118816067Y-76749840D01*
X118903396Y-76767060D01*
X118992317Y-76796068D01*
X119140658Y-76866389D01*
X119278010Y-76959877D01*
X119401841Y-77074377D01*
X119509615Y-77207739D01*
X119598799Y-77357808D01*
X119620940Y-77403826D01*
X119682987Y-77559048D01*
X119731496Y-77727513D01*
X119767080Y-77912192D01*
X119790353Y-78116053D01*
X119801927Y-78342067D01*
X119802465Y-78385252D01*
X119803755Y-78489001D01*
G36*
X119803755Y-78489001D02*
G01*
X119800842Y-78616057D01*
X119792512Y-78728109D01*
X119778120Y-78831252D01*
X119757021Y-78931581D01*
X119728570Y-79035190D01*
X119685428Y-79159033D01*
X119606190Y-79326216D01*
X119508993Y-79475961D01*
X119395325Y-79606852D01*
X119266672Y-79717474D01*
X119124521Y-79806412D01*
X118970359Y-79872250D01*
X118805674Y-79913574D01*
X118803692Y-79913906D01*
X118683337Y-79925486D01*
X118551099Y-79923941D01*
X118416404Y-79910222D01*
X118288684Y-79885283D01*
X118177366Y-79850077D01*
X118129851Y-79828653D01*
X118067969Y-79796090D01*
X118004380Y-79758846D01*
X117945721Y-79721021D01*
X117898626Y-79686714D01*
X117869730Y-79660024D01*
X117863097Y-79652696D01*
X117855189Y-79650135D01*
X117849903Y-79662851D01*
X117846008Y-79694899D01*
X117842271Y-79750331D01*
X117835406Y-79865838D01*
X117309569Y-79869434D01*
X116783732Y-79873031D01*
X116820116Y-79810946D01*
X116822285Y-79807276D01*
X116832865Y-79790044D01*
X116842463Y-79774693D01*
X116851131Y-79759889D01*
X116858920Y-79744299D01*
X116865882Y-79726589D01*
X116872069Y-79705424D01*
X116877531Y-79679473D01*
X116882322Y-79647400D01*
X116886492Y-79607872D01*
X116890094Y-79559557D01*
X116893178Y-79501119D01*
X116895797Y-79431226D01*
X116898002Y-79348544D01*
X116899844Y-79251739D01*
X116901376Y-79139477D01*
X116902612Y-79014205D01*
X117904054Y-79014205D01*
X117972703Y-79059233D01*
X117999103Y-79075453D01*
X118059552Y-79107857D01*
X118116865Y-79133661D01*
X118141965Y-79142398D01*
X118221831Y-79159841D01*
X118322811Y-79168748D01*
X118374159Y-79170601D01*
X118421823Y-79170179D01*
X118457304Y-79165419D01*
X118489129Y-79155014D01*
X118525823Y-79137659D01*
X118596342Y-79091169D01*
X118657435Y-79025406D01*
X118706337Y-78940658D01*
X118743515Y-78835597D01*
X118769432Y-78708895D01*
X118784556Y-78559222D01*
X118789350Y-78385252D01*
X118789117Y-78345700D01*
X118782225Y-78162444D01*
X118765488Y-78002985D01*
X118738501Y-77865643D01*
X118700855Y-77748734D01*
X118652144Y-77650577D01*
X118591961Y-77569488D01*
X118566993Y-77544740D01*
X118489613Y-77493181D01*
X118398776Y-77461807D01*
X118298419Y-77450795D01*
X118192475Y-77460324D01*
X118084879Y-77490572D01*
X117979568Y-77541718D01*
X117904054Y-77586982D01*
X117904054Y-79014205D01*
X116902612Y-79014205D01*
X116902649Y-79010425D01*
X116903715Y-78863250D01*
X116904625Y-78696618D01*
X116905431Y-78509194D01*
X116906185Y-78299646D01*
X116906938Y-78066640D01*
X116907742Y-77808842D01*
X116908649Y-77524919D01*
X116915514Y-75431135D01*
X117461271Y-75427545D01*
X117500959Y-75427304D01*
X117617730Y-75426825D01*
X117724535Y-75426727D01*
X117818458Y-75426992D01*
X117896584Y-75427599D01*
X117955998Y-75428528D01*
X117993784Y-75429759D01*
X118007027Y-75431272D01*
X118005333Y-75436069D01*
X117992694Y-75458810D01*
X117971760Y-75491881D01*
X117969672Y-75495043D01*
X117953442Y-75520577D01*
X117939833Y-75545421D01*
X117928616Y-75572134D01*
X117919559Y-75603274D01*
X117912431Y-75641402D01*
X117907003Y-75689075D01*
X117903043Y-75748853D01*
X117900320Y-75823295D01*
X117898605Y-75914960D01*
X117897665Y-76026408D01*
X117897270Y-76160196D01*
X117897189Y-76318885D01*
X117897333Y-76442781D01*
X117897774Y-76564419D01*
X117898479Y-76674711D01*
X117899417Y-76770973D01*
X117900557Y-76850519D01*
X117901865Y-76910663D01*
X117903310Y-76948718D01*
X117904859Y-76962000D01*
X117909858Y-76959939D01*
X117931831Y-76945422D01*
X117963211Y-76921581D01*
X118008704Y-76889519D01*
X118094178Y-76842279D01*
X118191872Y-76800140D01*
X118292666Y-76767370D01*
X118377352Y-76750660D01*
X118482823Y-76740009D01*
X118596971Y-76736318D01*
X118710989Y-76739594D01*
X118816067Y-76749840D01*
X118903396Y-76767060D01*
X118992317Y-76796068D01*
X119140658Y-76866389D01*
X119278010Y-76959877D01*
X119401841Y-77074377D01*
X119509615Y-77207739D01*
X119598799Y-77357808D01*
X119620940Y-77403826D01*
X119682987Y-77559048D01*
X119731496Y-77727513D01*
X119767080Y-77912192D01*
X119790353Y-78116053D01*
X119801927Y-78342067D01*
X119802465Y-78385252D01*
X119803755Y-78489001D01*
G37*
X119604059Y-81105260D02*
X119698182Y-81105350D01*
X119772697Y-81105690D01*
X119830103Y-81106431D01*
X119872903Y-81107727D01*
X119903596Y-81109729D01*
X119924683Y-81112588D01*
X119938665Y-81116458D01*
X119948042Y-81121490D01*
X119955314Y-81127837D01*
X119974120Y-81160554D01*
X119975567Y-81198131D01*
X119959209Y-81231370D01*
X119957849Y-81232823D01*
X119946646Y-81241184D01*
X119929544Y-81246739D01*
X119902374Y-81250032D01*
X119860970Y-81251610D01*
X119801165Y-81252014D01*
X119661803Y-81252014D01*
X119661803Y-81515781D01*
X119661728Y-81591609D01*
X119661320Y-81658275D01*
X119660338Y-81708059D01*
X119658542Y-81743976D01*
X119655691Y-81769042D01*
X119651545Y-81786273D01*
X119645863Y-81798684D01*
X119638406Y-81809292D01*
X119636116Y-81812098D01*
X119604938Y-81834740D01*
X119570558Y-81836304D01*
X119537626Y-81816459D01*
X119530647Y-81808383D01*
X119525175Y-81797785D01*
X119521155Y-81781941D01*
X119518364Y-81757965D01*
X119516580Y-81722966D01*
X119515581Y-81674056D01*
X119515144Y-81608346D01*
X119515048Y-81522948D01*
X119515048Y-81252014D01*
X119369112Y-81252014D01*
X119358012Y-81252013D01*
X119301494Y-81251788D01*
X119262650Y-81250649D01*
X119237257Y-81247849D01*
X119221096Y-81242642D01*
X119209944Y-81234281D01*
X119199581Y-81222018D01*
X119183733Y-81191330D01*
X119186835Y-81157550D01*
X119212479Y-81125014D01*
X119217421Y-81121297D01*
X119227630Y-81116461D01*
X119243056Y-81112698D01*
X119266178Y-81109875D01*
X119299475Y-81107862D01*
X119345429Y-81106525D01*
X119406520Y-81105734D01*
X119485227Y-81105355D01*
X119584032Y-81105259D01*
X119604059Y-81105260D01*
G36*
X119604059Y-81105260D02*
G01*
X119698182Y-81105350D01*
X119772697Y-81105690D01*
X119830103Y-81106431D01*
X119872903Y-81107727D01*
X119903596Y-81109729D01*
X119924683Y-81112588D01*
X119938665Y-81116458D01*
X119948042Y-81121490D01*
X119955314Y-81127837D01*
X119974120Y-81160554D01*
X119975567Y-81198131D01*
X119959209Y-81231370D01*
X119957849Y-81232823D01*
X119946646Y-81241184D01*
X119929544Y-81246739D01*
X119902374Y-81250032D01*
X119860970Y-81251610D01*
X119801165Y-81252014D01*
X119661803Y-81252014D01*
X119661803Y-81515781D01*
X119661728Y-81591609D01*
X119661320Y-81658275D01*
X119660338Y-81708059D01*
X119658542Y-81743976D01*
X119655691Y-81769042D01*
X119651545Y-81786273D01*
X119645863Y-81798684D01*
X119638406Y-81809292D01*
X119636116Y-81812098D01*
X119604938Y-81834740D01*
X119570558Y-81836304D01*
X119537626Y-81816459D01*
X119530647Y-81808383D01*
X119525175Y-81797785D01*
X119521155Y-81781941D01*
X119518364Y-81757965D01*
X119516580Y-81722966D01*
X119515581Y-81674056D01*
X119515144Y-81608346D01*
X119515048Y-81522948D01*
X119515048Y-81252014D01*
X119369112Y-81252014D01*
X119358012Y-81252013D01*
X119301494Y-81251788D01*
X119262650Y-81250649D01*
X119237257Y-81247849D01*
X119221096Y-81242642D01*
X119209944Y-81234281D01*
X119199581Y-81222018D01*
X119183733Y-81191330D01*
X119186835Y-81157550D01*
X119212479Y-81125014D01*
X119217421Y-81121297D01*
X119227630Y-81116461D01*
X119243056Y-81112698D01*
X119266178Y-81109875D01*
X119299475Y-81107862D01*
X119345429Y-81106525D01*
X119406520Y-81105734D01*
X119485227Y-81105355D01*
X119584032Y-81105259D01*
X119604059Y-81105260D01*
G37*
X120303698Y-81111141D02*
X120329419Y-81126839D01*
X120356070Y-81148419D01*
X120356070Y-81795876D01*
X120329419Y-81817456D01*
X120298059Y-81834931D01*
X120262258Y-81835767D01*
X120230820Y-81815274D01*
X120226944Y-81810608D01*
X120221478Y-81801141D01*
X120217271Y-81787459D01*
X120214159Y-81766940D01*
X120211979Y-81736960D01*
X120210568Y-81694896D01*
X120209763Y-81638124D01*
X120209399Y-81564022D01*
X120209314Y-81469965D01*
X120209314Y-81148419D01*
X120235965Y-81126839D01*
X120259678Y-81112069D01*
X120282692Y-81105259D01*
X120303698Y-81111141D01*
G36*
X120303698Y-81111141D02*
G01*
X120329419Y-81126839D01*
X120356070Y-81148419D01*
X120356070Y-81795876D01*
X120329419Y-81817456D01*
X120298059Y-81834931D01*
X120262258Y-81835767D01*
X120230820Y-81815274D01*
X120226944Y-81810608D01*
X120221478Y-81801141D01*
X120217271Y-81787459D01*
X120214159Y-81766940D01*
X120211979Y-81736960D01*
X120210568Y-81694896D01*
X120209763Y-81638124D01*
X120209399Y-81564022D01*
X120209314Y-81469965D01*
X120209314Y-81148419D01*
X120235965Y-81126839D01*
X120259678Y-81112069D01*
X120282692Y-81105259D01*
X120303698Y-81111141D01*
G37*
X129305026Y-81105275D02*
X129382123Y-81105467D01*
X129441069Y-81106052D01*
X129484656Y-81107243D01*
X129515675Y-81109256D01*
X129536917Y-81112304D01*
X129551174Y-81116601D01*
X129561237Y-81122364D01*
X129569898Y-81129804D01*
X129571683Y-81131485D01*
X129578927Y-81139024D01*
X129584569Y-81148042D01*
X129588809Y-81161176D01*
X129591848Y-81181064D01*
X129593886Y-81210343D01*
X129595122Y-81251650D01*
X129595757Y-81307623D01*
X129595992Y-81380899D01*
X129596026Y-81474115D01*
X129595989Y-81546905D01*
X129595740Y-81625081D01*
X129595104Y-81685295D01*
X129593907Y-81730174D01*
X129591976Y-81762344D01*
X129589138Y-81784431D01*
X129585219Y-81799062D01*
X129580047Y-81808862D01*
X129573448Y-81816459D01*
X129570114Y-81819636D01*
X129561592Y-81825746D01*
X129549590Y-81830421D01*
X129531379Y-81833851D01*
X129504232Y-81836228D01*
X129465421Y-81837744D01*
X129412216Y-81838590D01*
X129341890Y-81838957D01*
X129251714Y-81839037D01*
X129209606Y-81839025D01*
X129128459Y-81838843D01*
X129065967Y-81838290D01*
X129019401Y-81837174D01*
X128986033Y-81835305D01*
X128963136Y-81832490D01*
X128947980Y-81828538D01*
X128937838Y-81823258D01*
X128929981Y-81816459D01*
X128915255Y-81794859D01*
X128907403Y-81765659D01*
X128912902Y-81741752D01*
X128929981Y-81714859D01*
X128934960Y-81710251D01*
X128944735Y-81703964D01*
X128958851Y-81699338D01*
X128980346Y-81696122D01*
X129012260Y-81694062D01*
X129057634Y-81692904D01*
X129119505Y-81692394D01*
X129200914Y-81692281D01*
X129449270Y-81692281D01*
X129449270Y-81534237D01*
X129288093Y-81534237D01*
X129252275Y-81534091D01*
X129186651Y-81532368D01*
X129139410Y-81527933D01*
X129107675Y-81519829D01*
X129088569Y-81507098D01*
X129079215Y-81488784D01*
X129076737Y-81463930D01*
X129077534Y-81443674D01*
X129082786Y-81421848D01*
X129095580Y-81406496D01*
X129118920Y-81396501D01*
X129155809Y-81390745D01*
X129209251Y-81388111D01*
X129282250Y-81387481D01*
X129450397Y-81387481D01*
X129447011Y-81322570D01*
X129443626Y-81257659D01*
X129195909Y-81254610D01*
X129133318Y-81253731D01*
X129064857Y-81252287D01*
X129013953Y-81250356D01*
X128977700Y-81247706D01*
X128953193Y-81244102D01*
X128937527Y-81239313D01*
X128927798Y-81233105D01*
X128921783Y-81226702D01*
X128908774Y-81195020D01*
X128912335Y-81159334D01*
X128932110Y-81128276D01*
X128935361Y-81125353D01*
X128944341Y-81119002D01*
X128956445Y-81114149D01*
X128974451Y-81110595D01*
X129001139Y-81108138D01*
X129039289Y-81106577D01*
X129091678Y-81105710D01*
X129161086Y-81105338D01*
X129250293Y-81105259D01*
X129305026Y-81105275D01*
G36*
X129305026Y-81105275D02*
G01*
X129382123Y-81105467D01*
X129441069Y-81106052D01*
X129484656Y-81107243D01*
X129515675Y-81109256D01*
X129536917Y-81112304D01*
X129551174Y-81116601D01*
X129561237Y-81122364D01*
X129569898Y-81129804D01*
X129571683Y-81131485D01*
X129578927Y-81139024D01*
X129584569Y-81148042D01*
X129588809Y-81161176D01*
X129591848Y-81181064D01*
X129593886Y-81210343D01*
X129595122Y-81251650D01*
X129595757Y-81307623D01*
X129595992Y-81380899D01*
X129596026Y-81474115D01*
X129595989Y-81546905D01*
X129595740Y-81625081D01*
X129595104Y-81685295D01*
X129593907Y-81730174D01*
X129591976Y-81762344D01*
X129589138Y-81784431D01*
X129585219Y-81799062D01*
X129580047Y-81808862D01*
X129573448Y-81816459D01*
X129570114Y-81819636D01*
X129561592Y-81825746D01*
X129549590Y-81830421D01*
X129531379Y-81833851D01*
X129504232Y-81836228D01*
X129465421Y-81837744D01*
X129412216Y-81838590D01*
X129341890Y-81838957D01*
X129251714Y-81839037D01*
X129209606Y-81839025D01*
X129128459Y-81838843D01*
X129065967Y-81838290D01*
X129019401Y-81837174D01*
X128986033Y-81835305D01*
X128963136Y-81832490D01*
X128947980Y-81828538D01*
X128937838Y-81823258D01*
X128929981Y-81816459D01*
X128915255Y-81794859D01*
X128907403Y-81765659D01*
X128912902Y-81741752D01*
X128929981Y-81714859D01*
X128934960Y-81710251D01*
X128944735Y-81703964D01*
X128958851Y-81699338D01*
X128980346Y-81696122D01*
X129012260Y-81694062D01*
X129057634Y-81692904D01*
X129119505Y-81692394D01*
X129200914Y-81692281D01*
X129449270Y-81692281D01*
X129449270Y-81534237D01*
X129288093Y-81534237D01*
X129252275Y-81534091D01*
X129186651Y-81532368D01*
X129139410Y-81527933D01*
X129107675Y-81519829D01*
X129088569Y-81507098D01*
X129079215Y-81488784D01*
X129076737Y-81463930D01*
X129077534Y-81443674D01*
X129082786Y-81421848D01*
X129095580Y-81406496D01*
X129118920Y-81396501D01*
X129155809Y-81390745D01*
X129209251Y-81388111D01*
X129282250Y-81387481D01*
X129450397Y-81387481D01*
X129447011Y-81322570D01*
X129443626Y-81257659D01*
X129195909Y-81254610D01*
X129133318Y-81253731D01*
X129064857Y-81252287D01*
X129013953Y-81250356D01*
X128977700Y-81247706D01*
X128953193Y-81244102D01*
X128937527Y-81239313D01*
X128927798Y-81233105D01*
X128921783Y-81226702D01*
X128908774Y-81195020D01*
X128912335Y-81159334D01*
X128932110Y-81128276D01*
X128935361Y-81125353D01*
X128944341Y-81119002D01*
X128956445Y-81114149D01*
X128974451Y-81110595D01*
X129001139Y-81108138D01*
X129039289Y-81106577D01*
X129091678Y-81105710D01*
X129161086Y-81105338D01*
X129250293Y-81105259D01*
X129305026Y-81105275D01*
G37*
X128289145Y-81106128D02*
X128355392Y-81111558D01*
X128410692Y-81121156D01*
X128461575Y-81136017D01*
X128532887Y-81169150D01*
X128584044Y-81211832D01*
X128614867Y-81263897D01*
X128625181Y-81325175D01*
X128624244Y-81356424D01*
X128618452Y-81381221D01*
X128603645Y-81402891D01*
X128575672Y-81430241D01*
X128567694Y-81437570D01*
X128543984Y-81458473D01*
X128521590Y-81475443D01*
X128497557Y-81489397D01*
X128468929Y-81501248D01*
X128432752Y-81511912D01*
X128386072Y-81522303D01*
X128325933Y-81533338D01*
X128249382Y-81545930D01*
X128153463Y-81560996D01*
X128135100Y-81564030D01*
X128072770Y-81577650D01*
X128027552Y-81593384D01*
X128001268Y-81610455D01*
X127995739Y-81628089D01*
X127998360Y-81632360D01*
X128016292Y-81647425D01*
X128044418Y-81664059D01*
X128057218Y-81670049D01*
X128078516Y-81677242D01*
X128104902Y-81682019D01*
X128140746Y-81684838D01*
X128190420Y-81686156D01*
X128258292Y-81686429D01*
X128276077Y-81686356D01*
X128343698Y-81685245D01*
X128408637Y-81683020D01*
X128464262Y-81679954D01*
X128503943Y-81676319D01*
X128539454Y-81672251D01*
X128568707Y-81671468D01*
X128587607Y-81676068D01*
X128602721Y-81686743D01*
X128606377Y-81690336D01*
X128622719Y-81722110D01*
X128621399Y-81757764D01*
X128602442Y-81788382D01*
X128582072Y-81799988D01*
X128546088Y-81812683D01*
X128503664Y-81822733D01*
X128500214Y-81823332D01*
X128457544Y-81828548D01*
X128400158Y-81832922D01*
X128335141Y-81836010D01*
X128269581Y-81837369D01*
X128253349Y-81837410D01*
X128155036Y-81834933D01*
X128074984Y-81826927D01*
X128009805Y-81812395D01*
X127956109Y-81790341D01*
X127910508Y-81759768D01*
X127869615Y-81719678D01*
X127849494Y-81693451D01*
X127837868Y-81663904D01*
X127834959Y-81624187D01*
X127835100Y-81612218D01*
X127838973Y-81579537D01*
X127851357Y-81553011D01*
X127876522Y-81522163D01*
X127897734Y-81500023D01*
X127924130Y-81477477D01*
X127953847Y-81459109D01*
X127990077Y-81443853D01*
X128036009Y-81430641D01*
X128094836Y-81418406D01*
X128169748Y-81406081D01*
X128263937Y-81392598D01*
X128309249Y-81385588D01*
X128377203Y-81371029D01*
X128426339Y-81354529D01*
X128455906Y-81336631D01*
X128465156Y-81317877D01*
X128453340Y-81298807D01*
X128419708Y-81279963D01*
X128416662Y-81278749D01*
X128370303Y-81266671D01*
X128307653Y-81258471D01*
X128234219Y-81254311D01*
X128155509Y-81254353D01*
X128077031Y-81258761D01*
X128004292Y-81267697D01*
X128000365Y-81268346D01*
X127951549Y-81276053D01*
X127919297Y-81279665D01*
X127898300Y-81279068D01*
X127883246Y-81274146D01*
X127868826Y-81264788D01*
X127867656Y-81263917D01*
X127843139Y-81233543D01*
X127838346Y-81198042D01*
X127854152Y-81163461D01*
X127858698Y-81159005D01*
X127888312Y-81143865D01*
X127935294Y-81130742D01*
X127995598Y-81119942D01*
X128065180Y-81111773D01*
X128139995Y-81106543D01*
X128215998Y-81104559D01*
X128289145Y-81106128D01*
G36*
X128289145Y-81106128D02*
G01*
X128355392Y-81111558D01*
X128410692Y-81121156D01*
X128461575Y-81136017D01*
X128532887Y-81169150D01*
X128584044Y-81211832D01*
X128614867Y-81263897D01*
X128625181Y-81325175D01*
X128624244Y-81356424D01*
X128618452Y-81381221D01*
X128603645Y-81402891D01*
X128575672Y-81430241D01*
X128567694Y-81437570D01*
X128543984Y-81458473D01*
X128521590Y-81475443D01*
X128497557Y-81489397D01*
X128468929Y-81501248D01*
X128432752Y-81511912D01*
X128386072Y-81522303D01*
X128325933Y-81533338D01*
X128249382Y-81545930D01*
X128153463Y-81560996D01*
X128135100Y-81564030D01*
X128072770Y-81577650D01*
X128027552Y-81593384D01*
X128001268Y-81610455D01*
X127995739Y-81628089D01*
X127998360Y-81632360D01*
X128016292Y-81647425D01*
X128044418Y-81664059D01*
X128057218Y-81670049D01*
X128078516Y-81677242D01*
X128104902Y-81682019D01*
X128140746Y-81684838D01*
X128190420Y-81686156D01*
X128258292Y-81686429D01*
X128276077Y-81686356D01*
X128343698Y-81685245D01*
X128408637Y-81683020D01*
X128464262Y-81679954D01*
X128503943Y-81676319D01*
X128539454Y-81672251D01*
X128568707Y-81671468D01*
X128587607Y-81676068D01*
X128602721Y-81686743D01*
X128606377Y-81690336D01*
X128622719Y-81722110D01*
X128621399Y-81757764D01*
X128602442Y-81788382D01*
X128582072Y-81799988D01*
X128546088Y-81812683D01*
X128503664Y-81822733D01*
X128500214Y-81823332D01*
X128457544Y-81828548D01*
X128400158Y-81832922D01*
X128335141Y-81836010D01*
X128269581Y-81837369D01*
X128253349Y-81837410D01*
X128155036Y-81834933D01*
X128074984Y-81826927D01*
X128009805Y-81812395D01*
X127956109Y-81790341D01*
X127910508Y-81759768D01*
X127869615Y-81719678D01*
X127849494Y-81693451D01*
X127837868Y-81663904D01*
X127834959Y-81624187D01*
X127835100Y-81612218D01*
X127838973Y-81579537D01*
X127851357Y-81553011D01*
X127876522Y-81522163D01*
X127897734Y-81500023D01*
X127924130Y-81477477D01*
X127953847Y-81459109D01*
X127990077Y-81443853D01*
X128036009Y-81430641D01*
X128094836Y-81418406D01*
X128169748Y-81406081D01*
X128263937Y-81392598D01*
X128309249Y-81385588D01*
X128377203Y-81371029D01*
X128426339Y-81354529D01*
X128455906Y-81336631D01*
X128465156Y-81317877D01*
X128453340Y-81298807D01*
X128419708Y-81279963D01*
X128416662Y-81278749D01*
X128370303Y-81266671D01*
X128307653Y-81258471D01*
X128234219Y-81254311D01*
X128155509Y-81254353D01*
X128077031Y-81258761D01*
X128004292Y-81267697D01*
X128000365Y-81268346D01*
X127951549Y-81276053D01*
X127919297Y-81279665D01*
X127898300Y-81279068D01*
X127883246Y-81274146D01*
X127868826Y-81264788D01*
X127867656Y-81263917D01*
X127843139Y-81233543D01*
X127838346Y-81198042D01*
X127854152Y-81163461D01*
X127858698Y-81159005D01*
X127888312Y-81143865D01*
X127935294Y-81130742D01*
X127995598Y-81119942D01*
X128065180Y-81111773D01*
X128139995Y-81106543D01*
X128215998Y-81104559D01*
X128289145Y-81106128D01*
G37*
X124628095Y-81135003D02*
X124633044Y-81141687D01*
X124638888Y-81152258D01*
X124643349Y-81166345D01*
X124646613Y-81186670D01*
X124648866Y-81215957D01*
X124650294Y-81256929D01*
X124651084Y-81312309D01*
X124651421Y-81384820D01*
X124651492Y-81477186D01*
X124651463Y-81543103D01*
X124651231Y-81621420D01*
X124650611Y-81681688D01*
X124649418Y-81726585D01*
X124647471Y-81758794D01*
X124644586Y-81780992D01*
X124640580Y-81795861D01*
X124635271Y-81806081D01*
X124628475Y-81814330D01*
X124623960Y-81818987D01*
X124615730Y-81825474D01*
X124604370Y-81830386D01*
X124587102Y-81833941D01*
X124561147Y-81836359D01*
X124523728Y-81837859D01*
X124472065Y-81838659D01*
X124403381Y-81838979D01*
X124314898Y-81839037D01*
X124295223Y-81839030D01*
X124208198Y-81838764D01*
X124140546Y-81837998D01*
X124089591Y-81836584D01*
X124052659Y-81834372D01*
X124027075Y-81831214D01*
X124010163Y-81826961D01*
X123999249Y-81821463D01*
X123988756Y-81811477D01*
X123975495Y-81780360D01*
X123976678Y-81744472D01*
X123992842Y-81712925D01*
X123995031Y-81710649D01*
X124003719Y-81704381D01*
X124017061Y-81699715D01*
X124038044Y-81696419D01*
X124069655Y-81694260D01*
X124114882Y-81693006D01*
X124176712Y-81692423D01*
X124258131Y-81692281D01*
X124504737Y-81692281D01*
X124504737Y-81534237D01*
X124342298Y-81534237D01*
X124306630Y-81534156D01*
X124250860Y-81533359D01*
X124211722Y-81531354D01*
X124185268Y-81527713D01*
X124167551Y-81522004D01*
X124154621Y-81513799D01*
X124150978Y-81510615D01*
X124132570Y-81479640D01*
X124131936Y-81443304D01*
X124149475Y-81409685D01*
X124149537Y-81409616D01*
X124159208Y-81400990D01*
X124172501Y-81394934D01*
X124193209Y-81391003D01*
X124225120Y-81388748D01*
X124272026Y-81387723D01*
X124337716Y-81387481D01*
X124505863Y-81387481D01*
X124502478Y-81322570D01*
X124499092Y-81257659D01*
X124257015Y-81254606D01*
X124231999Y-81254278D01*
X124150379Y-81252798D01*
X124088060Y-81250414D01*
X124042446Y-81246419D01*
X124010944Y-81240105D01*
X123990959Y-81230766D01*
X123979896Y-81217695D01*
X123975161Y-81200184D01*
X123974159Y-81177527D01*
X123974165Y-81175162D01*
X123975319Y-81155131D01*
X123980116Y-81139338D01*
X123990924Y-81127282D01*
X124010109Y-81118459D01*
X124040037Y-81112367D01*
X124083075Y-81108503D01*
X124141591Y-81106366D01*
X124217949Y-81105452D01*
X124314518Y-81105259D01*
X124604698Y-81105259D01*
X124628095Y-81135003D01*
G36*
X124628095Y-81135003D02*
G01*
X124633044Y-81141687D01*
X124638888Y-81152258D01*
X124643349Y-81166345D01*
X124646613Y-81186670D01*
X124648866Y-81215957D01*
X124650294Y-81256929D01*
X124651084Y-81312309D01*
X124651421Y-81384820D01*
X124651492Y-81477186D01*
X124651463Y-81543103D01*
X124651231Y-81621420D01*
X124650611Y-81681688D01*
X124649418Y-81726585D01*
X124647471Y-81758794D01*
X124644586Y-81780992D01*
X124640580Y-81795861D01*
X124635271Y-81806081D01*
X124628475Y-81814330D01*
X124623960Y-81818987D01*
X124615730Y-81825474D01*
X124604370Y-81830386D01*
X124587102Y-81833941D01*
X124561147Y-81836359D01*
X124523728Y-81837859D01*
X124472065Y-81838659D01*
X124403381Y-81838979D01*
X124314898Y-81839037D01*
X124295223Y-81839030D01*
X124208198Y-81838764D01*
X124140546Y-81837998D01*
X124089591Y-81836584D01*
X124052659Y-81834372D01*
X124027075Y-81831214D01*
X124010163Y-81826961D01*
X123999249Y-81821463D01*
X123988756Y-81811477D01*
X123975495Y-81780360D01*
X123976678Y-81744472D01*
X123992842Y-81712925D01*
X123995031Y-81710649D01*
X124003719Y-81704381D01*
X124017061Y-81699715D01*
X124038044Y-81696419D01*
X124069655Y-81694260D01*
X124114882Y-81693006D01*
X124176712Y-81692423D01*
X124258131Y-81692281D01*
X124504737Y-81692281D01*
X124504737Y-81534237D01*
X124342298Y-81534237D01*
X124306630Y-81534156D01*
X124250860Y-81533359D01*
X124211722Y-81531354D01*
X124185268Y-81527713D01*
X124167551Y-81522004D01*
X124154621Y-81513799D01*
X124150978Y-81510615D01*
X124132570Y-81479640D01*
X124131936Y-81443304D01*
X124149475Y-81409685D01*
X124149537Y-81409616D01*
X124159208Y-81400990D01*
X124172501Y-81394934D01*
X124193209Y-81391003D01*
X124225120Y-81388748D01*
X124272026Y-81387723D01*
X124337716Y-81387481D01*
X124505863Y-81387481D01*
X124502478Y-81322570D01*
X124499092Y-81257659D01*
X124257015Y-81254606D01*
X124231999Y-81254278D01*
X124150379Y-81252798D01*
X124088060Y-81250414D01*
X124042446Y-81246419D01*
X124010944Y-81240105D01*
X123990959Y-81230766D01*
X123979896Y-81217695D01*
X123975161Y-81200184D01*
X123974159Y-81177527D01*
X123974165Y-81175162D01*
X123975319Y-81155131D01*
X123980116Y-81139338D01*
X123990924Y-81127282D01*
X124010109Y-81118459D01*
X124040037Y-81112367D01*
X124083075Y-81108503D01*
X124141591Y-81106366D01*
X124217949Y-81105452D01*
X124314518Y-81105259D01*
X124604698Y-81105259D01*
X124628095Y-81135003D01*
G37*
X124288847Y-75628078D02*
X124473348Y-75645015D01*
X124644749Y-75679174D01*
X124809427Y-75731991D01*
X124973756Y-75804905D01*
X125136424Y-75898001D01*
X125310999Y-76024914D01*
X125472888Y-76171650D01*
X125618528Y-76334576D01*
X125744352Y-76510059D01*
X125846797Y-76694468D01*
X125856096Y-76714196D01*
X125933973Y-76904613D01*
X125993148Y-77102477D01*
X126034387Y-77311570D01*
X126058452Y-77535670D01*
X126066111Y-77778559D01*
X126056799Y-78029643D01*
X126027244Y-78276912D01*
X125976987Y-78508383D01*
X125905577Y-78725699D01*
X125812566Y-78930502D01*
X125697504Y-79124433D01*
X125589422Y-79272594D01*
X125440184Y-79439300D01*
X125277521Y-79582089D01*
X125101505Y-79700914D01*
X124912207Y-79795729D01*
X124709697Y-79866487D01*
X124494048Y-79913142D01*
X124491587Y-79913505D01*
X124450058Y-79917149D01*
X124387388Y-79919852D01*
X124309373Y-79921487D01*
X124221808Y-79921930D01*
X124130487Y-79921052D01*
X124066484Y-79919767D01*
X123971523Y-79916790D01*
X123895428Y-79912528D01*
X123832712Y-79906526D01*
X123777885Y-79898329D01*
X123725460Y-79887482D01*
X123666477Y-79873465D01*
X123604940Y-79857503D01*
X123549286Y-79840758D01*
X123494463Y-79821268D01*
X123435422Y-79797073D01*
X123367111Y-79766210D01*
X123284478Y-79726719D01*
X123182473Y-79676639D01*
X122900352Y-79537215D01*
X123126313Y-79166067D01*
X123155896Y-79117490D01*
X123209043Y-79030289D01*
X123256614Y-78952331D01*
X123296868Y-78886458D01*
X123328068Y-78835516D01*
X123348476Y-78802347D01*
X123356352Y-78789795D01*
X123358542Y-78790170D01*
X123376188Y-78802454D01*
X123407189Y-78827947D01*
X123446647Y-78862694D01*
X123516920Y-78922729D01*
X123642371Y-79011506D01*
X123764089Y-79073394D01*
X123852045Y-79104300D01*
X124000817Y-79135885D01*
X124146989Y-79141484D01*
X124288443Y-79121477D01*
X124423058Y-79076246D01*
X124548714Y-79006173D01*
X124663293Y-78911639D01*
X124727049Y-78842011D01*
X124816867Y-78713224D01*
X124890567Y-78563773D01*
X124948501Y-78392892D01*
X124991021Y-78199817D01*
X124992951Y-78187831D01*
X125001863Y-78110143D01*
X125008497Y-78013617D01*
X125012800Y-77904849D01*
X125014719Y-77790434D01*
X125014198Y-77676968D01*
X125011185Y-77571046D01*
X125005626Y-77479263D01*
X124997467Y-77408217D01*
X124966194Y-77247280D01*
X124913574Y-77059286D01*
X124847395Y-76894700D01*
X124767747Y-76753649D01*
X124674717Y-76636260D01*
X124568394Y-76542663D01*
X124448867Y-76472982D01*
X124316224Y-76427347D01*
X124286795Y-76421683D01*
X124213044Y-76414288D01*
X124126856Y-76411874D01*
X124037884Y-76414308D01*
X123955786Y-76421460D01*
X123890217Y-76433195D01*
X123780986Y-76470561D01*
X123654227Y-76538778D01*
X123541358Y-76628550D01*
X123521437Y-76647461D01*
X123485340Y-76680918D01*
X123459829Y-76703438D01*
X123449464Y-76710928D01*
X123446913Y-76707346D01*
X123431206Y-76684723D01*
X123402832Y-76643647D01*
X123363664Y-76586836D01*
X123315578Y-76517012D01*
X123260448Y-76436893D01*
X123200149Y-76349201D01*
X122953514Y-75990402D01*
X123008611Y-75973895D01*
X123014360Y-75972024D01*
X123051785Y-75957166D01*
X123105744Y-75933208D01*
X123169902Y-75903031D01*
X123237929Y-75869517D01*
X123267572Y-75854700D01*
X123432176Y-75778201D01*
X123583890Y-75719045D01*
X123728548Y-75675718D01*
X123871986Y-75646707D01*
X124020038Y-75630499D01*
X124178541Y-75625580D01*
X124288847Y-75628078D01*
G36*
X124288847Y-75628078D02*
G01*
X124473348Y-75645015D01*
X124644749Y-75679174D01*
X124809427Y-75731991D01*
X124973756Y-75804905D01*
X125136424Y-75898001D01*
X125310999Y-76024914D01*
X125472888Y-76171650D01*
X125618528Y-76334576D01*
X125744352Y-76510059D01*
X125846797Y-76694468D01*
X125856096Y-76714196D01*
X125933973Y-76904613D01*
X125993148Y-77102477D01*
X126034387Y-77311570D01*
X126058452Y-77535670D01*
X126066111Y-77778559D01*
X126056799Y-78029643D01*
X126027244Y-78276912D01*
X125976987Y-78508383D01*
X125905577Y-78725699D01*
X125812566Y-78930502D01*
X125697504Y-79124433D01*
X125589422Y-79272594D01*
X125440184Y-79439300D01*
X125277521Y-79582089D01*
X125101505Y-79700914D01*
X124912207Y-79795729D01*
X124709697Y-79866487D01*
X124494048Y-79913142D01*
X124491587Y-79913505D01*
X124450058Y-79917149D01*
X124387388Y-79919852D01*
X124309373Y-79921487D01*
X124221808Y-79921930D01*
X124130487Y-79921052D01*
X124066484Y-79919767D01*
X123971523Y-79916790D01*
X123895428Y-79912528D01*
X123832712Y-79906526D01*
X123777885Y-79898329D01*
X123725460Y-79887482D01*
X123666477Y-79873465D01*
X123604940Y-79857503D01*
X123549286Y-79840758D01*
X123494463Y-79821268D01*
X123435422Y-79797073D01*
X123367111Y-79766210D01*
X123284478Y-79726719D01*
X123182473Y-79676639D01*
X122900352Y-79537215D01*
X123126313Y-79166067D01*
X123155896Y-79117490D01*
X123209043Y-79030289D01*
X123256614Y-78952331D01*
X123296868Y-78886458D01*
X123328068Y-78835516D01*
X123348476Y-78802347D01*
X123356352Y-78789795D01*
X123358542Y-78790170D01*
X123376188Y-78802454D01*
X123407189Y-78827947D01*
X123446647Y-78862694D01*
X123516920Y-78922729D01*
X123642371Y-79011506D01*
X123764089Y-79073394D01*
X123852045Y-79104300D01*
X124000817Y-79135885D01*
X124146989Y-79141484D01*
X124288443Y-79121477D01*
X124423058Y-79076246D01*
X124548714Y-79006173D01*
X124663293Y-78911639D01*
X124727049Y-78842011D01*
X124816867Y-78713224D01*
X124890567Y-78563773D01*
X124948501Y-78392892D01*
X124991021Y-78199817D01*
X124992951Y-78187831D01*
X125001863Y-78110143D01*
X125008497Y-78013617D01*
X125012800Y-77904849D01*
X125014719Y-77790434D01*
X125014198Y-77676968D01*
X125011185Y-77571046D01*
X125005626Y-77479263D01*
X124997467Y-77408217D01*
X124966194Y-77247280D01*
X124913574Y-77059286D01*
X124847395Y-76894700D01*
X124767747Y-76753649D01*
X124674717Y-76636260D01*
X124568394Y-76542663D01*
X124448867Y-76472982D01*
X124316224Y-76427347D01*
X124286795Y-76421683D01*
X124213044Y-76414288D01*
X124126856Y-76411874D01*
X124037884Y-76414308D01*
X123955786Y-76421460D01*
X123890217Y-76433195D01*
X123780986Y-76470561D01*
X123654227Y-76538778D01*
X123541358Y-76628550D01*
X123521437Y-76647461D01*
X123485340Y-76680918D01*
X123459829Y-76703438D01*
X123449464Y-76710928D01*
X123446913Y-76707346D01*
X123431206Y-76684723D01*
X123402832Y-76643647D01*
X123363664Y-76586836D01*
X123315578Y-76517012D01*
X123260448Y-76436893D01*
X123200149Y-76349201D01*
X122953514Y-75990402D01*
X123008611Y-75973895D01*
X123014360Y-75972024D01*
X123051785Y-75957166D01*
X123105744Y-75933208D01*
X123169902Y-75903031D01*
X123237929Y-75869517D01*
X123267572Y-75854700D01*
X123432176Y-75778201D01*
X123583890Y-75719045D01*
X123728548Y-75675718D01*
X123871986Y-75646707D01*
X124020038Y-75630499D01*
X124178541Y-75625580D01*
X124288847Y-75628078D01*
G37*
X127434429Y-81109655D02*
X127468583Y-81132968D01*
X127496292Y-81160677D01*
X127496292Y-81473729D01*
X127496251Y-81557759D01*
X127495993Y-81631981D01*
X127495322Y-81688733D01*
X127494044Y-81730704D01*
X127491965Y-81760581D01*
X127488891Y-81781053D01*
X127484626Y-81794806D01*
X127478976Y-81804529D01*
X127471747Y-81812909D01*
X127440283Y-81834373D01*
X127405118Y-81836139D01*
X127372114Y-81816459D01*
X127366808Y-81810590D01*
X127361358Y-81801506D01*
X127357192Y-81788165D01*
X127354138Y-81767949D01*
X127352024Y-81738241D01*
X127350678Y-81696424D01*
X127349930Y-81639881D01*
X127349606Y-81565994D01*
X127349537Y-81472148D01*
X127349576Y-81396486D01*
X127349831Y-81318577D01*
X127350475Y-81258567D01*
X127351679Y-81213840D01*
X127353616Y-81181777D01*
X127356456Y-81159763D01*
X127360371Y-81145179D01*
X127365534Y-81135410D01*
X127372114Y-81127837D01*
X127401298Y-81108815D01*
X127434429Y-81109655D01*
G36*
X127434429Y-81109655D02*
G01*
X127468583Y-81132968D01*
X127496292Y-81160677D01*
X127496292Y-81473729D01*
X127496251Y-81557759D01*
X127495993Y-81631981D01*
X127495322Y-81688733D01*
X127494044Y-81730704D01*
X127491965Y-81760581D01*
X127488891Y-81781053D01*
X127484626Y-81794806D01*
X127478976Y-81804529D01*
X127471747Y-81812909D01*
X127440283Y-81834373D01*
X127405118Y-81836139D01*
X127372114Y-81816459D01*
X127366808Y-81810590D01*
X127361358Y-81801506D01*
X127357192Y-81788165D01*
X127354138Y-81767949D01*
X127352024Y-81738241D01*
X127350678Y-81696424D01*
X127349930Y-81639881D01*
X127349606Y-81565994D01*
X127349537Y-81472148D01*
X127349576Y-81396486D01*
X127349831Y-81318577D01*
X127350475Y-81258567D01*
X127351679Y-81213840D01*
X127353616Y-81181777D01*
X127356456Y-81159763D01*
X127360371Y-81145179D01*
X127365534Y-81135410D01*
X127372114Y-81127837D01*
X127401298Y-81108815D01*
X127434429Y-81109655D01*
G37*
X127401012Y-74496581D02*
X127506536Y-74522436D01*
X127606560Y-74568841D01*
X127697934Y-74635803D01*
X127777505Y-74723328D01*
X127842120Y-74831426D01*
X127859443Y-74869506D01*
X127873477Y-74908103D01*
X127881352Y-74946689D01*
X127884803Y-74994415D01*
X127885568Y-75060433D01*
X127885105Y-75115381D01*
X127882319Y-75165880D01*
X127875487Y-75205280D01*
X127862904Y-75242628D01*
X127842864Y-75286973D01*
X127837066Y-75298791D01*
X127768545Y-75407001D01*
X127682365Y-75496033D01*
X127580972Y-75563797D01*
X127466811Y-75608206D01*
X127408234Y-75620598D01*
X127289399Y-75626397D01*
X127174300Y-75607634D01*
X127066312Y-75566232D01*
X126968809Y-75504115D01*
X126885168Y-75423207D01*
X126818763Y-75325432D01*
X126772969Y-75212714D01*
X126756214Y-75120471D01*
X126754705Y-75018677D01*
X126768332Y-74919660D01*
X126796445Y-74833892D01*
X126828930Y-74772573D01*
X126901247Y-74675288D01*
X126986978Y-74598507D01*
X127082973Y-74542238D01*
X127186079Y-74506490D01*
X127293142Y-74491268D01*
X127401012Y-74496581D01*
G36*
X127401012Y-74496581D02*
G01*
X127506536Y-74522436D01*
X127606560Y-74568841D01*
X127697934Y-74635803D01*
X127777505Y-74723328D01*
X127842120Y-74831426D01*
X127859443Y-74869506D01*
X127873477Y-74908103D01*
X127881352Y-74946689D01*
X127884803Y-74994415D01*
X127885568Y-75060433D01*
X127885105Y-75115381D01*
X127882319Y-75165880D01*
X127875487Y-75205280D01*
X127862904Y-75242628D01*
X127842864Y-75286973D01*
X127837066Y-75298791D01*
X127768545Y-75407001D01*
X127682365Y-75496033D01*
X127580972Y-75563797D01*
X127466811Y-75608206D01*
X127408234Y-75620598D01*
X127289399Y-75626397D01*
X127174300Y-75607634D01*
X127066312Y-75566232D01*
X126968809Y-75504115D01*
X126885168Y-75423207D01*
X126818763Y-75325432D01*
X126772969Y-75212714D01*
X126756214Y-75120471D01*
X126754705Y-75018677D01*
X126768332Y-74919660D01*
X126796445Y-74833892D01*
X126828930Y-74772573D01*
X126901247Y-74675288D01*
X126986978Y-74598507D01*
X127082973Y-74542238D01*
X127186079Y-74506490D01*
X127293142Y-74491268D01*
X127401012Y-74496581D01*
G37*
X130725109Y-81290619D02*
X130725162Y-81371233D01*
X130724914Y-81472148D01*
X130724875Y-81547809D01*
X130724620Y-81625718D01*
X130723976Y-81685728D01*
X130722772Y-81730456D01*
X130720835Y-81762518D01*
X130717995Y-81784532D01*
X130714080Y-81799116D01*
X130708918Y-81808886D01*
X130702337Y-81816459D01*
X130695369Y-81822693D01*
X130682371Y-81829993D01*
X130663223Y-81834746D01*
X130633820Y-81837484D01*
X130590054Y-81838737D01*
X130527820Y-81839037D01*
X130478874Y-81838661D01*
X130372014Y-81834233D01*
X130282786Y-81824145D01*
X130207988Y-81807557D01*
X130144417Y-81783627D01*
X130088871Y-81751513D01*
X130038146Y-81710374D01*
X130032158Y-81704522D01*
X129995291Y-81656013D01*
X129964191Y-81595205D01*
X129942709Y-81530961D01*
X129937428Y-81492218D01*
X130084645Y-81492218D01*
X130102927Y-81543153D01*
X130132597Y-81589070D01*
X130179294Y-81631479D01*
X130240684Y-81661282D01*
X130319830Y-81680418D01*
X130321320Y-81680656D01*
X130370291Y-81686448D01*
X130428985Y-81690588D01*
X130485026Y-81692196D01*
X130578159Y-81692281D01*
X130578159Y-81252014D01*
X130501959Y-81252000D01*
X130498931Y-81252009D01*
X130447811Y-81253974D01*
X130387708Y-81258699D01*
X130331000Y-81265227D01*
X130281042Y-81274523D01*
X130206290Y-81300792D01*
X130148781Y-81340091D01*
X130107280Y-81393125D01*
X130086063Y-81444392D01*
X130084645Y-81492218D01*
X129937428Y-81492218D01*
X129934692Y-81472148D01*
X129935971Y-81450931D01*
X129948283Y-81393515D01*
X129970812Y-81333605D01*
X130000042Y-81279555D01*
X130032459Y-81239724D01*
X130052000Y-81222702D01*
X130106712Y-81183514D01*
X130167015Y-81153385D01*
X130236211Y-81131424D01*
X130317603Y-81116742D01*
X130414492Y-81108451D01*
X130530181Y-81105659D01*
X130569663Y-81105258D01*
X130615374Y-81104845D01*
X130651175Y-81106649D01*
X130678266Y-81112931D01*
X130697848Y-81125951D01*
X130711122Y-81147970D01*
X130719290Y-81181247D01*
X130723552Y-81228043D01*
X130724149Y-81252014D01*
X130725109Y-81290619D01*
G36*
X130725109Y-81290619D02*
G01*
X130725162Y-81371233D01*
X130724914Y-81472148D01*
X130724875Y-81547809D01*
X130724620Y-81625718D01*
X130723976Y-81685728D01*
X130722772Y-81730456D01*
X130720835Y-81762518D01*
X130717995Y-81784532D01*
X130714080Y-81799116D01*
X130708918Y-81808886D01*
X130702337Y-81816459D01*
X130695369Y-81822693D01*
X130682371Y-81829993D01*
X130663223Y-81834746D01*
X130633820Y-81837484D01*
X130590054Y-81838737D01*
X130527820Y-81839037D01*
X130478874Y-81838661D01*
X130372014Y-81834233D01*
X130282786Y-81824145D01*
X130207988Y-81807557D01*
X130144417Y-81783627D01*
X130088871Y-81751513D01*
X130038146Y-81710374D01*
X130032158Y-81704522D01*
X129995291Y-81656013D01*
X129964191Y-81595205D01*
X129942709Y-81530961D01*
X129937428Y-81492218D01*
X130084645Y-81492218D01*
X130102927Y-81543153D01*
X130132597Y-81589070D01*
X130179294Y-81631479D01*
X130240684Y-81661282D01*
X130319830Y-81680418D01*
X130321320Y-81680656D01*
X130370291Y-81686448D01*
X130428985Y-81690588D01*
X130485026Y-81692196D01*
X130578159Y-81692281D01*
X130578159Y-81252014D01*
X130501959Y-81252000D01*
X130498931Y-81252009D01*
X130447811Y-81253974D01*
X130387708Y-81258699D01*
X130331000Y-81265227D01*
X130281042Y-81274523D01*
X130206290Y-81300792D01*
X130148781Y-81340091D01*
X130107280Y-81393125D01*
X130086063Y-81444392D01*
X130084645Y-81492218D01*
X129937428Y-81492218D01*
X129934692Y-81472148D01*
X129935971Y-81450931D01*
X129948283Y-81393515D01*
X129970812Y-81333605D01*
X130000042Y-81279555D01*
X130032459Y-81239724D01*
X130052000Y-81222702D01*
X130106712Y-81183514D01*
X130167015Y-81153385D01*
X130236211Y-81131424D01*
X130317603Y-81116742D01*
X130414492Y-81108451D01*
X130530181Y-81105659D01*
X130569663Y-81105258D01*
X130615374Y-81104845D01*
X130651175Y-81106649D01*
X130678266Y-81112931D01*
X130697848Y-81125951D01*
X130711122Y-81147970D01*
X130719290Y-81181247D01*
X130723552Y-81228043D01*
X130724149Y-81252014D01*
X130725109Y-81290619D01*
G37*
X122907128Y-78921034D02*
X122900962Y-79031736D01*
X122887635Y-79134739D01*
X122867526Y-79220541D01*
X122835440Y-79308818D01*
X122761063Y-79454299D01*
X122665994Y-79582295D01*
X122551218Y-79691933D01*
X122417719Y-79782342D01*
X122266480Y-79852648D01*
X122098487Y-79901981D01*
X122029983Y-79913108D01*
X121932093Y-79920841D01*
X121825484Y-79922580D01*
X121719065Y-79918465D01*
X121621745Y-79908637D01*
X121542433Y-79893236D01*
X121502579Y-79881110D01*
X121412063Y-79845626D01*
X121320052Y-79800575D01*
X121236038Y-79750843D01*
X121169515Y-79701316D01*
X121168697Y-79700601D01*
X121132243Y-79669692D01*
X121104196Y-79647683D01*
X121090569Y-79639298D01*
X121089079Y-79641300D01*
X121085708Y-79662926D01*
X121083365Y-79703260D01*
X121082487Y-79756000D01*
X121082487Y-79872703D01*
X120567622Y-79872703D01*
X120553916Y-79872701D01*
X120438965Y-79872500D01*
X120333464Y-79871999D01*
X120240414Y-79871237D01*
X120162817Y-79870249D01*
X120103674Y-79869074D01*
X120065986Y-79867749D01*
X120052757Y-79866311D01*
X120053065Y-79865054D01*
X120061720Y-79846501D01*
X120079863Y-79811645D01*
X120104244Y-79766770D01*
X120155730Y-79673622D01*
X120163279Y-78753981D01*
X121137406Y-78753981D01*
X121137789Y-78826640D01*
X121139644Y-78902985D01*
X121143279Y-78958168D01*
X121148958Y-78995782D01*
X121156946Y-79019421D01*
X121167222Y-79036301D01*
X121205918Y-79082317D01*
X121257765Y-79130221D01*
X121314592Y-79172904D01*
X121368225Y-79203253D01*
X121397982Y-79214389D01*
X121466499Y-79229216D01*
X121555988Y-79236796D01*
X121650338Y-79235648D01*
X121739934Y-79220056D01*
X121814718Y-79187846D01*
X121879421Y-79137567D01*
X121897622Y-79118970D01*
X121945011Y-79055546D01*
X121970652Y-78987184D01*
X121978352Y-78904925D01*
X121976266Y-78861467D01*
X121955635Y-78772005D01*
X121912295Y-78695219D01*
X121845457Y-78630243D01*
X121754331Y-78576215D01*
X121638128Y-78532270D01*
X121591281Y-78520738D01*
X121534568Y-78512842D01*
X121463195Y-78508457D01*
X121370811Y-78506982D01*
X121355804Y-78506983D01*
X121286689Y-78507827D01*
X121227320Y-78509866D01*
X121183600Y-78512833D01*
X121161433Y-78516461D01*
X121158882Y-78517639D01*
X121150635Y-78525035D01*
X121144794Y-78539899D01*
X121140955Y-78566227D01*
X121138713Y-78608018D01*
X121137665Y-78669270D01*
X121137406Y-78753981D01*
X120163279Y-78753981D01*
X120163676Y-78705676D01*
X120164857Y-78564695D01*
X120166509Y-78384893D01*
X120168243Y-78228799D01*
X120170200Y-78094205D01*
X120172519Y-77978905D01*
X120175340Y-77880689D01*
X120178804Y-77797352D01*
X120183050Y-77726685D01*
X120188220Y-77666480D01*
X120194452Y-77614531D01*
X120201887Y-77568630D01*
X120210666Y-77526569D01*
X120220927Y-77486141D01*
X120232813Y-77445137D01*
X120246461Y-77401352D01*
X120300230Y-77264085D01*
X120373865Y-77137222D01*
X120465566Y-77028608D01*
X120576175Y-76937674D01*
X120706530Y-76863853D01*
X120857471Y-76806575D01*
X121029837Y-76765273D01*
X121224469Y-76739378D01*
X121292495Y-76734229D01*
X121407062Y-76730464D01*
X121520616Y-76733854D01*
X121638473Y-76744972D01*
X121765950Y-76764388D01*
X121908363Y-76792674D01*
X122071027Y-76830403D01*
X122108627Y-76839532D01*
X122203049Y-76861996D01*
X122292543Y-76882679D01*
X122371681Y-76900361D01*
X122435036Y-76913820D01*
X122477180Y-76921833D01*
X122574414Y-76937803D01*
X122437716Y-77269118D01*
X122403523Y-77351840D01*
X122369885Y-77432896D01*
X122341023Y-77502101D01*
X122318355Y-77556068D01*
X122303297Y-77591412D01*
X122297267Y-77604746D01*
X122296319Y-77604937D01*
X122278844Y-77598984D01*
X122244483Y-77583728D01*
X122199434Y-77561883D01*
X122105802Y-77519343D01*
X121976958Y-77472830D01*
X121845086Y-77437210D01*
X121715344Y-77413378D01*
X121592889Y-77402227D01*
X121482877Y-77404654D01*
X121390465Y-77421552D01*
X121325969Y-77448364D01*
X121252720Y-77503310D01*
X121196333Y-77577852D01*
X121158421Y-77669695D01*
X121140599Y-77776547D01*
X121134323Y-77875027D01*
X121461945Y-77875924D01*
X121572432Y-77876851D01*
X121694638Y-77880141D01*
X121799035Y-77886351D01*
X121891024Y-77896084D01*
X121976004Y-77909943D01*
X122059377Y-77928533D01*
X122146541Y-77952458D01*
X122276960Y-77997996D01*
X122430360Y-78072988D01*
X122564988Y-78164847D01*
X122679516Y-78272280D01*
X122772616Y-78393995D01*
X122842961Y-78528701D01*
X122889223Y-78675105D01*
X122896468Y-78714536D01*
X122905756Y-78812133D01*
X122906926Y-78904925D01*
X122907128Y-78921034D01*
G36*
X122907128Y-78921034D02*
G01*
X122900962Y-79031736D01*
X122887635Y-79134739D01*
X122867526Y-79220541D01*
X122835440Y-79308818D01*
X122761063Y-79454299D01*
X122665994Y-79582295D01*
X122551218Y-79691933D01*
X122417719Y-79782342D01*
X122266480Y-79852648D01*
X122098487Y-79901981D01*
X122029983Y-79913108D01*
X121932093Y-79920841D01*
X121825484Y-79922580D01*
X121719065Y-79918465D01*
X121621745Y-79908637D01*
X121542433Y-79893236D01*
X121502579Y-79881110D01*
X121412063Y-79845626D01*
X121320052Y-79800575D01*
X121236038Y-79750843D01*
X121169515Y-79701316D01*
X121168697Y-79700601D01*
X121132243Y-79669692D01*
X121104196Y-79647683D01*
X121090569Y-79639298D01*
X121089079Y-79641300D01*
X121085708Y-79662926D01*
X121083365Y-79703260D01*
X121082487Y-79756000D01*
X121082487Y-79872703D01*
X120567622Y-79872703D01*
X120553916Y-79872701D01*
X120438965Y-79872500D01*
X120333464Y-79871999D01*
X120240414Y-79871237D01*
X120162817Y-79870249D01*
X120103674Y-79869074D01*
X120065986Y-79867749D01*
X120052757Y-79866311D01*
X120053065Y-79865054D01*
X120061720Y-79846501D01*
X120079863Y-79811645D01*
X120104244Y-79766770D01*
X120155730Y-79673622D01*
X120163279Y-78753981D01*
X121137406Y-78753981D01*
X121137789Y-78826640D01*
X121139644Y-78902985D01*
X121143279Y-78958168D01*
X121148958Y-78995782D01*
X121156946Y-79019421D01*
X121167222Y-79036301D01*
X121205918Y-79082317D01*
X121257765Y-79130221D01*
X121314592Y-79172904D01*
X121368225Y-79203253D01*
X121397982Y-79214389D01*
X121466499Y-79229216D01*
X121555988Y-79236796D01*
X121650338Y-79235648D01*
X121739934Y-79220056D01*
X121814718Y-79187846D01*
X121879421Y-79137567D01*
X121897622Y-79118970D01*
X121945011Y-79055546D01*
X121970652Y-78987184D01*
X121978352Y-78904925D01*
X121976266Y-78861467D01*
X121955635Y-78772005D01*
X121912295Y-78695219D01*
X121845457Y-78630243D01*
X121754331Y-78576215D01*
X121638128Y-78532270D01*
X121591281Y-78520738D01*
X121534568Y-78512842D01*
X121463195Y-78508457D01*
X121370811Y-78506982D01*
X121355804Y-78506983D01*
X121286689Y-78507827D01*
X121227320Y-78509866D01*
X121183600Y-78512833D01*
X121161433Y-78516461D01*
X121158882Y-78517639D01*
X121150635Y-78525035D01*
X121144794Y-78539899D01*
X121140955Y-78566227D01*
X121138713Y-78608018D01*
X121137665Y-78669270D01*
X121137406Y-78753981D01*
X120163279Y-78753981D01*
X120163676Y-78705676D01*
X120164857Y-78564695D01*
X120166509Y-78384893D01*
X120168243Y-78228799D01*
X120170200Y-78094205D01*
X120172519Y-77978905D01*
X120175340Y-77880689D01*
X120178804Y-77797352D01*
X120183050Y-77726685D01*
X120188220Y-77666480D01*
X120194452Y-77614531D01*
X120201887Y-77568630D01*
X120210666Y-77526569D01*
X120220927Y-77486141D01*
X120232813Y-77445137D01*
X120246461Y-77401352D01*
X120300230Y-77264085D01*
X120373865Y-77137222D01*
X120465566Y-77028608D01*
X120576175Y-76937674D01*
X120706530Y-76863853D01*
X120857471Y-76806575D01*
X121029837Y-76765273D01*
X121224469Y-76739378D01*
X121292495Y-76734229D01*
X121407062Y-76730464D01*
X121520616Y-76733854D01*
X121638473Y-76744972D01*
X121765950Y-76764388D01*
X121908363Y-76792674D01*
X122071027Y-76830403D01*
X122108627Y-76839532D01*
X122203049Y-76861996D01*
X122292543Y-76882679D01*
X122371681Y-76900361D01*
X122435036Y-76913820D01*
X122477180Y-76921833D01*
X122574414Y-76937803D01*
X122437716Y-77269118D01*
X122403523Y-77351840D01*
X122369885Y-77432896D01*
X122341023Y-77502101D01*
X122318355Y-77556068D01*
X122303297Y-77591412D01*
X122297267Y-77604746D01*
X122296319Y-77604937D01*
X122278844Y-77598984D01*
X122244483Y-77583728D01*
X122199434Y-77561883D01*
X122105802Y-77519343D01*
X121976958Y-77472830D01*
X121845086Y-77437210D01*
X121715344Y-77413378D01*
X121592889Y-77402227D01*
X121482877Y-77404654D01*
X121390465Y-77421552D01*
X121325969Y-77448364D01*
X121252720Y-77503310D01*
X121196333Y-77577852D01*
X121158421Y-77669695D01*
X121140599Y-77776547D01*
X121134323Y-77875027D01*
X121461945Y-77875924D01*
X121572432Y-77876851D01*
X121694638Y-77880141D01*
X121799035Y-77886351D01*
X121891024Y-77896084D01*
X121976004Y-77909943D01*
X122059377Y-77928533D01*
X122146541Y-77952458D01*
X122276960Y-77997996D01*
X122430360Y-78072988D01*
X122564988Y-78164847D01*
X122679516Y-78272280D01*
X122772616Y-78393995D01*
X122842961Y-78528701D01*
X122889223Y-78675105D01*
X122896468Y-78714536D01*
X122905756Y-78812133D01*
X122906926Y-78904925D01*
X122907128Y-78921034D01*
G37*
X120737994Y-81114670D02*
X120755955Y-81133181D01*
X120776555Y-81164263D01*
X120801387Y-81209948D01*
X120832042Y-81272270D01*
X120870112Y-81353263D01*
X120884746Y-81384646D01*
X120914495Y-81447830D01*
X120940589Y-81502436D01*
X120961584Y-81545482D01*
X120976031Y-81573985D01*
X120982483Y-81584962D01*
X120983842Y-81584381D01*
X120993834Y-81570434D01*
X121011125Y-81540896D01*
X121033722Y-81499279D01*
X121059630Y-81449095D01*
X121075603Y-81417606D01*
X121104553Y-81362253D01*
X121127041Y-81323236D01*
X121145257Y-81297758D01*
X121161388Y-81283023D01*
X121177622Y-81276234D01*
X121196149Y-81274592D01*
X121206652Y-81275067D01*
X121222768Y-81279274D01*
X121238082Y-81290138D01*
X121254680Y-81310411D01*
X121274649Y-81342846D01*
X121300075Y-81390196D01*
X121333044Y-81455214D01*
X121342777Y-81474469D01*
X121367235Y-81521138D01*
X121387470Y-81557301D01*
X121401603Y-81579689D01*
X121407752Y-81585037D01*
X121409119Y-81581765D01*
X121418494Y-81560856D01*
X121435354Y-81523917D01*
X121458271Y-81474066D01*
X121485812Y-81414418D01*
X121516547Y-81348090D01*
X121543262Y-81290869D01*
X121572885Y-81228880D01*
X121595956Y-81183141D01*
X121613935Y-81151100D01*
X121628282Y-81130206D01*
X121640458Y-81117910D01*
X121651924Y-81111658D01*
X121661334Y-81108766D01*
X121686439Y-81108617D01*
X121713582Y-81123960D01*
X121714882Y-81124945D01*
X121736966Y-81147580D01*
X121748015Y-81169805D01*
X121748061Y-81170445D01*
X121743520Y-81188107D01*
X121730656Y-81222673D01*
X121710897Y-81271018D01*
X121685673Y-81330017D01*
X121656411Y-81396547D01*
X121624542Y-81467483D01*
X121591493Y-81539699D01*
X121558693Y-81610072D01*
X121527572Y-81675477D01*
X121499557Y-81732789D01*
X121476078Y-81778884D01*
X121458564Y-81810638D01*
X121448443Y-81824925D01*
X121414035Y-81838294D01*
X121372338Y-81831933D01*
X121366973Y-81827236D01*
X121351144Y-81805085D01*
X121328942Y-81768324D01*
X121302525Y-81720607D01*
X121274052Y-81665585D01*
X121194278Y-81506342D01*
X121121091Y-81652934D01*
X121111395Y-81672224D01*
X121084417Y-81724572D01*
X121060388Y-81769362D01*
X121041624Y-81802346D01*
X121030438Y-81819281D01*
X121029292Y-81820524D01*
X121001171Y-81835811D01*
X120966109Y-81837494D01*
X120935068Y-81824925D01*
X120932642Y-81822076D01*
X120920382Y-81801451D01*
X120900644Y-81763900D01*
X120874740Y-81712072D01*
X120843977Y-81648615D01*
X120809667Y-81576177D01*
X120773117Y-81497408D01*
X120752877Y-81453285D01*
X120716104Y-81372557D01*
X120687647Y-81308879D01*
X120666623Y-81259944D01*
X120652146Y-81223449D01*
X120643331Y-81197087D01*
X120639296Y-81178553D01*
X120639154Y-81165544D01*
X120642022Y-81155753D01*
X120656679Y-81134870D01*
X120683282Y-81114569D01*
X120684037Y-81114227D01*
X120703627Y-81107226D01*
X120721082Y-81106696D01*
X120737994Y-81114670D01*
G36*
X120737994Y-81114670D02*
G01*
X120755955Y-81133181D01*
X120776555Y-81164263D01*
X120801387Y-81209948D01*
X120832042Y-81272270D01*
X120870112Y-81353263D01*
X120884746Y-81384646D01*
X120914495Y-81447830D01*
X120940589Y-81502436D01*
X120961584Y-81545482D01*
X120976031Y-81573985D01*
X120982483Y-81584962D01*
X120983842Y-81584381D01*
X120993834Y-81570434D01*
X121011125Y-81540896D01*
X121033722Y-81499279D01*
X121059630Y-81449095D01*
X121075603Y-81417606D01*
X121104553Y-81362253D01*
X121127041Y-81323236D01*
X121145257Y-81297758D01*
X121161388Y-81283023D01*
X121177622Y-81276234D01*
X121196149Y-81274592D01*
X121206652Y-81275067D01*
X121222768Y-81279274D01*
X121238082Y-81290138D01*
X121254680Y-81310411D01*
X121274649Y-81342846D01*
X121300075Y-81390196D01*
X121333044Y-81455214D01*
X121342777Y-81474469D01*
X121367235Y-81521138D01*
X121387470Y-81557301D01*
X121401603Y-81579689D01*
X121407752Y-81585037D01*
X121409119Y-81581765D01*
X121418494Y-81560856D01*
X121435354Y-81523917D01*
X121458271Y-81474066D01*
X121485812Y-81414418D01*
X121516547Y-81348090D01*
X121543262Y-81290869D01*
X121572885Y-81228880D01*
X121595956Y-81183141D01*
X121613935Y-81151100D01*
X121628282Y-81130206D01*
X121640458Y-81117910D01*
X121651924Y-81111658D01*
X121661334Y-81108766D01*
X121686439Y-81108617D01*
X121713582Y-81123960D01*
X121714882Y-81124945D01*
X121736966Y-81147580D01*
X121748015Y-81169805D01*
X121748061Y-81170445D01*
X121743520Y-81188107D01*
X121730656Y-81222673D01*
X121710897Y-81271018D01*
X121685673Y-81330017D01*
X121656411Y-81396547D01*
X121624542Y-81467483D01*
X121591493Y-81539699D01*
X121558693Y-81610072D01*
X121527572Y-81675477D01*
X121499557Y-81732789D01*
X121476078Y-81778884D01*
X121458564Y-81810638D01*
X121448443Y-81824925D01*
X121414035Y-81838294D01*
X121372338Y-81831933D01*
X121366973Y-81827236D01*
X121351144Y-81805085D01*
X121328942Y-81768324D01*
X121302525Y-81720607D01*
X121274052Y-81665585D01*
X121194278Y-81506342D01*
X121121091Y-81652934D01*
X121111395Y-81672224D01*
X121084417Y-81724572D01*
X121060388Y-81769362D01*
X121041624Y-81802346D01*
X121030438Y-81819281D01*
X121029292Y-81820524D01*
X121001171Y-81835811D01*
X120966109Y-81837494D01*
X120935068Y-81824925D01*
X120932642Y-81822076D01*
X120920382Y-81801451D01*
X120900644Y-81763900D01*
X120874740Y-81712072D01*
X120843977Y-81648615D01*
X120809667Y-81576177D01*
X120773117Y-81497408D01*
X120752877Y-81453285D01*
X120716104Y-81372557D01*
X120687647Y-81308879D01*
X120666623Y-81259944D01*
X120652146Y-81223449D01*
X120643331Y-81197087D01*
X120639296Y-81178553D01*
X120639154Y-81165544D01*
X120642022Y-81155753D01*
X120656679Y-81134870D01*
X120683282Y-81114569D01*
X120684037Y-81114227D01*
X120703627Y-81107226D01*
X120721082Y-81106696D01*
X120737994Y-81114670D01*
G37*
%TD*%
M02*
