%TF.GenerationSoftware,KiCad,Pcbnew,7.0.8-1.fc38*%
%TF.CreationDate,2023-11-06T19:13:25+00:00*%
%TF.ProjectId,Dev_habit_reminder,4465765f-6861-4626-9974-5f72656d696e,rev?*%
%TF.SameCoordinates,Original*%
%TF.FileFunction,Copper,L1,Top*%
%TF.FilePolarity,Positive*%
%FSLAX46Y46*%
G04 Gerber Fmt 4.6, Leading zero omitted, Abs format (unit mm)*
G04 Created by KiCad (PCBNEW 7.0.8-1.fc38) date 2023-11-06 19:13:25*
%MOMM*%
%LPD*%
G01*
G04 APERTURE LIST*
G04 Aperture macros list*
%AMFreePoly0*
4,1,19,0.550000,-0.750000,0.000000,-0.750000,0.000000,-0.744911,-0.071157,-0.744911,-0.207708,-0.704816,-0.327430,-0.627875,-0.420627,-0.520320,-0.479746,-0.390866,-0.500000,-0.250000,-0.500000,0.250000,-0.479746,0.390866,-0.420627,0.520320,-0.327430,0.627875,-0.207708,0.704816,-0.071157,0.744911,0.000000,0.744911,0.000000,0.750000,0.550000,0.750000,0.550000,-0.750000,0.550000,-0.750000,
$1*%
%AMFreePoly1*
4,1,19,0.000000,0.744911,0.071157,0.744911,0.207708,0.704816,0.327430,0.627875,0.420627,0.520320,0.479746,0.390866,0.500000,0.250000,0.500000,-0.250000,0.479746,-0.390866,0.420627,-0.520320,0.327430,-0.627875,0.207708,-0.704816,0.071157,-0.744911,0.000000,-0.744911,0.000000,-0.750000,-0.550000,-0.750000,-0.550000,0.750000,0.000000,0.750000,0.000000,0.744911,0.000000,0.744911,
$1*%
G04 Aperture macros list end*
%TA.AperFunction,ComponentPad*%
%ADD10R,1.700000X1.700000*%
%TD*%
%TA.AperFunction,ComponentPad*%
%ADD11O,1.700000X1.700000*%
%TD*%
%TA.AperFunction,SMDPad,CuDef*%
%ADD12R,1.500000X0.900000*%
%TD*%
%TA.AperFunction,ComponentPad*%
%ADD13O,1.600000X2.000000*%
%TD*%
%TA.AperFunction,ComponentPad*%
%ADD14C,2.000000*%
%TD*%
%TA.AperFunction,SMDPad,CuDef*%
%ADD15FreePoly0,180.000000*%
%TD*%
%TA.AperFunction,SMDPad,CuDef*%
%ADD16R,1.000000X1.500000*%
%TD*%
%TA.AperFunction,SMDPad,CuDef*%
%ADD17FreePoly1,180.000000*%
%TD*%
%TA.AperFunction,ViaPad*%
%ADD18C,0.800000*%
%TD*%
%TA.AperFunction,Conductor*%
%ADD19C,0.250000*%
%TD*%
%TA.AperFunction,Conductor*%
%ADD20C,0.500000*%
%TD*%
G04 APERTURE END LIST*
%TA.AperFunction,EtchedComponent*%
%TO.C,JP1*%
G36*
X154386402Y-64423762D02*
G01*
X153886402Y-64423762D01*
X153886402Y-63823762D01*
X154386402Y-63823762D01*
X154386402Y-64423762D01*
G37*
%TD.AperFunction*%
%TD*%
D10*
%TO.P,U1,1,3V3*%
%TO.N,+3.3V*%
X112319208Y-72805507D03*
D11*
%TO.P,U1,2,CHIP_PU*%
%TO.N,unconnected-(U1-CHIP_PU-Pad2)*%
X112319208Y-75345507D03*
%TO.P,U1,3,SENSOR_VP/GPIO36/ADC1_CH0*%
%TO.N,unconnected-(U1-SENSOR_VP{slash}GPIO36{slash}ADC1_CH0-Pad3)*%
X112319208Y-77885507D03*
%TO.P,U1,4,SENSOR_VN/GPIO39/ADC1_CH3*%
%TO.N,unconnected-(U1-SENSOR_VN{slash}GPIO39{slash}ADC1_CH3-Pad4)*%
X112319208Y-80425507D03*
%TO.P,U1,5,VDET_1/GPIO34/ADC1_CH6*%
%TO.N,unconnected-(U1-VDET_1{slash}GPIO34{slash}ADC1_CH6-Pad5)*%
X112319208Y-82965507D03*
%TO.P,U1,6,VDET_2/GPIO35/ADC1_CH7*%
%TO.N,unconnected-(U1-VDET_2{slash}GPIO35{slash}ADC1_CH7-Pad6)*%
X112319208Y-85505507D03*
%TO.P,U1,7,32K_XP/GPIO32/ADC1_CH4*%
%TO.N,/SW1*%
X112319208Y-88045507D03*
%TO.P,U1,8,32K_XN/GPIO33/ADC1_CH5*%
%TO.N,/SW2*%
X112319208Y-90585507D03*
%TO.P,U1,9,DAC_1/ADC2_CH8/GPIO25*%
%TO.N,unconnected-(U1-DAC_1{slash}ADC2_CH8{slash}GPIO25-Pad9)*%
X112319208Y-93125507D03*
%TO.P,U1,10,DAC_2/ADC2_CH9/GPIO26*%
%TO.N,unconnected-(U1-DAC_2{slash}ADC2_CH9{slash}GPIO26-Pad10)*%
X112319208Y-95665507D03*
%TO.P,U1,11,ADC2_CH7/GPIO27*%
%TO.N,/SW3*%
X112319208Y-98205507D03*
%TO.P,U1,12,MTMS/GPIO14/ADC2_CH6*%
%TO.N,unconnected-(U1-MTMS{slash}GPIO14{slash}ADC2_CH6-Pad12)*%
X112319208Y-100745507D03*
%TO.P,U1,13,MTDI/GPIO12/ADC2_CH5*%
%TO.N,unconnected-(U1-MTDI{slash}GPIO12{slash}ADC2_CH5-Pad13)*%
X112319208Y-103285507D03*
%TO.P,U1,14,GND*%
%TO.N,GND*%
X112319208Y-105825507D03*
%TO.P,U1,15,MTCK/GPIO13/ADC2_CH4*%
%TO.N,unconnected-(U1-MTCK{slash}GPIO13{slash}ADC2_CH4-Pad15)*%
X112319208Y-108365507D03*
%TO.P,U1,16,SD_DATA2/GPIO9*%
%TO.N,unconnected-(U1-SD_DATA2{slash}GPIO9-Pad16)*%
X112319208Y-110905507D03*
%TO.P,U1,17,SD_DATA3/GPIO10*%
%TO.N,unconnected-(U1-SD_DATA3{slash}GPIO10-Pad17)*%
X112319208Y-113445507D03*
%TO.P,U1,18,CMD*%
%TO.N,unconnected-(U1-CMD-Pad18)*%
X112319208Y-115985507D03*
%TO.P,U1,19,5V*%
%TO.N,+5V*%
X112319208Y-118525507D03*
%TO.P,U1,20,SD_CLK/GPIO6*%
%TO.N,unconnected-(U1-SD_CLK{slash}GPIO6-Pad20)*%
X137719208Y-118525507D03*
%TO.P,U1,21,SD_DATA0/GPIO7*%
%TO.N,unconnected-(U1-SD_DATA0{slash}GPIO7-Pad21)*%
X137719208Y-115985507D03*
%TO.P,U1,22,SD_DATA1/GPIO8*%
%TO.N,unconnected-(U1-SD_DATA1{slash}GPIO8-Pad22)*%
X137719208Y-113445507D03*
%TO.P,U1,23,MTDO/GPIO15/ADC2_CH3*%
%TO.N,unconnected-(U1-MTDO{slash}GPIO15{slash}ADC2_CH3-Pad23)*%
X137719208Y-110905507D03*
%TO.P,U1,24,ADC2_CH2/GPIO2*%
%TO.N,unconnected-(U1-ADC2_CH2{slash}GPIO2-Pad24)*%
X137719208Y-108365507D03*
%TO.P,U1,25,GPIO0/BOOT/ADC2_CH1*%
%TO.N,unconnected-(U1-GPIO0{slash}BOOT{slash}ADC2_CH1-Pad25)*%
X137719208Y-105825507D03*
%TO.P,U1,26,ADC2_CH0/GPIO4*%
%TO.N,unconnected-(U1-ADC2_CH0{slash}GPIO4-Pad26)*%
X137719208Y-103285507D03*
%TO.P,U1,27,GPIO16*%
%TO.N,unconnected-(U1-GPIO16-Pad27)*%
X137719208Y-100745507D03*
%TO.P,U1,28,GPIO17*%
%TO.N,unconnected-(U1-GPIO17-Pad28)*%
X137719208Y-98205507D03*
%TO.P,U1,29,GPIO5*%
%TO.N,/LED*%
X137719208Y-95665507D03*
%TO.P,U1,30,GPIO18*%
%TO.N,unconnected-(U1-GPIO18-Pad30)*%
X137719208Y-93125507D03*
%TO.P,U1,31,GPIO19*%
%TO.N,unconnected-(U1-GPIO19-Pad31)*%
X137719208Y-90585507D03*
%TO.P,U1,32,GND*%
%TO.N,GND*%
X137719208Y-88045507D03*
%TO.P,U1,33,GPIO21*%
%TO.N,/SDA*%
X137719208Y-85505507D03*
%TO.P,U1,34,U0RXD/GPIO3*%
%TO.N,unconnected-(U1-U0RXD{slash}GPIO3-Pad34)*%
X137719208Y-82965507D03*
%TO.P,U1,35,U0TXD/GPIO1*%
%TO.N,unconnected-(U1-U0TXD{slash}GPIO1-Pad35)*%
X137719208Y-80425507D03*
%TO.P,U1,36,GPIO22*%
%TO.N,/SCL*%
X137719208Y-77885507D03*
%TO.P,U1,37,GPIO23*%
%TO.N,unconnected-(U1-GPIO23-Pad37)*%
X137719208Y-75345507D03*
D10*
%TO.P,U1,38,GND*%
%TO.N,GND*%
X137719208Y-72805507D03*
%TD*%
D12*
%TO.P,D1,1,VDD*%
%TO.N,/OLED_PWR*%
X178070000Y-75937795D03*
%TO.P,D1,2,DOUT*%
%TO.N,Net-(D1-DOUT)*%
X178070000Y-79237795D03*
%TO.P,D1,3,VSS*%
%TO.N,GND*%
X182970000Y-79237795D03*
%TO.P,D1,4,DIN*%
%TO.N,/LED*%
X182970000Y-75937795D03*
%TD*%
D10*
%TO.P,J1,1,Pin_1*%
%TO.N,GND*%
X169590279Y-65481827D03*
D11*
%TO.P,J1,2,Pin_2*%
%TO.N,+5V*%
X172130279Y-65481827D03*
%TO.P,J1,3,Pin_3*%
%TO.N,/SCL*%
X174670279Y-65481827D03*
%TO.P,J1,4,Pin_4*%
%TO.N,/SDA*%
X177210279Y-65481827D03*
%TD*%
D13*
%TO.P,Brd1,1,GND*%
%TO.N,GND*%
X157700000Y-75060000D03*
%TO.P,Brd1,2,VCC*%
%TO.N,+5V*%
X160240000Y-75060000D03*
%TO.P,Brd1,3,SCL*%
%TO.N,/SCL*%
X162780000Y-75060000D03*
%TO.P,Brd1,4,SDA*%
%TO.N,/SDA*%
X165320000Y-75060000D03*
%TD*%
D14*
%TO.P,SW1,1,1*%
%TO.N,/SW1*%
X156726351Y-114449741D03*
X150226351Y-114449741D03*
%TO.P,SW1,2,2*%
%TO.N,GND*%
X156726351Y-118949741D03*
X150226351Y-118949741D03*
%TD*%
D15*
%TO.P,JP1,1,A*%
%TO.N,+5V*%
X154786402Y-64123762D03*
D16*
%TO.P,JP1,2,C*%
%TO.N,/OLED_PWR*%
X153486402Y-64123762D03*
D17*
%TO.P,JP1,3,B*%
%TO.N,+3.3V*%
X152186402Y-64123762D03*
%TD*%
D14*
%TO.P,SW2,1,1*%
%TO.N,/SW2*%
X169501351Y-114449741D03*
X163001351Y-114449741D03*
%TO.P,SW2,2,2*%
%TO.N,GND*%
X169501351Y-118949741D03*
X163001351Y-118949741D03*
%TD*%
D12*
%TO.P,D2,1,VDD*%
%TO.N,/OLED_PWR*%
X177980000Y-85207795D03*
%TO.P,D2,2,DOUT*%
%TO.N,Net-(D2-DOUT)*%
X177980000Y-88507795D03*
%TO.P,D2,3,VSS*%
%TO.N,GND*%
X182880000Y-88507795D03*
%TO.P,D2,4,DIN*%
%TO.N,Net-(D1-DOUT)*%
X182880000Y-85207795D03*
%TD*%
D14*
%TO.P,SW3,1,1*%
%TO.N,/SW3*%
X182276351Y-114214632D03*
X175776351Y-114214632D03*
%TO.P,SW3,2,2*%
%TO.N,GND*%
X182276351Y-118714632D03*
X175776351Y-118714632D03*
%TD*%
D12*
%TO.P,D3,1,VDD*%
%TO.N,/OLED_PWR*%
X177980000Y-95367795D03*
%TO.P,D3,2,DOUT*%
%TO.N,unconnected-(D3-DOUT-Pad2)*%
X177980000Y-98667795D03*
%TO.P,D3,3,VSS*%
%TO.N,GND*%
X182880000Y-98667795D03*
%TO.P,D3,4,DIN*%
%TO.N,Net-(D2-DOUT)*%
X182880000Y-95367795D03*
%TD*%
D18*
%TO.N,+5V*%
X130810000Y-119380000D03*
%TO.N,/SW1*%
X146050000Y-125730000D03*
%TO.N,/SW2*%
X157480000Y-124460000D03*
%TO.N,/SW3*%
X172720000Y-121920000D03*
%TO.N,+5V*%
X165100000Y-71120000D03*
%TO.N,/SCL*%
X170180000Y-71120000D03*
%TO.N,/SDA*%
X172720000Y-73015500D03*
%TO.N,/LED*%
X185420000Y-76200000D03*
X172720000Y-81280000D03*
%TD*%
D19*
%TO.N,/OLED_PWR*%
X177980000Y-85207795D02*
X176530000Y-83757795D01*
X176530000Y-83757795D02*
X176530000Y-77477795D01*
X176530000Y-77477795D02*
X178070000Y-75937795D01*
X177980000Y-95367795D02*
X176530000Y-93917795D01*
X176530000Y-93917795D02*
X176530000Y-86657795D01*
X176530000Y-86657795D02*
X177980000Y-85207795D01*
D20*
%TO.N,+5V*%
X112319208Y-118525507D02*
X129955507Y-118525507D01*
X129955507Y-118525507D02*
X130810000Y-119380000D01*
%TO.N,GND*%
X182880000Y-88507795D02*
X185420000Y-85967795D01*
X185420000Y-85967795D02*
X185420000Y-81687795D01*
X185420000Y-81687795D02*
X182970000Y-79237795D01*
X182880000Y-98667795D02*
X185420000Y-96127795D01*
X185420000Y-96127795D02*
X185420000Y-91047795D01*
X185420000Y-91047795D02*
X182880000Y-88507795D01*
X182276351Y-118714632D02*
X185420000Y-115570983D01*
X185420000Y-115570983D02*
X185420000Y-101207795D01*
X185420000Y-101207795D02*
X182880000Y-98667795D01*
D19*
%TO.N,/SW1*%
X142240000Y-123190000D02*
X144780000Y-125730000D01*
X111760000Y-123190000D02*
X142240000Y-123190000D01*
X107950000Y-92414715D02*
X107950000Y-93980000D01*
X112319208Y-88045507D02*
X107950000Y-92414715D01*
X107950000Y-93980000D02*
X107950000Y-119380000D01*
X144780000Y-125730000D02*
X146050000Y-125730000D01*
X107950000Y-119380000D02*
X111760000Y-123190000D01*
%TO.N,/SW2*%
X143510000Y-121920000D02*
X146050000Y-124460000D01*
X146050000Y-124460000D02*
X157480000Y-124460000D01*
X109220000Y-93684715D02*
X109220000Y-95250000D01*
X112319208Y-90585507D02*
X109220000Y-93684715D01*
X111760000Y-121920000D02*
X143510000Y-121920000D01*
X109220000Y-95250000D02*
X109220000Y-119380000D01*
X109220000Y-119380000D02*
X111760000Y-121920000D01*
%TO.N,/SW3*%
X112319208Y-98205507D02*
X111344493Y-98205507D01*
X171450000Y-123190000D02*
X172720000Y-121920000D01*
X144780000Y-120650000D02*
X147320000Y-123190000D01*
X110490000Y-119380000D02*
X111760000Y-120650000D01*
X110490000Y-99060000D02*
X110490000Y-119380000D01*
X140970000Y-120650000D02*
X144780000Y-120650000D01*
X111344493Y-98205507D02*
X110490000Y-99060000D01*
X111760000Y-120650000D02*
X140970000Y-120650000D01*
X147320000Y-123190000D02*
X171450000Y-123190000D01*
X175776351Y-114214632D02*
X182276351Y-114214632D01*
%TO.N,/SW2*%
X163001351Y-114449741D02*
X169501351Y-114449741D01*
D20*
%TO.N,GND*%
X175776351Y-118714632D02*
X182276351Y-118714632D01*
X169501351Y-118949741D02*
X175541242Y-118949741D01*
X175541242Y-118949741D02*
X175776351Y-118714632D01*
X163001351Y-118949741D02*
X169501351Y-118949741D01*
X156726351Y-118949741D02*
X163001351Y-118949741D01*
X150226351Y-118949741D02*
X156726351Y-118949741D01*
D19*
%TO.N,/SW1*%
X150226351Y-114449741D02*
X156726351Y-114449741D01*
D20*
%TO.N,+5V*%
X154786402Y-64123762D02*
X154786402Y-69606402D01*
X154786402Y-69606402D02*
X160240000Y-75060000D01*
X164180000Y-71120000D02*
X165100000Y-71120000D01*
X160240000Y-75060000D02*
X164180000Y-71120000D01*
%TO.N,GND*%
X136269208Y-74255507D02*
X137719208Y-72805507D01*
X136269208Y-86595507D02*
X136269208Y-74255507D01*
X119939208Y-105825507D02*
X137719208Y-88045507D01*
X182970000Y-78861548D02*
X182970000Y-79237795D01*
X169590279Y-65481827D02*
X182970000Y-78861548D01*
X155445507Y-72805507D02*
X157700000Y-75060000D01*
X137719208Y-88045507D02*
X136269208Y-86595507D01*
X112319208Y-105825507D02*
X119939208Y-105825507D01*
X137719208Y-72805507D02*
X155445507Y-72805507D01*
D19*
%TO.N,/SCL*%
X162780000Y-75060000D02*
X166720000Y-71120000D01*
X159954493Y-77885507D02*
X137719208Y-77885507D01*
X162780000Y-75060000D02*
X159954493Y-77885507D01*
X166720000Y-71120000D02*
X170180000Y-71120000D01*
%TO.N,/SDA*%
X165320000Y-75060000D02*
X154874493Y-85505507D01*
X167364500Y-73015500D02*
X172720000Y-73015500D01*
X154874493Y-85505507D02*
X137719208Y-85505507D01*
X165320000Y-75060000D02*
X167364500Y-73015500D01*
%TO.N,/OLED_PWR*%
X153486402Y-64123762D02*
X153486402Y-63373762D01*
X164430967Y-63048762D02*
X177320000Y-75937795D01*
X153811402Y-63048762D02*
X164430967Y-63048762D01*
X153486402Y-63373762D02*
X153811402Y-63048762D01*
X177320000Y-75937795D02*
X178070000Y-75937795D01*
%TO.N,Net-(D1-DOUT)*%
X178070000Y-79237795D02*
X182880000Y-84047795D01*
X182880000Y-84047795D02*
X182880000Y-85207795D01*
%TO.N,/LED*%
X185420000Y-76200000D02*
X183232205Y-76200000D01*
X137719208Y-95665507D02*
X158334493Y-95665507D01*
X158334493Y-95665507D02*
X172720000Y-81280000D01*
X183232205Y-76200000D02*
X182970000Y-75937795D01*
%TO.N,Net-(D2-DOUT)*%
X182880000Y-93407795D02*
X182880000Y-95367795D01*
X177980000Y-88507795D02*
X182880000Y-93407795D01*
D20*
%TO.N,+3.3V*%
X121000953Y-64123762D02*
X112319208Y-72805507D01*
X152186402Y-64123762D02*
X121000953Y-64123762D01*
%TD*%
%TA.AperFunction,Conductor*%
%TO.N,GND*%
G36*
X151311975Y-64893947D02*
G01*
X151349249Y-64931220D01*
X151379305Y-64977988D01*
X151379307Y-64977991D01*
X151379313Y-64977999D01*
X151447660Y-65056875D01*
X151473459Y-65086649D01*
X151473462Y-65086652D01*
X151582232Y-65180901D01*
X151642709Y-65219767D01*
X151703180Y-65258630D01*
X151703182Y-65258630D01*
X151703186Y-65258633D01*
X151834102Y-65318420D01*
X151972057Y-65358927D01*
X152114513Y-65379409D01*
X152114516Y-65379409D01*
X152736402Y-65379409D01*
X152808363Y-65374262D01*
X152820415Y-65370722D01*
X152870953Y-65369369D01*
X152871206Y-65367024D01*
X152887789Y-65368806D01*
X152938529Y-65374262D01*
X153911902Y-65374261D01*
X153978941Y-65393945D01*
X154024696Y-65446749D01*
X154035902Y-65498261D01*
X154035902Y-69542696D01*
X154034593Y-69560665D01*
X154031112Y-69584427D01*
X154035666Y-69636466D01*
X154035902Y-69641872D01*
X154035902Y-69650111D01*
X154039708Y-69682676D01*
X154046402Y-69759193D01*
X154047863Y-69766269D01*
X154047805Y-69766280D01*
X154049436Y-69773639D01*
X154049494Y-69773626D01*
X154051159Y-69780652D01*
X154077427Y-69852826D01*
X154101587Y-69925733D01*
X154104638Y-69932276D01*
X154104584Y-69932300D01*
X154107872Y-69939090D01*
X154107923Y-69939065D01*
X154111163Y-69945515D01*
X154111164Y-69945516D01*
X154111165Y-69945519D01*
X154153367Y-70009685D01*
X154193689Y-70075057D01*
X154198168Y-70080721D01*
X154198121Y-70080758D01*
X154202884Y-70086604D01*
X154202930Y-70086566D01*
X154207575Y-70092102D01*
X154220454Y-70104252D01*
X154263420Y-70144788D01*
X156598687Y-72480055D01*
X157495111Y-73376478D01*
X157528596Y-73437801D01*
X157523612Y-73507493D01*
X157481740Y-73563426D01*
X157439524Y-73583934D01*
X157253680Y-73633731D01*
X157253673Y-73633734D01*
X157047517Y-73729865D01*
X156861179Y-73860342D01*
X156700342Y-74021179D01*
X156569865Y-74207517D01*
X156473734Y-74413673D01*
X156473730Y-74413682D01*
X156414860Y-74633389D01*
X156414858Y-74633400D01*
X156400000Y-74803237D01*
X156400000Y-74810000D01*
X157266314Y-74810000D01*
X157240507Y-74850156D01*
X157200000Y-74988111D01*
X157200000Y-75131889D01*
X157240507Y-75269844D01*
X157266314Y-75310000D01*
X156400000Y-75310000D01*
X156400000Y-75316763D01*
X156414858Y-75486599D01*
X156414860Y-75486610D01*
X156473730Y-75706317D01*
X156473734Y-75706326D01*
X156569865Y-75912482D01*
X156700342Y-76098820D01*
X156861179Y-76259657D01*
X157047517Y-76390134D01*
X157253673Y-76486265D01*
X157253682Y-76486269D01*
X157449999Y-76538872D01*
X157450000Y-76538871D01*
X157450000Y-75495501D01*
X157557685Y-75544680D01*
X157664237Y-75560000D01*
X157735763Y-75560000D01*
X157842315Y-75544680D01*
X157950000Y-75495501D01*
X157950000Y-76538872D01*
X158146317Y-76486269D01*
X158146326Y-76486265D01*
X158352482Y-76390134D01*
X158538820Y-76259657D01*
X158699657Y-76098820D01*
X158830132Y-75912484D01*
X158857341Y-75854134D01*
X158903513Y-75801695D01*
X158970707Y-75782542D01*
X159037588Y-75802757D01*
X159082106Y-75854133D01*
X159109431Y-75912732D01*
X159109432Y-75912734D01*
X159239954Y-76099141D01*
X159400858Y-76260045D01*
X159400861Y-76260047D01*
X159587266Y-76390568D01*
X159793504Y-76486739D01*
X160013308Y-76545635D01*
X160112971Y-76554354D01*
X160178039Y-76579806D01*
X160219018Y-76636397D01*
X160222896Y-76706159D01*
X160189844Y-76765563D01*
X159731721Y-77223688D01*
X159670398Y-77257173D01*
X159644040Y-77260007D01*
X138994435Y-77260007D01*
X138927396Y-77240322D01*
X138892860Y-77207130D01*
X138757702Y-77014104D01*
X138590610Y-76847013D01*
X138590604Y-76847008D01*
X138405050Y-76717082D01*
X138361425Y-76662505D01*
X138354231Y-76593007D01*
X138385754Y-76530652D01*
X138405050Y-76513932D01*
X138445886Y-76485338D01*
X138590609Y-76384002D01*
X138757703Y-76216908D01*
X138893243Y-76023337D01*
X138993111Y-75809170D01*
X139054271Y-75580915D01*
X139074867Y-75345507D01*
X139054271Y-75110099D01*
X138993111Y-74881844D01*
X138893243Y-74667678D01*
X138870395Y-74635048D01*
X138757704Y-74474107D01*
X138697270Y-74413673D01*
X138635387Y-74351790D01*
X138601904Y-74290470D01*
X138606888Y-74220778D01*
X138648759Y-74164844D01*
X138679737Y-74147929D01*
X138811294Y-74098861D01*
X138811301Y-74098857D01*
X138926395Y-74012697D01*
X138926398Y-74012694D01*
X139012558Y-73897600D01*
X139012562Y-73897593D01*
X139062804Y-73762886D01*
X139062806Y-73762879D01*
X139069207Y-73703351D01*
X139069208Y-73703334D01*
X139069208Y-73055507D01*
X138152894Y-73055507D01*
X138178701Y-73015351D01*
X138219208Y-72877396D01*
X138219208Y-72733618D01*
X138178701Y-72595663D01*
X138152894Y-72555507D01*
X139069208Y-72555507D01*
X139069208Y-71907679D01*
X139069207Y-71907662D01*
X139062806Y-71848134D01*
X139062804Y-71848127D01*
X139012562Y-71713420D01*
X139012558Y-71713413D01*
X138926398Y-71598319D01*
X138926395Y-71598316D01*
X138811301Y-71512156D01*
X138811294Y-71512152D01*
X138676587Y-71461910D01*
X138676580Y-71461908D01*
X138617052Y-71455507D01*
X137969208Y-71455507D01*
X137969208Y-72370005D01*
X137861523Y-72320827D01*
X137754971Y-72305507D01*
X137683445Y-72305507D01*
X137576893Y-72320827D01*
X137469208Y-72370005D01*
X137469208Y-71455507D01*
X136821363Y-71455507D01*
X136761835Y-71461908D01*
X136761828Y-71461910D01*
X136627121Y-71512152D01*
X136627114Y-71512156D01*
X136512020Y-71598316D01*
X136512017Y-71598319D01*
X136425857Y-71713413D01*
X136425853Y-71713420D01*
X136375611Y-71848127D01*
X136375609Y-71848134D01*
X136369208Y-71907662D01*
X136369208Y-72555507D01*
X137285522Y-72555507D01*
X137259715Y-72595663D01*
X137219208Y-72733618D01*
X137219208Y-72877396D01*
X137259715Y-73015351D01*
X137285522Y-73055507D01*
X136369208Y-73055507D01*
X136369208Y-73703351D01*
X136375609Y-73762879D01*
X136375611Y-73762886D01*
X136425853Y-73897593D01*
X136425857Y-73897600D01*
X136512017Y-74012694D01*
X136512020Y-74012697D01*
X136627114Y-74098857D01*
X136627121Y-74098861D01*
X136758678Y-74147928D01*
X136814611Y-74189799D01*
X136839029Y-74255263D01*
X136824178Y-74323536D01*
X136803027Y-74351791D01*
X136680711Y-74474107D01*
X136545173Y-74667676D01*
X136545172Y-74667678D01*
X136445306Y-74881842D01*
X136445302Y-74881851D01*
X136384146Y-75110093D01*
X136384144Y-75110103D01*
X136363549Y-75345506D01*
X136363549Y-75345507D01*
X136384144Y-75580910D01*
X136384146Y-75580920D01*
X136445302Y-75809162D01*
X136445304Y-75809166D01*
X136445305Y-75809170D01*
X136493597Y-75912732D01*
X136545173Y-76023337D01*
X136545175Y-76023341D01*
X136680709Y-76216902D01*
X136680714Y-76216909D01*
X136847805Y-76384000D01*
X136847811Y-76384005D01*
X137033366Y-76513932D01*
X137076991Y-76568509D01*
X137084185Y-76638007D01*
X137052662Y-76700362D01*
X137033366Y-76717082D01*
X136847805Y-76847012D01*
X136680713Y-77014104D01*
X136545173Y-77207676D01*
X136545172Y-77207678D01*
X136445306Y-77421842D01*
X136445302Y-77421851D01*
X136384146Y-77650093D01*
X136384144Y-77650103D01*
X136363549Y-77885506D01*
X136363549Y-77885507D01*
X136384144Y-78120910D01*
X136384146Y-78120920D01*
X136445302Y-78349162D01*
X136445304Y-78349166D01*
X136445305Y-78349170D01*
X136491838Y-78448960D01*
X136545173Y-78563337D01*
X136545175Y-78563341D01*
X136627079Y-78680311D01*
X136680709Y-78756903D01*
X136680714Y-78756909D01*
X136847805Y-78924000D01*
X136847811Y-78924005D01*
X137033366Y-79053932D01*
X137076991Y-79108509D01*
X137084185Y-79178007D01*
X137052662Y-79240362D01*
X137033366Y-79257082D01*
X136847805Y-79387012D01*
X136680713Y-79554104D01*
X136545173Y-79747676D01*
X136545172Y-79747678D01*
X136445306Y-79961842D01*
X136445302Y-79961851D01*
X136384146Y-80190093D01*
X136384144Y-80190103D01*
X136363549Y-80425506D01*
X136363549Y-80425507D01*
X136384144Y-80660910D01*
X136384146Y-80660920D01*
X136445302Y-80889162D01*
X136445304Y-80889166D01*
X136445305Y-80889170D01*
X136539765Y-81091740D01*
X136545173Y-81103337D01*
X136545175Y-81103341D01*
X136680709Y-81296902D01*
X136680714Y-81296909D01*
X136847805Y-81464000D01*
X136847811Y-81464005D01*
X137033366Y-81593932D01*
X137076991Y-81648509D01*
X137084185Y-81718007D01*
X137052662Y-81780362D01*
X137033366Y-81797082D01*
X136847805Y-81927012D01*
X136680713Y-82094104D01*
X136545173Y-82287676D01*
X136545172Y-82287678D01*
X136445306Y-82501842D01*
X136445302Y-82501851D01*
X136384146Y-82730093D01*
X136384144Y-82730103D01*
X136363549Y-82965506D01*
X136363549Y-82965507D01*
X136384144Y-83200910D01*
X136384146Y-83200920D01*
X136445302Y-83429162D01*
X136445304Y-83429166D01*
X136445305Y-83429170D01*
X136494665Y-83535023D01*
X136545173Y-83643337D01*
X136545175Y-83643341D01*
X136680709Y-83836902D01*
X136680714Y-83836909D01*
X136847805Y-84004000D01*
X136847811Y-84004005D01*
X137033366Y-84133932D01*
X137076991Y-84188509D01*
X137084185Y-84258007D01*
X137052662Y-84320362D01*
X137033366Y-84337082D01*
X136847805Y-84467012D01*
X136680713Y-84634104D01*
X136545173Y-84827676D01*
X136545172Y-84827678D01*
X136445306Y-85041842D01*
X136445302Y-85041851D01*
X136384146Y-85270093D01*
X136384144Y-85270103D01*
X136363549Y-85505506D01*
X136363549Y-85505507D01*
X136384144Y-85740910D01*
X136384146Y-85740920D01*
X136445302Y-85969162D01*
X136445304Y-85969166D01*
X136445305Y-85969170D01*
X136491838Y-86068960D01*
X136545173Y-86183337D01*
X136545175Y-86183341D01*
X136587169Y-86243314D01*
X136680709Y-86376903D01*
X136680714Y-86376909D01*
X136847805Y-86544000D01*
X136847811Y-86544005D01*
X137033802Y-86674237D01*
X137077427Y-86728814D01*
X137084621Y-86798312D01*
X137053098Y-86860667D01*
X137033803Y-86877387D01*
X136848130Y-87007397D01*
X136848128Y-87007398D01*
X136681099Y-87174427D01*
X136681094Y-87174433D01*
X136545608Y-87367927D01*
X136545607Y-87367929D01*
X136445778Y-87582014D01*
X136445775Y-87582020D01*
X136388572Y-87795506D01*
X136388572Y-87795507D01*
X137285522Y-87795507D01*
X137259715Y-87835663D01*
X137219208Y-87973618D01*
X137219208Y-88117396D01*
X137259715Y-88255351D01*
X137285522Y-88295507D01*
X136388572Y-88295507D01*
X136445775Y-88508993D01*
X136445778Y-88508999D01*
X136545607Y-88723085D01*
X136681102Y-88916589D01*
X136848125Y-89083612D01*
X137033803Y-89213626D01*
X137077427Y-89268203D01*
X137084620Y-89337702D01*
X137053098Y-89400056D01*
X137033803Y-89416776D01*
X136847802Y-89547015D01*
X136680713Y-89714104D01*
X136545173Y-89907676D01*
X136545172Y-89907678D01*
X136445306Y-90121842D01*
X136445302Y-90121851D01*
X136384146Y-90350093D01*
X136384144Y-90350103D01*
X136363549Y-90585506D01*
X136363549Y-90585507D01*
X136384144Y-90820910D01*
X136384146Y-90820920D01*
X136445302Y-91049162D01*
X136445304Y-91049166D01*
X136445305Y-91049170D01*
X136545173Y-91263337D01*
X136545175Y-91263341D01*
X136680709Y-91456902D01*
X136680714Y-91456909D01*
X136847805Y-91624000D01*
X136847811Y-91624005D01*
X137033366Y-91753932D01*
X137076991Y-91808509D01*
X137084185Y-91878007D01*
X137052662Y-91940362D01*
X137033366Y-91957082D01*
X136847805Y-92087012D01*
X136680713Y-92254104D01*
X136545173Y-92447676D01*
X136545172Y-92447678D01*
X136445306Y-92661842D01*
X136445302Y-92661851D01*
X136384146Y-92890093D01*
X136384144Y-92890103D01*
X136363549Y-93125506D01*
X136363549Y-93125507D01*
X136384144Y-93360910D01*
X136384146Y-93360920D01*
X136445302Y-93589162D01*
X136445304Y-93589166D01*
X136445305Y-93589170D01*
X136493204Y-93691889D01*
X136545173Y-93803337D01*
X136545175Y-93803341D01*
X136680709Y-93996902D01*
X136680714Y-93996909D01*
X136847805Y-94164000D01*
X136847811Y-94164005D01*
X137033366Y-94293932D01*
X137076991Y-94348509D01*
X137084185Y-94418007D01*
X137052662Y-94480362D01*
X137033366Y-94497082D01*
X136847805Y-94627012D01*
X136680713Y-94794104D01*
X136545173Y-94987676D01*
X136545172Y-94987678D01*
X136445306Y-95201842D01*
X136445302Y-95201851D01*
X136384146Y-95430093D01*
X136384144Y-95430103D01*
X136363549Y-95665506D01*
X136363549Y-95665507D01*
X136384144Y-95900910D01*
X136384146Y-95900920D01*
X136445302Y-96129162D01*
X136445304Y-96129166D01*
X136445305Y-96129170D01*
X136491838Y-96228960D01*
X136545173Y-96343337D01*
X136545175Y-96343341D01*
X136653489Y-96498028D01*
X136680709Y-96536903D01*
X136680714Y-96536909D01*
X136847805Y-96704000D01*
X136847811Y-96704005D01*
X137033366Y-96833932D01*
X137076991Y-96888509D01*
X137084185Y-96958007D01*
X137052662Y-97020362D01*
X137033366Y-97037082D01*
X136847805Y-97167012D01*
X136680713Y-97334104D01*
X136545173Y-97527676D01*
X136545172Y-97527678D01*
X136445306Y-97741842D01*
X136445302Y-97741851D01*
X136384146Y-97970093D01*
X136384144Y-97970103D01*
X136363549Y-98205506D01*
X136363549Y-98205507D01*
X136384144Y-98440910D01*
X136384146Y-98440920D01*
X136445302Y-98669162D01*
X136445304Y-98669166D01*
X136445305Y-98669170D01*
X136545173Y-98883337D01*
X136545175Y-98883341D01*
X136680709Y-99076902D01*
X136680714Y-99076909D01*
X136847805Y-99244000D01*
X136847811Y-99244005D01*
X137033366Y-99373932D01*
X137076991Y-99428509D01*
X137084185Y-99498007D01*
X137052662Y-99560362D01*
X137033366Y-99577082D01*
X136847805Y-99707012D01*
X136680713Y-99874104D01*
X136545173Y-100067676D01*
X136545172Y-100067678D01*
X136445306Y-100281842D01*
X136445302Y-100281851D01*
X136384146Y-100510093D01*
X136384144Y-100510103D01*
X136363549Y-100745506D01*
X136363549Y-100745507D01*
X136384144Y-100980910D01*
X136384146Y-100980920D01*
X136445302Y-101209162D01*
X136445304Y-101209166D01*
X136445305Y-101209170D01*
X136515500Y-101359703D01*
X136545173Y-101423337D01*
X136545175Y-101423341D01*
X136680709Y-101616902D01*
X136680714Y-101616909D01*
X136847805Y-101784000D01*
X136847811Y-101784005D01*
X137033366Y-101913932D01*
X137076991Y-101968509D01*
X137084185Y-102038007D01*
X137052662Y-102100362D01*
X137033366Y-102117082D01*
X136847805Y-102247012D01*
X136680713Y-102414104D01*
X136545173Y-102607676D01*
X136545172Y-102607678D01*
X136445306Y-102821842D01*
X136445302Y-102821851D01*
X136384146Y-103050093D01*
X136384144Y-103050103D01*
X136363549Y-103285506D01*
X136363549Y-103285507D01*
X136384144Y-103520910D01*
X136384146Y-103520920D01*
X136445302Y-103749162D01*
X136445304Y-103749166D01*
X136445305Y-103749170D01*
X136515500Y-103899703D01*
X136545173Y-103963337D01*
X136545175Y-103963341D01*
X136680709Y-104156902D01*
X136680714Y-104156909D01*
X136847805Y-104324000D01*
X136847811Y-104324005D01*
X137033366Y-104453932D01*
X137076991Y-104508509D01*
X137084185Y-104578007D01*
X137052662Y-104640362D01*
X137033366Y-104657082D01*
X136847805Y-104787012D01*
X136680713Y-104954104D01*
X136545173Y-105147676D01*
X136545172Y-105147678D01*
X136445306Y-105361842D01*
X136445302Y-105361851D01*
X136384146Y-105590093D01*
X136384144Y-105590103D01*
X136363549Y-105825506D01*
X136363549Y-105825507D01*
X136384144Y-106060910D01*
X136384146Y-106060920D01*
X136445302Y-106289162D01*
X136445304Y-106289166D01*
X136445305Y-106289170D01*
X136545055Y-106503085D01*
X136545173Y-106503337D01*
X136545175Y-106503341D01*
X136680709Y-106696902D01*
X136680714Y-106696909D01*
X136847805Y-106864000D01*
X136847811Y-106864005D01*
X137033366Y-106993932D01*
X137076991Y-107048509D01*
X137084185Y-107118007D01*
X137052662Y-107180362D01*
X137033366Y-107197082D01*
X136847805Y-107327012D01*
X136680713Y-107494104D01*
X136545173Y-107687676D01*
X136545172Y-107687678D01*
X136445306Y-107901842D01*
X136445302Y-107901851D01*
X136384146Y-108130093D01*
X136384144Y-108130103D01*
X136363549Y-108365506D01*
X136363549Y-108365507D01*
X136384144Y-108600910D01*
X136384146Y-108600920D01*
X136445302Y-108829162D01*
X136445304Y-108829166D01*
X136445305Y-108829170D01*
X136515500Y-108979703D01*
X136545173Y-109043337D01*
X136545175Y-109043341D01*
X136680709Y-109236902D01*
X136680714Y-109236909D01*
X136847805Y-109404000D01*
X136847811Y-109404005D01*
X137033366Y-109533932D01*
X137076991Y-109588509D01*
X137084185Y-109658007D01*
X137052662Y-109720362D01*
X137033366Y-109737082D01*
X136847805Y-109867012D01*
X136680713Y-110034104D01*
X136545173Y-110227676D01*
X136545172Y-110227678D01*
X136445306Y-110441842D01*
X136445302Y-110441851D01*
X136384146Y-110670093D01*
X136384144Y-110670103D01*
X136363549Y-110905506D01*
X136363549Y-110905507D01*
X136384144Y-111140910D01*
X136384146Y-111140920D01*
X136445302Y-111369162D01*
X136445304Y-111369166D01*
X136445305Y-111369170D01*
X136515500Y-111519703D01*
X136545173Y-111583337D01*
X136545175Y-111583341D01*
X136680709Y-111776902D01*
X136680714Y-111776909D01*
X136847805Y-111944000D01*
X136847811Y-111944005D01*
X137033366Y-112073932D01*
X137076991Y-112128509D01*
X137084185Y-112198007D01*
X137052662Y-112260362D01*
X137033366Y-112277082D01*
X136847805Y-112407012D01*
X136680713Y-112574104D01*
X136545173Y-112767676D01*
X136545172Y-112767678D01*
X136445306Y-112981842D01*
X136445302Y-112981851D01*
X136384146Y-113210093D01*
X136384144Y-113210103D01*
X136363549Y-113445506D01*
X136363549Y-113445507D01*
X136384144Y-113680910D01*
X136384146Y-113680920D01*
X136445302Y-113909162D01*
X136445304Y-113909166D01*
X136445305Y-113909170D01*
X136515500Y-114059703D01*
X136545173Y-114123337D01*
X136545175Y-114123341D01*
X136680709Y-114316902D01*
X136680714Y-114316909D01*
X136847805Y-114484000D01*
X136847811Y-114484005D01*
X137033366Y-114613932D01*
X137076991Y-114668509D01*
X137084185Y-114738007D01*
X137052662Y-114800362D01*
X137033366Y-114817082D01*
X136847805Y-114947012D01*
X136680713Y-115114104D01*
X136545173Y-115307676D01*
X136545172Y-115307678D01*
X136445306Y-115521842D01*
X136445302Y-115521851D01*
X136384146Y-115750093D01*
X136384144Y-115750103D01*
X136363549Y-115985506D01*
X136363549Y-115985507D01*
X136384144Y-116220910D01*
X136384146Y-116220920D01*
X136445302Y-116449162D01*
X136445304Y-116449166D01*
X136445305Y-116449170D01*
X136515500Y-116599703D01*
X136545173Y-116663337D01*
X136545175Y-116663341D01*
X136680709Y-116856902D01*
X136680714Y-116856909D01*
X136847805Y-117024000D01*
X136847811Y-117024005D01*
X137033366Y-117153932D01*
X137076991Y-117208509D01*
X137084185Y-117278007D01*
X137052662Y-117340362D01*
X137033366Y-117357082D01*
X136847805Y-117487012D01*
X136680713Y-117654104D01*
X136545173Y-117847676D01*
X136545172Y-117847678D01*
X136445306Y-118061842D01*
X136445302Y-118061851D01*
X136384146Y-118290093D01*
X136384144Y-118290103D01*
X136363549Y-118525506D01*
X136363549Y-118525507D01*
X136384144Y-118760910D01*
X136384146Y-118760920D01*
X136445302Y-118989162D01*
X136445304Y-118989166D01*
X136445305Y-118989170D01*
X136538479Y-119188981D01*
X136545173Y-119203337D01*
X136545175Y-119203341D01*
X136620521Y-119310945D01*
X136680713Y-119396908D01*
X136847807Y-119564002D01*
X136942616Y-119630388D01*
X137041373Y-119699539D01*
X137041375Y-119699540D01*
X137041378Y-119699542D01*
X137231330Y-119788118D01*
X137283769Y-119834290D01*
X137302921Y-119901484D01*
X137282705Y-119968365D01*
X137229540Y-120013700D01*
X137178925Y-120024500D01*
X131692480Y-120024500D01*
X131625441Y-120004815D01*
X131579686Y-119952011D01*
X131569742Y-119882853D01*
X131585093Y-119838500D01*
X131600631Y-119811587D01*
X131637179Y-119748284D01*
X131695674Y-119568256D01*
X131715460Y-119380000D01*
X131695674Y-119191744D01*
X131637179Y-119011716D01*
X131542533Y-118847784D01*
X131415871Y-118707112D01*
X131374076Y-118676746D01*
X131262734Y-118595851D01*
X131262729Y-118595848D01*
X131089807Y-118518857D01*
X131089802Y-118518855D01*
X131024669Y-118505011D01*
X130963187Y-118471818D01*
X130962769Y-118471402D01*
X130531236Y-118039868D01*
X130519456Y-118026237D01*
X130511989Y-118016208D01*
X130505119Y-118006979D01*
X130494733Y-117998264D01*
X130465094Y-117973393D01*
X130461119Y-117969751D01*
X130458197Y-117966829D01*
X130455287Y-117963918D01*
X130429547Y-117943566D01*
X130370716Y-117894201D01*
X130364687Y-117890236D01*
X130364719Y-117890187D01*
X130358360Y-117886135D01*
X130358329Y-117886186D01*
X130352187Y-117882398D01*
X130352185Y-117882397D01*
X130352184Y-117882396D01*
X130312981Y-117864115D01*
X130282565Y-117849931D01*
X130248401Y-117832774D01*
X130213940Y-117815467D01*
X130213938Y-117815466D01*
X130213937Y-117815466D01*
X130207152Y-117812996D01*
X130207172Y-117812940D01*
X130200056Y-117810466D01*
X130200038Y-117810522D01*
X130193178Y-117808249D01*
X130165348Y-117802503D01*
X130117941Y-117792714D01*
X130068979Y-117781110D01*
X130043226Y-117775006D01*
X130036054Y-117774168D01*
X130036060Y-117774108D01*
X130028562Y-117773342D01*
X130028557Y-117773402D01*
X130021367Y-117772772D01*
X129944590Y-117775007D01*
X113506909Y-117775007D01*
X113439870Y-117755322D01*
X113405334Y-117722130D01*
X113357702Y-117654104D01*
X113190610Y-117487013D01*
X113190604Y-117487008D01*
X113005050Y-117357082D01*
X112961425Y-117302505D01*
X112954231Y-117233007D01*
X112985754Y-117170652D01*
X113005050Y-117153932D01*
X113027234Y-117138398D01*
X113190609Y-117024002D01*
X113357703Y-116856908D01*
X113493243Y-116663337D01*
X113593111Y-116449170D01*
X113654271Y-116220915D01*
X113674867Y-115985507D01*
X113654271Y-115750099D01*
X113593111Y-115521844D01*
X113493243Y-115307678D01*
X113394283Y-115166347D01*
X113357702Y-115114104D01*
X113190610Y-114947013D01*
X113190604Y-114947008D01*
X113005050Y-114817082D01*
X112961425Y-114762505D01*
X112954231Y-114693007D01*
X112985754Y-114630652D01*
X113005050Y-114613932D01*
X113027234Y-114598398D01*
X113190609Y-114484002D01*
X113357703Y-114316908D01*
X113493243Y-114123337D01*
X113593111Y-113909170D01*
X113654271Y-113680915D01*
X113674867Y-113445507D01*
X113654271Y-113210099D01*
X113593111Y-112981844D01*
X113493243Y-112767678D01*
X113357703Y-112574106D01*
X113357702Y-112574104D01*
X113190610Y-112407013D01*
X113190604Y-112407008D01*
X113005050Y-112277082D01*
X112961425Y-112222505D01*
X112954231Y-112153007D01*
X112985754Y-112090652D01*
X113005050Y-112073932D01*
X113027234Y-112058398D01*
X113190609Y-111944002D01*
X113357703Y-111776908D01*
X113493243Y-111583337D01*
X113593111Y-111369170D01*
X113654271Y-111140915D01*
X113674867Y-110905507D01*
X113654271Y-110670099D01*
X113593111Y-110441844D01*
X113493243Y-110227678D01*
X113357703Y-110034106D01*
X113357702Y-110034104D01*
X113190610Y-109867013D01*
X113190604Y-109867008D01*
X113005050Y-109737082D01*
X112961425Y-109682505D01*
X112954231Y-109613007D01*
X112985754Y-109550652D01*
X113005050Y-109533932D01*
X113027234Y-109518398D01*
X113190609Y-109404002D01*
X113357703Y-109236908D01*
X113493243Y-109043337D01*
X113593111Y-108829170D01*
X113654271Y-108600915D01*
X113674867Y-108365507D01*
X113654271Y-108130099D01*
X113593111Y-107901844D01*
X113493243Y-107687678D01*
X113357703Y-107494106D01*
X113357702Y-107494104D01*
X113190610Y-107327013D01*
X113190609Y-107327012D01*
X113004613Y-107196776D01*
X112960989Y-107142199D01*
X112953796Y-107072700D01*
X112985318Y-107010346D01*
X113004613Y-106993626D01*
X113190290Y-106863612D01*
X113357313Y-106696589D01*
X113492808Y-106503085D01*
X113592637Y-106288999D01*
X113592640Y-106288993D01*
X113649844Y-106075507D01*
X112752894Y-106075507D01*
X112778701Y-106035351D01*
X112819208Y-105897396D01*
X112819208Y-105753618D01*
X112778701Y-105615663D01*
X112752894Y-105575507D01*
X113649844Y-105575507D01*
X113649843Y-105575506D01*
X113592640Y-105362020D01*
X113592637Y-105362014D01*
X113492808Y-105147929D01*
X113492807Y-105147927D01*
X113357321Y-104954433D01*
X113357316Y-104954427D01*
X113190286Y-104787397D01*
X113004613Y-104657386D01*
X112960988Y-104602809D01*
X112953796Y-104533311D01*
X112985318Y-104470956D01*
X113004614Y-104454237D01*
X113005050Y-104453932D01*
X113190609Y-104324002D01*
X113357703Y-104156908D01*
X113493243Y-103963337D01*
X113593111Y-103749170D01*
X113654271Y-103520915D01*
X113674867Y-103285507D01*
X113654271Y-103050099D01*
X113593111Y-102821844D01*
X113493243Y-102607678D01*
X113357703Y-102414106D01*
X113357702Y-102414104D01*
X113190610Y-102247013D01*
X113190604Y-102247008D01*
X113005050Y-102117082D01*
X112961425Y-102062505D01*
X112954231Y-101993007D01*
X112985754Y-101930652D01*
X113005050Y-101913932D01*
X113027234Y-101898398D01*
X113190609Y-101784002D01*
X113357703Y-101616908D01*
X113493243Y-101423337D01*
X113593111Y-101209170D01*
X113654271Y-100980915D01*
X113674867Y-100745507D01*
X113654271Y-100510099D01*
X113593111Y-100281844D01*
X113493243Y-100067678D01*
X113357703Y-99874106D01*
X113357702Y-99874104D01*
X113190610Y-99707013D01*
X113190604Y-99707008D01*
X113005050Y-99577082D01*
X112961425Y-99522505D01*
X112954231Y-99453007D01*
X112985754Y-99390652D01*
X113005050Y-99373932D01*
X113083372Y-99319090D01*
X113190609Y-99244002D01*
X113357703Y-99076908D01*
X113493243Y-98883337D01*
X113593111Y-98669170D01*
X113654271Y-98440915D01*
X113674867Y-98205507D01*
X113654271Y-97970099D01*
X113593111Y-97741844D01*
X113493243Y-97527678D01*
X113357703Y-97334106D01*
X113357702Y-97334104D01*
X113190610Y-97167013D01*
X113190604Y-97167008D01*
X113005050Y-97037082D01*
X112961425Y-96982505D01*
X112954231Y-96913007D01*
X112985754Y-96850652D01*
X113005050Y-96833932D01*
X113027234Y-96818398D01*
X113190609Y-96704002D01*
X113357703Y-96536908D01*
X113493243Y-96343337D01*
X113593111Y-96129170D01*
X113654271Y-95900915D01*
X113674867Y-95665507D01*
X113654271Y-95430099D01*
X113593111Y-95201844D01*
X113493243Y-94987678D01*
X113492860Y-94987130D01*
X113357702Y-94794104D01*
X113190610Y-94627013D01*
X113190604Y-94627008D01*
X113005050Y-94497082D01*
X112961425Y-94442505D01*
X112954231Y-94373007D01*
X112985754Y-94310652D01*
X113005050Y-94293932D01*
X113027234Y-94278398D01*
X113190609Y-94164002D01*
X113357703Y-93996908D01*
X113493243Y-93803337D01*
X113593111Y-93589170D01*
X113654271Y-93360915D01*
X113674867Y-93125507D01*
X113654271Y-92890099D01*
X113593111Y-92661844D01*
X113493243Y-92447678D01*
X113492864Y-92447136D01*
X113357702Y-92254104D01*
X113190610Y-92087013D01*
X113190604Y-92087008D01*
X113005050Y-91957082D01*
X112961425Y-91902505D01*
X112954231Y-91833007D01*
X112985754Y-91770652D01*
X113005050Y-91753932D01*
X113027234Y-91738398D01*
X113190609Y-91624002D01*
X113357703Y-91456908D01*
X113493243Y-91263337D01*
X113593111Y-91049170D01*
X113654271Y-90820915D01*
X113674867Y-90585507D01*
X113654271Y-90350099D01*
X113593111Y-90121844D01*
X113493243Y-89907678D01*
X113357703Y-89714106D01*
X113357702Y-89714104D01*
X113190610Y-89547013D01*
X113190604Y-89547008D01*
X113005050Y-89417082D01*
X112961425Y-89362505D01*
X112954231Y-89293007D01*
X112985754Y-89230652D01*
X113005050Y-89213932D01*
X113027234Y-89198398D01*
X113190609Y-89084002D01*
X113357703Y-88916908D01*
X113493243Y-88723337D01*
X113593111Y-88509170D01*
X113654271Y-88280915D01*
X113674867Y-88045507D01*
X113654271Y-87810099D01*
X113593111Y-87581844D01*
X113493243Y-87367678D01*
X113357703Y-87174106D01*
X113357702Y-87174104D01*
X113190610Y-87007013D01*
X113190604Y-87007008D01*
X113005050Y-86877082D01*
X112961425Y-86822505D01*
X112954231Y-86753007D01*
X112985754Y-86690652D01*
X113005050Y-86673932D01*
X113098399Y-86608568D01*
X113190609Y-86544002D01*
X113357703Y-86376908D01*
X113493243Y-86183337D01*
X113593111Y-85969170D01*
X113654271Y-85740915D01*
X113674867Y-85505507D01*
X113654271Y-85270099D01*
X113593111Y-85041844D01*
X113493243Y-84827678D01*
X113492860Y-84827130D01*
X113357702Y-84634104D01*
X113190610Y-84467013D01*
X113190604Y-84467008D01*
X113005050Y-84337082D01*
X112961425Y-84282505D01*
X112954231Y-84213007D01*
X112985754Y-84150652D01*
X113005050Y-84133932D01*
X113027234Y-84118398D01*
X113190609Y-84004002D01*
X113357703Y-83836908D01*
X113493243Y-83643337D01*
X113593111Y-83429170D01*
X113654271Y-83200915D01*
X113674867Y-82965507D01*
X113654271Y-82730099D01*
X113593111Y-82501844D01*
X113493243Y-82287678D01*
X113443628Y-82216819D01*
X113357702Y-82094104D01*
X113190610Y-81927013D01*
X113190604Y-81927008D01*
X113005050Y-81797082D01*
X112961425Y-81742505D01*
X112954231Y-81673007D01*
X112985754Y-81610652D01*
X113005050Y-81593932D01*
X113184529Y-81468259D01*
X113190609Y-81464002D01*
X113357703Y-81296908D01*
X113493243Y-81103337D01*
X113593111Y-80889170D01*
X113654271Y-80660915D01*
X113674867Y-80425507D01*
X113654271Y-80190099D01*
X113593111Y-79961844D01*
X113493243Y-79747678D01*
X113484814Y-79735639D01*
X113357702Y-79554104D01*
X113190610Y-79387013D01*
X113190604Y-79387008D01*
X113005050Y-79257082D01*
X112961425Y-79202505D01*
X112954231Y-79133007D01*
X112985754Y-79070652D01*
X113005050Y-79053932D01*
X113099503Y-78987795D01*
X113190609Y-78924002D01*
X113357703Y-78756908D01*
X113493243Y-78563337D01*
X113593111Y-78349170D01*
X113654271Y-78120915D01*
X113674867Y-77885507D01*
X113654271Y-77650099D01*
X113593111Y-77421844D01*
X113493243Y-77207678D01*
X113492860Y-77207130D01*
X113357702Y-77014104D01*
X113190610Y-76847013D01*
X113190604Y-76847008D01*
X113005050Y-76717082D01*
X112961425Y-76662505D01*
X112954231Y-76593007D01*
X112985754Y-76530652D01*
X113005050Y-76513932D01*
X113045886Y-76485338D01*
X113190609Y-76384002D01*
X113357703Y-76216908D01*
X113493243Y-76023337D01*
X113593111Y-75809170D01*
X113654271Y-75580915D01*
X113674867Y-75345507D01*
X113654271Y-75110099D01*
X113593111Y-74881844D01*
X113493243Y-74667678D01*
X113470395Y-74635048D01*
X113357704Y-74474107D01*
X113297270Y-74413673D01*
X113235775Y-74352178D01*
X113202292Y-74290858D01*
X113207276Y-74221166D01*
X113249147Y-74165232D01*
X113280123Y-74148317D01*
X113411539Y-74099303D01*
X113526754Y-74013053D01*
X113613004Y-73897838D01*
X113663299Y-73762990D01*
X113669708Y-73703380D01*
X113669707Y-72567735D01*
X113689392Y-72500697D01*
X113706021Y-72480060D01*
X121275501Y-64910581D01*
X121336824Y-64877096D01*
X121363182Y-64874262D01*
X151244936Y-64874262D01*
X151311975Y-64893947D01*
G37*
%TD.AperFunction*%
%TA.AperFunction,Conductor*%
G36*
X190192539Y-58690185D02*
G01*
X190238294Y-58742989D01*
X190249500Y-58794500D01*
X190249500Y-129165500D01*
X190229815Y-129232539D01*
X190177011Y-129278294D01*
X190125500Y-129289500D01*
X107054500Y-129289500D01*
X106987461Y-129269815D01*
X106941706Y-129217011D01*
X106930500Y-129165500D01*
X106930500Y-92394910D01*
X107319840Y-92394910D01*
X107324225Y-92441298D01*
X107324500Y-92447136D01*
X107324500Y-119297255D01*
X107322775Y-119312872D01*
X107323061Y-119312899D01*
X107322326Y-119320665D01*
X107324500Y-119389814D01*
X107324500Y-119419343D01*
X107324501Y-119419360D01*
X107325368Y-119426231D01*
X107325826Y-119432050D01*
X107327290Y-119478624D01*
X107327291Y-119478627D01*
X107332880Y-119497867D01*
X107336824Y-119516911D01*
X107339336Y-119536792D01*
X107355634Y-119577958D01*
X107356490Y-119580119D01*
X107358382Y-119585647D01*
X107371381Y-119630388D01*
X107381580Y-119647634D01*
X107390136Y-119665100D01*
X107397514Y-119683732D01*
X107424898Y-119721423D01*
X107428106Y-119726307D01*
X107451827Y-119766416D01*
X107451833Y-119766424D01*
X107465990Y-119780580D01*
X107478628Y-119795376D01*
X107490405Y-119811586D01*
X107490406Y-119811587D01*
X107526309Y-119841288D01*
X107530620Y-119845210D01*
X109417150Y-121731740D01*
X111259194Y-123573784D01*
X111269019Y-123586048D01*
X111269240Y-123585866D01*
X111274210Y-123591873D01*
X111274213Y-123591876D01*
X111274214Y-123591877D01*
X111324651Y-123639241D01*
X111345530Y-123660120D01*
X111351004Y-123664366D01*
X111355442Y-123668156D01*
X111389418Y-123700062D01*
X111389422Y-123700064D01*
X111406973Y-123709713D01*
X111423231Y-123720392D01*
X111439064Y-123732674D01*
X111461015Y-123742172D01*
X111481837Y-123751183D01*
X111487081Y-123753752D01*
X111527908Y-123776197D01*
X111547312Y-123781179D01*
X111565710Y-123787478D01*
X111584105Y-123795438D01*
X111630129Y-123802726D01*
X111635832Y-123803907D01*
X111680981Y-123815500D01*
X111701016Y-123815500D01*
X111720413Y-123817026D01*
X111740196Y-123820160D01*
X111786584Y-123815775D01*
X111792422Y-123815500D01*
X141929548Y-123815500D01*
X141996587Y-123835185D01*
X142017229Y-123851819D01*
X144279197Y-126113788D01*
X144289022Y-126126051D01*
X144289243Y-126125869D01*
X144294214Y-126131878D01*
X144320217Y-126156295D01*
X144344635Y-126179226D01*
X144365529Y-126200120D01*
X144371011Y-126204373D01*
X144375443Y-126208157D01*
X144409418Y-126240062D01*
X144426976Y-126249714D01*
X144443235Y-126260395D01*
X144459064Y-126272673D01*
X144501838Y-126291182D01*
X144507056Y-126293738D01*
X144547908Y-126316197D01*
X144567316Y-126321180D01*
X144585717Y-126327480D01*
X144604104Y-126335437D01*
X144647488Y-126342308D01*
X144650119Y-126342725D01*
X144655839Y-126343909D01*
X144700981Y-126355500D01*
X144721016Y-126355500D01*
X144740414Y-126357026D01*
X144760194Y-126360159D01*
X144760195Y-126360160D01*
X144760195Y-126360159D01*
X144760196Y-126360160D01*
X144806584Y-126355775D01*
X144812422Y-126355500D01*
X145346252Y-126355500D01*
X145413291Y-126375185D01*
X145438400Y-126396526D01*
X145444126Y-126402885D01*
X145444130Y-126402889D01*
X145597265Y-126514148D01*
X145597270Y-126514151D01*
X145770192Y-126591142D01*
X145770197Y-126591144D01*
X145955354Y-126630500D01*
X145955355Y-126630500D01*
X146144644Y-126630500D01*
X146144646Y-126630500D01*
X146329803Y-126591144D01*
X146502730Y-126514151D01*
X146655871Y-126402888D01*
X146782533Y-126262216D01*
X146877179Y-126098284D01*
X146935674Y-125918256D01*
X146955460Y-125730000D01*
X146935674Y-125541744D01*
X146877179Y-125361716D01*
X146825093Y-125271500D01*
X146808620Y-125203599D01*
X146831473Y-125137573D01*
X146886394Y-125094382D01*
X146932480Y-125085500D01*
X156776252Y-125085500D01*
X156843291Y-125105185D01*
X156868400Y-125126526D01*
X156874126Y-125132885D01*
X156874130Y-125132889D01*
X157027265Y-125244148D01*
X157027270Y-125244151D01*
X157200192Y-125321142D01*
X157200197Y-125321144D01*
X157385354Y-125360500D01*
X157385355Y-125360500D01*
X157574644Y-125360500D01*
X157574646Y-125360500D01*
X157759803Y-125321144D01*
X157932730Y-125244151D01*
X158085871Y-125132888D01*
X158212533Y-124992216D01*
X158307179Y-124828284D01*
X158365674Y-124648256D01*
X158385460Y-124460000D01*
X158365674Y-124271744D01*
X158307179Y-124091716D01*
X158255093Y-124001500D01*
X158238620Y-123933599D01*
X158261473Y-123867573D01*
X158316394Y-123824382D01*
X158362480Y-123815500D01*
X171367257Y-123815500D01*
X171382877Y-123817224D01*
X171382904Y-123816939D01*
X171390660Y-123817671D01*
X171390667Y-123817673D01*
X171459814Y-123815500D01*
X171489350Y-123815500D01*
X171496228Y-123814630D01*
X171502041Y-123814172D01*
X171548627Y-123812709D01*
X171567869Y-123807117D01*
X171586912Y-123803174D01*
X171606792Y-123800664D01*
X171650122Y-123783507D01*
X171655646Y-123781617D01*
X171659396Y-123780527D01*
X171700390Y-123768618D01*
X171717629Y-123758422D01*
X171735103Y-123749862D01*
X171753727Y-123742488D01*
X171753727Y-123742487D01*
X171753732Y-123742486D01*
X171791449Y-123715082D01*
X171796305Y-123711892D01*
X171836420Y-123688170D01*
X171850589Y-123673999D01*
X171865379Y-123661368D01*
X171881587Y-123649594D01*
X171911299Y-123613676D01*
X171915212Y-123609376D01*
X172667772Y-122856819D01*
X172729095Y-122823334D01*
X172755453Y-122820500D01*
X172814644Y-122820500D01*
X172814646Y-122820500D01*
X172999803Y-122781144D01*
X173172730Y-122704151D01*
X173325871Y-122592888D01*
X173452533Y-122452216D01*
X173547179Y-122288284D01*
X173605674Y-122108256D01*
X173625460Y-121920000D01*
X173605674Y-121731744D01*
X173547179Y-121551716D01*
X173452533Y-121387784D01*
X173325871Y-121247112D01*
X173325870Y-121247111D01*
X173172734Y-121135851D01*
X173172729Y-121135848D01*
X172999807Y-121058857D01*
X172999802Y-121058855D01*
X172854001Y-121027865D01*
X172814646Y-121019500D01*
X172625354Y-121019500D01*
X172592897Y-121026398D01*
X172440197Y-121058855D01*
X172440192Y-121058857D01*
X172267270Y-121135848D01*
X172267265Y-121135851D01*
X172114129Y-121247111D01*
X171987466Y-121387785D01*
X171892821Y-121551715D01*
X171892818Y-121551722D01*
X171834327Y-121731740D01*
X171834326Y-121731744D01*
X171816679Y-121899649D01*
X171790094Y-121964263D01*
X171781039Y-121974368D01*
X171227228Y-122528181D01*
X171165905Y-122561666D01*
X171139547Y-122564500D01*
X147630453Y-122564500D01*
X147563414Y-122544815D01*
X147542772Y-122528181D01*
X145280803Y-120266212D01*
X145270980Y-120253950D01*
X145270759Y-120254134D01*
X145265786Y-120248123D01*
X145215364Y-120200773D01*
X145204919Y-120190328D01*
X145194475Y-120179883D01*
X145188986Y-120175625D01*
X145184561Y-120171847D01*
X145150582Y-120139938D01*
X145150580Y-120139936D01*
X145150577Y-120139935D01*
X145133029Y-120130288D01*
X145116763Y-120119604D01*
X145100933Y-120107325D01*
X145058168Y-120088818D01*
X145052922Y-120086248D01*
X145012093Y-120063803D01*
X145012092Y-120063802D01*
X144992693Y-120058822D01*
X144974281Y-120052518D01*
X144955898Y-120044562D01*
X144955892Y-120044560D01*
X144909874Y-120037272D01*
X144904152Y-120036087D01*
X144859021Y-120024500D01*
X144859019Y-120024500D01*
X144838984Y-120024500D01*
X144819586Y-120022973D01*
X144812162Y-120021797D01*
X144799805Y-120019840D01*
X144799804Y-120019840D01*
X144753416Y-120024225D01*
X144747578Y-120024500D01*
X138259491Y-120024500D01*
X138192452Y-120004815D01*
X138146697Y-119952011D01*
X138136753Y-119882853D01*
X138165778Y-119819297D01*
X138207084Y-119788118D01*
X138397038Y-119699542D01*
X138590609Y-119564002D01*
X138757703Y-119396908D01*
X138893243Y-119203337D01*
X138993111Y-118989170D01*
X139003675Y-118949746D01*
X148721210Y-118949746D01*
X148741736Y-119197470D01*
X148741738Y-119197479D01*
X148802763Y-119438458D01*
X148902617Y-119666105D01*
X149002915Y-119819623D01*
X149700421Y-119122117D01*
X149703235Y-119135656D01*
X149772793Y-119269897D01*
X149875989Y-119380393D01*
X150005170Y-119458950D01*
X150056353Y-119473290D01*
X149356293Y-120173350D01*
X149403119Y-120209796D01*
X149403121Y-120209797D01*
X149621736Y-120328105D01*
X149621747Y-120328110D01*
X149856857Y-120408824D01*
X150102058Y-120449741D01*
X150350644Y-120449741D01*
X150595844Y-120408824D01*
X150830954Y-120328110D01*
X150830965Y-120328105D01*
X151049579Y-120209798D01*
X151049582Y-120209796D01*
X151096407Y-120173350D01*
X150397919Y-119474862D01*
X150514809Y-119424090D01*
X150632090Y-119328675D01*
X150719279Y-119205156D01*
X150749705Y-119119543D01*
X151449785Y-119819623D01*
X151550082Y-119666110D01*
X151649938Y-119438458D01*
X151710963Y-119197479D01*
X151710965Y-119197470D01*
X151731492Y-118949746D01*
X155221210Y-118949746D01*
X155241736Y-119197470D01*
X155241738Y-119197479D01*
X155302763Y-119438458D01*
X155402617Y-119666105D01*
X155502915Y-119819623D01*
X156200421Y-119122117D01*
X156203235Y-119135656D01*
X156272793Y-119269897D01*
X156375989Y-119380393D01*
X156505170Y-119458950D01*
X156556353Y-119473290D01*
X155856293Y-120173350D01*
X155903119Y-120209796D01*
X155903121Y-120209797D01*
X156121736Y-120328105D01*
X156121747Y-120328110D01*
X156356857Y-120408824D01*
X156602058Y-120449741D01*
X156850644Y-120449741D01*
X157095844Y-120408824D01*
X157330954Y-120328110D01*
X157330965Y-120328105D01*
X157549579Y-120209798D01*
X157549582Y-120209796D01*
X157596407Y-120173350D01*
X156897919Y-119474862D01*
X157014809Y-119424090D01*
X157132090Y-119328675D01*
X157219279Y-119205156D01*
X157249705Y-119119543D01*
X157949785Y-119819623D01*
X158050082Y-119666110D01*
X158149938Y-119438458D01*
X158210963Y-119197479D01*
X158210965Y-119197470D01*
X158231492Y-118949746D01*
X161496210Y-118949746D01*
X161516736Y-119197470D01*
X161516738Y-119197479D01*
X161577763Y-119438458D01*
X161677617Y-119666105D01*
X161777915Y-119819623D01*
X162475421Y-119122117D01*
X162478235Y-119135656D01*
X162547793Y-119269897D01*
X162650989Y-119380393D01*
X162780170Y-119458950D01*
X162831353Y-119473290D01*
X162131293Y-120173350D01*
X162178119Y-120209796D01*
X162178121Y-120209797D01*
X162396736Y-120328105D01*
X162396747Y-120328110D01*
X162631857Y-120408824D01*
X162877058Y-120449741D01*
X163125644Y-120449741D01*
X163370844Y-120408824D01*
X163605954Y-120328110D01*
X163605965Y-120328105D01*
X163824579Y-120209798D01*
X163824582Y-120209796D01*
X163871407Y-120173350D01*
X163172919Y-119474862D01*
X163289809Y-119424090D01*
X163407090Y-119328675D01*
X163494279Y-119205156D01*
X163524705Y-119119543D01*
X164224785Y-119819623D01*
X164325082Y-119666110D01*
X164424938Y-119438458D01*
X164485963Y-119197479D01*
X164485965Y-119197470D01*
X164506492Y-118949746D01*
X167996210Y-118949746D01*
X168016736Y-119197470D01*
X168016738Y-119197479D01*
X168077763Y-119438458D01*
X168177617Y-119666105D01*
X168277915Y-119819623D01*
X168975421Y-119122117D01*
X168978235Y-119135656D01*
X169047793Y-119269897D01*
X169150989Y-119380393D01*
X169280170Y-119458950D01*
X169331353Y-119473290D01*
X168631293Y-120173350D01*
X168678119Y-120209796D01*
X168678121Y-120209797D01*
X168896736Y-120328105D01*
X168896747Y-120328110D01*
X169131857Y-120408824D01*
X169377058Y-120449741D01*
X169625644Y-120449741D01*
X169870844Y-120408824D01*
X170105954Y-120328110D01*
X170105965Y-120328105D01*
X170324579Y-120209798D01*
X170324582Y-120209796D01*
X170371407Y-120173350D01*
X169672919Y-119474862D01*
X169789809Y-119424090D01*
X169907090Y-119328675D01*
X169994279Y-119205156D01*
X170024705Y-119119543D01*
X170724785Y-119819623D01*
X170825082Y-119666110D01*
X170924938Y-119438458D01*
X170985963Y-119197479D01*
X170985965Y-119197470D01*
X171006492Y-118949746D01*
X171006492Y-118949735D01*
X170987011Y-118714637D01*
X174271210Y-118714637D01*
X174291736Y-118962361D01*
X174291738Y-118962370D01*
X174352763Y-119203349D01*
X174452617Y-119430996D01*
X174552915Y-119584514D01*
X175250421Y-118887008D01*
X175253235Y-118900547D01*
X175322793Y-119034788D01*
X175425989Y-119145284D01*
X175555170Y-119223841D01*
X175606353Y-119238181D01*
X174906293Y-119938241D01*
X174953119Y-119974687D01*
X174953121Y-119974688D01*
X175171736Y-120092996D01*
X175171747Y-120093001D01*
X175406857Y-120173715D01*
X175652058Y-120214632D01*
X175900644Y-120214632D01*
X176145844Y-120173715D01*
X176380954Y-120093001D01*
X176380965Y-120092996D01*
X176599579Y-119974689D01*
X176599582Y-119974687D01*
X176646407Y-119938241D01*
X175947919Y-119239753D01*
X176064809Y-119188981D01*
X176182090Y-119093566D01*
X176269279Y-118970047D01*
X176299705Y-118884434D01*
X176999785Y-119584514D01*
X177100082Y-119431001D01*
X177199938Y-119203349D01*
X177260963Y-118962370D01*
X177260965Y-118962361D01*
X177281492Y-118714637D01*
X180771210Y-118714637D01*
X180791736Y-118962361D01*
X180791738Y-118962370D01*
X180852763Y-119203349D01*
X180952617Y-119430996D01*
X181052915Y-119584514D01*
X181750421Y-118887008D01*
X181753235Y-118900547D01*
X181822793Y-119034788D01*
X181925989Y-119145284D01*
X182055170Y-119223841D01*
X182106353Y-119238181D01*
X181406293Y-119938241D01*
X181453119Y-119974687D01*
X181453121Y-119974688D01*
X181671736Y-120092996D01*
X181671747Y-120093001D01*
X181906857Y-120173715D01*
X182152058Y-120214632D01*
X182400644Y-120214632D01*
X182645844Y-120173715D01*
X182880954Y-120093001D01*
X182880965Y-120092996D01*
X183099579Y-119974689D01*
X183099582Y-119974687D01*
X183146407Y-119938241D01*
X182447919Y-119239753D01*
X182564809Y-119188981D01*
X182682090Y-119093566D01*
X182769279Y-118970047D01*
X182799705Y-118884434D01*
X183499785Y-119584514D01*
X183600082Y-119431001D01*
X183699938Y-119203349D01*
X183760963Y-118962370D01*
X183760965Y-118962361D01*
X183781492Y-118714637D01*
X183781492Y-118714626D01*
X183760965Y-118466902D01*
X183760963Y-118466893D01*
X183699938Y-118225914D01*
X183600082Y-117998262D01*
X183499785Y-117844748D01*
X182802280Y-118542254D01*
X182799467Y-118528717D01*
X182729909Y-118394476D01*
X182626713Y-118283980D01*
X182497532Y-118205423D01*
X182446348Y-118191082D01*
X183146408Y-117491022D01*
X183146407Y-117491021D01*
X183099580Y-117454575D01*
X182880965Y-117336267D01*
X182880954Y-117336262D01*
X182645844Y-117255548D01*
X182400644Y-117214632D01*
X182152058Y-117214632D01*
X181906857Y-117255548D01*
X181671747Y-117336262D01*
X181671741Y-117336264D01*
X181453112Y-117454581D01*
X181406293Y-117491020D01*
X181406293Y-117491022D01*
X182104782Y-118189510D01*
X181987893Y-118240283D01*
X181870612Y-118335698D01*
X181783423Y-118459217D01*
X181752996Y-118544829D01*
X181052915Y-117844748D01*
X180952618Y-117998264D01*
X180852763Y-118225914D01*
X180791738Y-118466893D01*
X180791736Y-118466902D01*
X180771210Y-118714626D01*
X180771210Y-118714637D01*
X177281492Y-118714637D01*
X177281492Y-118714626D01*
X177260965Y-118466902D01*
X177260963Y-118466893D01*
X177199938Y-118225914D01*
X177100082Y-117998262D01*
X176999785Y-117844748D01*
X176302280Y-118542254D01*
X176299467Y-118528717D01*
X176229909Y-118394476D01*
X176126713Y-118283980D01*
X175997532Y-118205423D01*
X175946348Y-118191082D01*
X176646408Y-117491022D01*
X176646407Y-117491021D01*
X176599580Y-117454575D01*
X176380965Y-117336267D01*
X176380954Y-117336262D01*
X176145844Y-117255548D01*
X175900644Y-117214632D01*
X175652058Y-117214632D01*
X175406857Y-117255548D01*
X175171747Y-117336262D01*
X175171741Y-117336264D01*
X174953112Y-117454581D01*
X174906293Y-117491020D01*
X174906293Y-117491022D01*
X175604782Y-118189510D01*
X175487893Y-118240283D01*
X175370612Y-118335698D01*
X175283423Y-118459217D01*
X175252996Y-118544829D01*
X174552915Y-117844748D01*
X174452618Y-117998264D01*
X174352763Y-118225914D01*
X174291738Y-118466893D01*
X174291736Y-118466902D01*
X174271210Y-118714626D01*
X174271210Y-118714637D01*
X170987011Y-118714637D01*
X170985965Y-118702011D01*
X170985963Y-118702002D01*
X170924938Y-118461023D01*
X170825082Y-118233371D01*
X170724785Y-118079857D01*
X170027280Y-118777363D01*
X170024467Y-118763826D01*
X169954909Y-118629585D01*
X169851713Y-118519089D01*
X169722532Y-118440532D01*
X169671348Y-118426191D01*
X170371408Y-117726131D01*
X170371407Y-117726130D01*
X170324580Y-117689684D01*
X170105965Y-117571376D01*
X170105954Y-117571371D01*
X169870844Y-117490657D01*
X169625644Y-117449741D01*
X169377058Y-117449741D01*
X169131857Y-117490657D01*
X168896747Y-117571371D01*
X168896741Y-117571373D01*
X168678112Y-117689690D01*
X168631293Y-117726129D01*
X168631293Y-117726131D01*
X169329782Y-118424619D01*
X169212893Y-118475392D01*
X169095612Y-118570807D01*
X169008423Y-118694326D01*
X168977996Y-118779938D01*
X168277915Y-118079857D01*
X168177618Y-118233373D01*
X168077763Y-118461023D01*
X168016738Y-118702002D01*
X168016736Y-118702011D01*
X167996210Y-118949735D01*
X167996210Y-118949746D01*
X164506492Y-118949746D01*
X164506492Y-118949735D01*
X164485965Y-118702011D01*
X164485963Y-118702002D01*
X164424938Y-118461023D01*
X164325082Y-118233371D01*
X164224785Y-118079857D01*
X163527280Y-118777363D01*
X163524467Y-118763826D01*
X163454909Y-118629585D01*
X163351713Y-118519089D01*
X163222532Y-118440532D01*
X163171348Y-118426191D01*
X163871408Y-117726131D01*
X163871407Y-117726130D01*
X163824580Y-117689684D01*
X163605965Y-117571376D01*
X163605954Y-117571371D01*
X163370844Y-117490657D01*
X163125644Y-117449741D01*
X162877058Y-117449741D01*
X162631857Y-117490657D01*
X162396747Y-117571371D01*
X162396741Y-117571373D01*
X162178112Y-117689690D01*
X162131293Y-117726129D01*
X162131293Y-117726131D01*
X162829782Y-118424619D01*
X162712893Y-118475392D01*
X162595612Y-118570807D01*
X162508423Y-118694326D01*
X162477996Y-118779938D01*
X161777915Y-118079857D01*
X161677618Y-118233373D01*
X161577763Y-118461023D01*
X161516738Y-118702002D01*
X161516736Y-118702011D01*
X161496210Y-118949735D01*
X161496210Y-118949746D01*
X158231492Y-118949746D01*
X158231492Y-118949735D01*
X158210965Y-118702011D01*
X158210963Y-118702002D01*
X158149938Y-118461023D01*
X158050082Y-118233371D01*
X157949785Y-118079857D01*
X157252280Y-118777363D01*
X157249467Y-118763826D01*
X157179909Y-118629585D01*
X157076713Y-118519089D01*
X156947532Y-118440532D01*
X156896348Y-118426191D01*
X157596408Y-117726131D01*
X157596407Y-117726130D01*
X157549580Y-117689684D01*
X157330965Y-117571376D01*
X157330954Y-117571371D01*
X157095844Y-117490657D01*
X156850644Y-117449741D01*
X156602058Y-117449741D01*
X156356857Y-117490657D01*
X156121747Y-117571371D01*
X156121741Y-117571373D01*
X155903112Y-117689690D01*
X155856293Y-117726129D01*
X155856293Y-117726131D01*
X156554782Y-118424619D01*
X156437893Y-118475392D01*
X156320612Y-118570807D01*
X156233423Y-118694326D01*
X156202996Y-118779938D01*
X155502915Y-118079857D01*
X155402618Y-118233373D01*
X155302763Y-118461023D01*
X155241738Y-118702002D01*
X155241736Y-118702011D01*
X155221210Y-118949735D01*
X155221210Y-118949746D01*
X151731492Y-118949746D01*
X151731492Y-118949735D01*
X151710965Y-118702011D01*
X151710963Y-118702002D01*
X151649938Y-118461023D01*
X151550082Y-118233371D01*
X151449785Y-118079857D01*
X150752280Y-118777363D01*
X150749467Y-118763826D01*
X150679909Y-118629585D01*
X150576713Y-118519089D01*
X150447532Y-118440532D01*
X150396348Y-118426191D01*
X151096408Y-117726131D01*
X151096407Y-117726130D01*
X151049580Y-117689684D01*
X150830965Y-117571376D01*
X150830954Y-117571371D01*
X150595844Y-117490657D01*
X150350644Y-117449741D01*
X150102058Y-117449741D01*
X149856857Y-117490657D01*
X149621747Y-117571371D01*
X149621741Y-117571373D01*
X149403112Y-117689690D01*
X149356293Y-117726129D01*
X149356293Y-117726131D01*
X150054782Y-118424619D01*
X149937893Y-118475392D01*
X149820612Y-118570807D01*
X149733423Y-118694326D01*
X149702996Y-118779938D01*
X149002915Y-118079857D01*
X148902618Y-118233373D01*
X148802763Y-118461023D01*
X148741738Y-118702002D01*
X148741736Y-118702011D01*
X148721210Y-118949735D01*
X148721210Y-118949746D01*
X139003675Y-118949746D01*
X139054271Y-118760915D01*
X139074867Y-118525507D01*
X139074305Y-118519089D01*
X139054271Y-118290103D01*
X139054271Y-118290099D01*
X138993111Y-118061844D01*
X138893243Y-117847678D01*
X138891192Y-117844748D01*
X138757702Y-117654104D01*
X138590610Y-117487013D01*
X138590604Y-117487008D01*
X138405050Y-117357082D01*
X138361425Y-117302505D01*
X138354231Y-117233007D01*
X138385754Y-117170652D01*
X138405050Y-117153932D01*
X138427234Y-117138398D01*
X138590609Y-117024002D01*
X138757703Y-116856908D01*
X138893243Y-116663337D01*
X138993111Y-116449170D01*
X139054271Y-116220915D01*
X139074867Y-115985507D01*
X139054271Y-115750099D01*
X138993111Y-115521844D01*
X138893243Y-115307678D01*
X138794283Y-115166347D01*
X138757702Y-115114104D01*
X138590610Y-114947013D01*
X138590604Y-114947008D01*
X138405050Y-114817082D01*
X138361425Y-114762505D01*
X138354231Y-114693007D01*
X138385754Y-114630652D01*
X138405050Y-114613932D01*
X138427234Y-114598398D01*
X138590609Y-114484002D01*
X138624865Y-114449746D01*
X148720708Y-114449746D01*
X148741241Y-114697553D01*
X148741243Y-114697565D01*
X148802287Y-114938622D01*
X148902177Y-115166347D01*
X149038184Y-115374523D01*
X149038187Y-115374526D01*
X149206607Y-115557479D01*
X149402842Y-115710215D01*
X149621541Y-115828569D01*
X149856737Y-115909312D01*
X150102016Y-115950241D01*
X150350686Y-115950241D01*
X150595965Y-115909312D01*
X150831161Y-115828569D01*
X151049860Y-115710215D01*
X151246095Y-115557479D01*
X151414515Y-115374526D01*
X151550524Y-115166348D01*
X151550526Y-115166344D01*
X151557946Y-115149430D01*
X151602902Y-115095944D01*
X151669638Y-115075255D01*
X151671501Y-115075241D01*
X155281201Y-115075241D01*
X155348240Y-115094926D01*
X155393995Y-115147730D01*
X155394756Y-115149430D01*
X155402175Y-115166344D01*
X155538184Y-115374523D01*
X155538187Y-115374526D01*
X155706607Y-115557479D01*
X155902842Y-115710215D01*
X156121541Y-115828569D01*
X156356737Y-115909312D01*
X156602016Y-115950241D01*
X156850686Y-115950241D01*
X157095965Y-115909312D01*
X157331161Y-115828569D01*
X157549860Y-115710215D01*
X157746095Y-115557479D01*
X157914515Y-115374526D01*
X158050524Y-115166348D01*
X158150414Y-114938622D01*
X158211459Y-114697562D01*
X158211460Y-114697553D01*
X158231994Y-114449746D01*
X161495708Y-114449746D01*
X161516241Y-114697553D01*
X161516243Y-114697565D01*
X161577287Y-114938622D01*
X161677177Y-115166347D01*
X161813184Y-115374523D01*
X161813187Y-115374526D01*
X161981607Y-115557479D01*
X162177842Y-115710215D01*
X162396541Y-115828569D01*
X162631737Y-115909312D01*
X162877016Y-115950241D01*
X163125686Y-115950241D01*
X163370965Y-115909312D01*
X163606161Y-115828569D01*
X163824860Y-115710215D01*
X164021095Y-115557479D01*
X164189515Y-115374526D01*
X164325524Y-115166348D01*
X164325526Y-115166344D01*
X164332946Y-115149430D01*
X164377902Y-115095944D01*
X164444638Y-115075255D01*
X164446501Y-115075241D01*
X168056201Y-115075241D01*
X168123240Y-115094926D01*
X168168995Y-115147730D01*
X168169756Y-115149430D01*
X168177175Y-115166344D01*
X168313184Y-115374523D01*
X168313187Y-115374526D01*
X168481607Y-115557479D01*
X168677842Y-115710215D01*
X168896541Y-115828569D01*
X169131737Y-115909312D01*
X169377016Y-115950241D01*
X169625686Y-115950241D01*
X169870965Y-115909312D01*
X170106161Y-115828569D01*
X170324860Y-115710215D01*
X170521095Y-115557479D01*
X170689515Y-115374526D01*
X170825524Y-115166348D01*
X170925414Y-114938622D01*
X170986459Y-114697562D01*
X170986460Y-114697553D01*
X171006994Y-114449746D01*
X171006994Y-114449735D01*
X170987513Y-114214637D01*
X174270708Y-114214637D01*
X174291241Y-114462444D01*
X174291243Y-114462456D01*
X174352287Y-114703513D01*
X174452177Y-114931238D01*
X174588184Y-115139414D01*
X174612975Y-115166344D01*
X174756607Y-115322370D01*
X174952842Y-115475106D01*
X175171541Y-115593460D01*
X175406737Y-115674203D01*
X175652016Y-115715132D01*
X175900686Y-115715132D01*
X176145965Y-115674203D01*
X176381161Y-115593460D01*
X176599860Y-115475106D01*
X176796095Y-115322370D01*
X176964515Y-115139417D01*
X177100524Y-114931239D01*
X177100526Y-114931235D01*
X177107946Y-114914321D01*
X177152902Y-114860835D01*
X177219638Y-114840146D01*
X177221501Y-114840132D01*
X180831201Y-114840132D01*
X180898240Y-114859817D01*
X180943995Y-114912621D01*
X180944756Y-114914321D01*
X180952175Y-114931235D01*
X181088184Y-115139414D01*
X181112975Y-115166344D01*
X181256607Y-115322370D01*
X181452842Y-115475106D01*
X181671541Y-115593460D01*
X181906737Y-115674203D01*
X182152016Y-115715132D01*
X182400686Y-115715132D01*
X182645965Y-115674203D01*
X182881161Y-115593460D01*
X183099860Y-115475106D01*
X183296095Y-115322370D01*
X183464515Y-115139417D01*
X183600524Y-114931239D01*
X183700414Y-114703513D01*
X183761459Y-114462453D01*
X183761460Y-114462444D01*
X183781994Y-114214637D01*
X183781994Y-114214626D01*
X183761460Y-113966819D01*
X183761458Y-113966807D01*
X183700414Y-113725750D01*
X183600524Y-113498025D01*
X183464517Y-113289849D01*
X183442908Y-113266376D01*
X183296095Y-113106894D01*
X183099860Y-112954158D01*
X183099858Y-112954157D01*
X183099857Y-112954156D01*
X182881162Y-112835804D01*
X182881153Y-112835801D01*
X182645967Y-112755061D01*
X182400686Y-112714132D01*
X182152016Y-112714132D01*
X181906734Y-112755061D01*
X181671548Y-112835801D01*
X181671539Y-112835804D01*
X181452844Y-112954156D01*
X181256608Y-113106893D01*
X181088184Y-113289849D01*
X180952175Y-113498028D01*
X180944756Y-113514943D01*
X180899800Y-113568429D01*
X180833064Y-113589118D01*
X180831201Y-113589132D01*
X177221501Y-113589132D01*
X177154462Y-113569447D01*
X177108707Y-113516643D01*
X177107946Y-113514943D01*
X177100526Y-113498028D01*
X176964517Y-113289849D01*
X176942908Y-113266376D01*
X176796095Y-113106894D01*
X176599860Y-112954158D01*
X176599858Y-112954157D01*
X176599857Y-112954156D01*
X176381162Y-112835804D01*
X176381153Y-112835801D01*
X176145967Y-112755061D01*
X175900686Y-112714132D01*
X175652016Y-112714132D01*
X175406734Y-112755061D01*
X175171548Y-112835801D01*
X175171539Y-112835804D01*
X174952844Y-112954156D01*
X174756608Y-113106893D01*
X174588184Y-113289849D01*
X174452177Y-113498025D01*
X174352287Y-113725750D01*
X174291243Y-113966807D01*
X174291241Y-113966819D01*
X174270708Y-114214626D01*
X174270708Y-114214637D01*
X170987513Y-114214637D01*
X170986460Y-114201928D01*
X170986458Y-114201916D01*
X170925414Y-113960859D01*
X170825524Y-113733134D01*
X170689517Y-113524958D01*
X170616376Y-113445506D01*
X170521095Y-113342003D01*
X170324860Y-113189267D01*
X170324858Y-113189266D01*
X170324857Y-113189265D01*
X170106162Y-113070913D01*
X170106153Y-113070910D01*
X169870967Y-112990170D01*
X169625686Y-112949241D01*
X169377016Y-112949241D01*
X169131734Y-112990170D01*
X168896548Y-113070910D01*
X168896539Y-113070913D01*
X168677844Y-113189265D01*
X168481608Y-113342002D01*
X168313184Y-113524958D01*
X168177175Y-113733137D01*
X168169756Y-113750052D01*
X168124800Y-113803538D01*
X168058064Y-113824227D01*
X168056201Y-113824241D01*
X164446501Y-113824241D01*
X164379462Y-113804556D01*
X164333707Y-113751752D01*
X164332946Y-113750052D01*
X164325526Y-113733137D01*
X164189517Y-113524958D01*
X164116376Y-113445506D01*
X164021095Y-113342003D01*
X163824860Y-113189267D01*
X163824858Y-113189266D01*
X163824857Y-113189265D01*
X163606162Y-113070913D01*
X163606153Y-113070910D01*
X163370967Y-112990170D01*
X163125686Y-112949241D01*
X162877016Y-112949241D01*
X162631734Y-112990170D01*
X162396548Y-113070910D01*
X162396539Y-113070913D01*
X162177844Y-113189265D01*
X161981608Y-113342002D01*
X161813184Y-113524958D01*
X161677177Y-113733134D01*
X161577287Y-113960859D01*
X161516243Y-114201916D01*
X161516241Y-114201928D01*
X161495708Y-114449735D01*
X161495708Y-114449746D01*
X158231994Y-114449746D01*
X158231994Y-114449735D01*
X158211460Y-114201928D01*
X158211458Y-114201916D01*
X158150414Y-113960859D01*
X158050524Y-113733134D01*
X157914517Y-113524958D01*
X157841376Y-113445506D01*
X157746095Y-113342003D01*
X157549860Y-113189267D01*
X157549858Y-113189266D01*
X157549857Y-113189265D01*
X157331162Y-113070913D01*
X157331153Y-113070910D01*
X157095967Y-112990170D01*
X156850686Y-112949241D01*
X156602016Y-112949241D01*
X156356734Y-112990170D01*
X156121548Y-113070910D01*
X156121539Y-113070913D01*
X155902844Y-113189265D01*
X155706608Y-113342002D01*
X155538184Y-113524958D01*
X155402175Y-113733137D01*
X155394756Y-113750052D01*
X155349800Y-113803538D01*
X155283064Y-113824227D01*
X155281201Y-113824241D01*
X151671501Y-113824241D01*
X151604462Y-113804556D01*
X151558707Y-113751752D01*
X151557946Y-113750052D01*
X151550526Y-113733137D01*
X151414517Y-113524958D01*
X151341376Y-113445506D01*
X151246095Y-113342003D01*
X151049860Y-113189267D01*
X151049858Y-113189266D01*
X151049857Y-113189265D01*
X150831162Y-113070913D01*
X150831153Y-113070910D01*
X150595967Y-112990170D01*
X150350686Y-112949241D01*
X150102016Y-112949241D01*
X149856734Y-112990170D01*
X149621548Y-113070910D01*
X149621539Y-113070913D01*
X149402844Y-113189265D01*
X149206608Y-113342002D01*
X149038184Y-113524958D01*
X148902177Y-113733134D01*
X148802287Y-113960859D01*
X148741243Y-114201916D01*
X148741241Y-114201928D01*
X148720708Y-114449735D01*
X148720708Y-114449746D01*
X138624865Y-114449746D01*
X138757703Y-114316908D01*
X138893243Y-114123337D01*
X138993111Y-113909170D01*
X139054271Y-113680915D01*
X139074867Y-113445507D01*
X139054271Y-113210099D01*
X138993111Y-112981844D01*
X138893243Y-112767678D01*
X138757703Y-112574106D01*
X138757702Y-112574104D01*
X138590610Y-112407013D01*
X138590604Y-112407008D01*
X138405050Y-112277082D01*
X138361425Y-112222505D01*
X138354231Y-112153007D01*
X138385754Y-112090652D01*
X138405050Y-112073932D01*
X138427234Y-112058398D01*
X138590609Y-111944002D01*
X138757703Y-111776908D01*
X138893243Y-111583337D01*
X138993111Y-111369170D01*
X139054271Y-111140915D01*
X139074867Y-110905507D01*
X139054271Y-110670099D01*
X138993111Y-110441844D01*
X138893243Y-110227678D01*
X138757703Y-110034106D01*
X138757702Y-110034104D01*
X138590610Y-109867013D01*
X138590604Y-109867008D01*
X138405050Y-109737082D01*
X138361425Y-109682505D01*
X138354231Y-109613007D01*
X138385754Y-109550652D01*
X138405050Y-109533932D01*
X138427234Y-109518398D01*
X138590609Y-109404002D01*
X138757703Y-109236908D01*
X138893243Y-109043337D01*
X138993111Y-108829170D01*
X139054271Y-108600915D01*
X139074867Y-108365507D01*
X139054271Y-108130099D01*
X138993111Y-107901844D01*
X138893243Y-107687678D01*
X138757703Y-107494106D01*
X138757702Y-107494104D01*
X138590610Y-107327013D01*
X138590604Y-107327008D01*
X138405050Y-107197082D01*
X138361425Y-107142505D01*
X138354231Y-107073007D01*
X138385754Y-107010652D01*
X138405050Y-106993932D01*
X138427234Y-106978398D01*
X138590609Y-106864002D01*
X138757703Y-106696908D01*
X138893243Y-106503337D01*
X138993111Y-106289170D01*
X139054271Y-106060915D01*
X139074867Y-105825507D01*
X139054271Y-105590099D01*
X138993111Y-105361844D01*
X138893243Y-105147678D01*
X138757703Y-104954106D01*
X138757702Y-104954104D01*
X138590610Y-104787013D01*
X138590604Y-104787008D01*
X138405050Y-104657082D01*
X138361425Y-104602505D01*
X138354231Y-104533007D01*
X138385754Y-104470652D01*
X138405050Y-104453932D01*
X138427234Y-104438398D01*
X138590609Y-104324002D01*
X138757703Y-104156908D01*
X138893243Y-103963337D01*
X138993111Y-103749170D01*
X139054271Y-103520915D01*
X139074867Y-103285507D01*
X139054271Y-103050099D01*
X138993111Y-102821844D01*
X138893243Y-102607678D01*
X138757703Y-102414106D01*
X138757702Y-102414104D01*
X138590610Y-102247013D01*
X138590604Y-102247008D01*
X138405050Y-102117082D01*
X138361425Y-102062505D01*
X138354231Y-101993007D01*
X138385754Y-101930652D01*
X138405050Y-101913932D01*
X138427234Y-101898398D01*
X138590609Y-101784002D01*
X138757703Y-101616908D01*
X138893243Y-101423337D01*
X138993111Y-101209170D01*
X139054271Y-100980915D01*
X139074867Y-100745507D01*
X139054271Y-100510099D01*
X138993111Y-100281844D01*
X138893243Y-100067678D01*
X138757703Y-99874106D01*
X138757702Y-99874104D01*
X138590610Y-99707013D01*
X138590604Y-99707008D01*
X138405050Y-99577082D01*
X138361425Y-99522505D01*
X138354231Y-99453007D01*
X138385754Y-99390652D01*
X138405050Y-99373932D01*
X138483372Y-99319090D01*
X138590609Y-99244002D01*
X138668946Y-99165665D01*
X176729500Y-99165665D01*
X176729501Y-99165671D01*
X176735908Y-99225278D01*
X176786202Y-99360123D01*
X176786206Y-99360130D01*
X176872452Y-99475339D01*
X176872455Y-99475342D01*
X176987664Y-99561588D01*
X176987671Y-99561592D01*
X177122517Y-99611886D01*
X177122516Y-99611886D01*
X177129444Y-99612630D01*
X177182127Y-99618295D01*
X178777872Y-99618294D01*
X178837483Y-99611886D01*
X178972331Y-99561591D01*
X179087546Y-99475341D01*
X179173796Y-99360126D01*
X179224091Y-99225278D01*
X179230500Y-99165668D01*
X179230500Y-98917795D01*
X181630000Y-98917795D01*
X181630000Y-99165639D01*
X181636401Y-99225167D01*
X181636403Y-99225174D01*
X181686645Y-99359881D01*
X181686649Y-99359888D01*
X181772809Y-99474982D01*
X181772812Y-99474985D01*
X181887906Y-99561145D01*
X181887913Y-99561149D01*
X182022620Y-99611391D01*
X182022627Y-99611393D01*
X182082155Y-99617794D01*
X182082172Y-99617795D01*
X182630000Y-99617795D01*
X182630000Y-98917795D01*
X183130000Y-98917795D01*
X183130000Y-99617795D01*
X183677828Y-99617795D01*
X183677844Y-99617794D01*
X183737372Y-99611393D01*
X183737379Y-99611391D01*
X183872086Y-99561149D01*
X183872093Y-99561145D01*
X183987187Y-99474985D01*
X183987190Y-99474982D01*
X184073350Y-99359888D01*
X184073354Y-99359881D01*
X184123596Y-99225174D01*
X184123598Y-99225167D01*
X184129999Y-99165639D01*
X184130000Y-99165622D01*
X184130000Y-98917795D01*
X183130000Y-98917795D01*
X182630000Y-98917795D01*
X181630000Y-98917795D01*
X179230500Y-98917795D01*
X179230499Y-98417795D01*
X181630000Y-98417795D01*
X182630000Y-98417795D01*
X182630000Y-97717795D01*
X183130000Y-97717795D01*
X183130000Y-98417795D01*
X184130000Y-98417795D01*
X184130000Y-98169967D01*
X184129999Y-98169950D01*
X184123598Y-98110422D01*
X184123596Y-98110415D01*
X184073354Y-97975708D01*
X184073350Y-97975701D01*
X183987190Y-97860607D01*
X183987187Y-97860604D01*
X183872093Y-97774444D01*
X183872086Y-97774440D01*
X183737379Y-97724198D01*
X183737372Y-97724196D01*
X183677844Y-97717795D01*
X183130000Y-97717795D01*
X182630000Y-97717795D01*
X182082155Y-97717795D01*
X182022627Y-97724196D01*
X182022620Y-97724198D01*
X181887913Y-97774440D01*
X181887906Y-97774444D01*
X181772812Y-97860604D01*
X181772809Y-97860607D01*
X181686649Y-97975701D01*
X181686645Y-97975708D01*
X181636403Y-98110415D01*
X181636401Y-98110422D01*
X181630000Y-98169950D01*
X181630000Y-98417795D01*
X179230499Y-98417795D01*
X179230499Y-98169923D01*
X179224091Y-98110312D01*
X179173884Y-97975701D01*
X179173797Y-97975466D01*
X179173793Y-97975459D01*
X179087547Y-97860250D01*
X179087544Y-97860247D01*
X178972335Y-97774001D01*
X178972328Y-97773997D01*
X178837482Y-97723703D01*
X178837483Y-97723703D01*
X178777883Y-97717296D01*
X178777881Y-97717295D01*
X178777873Y-97717295D01*
X178777864Y-97717295D01*
X177182129Y-97717295D01*
X177182123Y-97717296D01*
X177122516Y-97723703D01*
X176987671Y-97773997D01*
X176987664Y-97774001D01*
X176872455Y-97860247D01*
X176872452Y-97860250D01*
X176786206Y-97975459D01*
X176786202Y-97975466D01*
X176735908Y-98110312D01*
X176729501Y-98169911D01*
X176729501Y-98169918D01*
X176729500Y-98169930D01*
X176729500Y-99165665D01*
X138668946Y-99165665D01*
X138757703Y-99076908D01*
X138893243Y-98883337D01*
X138993111Y-98669170D01*
X139054271Y-98440915D01*
X139074867Y-98205507D01*
X139054271Y-97970099D01*
X138993111Y-97741844D01*
X138893243Y-97527678D01*
X138757703Y-97334106D01*
X138757702Y-97334104D01*
X138590610Y-97167013D01*
X138590604Y-97167008D01*
X138405050Y-97037082D01*
X138361425Y-96982505D01*
X138354231Y-96913007D01*
X138385754Y-96850652D01*
X138405050Y-96833932D01*
X138427234Y-96818398D01*
X138590609Y-96704002D01*
X138757703Y-96536908D01*
X138892860Y-96343884D01*
X138947437Y-96300259D01*
X138994435Y-96291007D01*
X158251750Y-96291007D01*
X158267370Y-96292731D01*
X158267397Y-96292446D01*
X158275153Y-96293178D01*
X158275160Y-96293180D01*
X158344307Y-96291007D01*
X158373843Y-96291007D01*
X158380721Y-96290137D01*
X158386534Y-96289679D01*
X158433120Y-96288216D01*
X158452362Y-96282624D01*
X158471405Y-96278681D01*
X158491285Y-96276171D01*
X158534615Y-96259014D01*
X158540139Y-96257124D01*
X158543889Y-96256034D01*
X158584883Y-96244125D01*
X158602122Y-96233929D01*
X158619596Y-96225369D01*
X158638220Y-96217995D01*
X158638220Y-96217994D01*
X158638225Y-96217993D01*
X158675942Y-96190589D01*
X158680798Y-96187399D01*
X158720913Y-96163677D01*
X158735082Y-96149506D01*
X158749872Y-96136875D01*
X158766080Y-96125101D01*
X158795792Y-96089183D01*
X158799705Y-96084883D01*
X172667772Y-82216819D01*
X172729095Y-82183334D01*
X172755453Y-82180500D01*
X172814644Y-82180500D01*
X172814646Y-82180500D01*
X172999803Y-82141144D01*
X173172730Y-82064151D01*
X173325871Y-81952888D01*
X173452533Y-81812216D01*
X173547179Y-81648284D01*
X173605674Y-81468256D01*
X173625460Y-81280000D01*
X173605674Y-81091744D01*
X173547179Y-80911716D01*
X173452533Y-80747784D01*
X173325871Y-80607112D01*
X173325870Y-80607111D01*
X173172734Y-80495851D01*
X173172729Y-80495848D01*
X172999807Y-80418857D01*
X172999802Y-80418855D01*
X172854001Y-80387865D01*
X172814646Y-80379500D01*
X172625354Y-80379500D01*
X172592897Y-80386398D01*
X172440197Y-80418855D01*
X172440192Y-80418857D01*
X172267270Y-80495848D01*
X172267265Y-80495851D01*
X172114129Y-80607111D01*
X171987466Y-80747785D01*
X171892821Y-80911715D01*
X171892818Y-80911722D01*
X171834327Y-81091740D01*
X171834326Y-81091744D01*
X171826405Y-81167105D01*
X171816678Y-81259651D01*
X171790093Y-81324266D01*
X171781038Y-81334370D01*
X158111721Y-95003688D01*
X158050398Y-95037173D01*
X158024040Y-95040007D01*
X138994435Y-95040007D01*
X138927396Y-95020322D01*
X138892860Y-94987130D01*
X138757702Y-94794104D01*
X138590610Y-94627013D01*
X138590604Y-94627008D01*
X138405050Y-94497082D01*
X138361425Y-94442505D01*
X138354231Y-94373007D01*
X138385754Y-94310652D01*
X138405050Y-94293932D01*
X138427234Y-94278398D01*
X138590609Y-94164002D01*
X138757703Y-93996908D01*
X138893243Y-93803337D01*
X138993111Y-93589170D01*
X139054271Y-93360915D01*
X139074867Y-93125507D01*
X139054271Y-92890099D01*
X138993111Y-92661844D01*
X138893243Y-92447678D01*
X138892864Y-92447136D01*
X138757702Y-92254104D01*
X138590610Y-92087013D01*
X138590604Y-92087008D01*
X138405050Y-91957082D01*
X138361425Y-91902505D01*
X138354231Y-91833007D01*
X138385754Y-91770652D01*
X138405050Y-91753932D01*
X138427234Y-91738398D01*
X138590609Y-91624002D01*
X138757703Y-91456908D01*
X138893243Y-91263337D01*
X138993111Y-91049170D01*
X139054271Y-90820915D01*
X139074867Y-90585507D01*
X139054271Y-90350099D01*
X138993111Y-90121844D01*
X138893243Y-89907678D01*
X138757703Y-89714106D01*
X138757702Y-89714104D01*
X138590610Y-89547013D01*
X138590609Y-89547012D01*
X138404613Y-89416776D01*
X138360989Y-89362199D01*
X138353796Y-89292700D01*
X138385318Y-89230346D01*
X138404613Y-89213626D01*
X138590290Y-89083612D01*
X138757313Y-88916589D01*
X138892808Y-88723085D01*
X138992637Y-88508999D01*
X138992640Y-88508993D01*
X139049844Y-88295507D01*
X138152894Y-88295507D01*
X138178701Y-88255351D01*
X138219208Y-88117396D01*
X138219208Y-87973618D01*
X138178701Y-87835663D01*
X138152894Y-87795507D01*
X139049844Y-87795507D01*
X139049843Y-87795506D01*
X138992640Y-87582020D01*
X138992637Y-87582014D01*
X138892808Y-87367929D01*
X138892807Y-87367927D01*
X138757321Y-87174433D01*
X138757316Y-87174427D01*
X138590286Y-87007397D01*
X138404613Y-86877386D01*
X138360988Y-86822809D01*
X138353796Y-86753311D01*
X138385318Y-86690956D01*
X138404614Y-86674237D01*
X138405050Y-86673932D01*
X138590609Y-86544002D01*
X138757703Y-86376908D01*
X138892860Y-86183884D01*
X138947437Y-86140259D01*
X138994435Y-86131007D01*
X154791750Y-86131007D01*
X154807370Y-86132731D01*
X154807397Y-86132446D01*
X154815153Y-86133178D01*
X154815160Y-86133180D01*
X154884307Y-86131007D01*
X154913843Y-86131007D01*
X154920721Y-86130137D01*
X154926534Y-86129679D01*
X154973120Y-86128216D01*
X154992362Y-86122624D01*
X155011405Y-86118681D01*
X155031285Y-86116171D01*
X155074615Y-86099014D01*
X155080139Y-86097124D01*
X155083889Y-86096034D01*
X155124883Y-86084125D01*
X155142122Y-86073929D01*
X155159596Y-86065369D01*
X155178220Y-86057995D01*
X155178220Y-86057994D01*
X155178225Y-86057993D01*
X155215942Y-86030589D01*
X155220798Y-86027399D01*
X155260913Y-86003677D01*
X155275082Y-85989506D01*
X155289872Y-85976875D01*
X155306080Y-85965101D01*
X155335792Y-85929183D01*
X155339705Y-85924883D01*
X164747517Y-76517071D01*
X164808838Y-76483588D01*
X164867674Y-76487574D01*
X164868274Y-76485338D01*
X164974990Y-76513932D01*
X165093308Y-76545635D01*
X165255230Y-76559801D01*
X165319998Y-76565468D01*
X165320000Y-76565468D01*
X165320002Y-76565468D01*
X165376673Y-76560509D01*
X165546692Y-76545635D01*
X165766496Y-76486739D01*
X165972734Y-76390568D01*
X166159139Y-76260047D01*
X166320047Y-76099139D01*
X166450568Y-75912734D01*
X166546739Y-75706496D01*
X166605635Y-75486692D01*
X166620500Y-75316784D01*
X166620500Y-74803216D01*
X166612737Y-74714490D01*
X166626503Y-74645993D01*
X166648581Y-74616007D01*
X167587271Y-73677319D01*
X167648594Y-73643834D01*
X167674952Y-73641000D01*
X172016252Y-73641000D01*
X172083291Y-73660685D01*
X172108400Y-73682026D01*
X172114126Y-73688385D01*
X172114130Y-73688389D01*
X172267265Y-73799648D01*
X172267270Y-73799651D01*
X172440192Y-73876642D01*
X172440197Y-73876644D01*
X172625354Y-73916000D01*
X172625355Y-73916000D01*
X172814644Y-73916000D01*
X172814646Y-73916000D01*
X172999803Y-73876644D01*
X173172730Y-73799651D01*
X173325871Y-73688388D01*
X173452533Y-73547716D01*
X173547179Y-73383784D01*
X173566613Y-73323971D01*
X173606048Y-73266299D01*
X173670406Y-73239099D01*
X173739253Y-73251013D01*
X173772224Y-73274610D01*
X176722727Y-76225113D01*
X176756212Y-76286436D01*
X176751228Y-76356128D01*
X176722727Y-76400475D01*
X176146208Y-76976994D01*
X176133951Y-76986815D01*
X176134134Y-76987036D01*
X176128123Y-76992008D01*
X176080772Y-77042431D01*
X176059889Y-77063314D01*
X176059877Y-77063327D01*
X176055621Y-77068812D01*
X176051837Y-77073242D01*
X176019937Y-77107213D01*
X176019936Y-77107215D01*
X176010284Y-77124771D01*
X175999610Y-77141021D01*
X175987329Y-77156856D01*
X175987324Y-77156863D01*
X175968815Y-77199633D01*
X175966245Y-77204879D01*
X175943803Y-77245701D01*
X175938822Y-77265102D01*
X175932521Y-77283505D01*
X175924562Y-77301897D01*
X175924561Y-77301900D01*
X175917271Y-77347922D01*
X175916087Y-77353641D01*
X175904501Y-77398767D01*
X175904500Y-77398777D01*
X175904500Y-77418811D01*
X175902973Y-77438210D01*
X175899840Y-77457989D01*
X175899840Y-77457990D01*
X175904225Y-77504378D01*
X175904500Y-77510216D01*
X175904500Y-83675050D01*
X175902775Y-83690667D01*
X175903061Y-83690694D01*
X175902326Y-83698460D01*
X175904500Y-83767609D01*
X175904500Y-83797138D01*
X175904501Y-83797155D01*
X175905368Y-83804026D01*
X175905826Y-83809845D01*
X175907290Y-83856419D01*
X175907291Y-83856422D01*
X175912880Y-83875662D01*
X175916824Y-83894706D01*
X175919336Y-83914587D01*
X175925414Y-83929939D01*
X175936490Y-83957914D01*
X175938382Y-83963442D01*
X175950167Y-84004005D01*
X175951382Y-84008185D01*
X175951536Y-84008446D01*
X175961580Y-84025429D01*
X175970138Y-84042898D01*
X175977514Y-84061527D01*
X176004898Y-84099218D01*
X176008106Y-84104102D01*
X176031827Y-84144211D01*
X176031833Y-84144219D01*
X176045990Y-84158375D01*
X176058628Y-84173171D01*
X176070405Y-84189381D01*
X176070406Y-84189382D01*
X176106309Y-84219083D01*
X176110620Y-84223005D01*
X176403074Y-84515459D01*
X176693181Y-84805566D01*
X176726666Y-84866889D01*
X176729500Y-84893247D01*
X176729500Y-85522341D01*
X176709815Y-85589380D01*
X176693181Y-85610022D01*
X176146208Y-86156994D01*
X176133951Y-86166815D01*
X176134134Y-86167036D01*
X176128123Y-86172008D01*
X176080772Y-86222431D01*
X176059889Y-86243314D01*
X176059877Y-86243327D01*
X176055621Y-86248812D01*
X176051837Y-86253242D01*
X176019937Y-86287213D01*
X176019936Y-86287215D01*
X176010284Y-86304771D01*
X175999610Y-86321021D01*
X175987329Y-86336856D01*
X175987324Y-86336863D01*
X175968815Y-86379633D01*
X175966245Y-86384879D01*
X175943803Y-86425701D01*
X175938822Y-86445102D01*
X175932521Y-86463505D01*
X175924562Y-86481897D01*
X175924561Y-86481900D01*
X175917271Y-86527922D01*
X175916087Y-86533641D01*
X175904501Y-86578767D01*
X175904500Y-86578777D01*
X175904500Y-86598811D01*
X175902973Y-86618210D01*
X175899840Y-86637989D01*
X175899840Y-86637990D01*
X175904225Y-86684378D01*
X175904500Y-86690216D01*
X175904500Y-93835050D01*
X175902775Y-93850667D01*
X175903061Y-93850694D01*
X175902326Y-93858460D01*
X175904500Y-93927609D01*
X175904500Y-93957138D01*
X175904501Y-93957155D01*
X175905368Y-93964026D01*
X175905826Y-93969845D01*
X175907290Y-94016419D01*
X175907291Y-94016422D01*
X175912880Y-94035662D01*
X175916824Y-94054706D01*
X175919336Y-94074586D01*
X175936490Y-94117914D01*
X175938382Y-94123442D01*
X175951381Y-94168183D01*
X175961580Y-94185429D01*
X175970138Y-94202898D01*
X175977514Y-94221527D01*
X176004898Y-94259218D01*
X176008106Y-94264102D01*
X176031827Y-94304211D01*
X176031833Y-94304219D01*
X176045990Y-94318375D01*
X176058628Y-94333171D01*
X176070405Y-94349381D01*
X176070406Y-94349382D01*
X176106309Y-94379083D01*
X176110620Y-94383005D01*
X176403074Y-94675459D01*
X176693181Y-94965566D01*
X176726666Y-95026889D01*
X176729500Y-95053247D01*
X176729500Y-95865665D01*
X176729501Y-95865671D01*
X176735908Y-95925278D01*
X176786202Y-96060123D01*
X176786206Y-96060130D01*
X176872452Y-96175339D01*
X176872455Y-96175342D01*
X176987664Y-96261588D01*
X176987671Y-96261592D01*
X177122517Y-96311886D01*
X177122516Y-96311886D01*
X177129444Y-96312630D01*
X177182127Y-96318295D01*
X178777872Y-96318294D01*
X178837483Y-96311886D01*
X178972331Y-96261591D01*
X179087546Y-96175341D01*
X179173796Y-96060126D01*
X179224091Y-95925278D01*
X179230500Y-95865668D01*
X179230499Y-94869923D01*
X179224091Y-94810312D01*
X179173796Y-94675464D01*
X179173795Y-94675463D01*
X179173793Y-94675459D01*
X179087547Y-94560250D01*
X179087544Y-94560247D01*
X178972335Y-94474001D01*
X178972328Y-94473997D01*
X178837482Y-94423703D01*
X178837483Y-94423703D01*
X178777883Y-94417296D01*
X178777881Y-94417295D01*
X178777873Y-94417295D01*
X178777865Y-94417295D01*
X177965452Y-94417295D01*
X177898413Y-94397610D01*
X177877771Y-94380976D01*
X177191819Y-93695023D01*
X177158334Y-93633700D01*
X177155500Y-93607342D01*
X177155500Y-89582294D01*
X177175185Y-89515255D01*
X177227989Y-89469500D01*
X177279495Y-89458294D01*
X177994547Y-89458294D01*
X178061586Y-89477979D01*
X178082228Y-89494613D01*
X182218181Y-93630566D01*
X182251666Y-93691889D01*
X182254500Y-93718247D01*
X182254500Y-94293295D01*
X182234815Y-94360334D01*
X182182011Y-94406089D01*
X182130502Y-94417295D01*
X182082131Y-94417295D01*
X182082123Y-94417296D01*
X182022516Y-94423703D01*
X181887671Y-94473997D01*
X181887664Y-94474001D01*
X181772455Y-94560247D01*
X181772452Y-94560250D01*
X181686206Y-94675459D01*
X181686202Y-94675466D01*
X181635908Y-94810312D01*
X181629501Y-94869911D01*
X181629501Y-94869918D01*
X181629500Y-94869930D01*
X181629500Y-95865665D01*
X181629501Y-95865671D01*
X181635908Y-95925278D01*
X181686202Y-96060123D01*
X181686206Y-96060130D01*
X181772452Y-96175339D01*
X181772455Y-96175342D01*
X181887664Y-96261588D01*
X181887671Y-96261592D01*
X182022517Y-96311886D01*
X182022516Y-96311886D01*
X182029444Y-96312630D01*
X182082127Y-96318295D01*
X183677872Y-96318294D01*
X183737483Y-96311886D01*
X183872331Y-96261591D01*
X183987546Y-96175341D01*
X184073796Y-96060126D01*
X184124091Y-95925278D01*
X184130500Y-95865668D01*
X184130499Y-94869923D01*
X184124091Y-94810312D01*
X184073796Y-94675464D01*
X184073795Y-94675463D01*
X184073793Y-94675459D01*
X183987547Y-94560250D01*
X183987544Y-94560247D01*
X183872335Y-94474001D01*
X183872328Y-94473997D01*
X183737482Y-94423703D01*
X183737483Y-94423703D01*
X183677883Y-94417296D01*
X183677881Y-94417295D01*
X183677873Y-94417295D01*
X183677865Y-94417295D01*
X183629500Y-94417295D01*
X183562461Y-94397610D01*
X183516706Y-94344806D01*
X183505500Y-94293295D01*
X183505500Y-93490532D01*
X183507224Y-93474918D01*
X183506938Y-93474891D01*
X183507672Y-93467128D01*
X183505500Y-93397997D01*
X183505500Y-93368446D01*
X183505500Y-93368445D01*
X183504629Y-93361554D01*
X183504172Y-93355740D01*
X183502709Y-93309169D01*
X183502709Y-93309167D01*
X183497120Y-93289932D01*
X183493174Y-93270879D01*
X183492001Y-93261592D01*
X183490664Y-93251003D01*
X183473501Y-93207654D01*
X183471614Y-93202141D01*
X183458617Y-93157405D01*
X183458616Y-93157403D01*
X183448421Y-93140164D01*
X183439860Y-93122688D01*
X183432486Y-93104064D01*
X183432486Y-93104062D01*
X183422474Y-93090283D01*
X183405083Y-93066345D01*
X183401900Y-93061500D01*
X183378170Y-93021374D01*
X183378165Y-93021368D01*
X183364005Y-93007208D01*
X183351370Y-92992415D01*
X183339593Y-92976207D01*
X183303693Y-92946508D01*
X183299381Y-92942585D01*
X179266818Y-88910022D01*
X179233333Y-88848699D01*
X179230499Y-88822341D01*
X179230499Y-88757795D01*
X181630000Y-88757795D01*
X181630000Y-89005639D01*
X181636401Y-89065167D01*
X181636403Y-89065174D01*
X181686645Y-89199881D01*
X181686649Y-89199888D01*
X181772809Y-89314982D01*
X181772812Y-89314985D01*
X181887906Y-89401145D01*
X181887913Y-89401149D01*
X182022620Y-89451391D01*
X182022627Y-89451393D01*
X182082155Y-89457794D01*
X182082172Y-89457795D01*
X182630000Y-89457795D01*
X182630000Y-88757795D01*
X183130000Y-88757795D01*
X183130000Y-89457795D01*
X183677828Y-89457795D01*
X183677844Y-89457794D01*
X183737372Y-89451393D01*
X183737379Y-89451391D01*
X183872086Y-89401149D01*
X183872093Y-89401145D01*
X183987187Y-89314985D01*
X183987190Y-89314982D01*
X184073350Y-89199888D01*
X184073354Y-89199881D01*
X184123596Y-89065174D01*
X184123598Y-89065167D01*
X184129999Y-89005639D01*
X184130000Y-89005622D01*
X184130000Y-88757795D01*
X183130000Y-88757795D01*
X182630000Y-88757795D01*
X181630000Y-88757795D01*
X179230499Y-88757795D01*
X179230499Y-88257795D01*
X181630000Y-88257795D01*
X182630000Y-88257795D01*
X182630000Y-87557795D01*
X183130000Y-87557795D01*
X183130000Y-88257795D01*
X184130000Y-88257795D01*
X184130000Y-88009967D01*
X184129999Y-88009950D01*
X184123598Y-87950422D01*
X184123596Y-87950415D01*
X184073354Y-87815708D01*
X184073350Y-87815701D01*
X183987190Y-87700607D01*
X183987187Y-87700604D01*
X183872093Y-87614444D01*
X183872086Y-87614440D01*
X183737379Y-87564198D01*
X183737372Y-87564196D01*
X183677844Y-87557795D01*
X183130000Y-87557795D01*
X182630000Y-87557795D01*
X182082155Y-87557795D01*
X182022627Y-87564196D01*
X182022620Y-87564198D01*
X181887913Y-87614440D01*
X181887906Y-87614444D01*
X181772812Y-87700604D01*
X181772809Y-87700607D01*
X181686649Y-87815701D01*
X181686645Y-87815708D01*
X181636403Y-87950415D01*
X181636401Y-87950422D01*
X181630000Y-88009950D01*
X181630000Y-88257795D01*
X179230499Y-88257795D01*
X179230499Y-88009924D01*
X179230498Y-88009918D01*
X179224091Y-87950311D01*
X179173797Y-87815466D01*
X179173793Y-87815459D01*
X179087547Y-87700250D01*
X179087544Y-87700247D01*
X178972335Y-87614001D01*
X178972328Y-87613997D01*
X178837482Y-87563703D01*
X178837483Y-87563703D01*
X178777883Y-87557296D01*
X178777881Y-87557295D01*
X178777873Y-87557295D01*
X178777865Y-87557295D01*
X177279500Y-87557295D01*
X177212461Y-87537610D01*
X177166706Y-87484806D01*
X177155500Y-87433295D01*
X177155500Y-86968246D01*
X177175185Y-86901207D01*
X177191815Y-86880569D01*
X177877771Y-86194612D01*
X177939094Y-86161128D01*
X177965452Y-86158294D01*
X178777871Y-86158294D01*
X178777872Y-86158294D01*
X178837483Y-86151886D01*
X178972331Y-86101591D01*
X179087546Y-86015341D01*
X179173796Y-85900126D01*
X179224091Y-85765278D01*
X179230500Y-85705668D01*
X179230499Y-84709923D01*
X179224091Y-84650312D01*
X179173796Y-84515464D01*
X179173795Y-84515463D01*
X179173793Y-84515459D01*
X179087547Y-84400250D01*
X179087544Y-84400247D01*
X178972335Y-84314001D01*
X178972328Y-84313997D01*
X178837482Y-84263703D01*
X178837483Y-84263703D01*
X178777883Y-84257296D01*
X178777881Y-84257295D01*
X178777873Y-84257295D01*
X178777865Y-84257295D01*
X177965452Y-84257295D01*
X177898413Y-84237610D01*
X177877771Y-84220976D01*
X177191819Y-83535023D01*
X177158334Y-83473700D01*
X177155500Y-83447342D01*
X177155500Y-80312294D01*
X177175185Y-80245255D01*
X177227989Y-80199500D01*
X177279495Y-80188294D01*
X178084547Y-80188294D01*
X178151586Y-80207979D01*
X178172228Y-80224613D01*
X182023593Y-84075979D01*
X182057078Y-84137302D01*
X182052094Y-84206994D01*
X182010222Y-84262927D01*
X181979246Y-84279842D01*
X181887670Y-84313998D01*
X181887664Y-84314001D01*
X181772455Y-84400247D01*
X181772452Y-84400250D01*
X181686206Y-84515459D01*
X181686202Y-84515466D01*
X181635908Y-84650312D01*
X181629501Y-84709911D01*
X181629501Y-84709918D01*
X181629500Y-84709930D01*
X181629500Y-85705665D01*
X181629501Y-85705671D01*
X181635908Y-85765278D01*
X181686202Y-85900123D01*
X181686206Y-85900130D01*
X181772452Y-86015339D01*
X181772455Y-86015342D01*
X181887664Y-86101588D01*
X181887671Y-86101592D01*
X182022517Y-86151886D01*
X182022516Y-86151886D01*
X182029444Y-86152630D01*
X182082127Y-86158295D01*
X183677872Y-86158294D01*
X183737483Y-86151886D01*
X183872331Y-86101591D01*
X183987546Y-86015341D01*
X184073796Y-85900126D01*
X184124091Y-85765278D01*
X184130500Y-85705668D01*
X184130499Y-84709923D01*
X184124091Y-84650312D01*
X184073796Y-84515464D01*
X184073795Y-84515463D01*
X184073793Y-84515459D01*
X183987547Y-84400250D01*
X183987544Y-84400247D01*
X183872335Y-84314001D01*
X183872328Y-84313997D01*
X183737482Y-84263703D01*
X183737483Y-84263703D01*
X183677883Y-84257296D01*
X183677881Y-84257295D01*
X183677873Y-84257295D01*
X183677865Y-84257295D01*
X183629500Y-84257295D01*
X183562461Y-84237610D01*
X183516706Y-84184806D01*
X183505500Y-84133295D01*
X183505500Y-84130532D01*
X183507224Y-84114918D01*
X183506938Y-84114891D01*
X183507672Y-84107128D01*
X183507423Y-84099218D01*
X183505500Y-84037998D01*
X183505500Y-84008445D01*
X183504629Y-84001554D01*
X183504172Y-83995740D01*
X183502709Y-83949167D01*
X183497122Y-83929939D01*
X183493174Y-83910879D01*
X183490664Y-83891003D01*
X183473507Y-83847670D01*
X183471619Y-83842154D01*
X183458619Y-83797407D01*
X183448418Y-83780158D01*
X183439860Y-83762689D01*
X183432486Y-83744063D01*
X183432483Y-83744059D01*
X183432483Y-83744058D01*
X183405098Y-83706366D01*
X183401890Y-83701482D01*
X183378172Y-83661377D01*
X183378163Y-83661366D01*
X183364005Y-83647208D01*
X183351370Y-83632415D01*
X183339593Y-83616207D01*
X183303693Y-83586508D01*
X183299381Y-83582585D01*
X179356818Y-79640022D01*
X179323333Y-79578699D01*
X179320499Y-79552341D01*
X179320499Y-79487795D01*
X181720000Y-79487795D01*
X181720000Y-79735639D01*
X181726401Y-79795167D01*
X181726403Y-79795174D01*
X181776645Y-79929881D01*
X181776649Y-79929888D01*
X181862809Y-80044982D01*
X181862812Y-80044985D01*
X181977906Y-80131145D01*
X181977913Y-80131149D01*
X182112620Y-80181391D01*
X182112627Y-80181393D01*
X182172155Y-80187794D01*
X182172172Y-80187795D01*
X182720000Y-80187795D01*
X182720000Y-79487795D01*
X183220000Y-79487795D01*
X183220000Y-80187795D01*
X183767828Y-80187795D01*
X183767844Y-80187794D01*
X183827372Y-80181393D01*
X183827379Y-80181391D01*
X183962086Y-80131149D01*
X183962093Y-80131145D01*
X184077187Y-80044985D01*
X184077190Y-80044982D01*
X184163350Y-79929888D01*
X184163354Y-79929881D01*
X184213596Y-79795174D01*
X184213598Y-79795167D01*
X184219999Y-79735639D01*
X184220000Y-79735622D01*
X184220000Y-79487795D01*
X183220000Y-79487795D01*
X182720000Y-79487795D01*
X181720000Y-79487795D01*
X179320499Y-79487795D01*
X179320499Y-78987795D01*
X181720000Y-78987795D01*
X182720000Y-78987795D01*
X182720000Y-78287795D01*
X183220000Y-78287795D01*
X183220000Y-78987795D01*
X184220000Y-78987795D01*
X184220000Y-78739967D01*
X184219999Y-78739950D01*
X184213598Y-78680422D01*
X184213596Y-78680415D01*
X184163354Y-78545708D01*
X184163350Y-78545701D01*
X184077190Y-78430607D01*
X184077187Y-78430604D01*
X183962093Y-78344444D01*
X183962086Y-78344440D01*
X183827379Y-78294198D01*
X183827372Y-78294196D01*
X183767844Y-78287795D01*
X183220000Y-78287795D01*
X182720000Y-78287795D01*
X182172155Y-78287795D01*
X182112627Y-78294196D01*
X182112620Y-78294198D01*
X181977913Y-78344440D01*
X181977906Y-78344444D01*
X181862812Y-78430604D01*
X181862809Y-78430607D01*
X181776649Y-78545701D01*
X181776645Y-78545708D01*
X181726403Y-78680415D01*
X181726401Y-78680422D01*
X181720000Y-78739950D01*
X181720000Y-78987795D01*
X179320499Y-78987795D01*
X179320499Y-78739924D01*
X179320498Y-78739918D01*
X179314091Y-78680311D01*
X179263797Y-78545466D01*
X179263793Y-78545459D01*
X179177547Y-78430250D01*
X179177544Y-78430247D01*
X179062335Y-78344001D01*
X179062328Y-78343997D01*
X178927482Y-78293703D01*
X178927483Y-78293703D01*
X178867883Y-78287296D01*
X178867881Y-78287295D01*
X178867873Y-78287295D01*
X178867865Y-78287295D01*
X177279500Y-78287295D01*
X177212461Y-78267610D01*
X177166706Y-78214806D01*
X177155500Y-78163295D01*
X177155500Y-77788247D01*
X177175185Y-77721208D01*
X177191819Y-77700566D01*
X177967772Y-76924613D01*
X178029095Y-76891128D01*
X178055453Y-76888294D01*
X178867871Y-76888294D01*
X178867872Y-76888294D01*
X178927483Y-76881886D01*
X179062331Y-76831591D01*
X179177546Y-76745341D01*
X179263796Y-76630126D01*
X179314091Y-76495278D01*
X179320500Y-76435668D01*
X179320500Y-76435665D01*
X181719500Y-76435665D01*
X181719501Y-76435671D01*
X181725908Y-76495278D01*
X181776202Y-76630123D01*
X181776206Y-76630130D01*
X181862452Y-76745339D01*
X181862455Y-76745342D01*
X181977664Y-76831588D01*
X181977671Y-76831592D01*
X182112517Y-76881886D01*
X182112516Y-76881886D01*
X182119444Y-76882630D01*
X182172127Y-76888295D01*
X183767872Y-76888294D01*
X183827483Y-76881886D01*
X183868665Y-76866526D01*
X183957701Y-76833318D01*
X184001034Y-76825500D01*
X184716252Y-76825500D01*
X184783291Y-76845185D01*
X184808400Y-76866526D01*
X184814126Y-76872885D01*
X184814130Y-76872889D01*
X184967265Y-76984148D01*
X184967270Y-76984151D01*
X185140192Y-77061142D01*
X185140197Y-77061144D01*
X185325354Y-77100500D01*
X185325355Y-77100500D01*
X185514644Y-77100500D01*
X185514646Y-77100500D01*
X185699803Y-77061144D01*
X185872730Y-76984151D01*
X186025871Y-76872888D01*
X186152533Y-76732216D01*
X186247179Y-76568284D01*
X186305674Y-76388256D01*
X186325460Y-76200000D01*
X186305674Y-76011744D01*
X186247179Y-75831716D01*
X186152533Y-75667784D01*
X186025871Y-75527112D01*
X186025870Y-75527111D01*
X185872734Y-75415851D01*
X185872729Y-75415848D01*
X185699807Y-75338857D01*
X185699802Y-75338855D01*
X185554001Y-75307865D01*
X185514646Y-75299500D01*
X185325354Y-75299500D01*
X185292897Y-75306398D01*
X185140197Y-75338855D01*
X185140192Y-75338857D01*
X184967270Y-75415848D01*
X184967265Y-75415851D01*
X184814130Y-75527110D01*
X184814126Y-75527114D01*
X184808400Y-75533474D01*
X184748913Y-75570121D01*
X184716252Y-75574500D01*
X184344499Y-75574500D01*
X184277460Y-75554815D01*
X184231705Y-75502011D01*
X184220499Y-75450500D01*
X184220499Y-75439924D01*
X184220498Y-75439918D01*
X184220497Y-75439911D01*
X184214091Y-75380312D01*
X184201109Y-75345506D01*
X184163797Y-75245466D01*
X184163793Y-75245459D01*
X184077547Y-75130250D01*
X184077544Y-75130247D01*
X183962335Y-75044001D01*
X183962328Y-75043997D01*
X183827482Y-74993703D01*
X183827483Y-74993703D01*
X183767883Y-74987296D01*
X183767881Y-74987295D01*
X183767873Y-74987295D01*
X183767864Y-74987295D01*
X182172129Y-74987295D01*
X182172123Y-74987296D01*
X182112516Y-74993703D01*
X181977671Y-75043997D01*
X181977664Y-75044001D01*
X181862455Y-75130247D01*
X181862452Y-75130250D01*
X181776206Y-75245459D01*
X181776202Y-75245466D01*
X181725908Y-75380312D01*
X181719501Y-75439911D01*
X181719501Y-75439918D01*
X181719500Y-75439930D01*
X181719500Y-76435665D01*
X179320500Y-76435665D01*
X179320499Y-75439923D01*
X179314091Y-75380312D01*
X179301109Y-75345506D01*
X179263797Y-75245466D01*
X179263793Y-75245459D01*
X179177547Y-75130250D01*
X179177544Y-75130247D01*
X179062335Y-75044001D01*
X179062328Y-75043997D01*
X178927482Y-74993703D01*
X178927483Y-74993703D01*
X178867883Y-74987296D01*
X178867881Y-74987295D01*
X178867873Y-74987295D01*
X178867865Y-74987295D01*
X177305453Y-74987295D01*
X177238414Y-74967610D01*
X177217772Y-74950976D01*
X169307132Y-67040336D01*
X169273647Y-66979013D01*
X169278631Y-66909321D01*
X169307132Y-66864974D01*
X169340279Y-66831827D01*
X169340279Y-65917328D01*
X169447964Y-65966507D01*
X169554516Y-65981827D01*
X169626042Y-65981827D01*
X169732594Y-65966507D01*
X169840279Y-65917328D01*
X169840279Y-66831827D01*
X170488107Y-66831827D01*
X170488123Y-66831826D01*
X170547651Y-66825425D01*
X170547658Y-66825423D01*
X170682365Y-66775181D01*
X170682372Y-66775177D01*
X170797466Y-66689017D01*
X170797469Y-66689014D01*
X170883629Y-66573920D01*
X170883633Y-66573913D01*
X170932701Y-66442356D01*
X170974572Y-66386422D01*
X171040036Y-66362005D01*
X171108309Y-66376857D01*
X171136564Y-66398008D01*
X171258878Y-66520322D01*
X171335414Y-66573913D01*
X171452444Y-66655859D01*
X171452446Y-66655860D01*
X171452449Y-66655862D01*
X171666616Y-66755730D01*
X171894871Y-66816890D01*
X172065598Y-66831827D01*
X172130278Y-66837486D01*
X172130279Y-66837486D01*
X172130280Y-66837486D01*
X172194960Y-66831827D01*
X172365687Y-66816890D01*
X172593942Y-66755730D01*
X172808109Y-66655862D01*
X173001680Y-66520322D01*
X173168774Y-66353228D01*
X173298704Y-66167669D01*
X173353281Y-66124044D01*
X173422779Y-66116850D01*
X173485134Y-66148373D01*
X173501854Y-66167669D01*
X173631779Y-66353222D01*
X173631784Y-66353228D01*
X173798878Y-66520322D01*
X173875414Y-66573913D01*
X173992444Y-66655859D01*
X173992446Y-66655860D01*
X173992449Y-66655862D01*
X174206616Y-66755730D01*
X174434871Y-66816890D01*
X174605598Y-66831827D01*
X174670278Y-66837486D01*
X174670279Y-66837486D01*
X174670280Y-66837486D01*
X174734960Y-66831827D01*
X174905687Y-66816890D01*
X175133942Y-66755730D01*
X175348109Y-66655862D01*
X175541680Y-66520322D01*
X175708774Y-66353228D01*
X175838704Y-66167669D01*
X175893281Y-66124044D01*
X175962779Y-66116850D01*
X176025134Y-66148373D01*
X176041854Y-66167669D01*
X176171779Y-66353222D01*
X176171784Y-66353228D01*
X176338878Y-66520322D01*
X176415414Y-66573913D01*
X176532444Y-66655859D01*
X176532446Y-66655860D01*
X176532449Y-66655862D01*
X176746616Y-66755730D01*
X176974871Y-66816890D01*
X177145598Y-66831827D01*
X177210278Y-66837486D01*
X177210279Y-66837486D01*
X177210280Y-66837486D01*
X177274960Y-66831827D01*
X177445687Y-66816890D01*
X177673942Y-66755730D01*
X177888109Y-66655862D01*
X178081680Y-66520322D01*
X178248774Y-66353228D01*
X178384314Y-66159657D01*
X178484182Y-65945490D01*
X178545342Y-65717235D01*
X178565938Y-65481827D01*
X178545342Y-65246419D01*
X178484182Y-65018164D01*
X178384314Y-64803998D01*
X178378704Y-64795985D01*
X178248773Y-64610424D01*
X178081681Y-64443333D01*
X178081674Y-64443328D01*
X177888113Y-64307794D01*
X177888109Y-64307792D01*
X177817006Y-64274636D01*
X177673942Y-64207924D01*
X177673938Y-64207923D01*
X177673934Y-64207921D01*
X177445692Y-64146765D01*
X177445682Y-64146763D01*
X177210280Y-64126168D01*
X177210278Y-64126168D01*
X176974875Y-64146763D01*
X176974865Y-64146765D01*
X176746623Y-64207921D01*
X176746614Y-64207925D01*
X176532450Y-64307791D01*
X176532448Y-64307792D01*
X176338876Y-64443332D01*
X176171784Y-64610424D01*
X176041854Y-64795985D01*
X175987277Y-64839610D01*
X175917779Y-64846804D01*
X175855424Y-64815281D01*
X175838704Y-64795985D01*
X175708773Y-64610424D01*
X175541681Y-64443333D01*
X175541674Y-64443328D01*
X175348113Y-64307794D01*
X175348109Y-64307792D01*
X175277006Y-64274636D01*
X175133942Y-64207924D01*
X175133938Y-64207923D01*
X175133934Y-64207921D01*
X174905692Y-64146765D01*
X174905682Y-64146763D01*
X174670280Y-64126168D01*
X174670278Y-64126168D01*
X174434875Y-64146763D01*
X174434865Y-64146765D01*
X174206623Y-64207921D01*
X174206614Y-64207925D01*
X173992450Y-64307791D01*
X173992448Y-64307792D01*
X173798876Y-64443332D01*
X173631784Y-64610424D01*
X173501854Y-64795985D01*
X173447277Y-64839610D01*
X173377779Y-64846804D01*
X173315424Y-64815281D01*
X173298704Y-64795985D01*
X173168773Y-64610424D01*
X173001681Y-64443333D01*
X173001674Y-64443328D01*
X172808113Y-64307794D01*
X172808109Y-64307792D01*
X172737006Y-64274636D01*
X172593942Y-64207924D01*
X172593938Y-64207923D01*
X172593934Y-64207921D01*
X172365692Y-64146765D01*
X172365682Y-64146763D01*
X172130280Y-64126168D01*
X172130278Y-64126168D01*
X171894875Y-64146763D01*
X171894865Y-64146765D01*
X171666623Y-64207921D01*
X171666614Y-64207925D01*
X171452450Y-64307791D01*
X171452448Y-64307792D01*
X171258879Y-64443330D01*
X171136563Y-64565646D01*
X171075240Y-64599130D01*
X171005548Y-64594146D01*
X170949615Y-64552274D01*
X170932700Y-64521297D01*
X170883633Y-64389740D01*
X170883629Y-64389733D01*
X170797469Y-64274639D01*
X170797466Y-64274636D01*
X170682372Y-64188476D01*
X170682365Y-64188472D01*
X170547658Y-64138230D01*
X170547651Y-64138228D01*
X170488123Y-64131827D01*
X169840279Y-64131827D01*
X169840279Y-65046325D01*
X169732594Y-64997147D01*
X169626042Y-64981827D01*
X169554516Y-64981827D01*
X169447964Y-64997147D01*
X169340279Y-65046325D01*
X169340279Y-64131827D01*
X168692434Y-64131827D01*
X168632906Y-64138228D01*
X168632899Y-64138230D01*
X168498192Y-64188472D01*
X168498185Y-64188476D01*
X168383091Y-64274636D01*
X168383088Y-64274639D01*
X168296928Y-64389733D01*
X168296924Y-64389740D01*
X168246682Y-64524447D01*
X168246680Y-64524454D01*
X168240279Y-64583982D01*
X168240279Y-65231827D01*
X169156593Y-65231827D01*
X169130786Y-65271983D01*
X169090279Y-65409938D01*
X169090279Y-65553716D01*
X169130786Y-65691671D01*
X169156593Y-65731827D01*
X168240279Y-65731827D01*
X168207132Y-65764974D01*
X168145809Y-65798459D01*
X168076117Y-65793475D01*
X168031770Y-65764974D01*
X164931770Y-62664974D01*
X164921947Y-62652712D01*
X164921726Y-62652896D01*
X164916753Y-62646885D01*
X164898126Y-62629393D01*
X164866331Y-62599535D01*
X164855886Y-62589090D01*
X164845442Y-62578645D01*
X164839953Y-62574387D01*
X164835528Y-62570609D01*
X164801549Y-62538700D01*
X164801547Y-62538698D01*
X164801544Y-62538697D01*
X164783996Y-62529050D01*
X164767730Y-62518366D01*
X164751900Y-62506087D01*
X164709135Y-62487580D01*
X164703889Y-62485010D01*
X164663060Y-62462565D01*
X164663059Y-62462564D01*
X164643660Y-62457584D01*
X164625248Y-62451280D01*
X164606865Y-62443324D01*
X164606859Y-62443322D01*
X164560841Y-62436034D01*
X164555119Y-62434849D01*
X164509988Y-62423262D01*
X164509986Y-62423262D01*
X164489951Y-62423262D01*
X164470553Y-62421735D01*
X164463129Y-62420559D01*
X164450772Y-62418602D01*
X164450771Y-62418602D01*
X164404383Y-62422987D01*
X164398545Y-62423262D01*
X153894139Y-62423262D01*
X153878522Y-62421538D01*
X153878495Y-62421824D01*
X153870733Y-62421089D01*
X153801605Y-62423262D01*
X153772052Y-62423262D01*
X153771331Y-62423352D01*
X153765159Y-62424131D01*
X153759347Y-62424588D01*
X153712774Y-62426052D01*
X153712771Y-62426053D01*
X153693528Y-62431643D01*
X153674485Y-62435587D01*
X153654606Y-62438098D01*
X153654605Y-62438099D01*
X153611280Y-62455252D01*
X153605754Y-62457144D01*
X153561010Y-62470145D01*
X153561006Y-62470147D01*
X153543767Y-62480342D01*
X153526300Y-62488899D01*
X153507671Y-62496274D01*
X153507669Y-62496275D01*
X153469966Y-62523668D01*
X153465084Y-62526874D01*
X153424982Y-62550590D01*
X153410810Y-62564762D01*
X153396025Y-62577390D01*
X153379814Y-62589169D01*
X153350111Y-62625072D01*
X153346179Y-62629393D01*
X153138628Y-62836943D01*
X153077305Y-62870428D01*
X153050948Y-62873262D01*
X152938532Y-62873262D01*
X152938527Y-62873263D01*
X152878909Y-62879672D01*
X152878283Y-62879820D01*
X152877002Y-62879877D01*
X152871208Y-62880500D01*
X152871169Y-62880137D01*
X152832137Y-62881878D01*
X152736404Y-62868115D01*
X152736402Y-62868115D01*
X152114513Y-62868115D01*
X152114512Y-62868115D01*
X151972060Y-62888596D01*
X151972058Y-62888596D01*
X151834102Y-62929104D01*
X151703186Y-62988891D01*
X151703184Y-62988891D01*
X151582233Y-63066622D01*
X151473462Y-63160870D01*
X151473460Y-63160872D01*
X151379313Y-63269524D01*
X151379305Y-63269536D01*
X151349250Y-63316302D01*
X151296448Y-63362056D01*
X151244936Y-63373262D01*
X121064661Y-63373262D01*
X121046690Y-63371953D01*
X121022932Y-63368473D01*
X121022926Y-63368472D01*
X120977856Y-63372416D01*
X120970884Y-63373026D01*
X120965483Y-63373262D01*
X120957242Y-63373262D01*
X120935532Y-63375799D01*
X120924677Y-63377068D01*
X120909372Y-63378407D01*
X120848152Y-63383763D01*
X120841085Y-63385222D01*
X120841073Y-63385166D01*
X120833716Y-63386797D01*
X120833730Y-63386854D01*
X120826696Y-63388521D01*
X120754528Y-63414787D01*
X120681628Y-63438943D01*
X120675079Y-63441998D01*
X120675054Y-63441945D01*
X120668261Y-63445233D01*
X120668287Y-63445285D01*
X120661833Y-63448526D01*
X120597661Y-63490733D01*
X120532300Y-63531047D01*
X120526636Y-63535527D01*
X120526600Y-63535481D01*
X120520751Y-63540246D01*
X120520788Y-63540290D01*
X120515263Y-63544926D01*
X120462550Y-63600797D01*
X112644657Y-71418688D01*
X112583334Y-71452173D01*
X112556976Y-71455007D01*
X111421337Y-71455007D01*
X111421331Y-71455008D01*
X111361724Y-71461415D01*
X111226879Y-71511709D01*
X111226872Y-71511713D01*
X111111663Y-71597959D01*
X111111660Y-71597962D01*
X111025414Y-71713171D01*
X111025410Y-71713178D01*
X110975116Y-71848024D01*
X110968709Y-71907623D01*
X110968708Y-71907642D01*
X110968708Y-73703377D01*
X110968709Y-73703383D01*
X110975116Y-73762990D01*
X111025410Y-73897835D01*
X111025414Y-73897842D01*
X111111660Y-74013051D01*
X111111663Y-74013054D01*
X111226872Y-74099300D01*
X111226879Y-74099304D01*
X111358289Y-74148317D01*
X111414223Y-74190188D01*
X111438640Y-74255652D01*
X111423788Y-74323925D01*
X111402638Y-74352180D01*
X111280711Y-74474107D01*
X111145173Y-74667676D01*
X111145172Y-74667678D01*
X111045306Y-74881842D01*
X111045302Y-74881851D01*
X110984146Y-75110093D01*
X110984144Y-75110103D01*
X110963549Y-75345506D01*
X110963549Y-75345507D01*
X110984144Y-75580910D01*
X110984146Y-75580920D01*
X111045302Y-75809162D01*
X111045304Y-75809166D01*
X111045305Y-75809170D01*
X111093597Y-75912732D01*
X111145173Y-76023337D01*
X111145175Y-76023341D01*
X111280709Y-76216902D01*
X111280714Y-76216909D01*
X111447805Y-76384000D01*
X111447811Y-76384005D01*
X111633366Y-76513932D01*
X111676991Y-76568509D01*
X111684185Y-76638007D01*
X111652662Y-76700362D01*
X111633366Y-76717082D01*
X111447805Y-76847012D01*
X111280713Y-77014104D01*
X111145173Y-77207676D01*
X111145172Y-77207678D01*
X111045306Y-77421842D01*
X111045302Y-77421851D01*
X110984146Y-77650093D01*
X110984144Y-77650103D01*
X110963549Y-77885506D01*
X110963549Y-77885507D01*
X110984144Y-78120910D01*
X110984146Y-78120920D01*
X111045302Y-78349162D01*
X111045304Y-78349166D01*
X111045305Y-78349170D01*
X111091838Y-78448960D01*
X111145173Y-78563337D01*
X111145175Y-78563341D01*
X111227079Y-78680311D01*
X111280709Y-78756903D01*
X111280714Y-78756909D01*
X111447805Y-78924000D01*
X111447811Y-78924005D01*
X111633366Y-79053932D01*
X111676991Y-79108509D01*
X111684185Y-79178007D01*
X111652662Y-79240362D01*
X111633366Y-79257082D01*
X111447805Y-79387012D01*
X111280713Y-79554104D01*
X111145173Y-79747676D01*
X111145172Y-79747678D01*
X111045306Y-79961842D01*
X111045302Y-79961851D01*
X110984146Y-80190093D01*
X110984144Y-80190103D01*
X110963549Y-80425506D01*
X110963549Y-80425507D01*
X110984144Y-80660910D01*
X110984146Y-80660920D01*
X111045302Y-80889162D01*
X111045304Y-80889166D01*
X111045305Y-80889170D01*
X111139765Y-81091740D01*
X111145173Y-81103337D01*
X111145175Y-81103341D01*
X111280709Y-81296902D01*
X111280714Y-81296909D01*
X111447805Y-81464000D01*
X111447811Y-81464005D01*
X111633366Y-81593932D01*
X111676991Y-81648509D01*
X111684185Y-81718007D01*
X111652662Y-81780362D01*
X111633366Y-81797082D01*
X111447805Y-81927012D01*
X111280713Y-82094104D01*
X111145173Y-82287676D01*
X111145172Y-82287678D01*
X111045306Y-82501842D01*
X111045302Y-82501851D01*
X110984146Y-82730093D01*
X110984144Y-82730103D01*
X110963549Y-82965506D01*
X110963549Y-82965507D01*
X110984144Y-83200910D01*
X110984146Y-83200920D01*
X111045302Y-83429162D01*
X111045304Y-83429166D01*
X111045305Y-83429170D01*
X111094665Y-83535023D01*
X111145173Y-83643337D01*
X111145175Y-83643341D01*
X111280709Y-83836902D01*
X111280714Y-83836909D01*
X111447805Y-84004000D01*
X111447811Y-84004005D01*
X111633366Y-84133932D01*
X111676991Y-84188509D01*
X111684185Y-84258007D01*
X111652662Y-84320362D01*
X111633366Y-84337082D01*
X111447805Y-84467012D01*
X111280713Y-84634104D01*
X111145173Y-84827676D01*
X111145172Y-84827678D01*
X111045306Y-85041842D01*
X111045302Y-85041851D01*
X110984146Y-85270093D01*
X110984144Y-85270103D01*
X110963549Y-85505506D01*
X110963549Y-85505507D01*
X110984144Y-85740910D01*
X110984146Y-85740920D01*
X111045302Y-85969162D01*
X111045304Y-85969166D01*
X111045305Y-85969170D01*
X111091838Y-86068960D01*
X111145173Y-86183337D01*
X111145175Y-86183341D01*
X111187169Y-86243314D01*
X111280709Y-86376903D01*
X111280714Y-86376909D01*
X111447805Y-86544000D01*
X111447811Y-86544005D01*
X111633366Y-86673932D01*
X111676991Y-86728509D01*
X111684185Y-86798007D01*
X111652662Y-86860362D01*
X111633366Y-86877082D01*
X111447805Y-87007012D01*
X111280713Y-87174104D01*
X111145173Y-87367676D01*
X111145172Y-87367678D01*
X111045306Y-87581842D01*
X111045302Y-87581851D01*
X110984146Y-87810093D01*
X110984144Y-87810103D01*
X110963549Y-88045506D01*
X110963549Y-88045507D01*
X110984145Y-88280915D01*
X111011063Y-88381380D01*
X111009400Y-88451230D01*
X110978969Y-88501153D01*
X107566208Y-91913914D01*
X107553951Y-91923735D01*
X107554134Y-91923956D01*
X107548123Y-91928928D01*
X107500772Y-91979351D01*
X107479889Y-92000234D01*
X107479877Y-92000247D01*
X107475621Y-92005732D01*
X107471837Y-92010162D01*
X107439937Y-92044133D01*
X107439936Y-92044135D01*
X107430284Y-92061691D01*
X107419610Y-92077941D01*
X107407329Y-92093776D01*
X107407324Y-92093783D01*
X107388815Y-92136553D01*
X107386245Y-92141799D01*
X107363803Y-92182621D01*
X107358822Y-92202022D01*
X107352521Y-92220425D01*
X107344562Y-92238817D01*
X107344561Y-92238820D01*
X107337271Y-92284842D01*
X107336087Y-92290561D01*
X107324501Y-92335687D01*
X107324500Y-92335697D01*
X107324500Y-92355731D01*
X107322973Y-92375130D01*
X107319840Y-92394909D01*
X107319840Y-92394910D01*
X106930500Y-92394910D01*
X106930500Y-58794500D01*
X106950185Y-58727461D01*
X107002989Y-58681706D01*
X107054500Y-58670500D01*
X190125500Y-58670500D01*
X190192539Y-58690185D01*
G37*
%TD.AperFunction*%
%TD*%
M02*
