%TF.GenerationSoftware,KiCad,Pcbnew,7.0.8-1.fc38*%
%TF.CreationDate,2023-11-06T19:13:25+00:00*%
%TF.ProjectId,Dev_habit_reminder,4465765f-6861-4626-9974-5f72656d696e,rev?*%
%TF.SameCoordinates,Original*%
%TF.FileFunction,Copper,L2,Bot*%
%TF.FilePolarity,Positive*%
%FSLAX46Y46*%
G04 Gerber Fmt 4.6, Leading zero omitted, Abs format (unit mm)*
G04 Created by KiCad (PCBNEW 7.0.8-1.fc38) date 2023-11-06 19:13:25*
%MOMM*%
%LPD*%
G01*
G04 APERTURE LIST*
%TA.AperFunction,ComponentPad*%
%ADD10R,1.700000X1.700000*%
%TD*%
%TA.AperFunction,ComponentPad*%
%ADD11O,1.700000X1.700000*%
%TD*%
%TA.AperFunction,ComponentPad*%
%ADD12O,1.600000X2.000000*%
%TD*%
%TA.AperFunction,ComponentPad*%
%ADD13C,2.000000*%
%TD*%
%TA.AperFunction,ViaPad*%
%ADD14C,0.800000*%
%TD*%
%TA.AperFunction,Conductor*%
%ADD15C,0.500000*%
%TD*%
%TA.AperFunction,Conductor*%
%ADD16C,0.250000*%
%TD*%
G04 APERTURE END LIST*
D10*
%TO.P,U1,1,3V3*%
%TO.N,+3.3V*%
X112319208Y-72805507D03*
D11*
%TO.P,U1,2,CHIP_PU*%
%TO.N,unconnected-(U1-CHIP_PU-Pad2)*%
X112319208Y-75345507D03*
%TO.P,U1,3,SENSOR_VP/GPIO36/ADC1_CH0*%
%TO.N,unconnected-(U1-SENSOR_VP{slash}GPIO36{slash}ADC1_CH0-Pad3)*%
X112319208Y-77885507D03*
%TO.P,U1,4,SENSOR_VN/GPIO39/ADC1_CH3*%
%TO.N,unconnected-(U1-SENSOR_VN{slash}GPIO39{slash}ADC1_CH3-Pad4)*%
X112319208Y-80425507D03*
%TO.P,U1,5,VDET_1/GPIO34/ADC1_CH6*%
%TO.N,unconnected-(U1-VDET_1{slash}GPIO34{slash}ADC1_CH6-Pad5)*%
X112319208Y-82965507D03*
%TO.P,U1,6,VDET_2/GPIO35/ADC1_CH7*%
%TO.N,unconnected-(U1-VDET_2{slash}GPIO35{slash}ADC1_CH7-Pad6)*%
X112319208Y-85505507D03*
%TO.P,U1,7,32K_XP/GPIO32/ADC1_CH4*%
%TO.N,/SW1*%
X112319208Y-88045507D03*
%TO.P,U1,8,32K_XN/GPIO33/ADC1_CH5*%
%TO.N,/SW2*%
X112319208Y-90585507D03*
%TO.P,U1,9,DAC_1/ADC2_CH8/GPIO25*%
%TO.N,unconnected-(U1-DAC_1{slash}ADC2_CH8{slash}GPIO25-Pad9)*%
X112319208Y-93125507D03*
%TO.P,U1,10,DAC_2/ADC2_CH9/GPIO26*%
%TO.N,unconnected-(U1-DAC_2{slash}ADC2_CH9{slash}GPIO26-Pad10)*%
X112319208Y-95665507D03*
%TO.P,U1,11,ADC2_CH7/GPIO27*%
%TO.N,/SW3*%
X112319208Y-98205507D03*
%TO.P,U1,12,MTMS/GPIO14/ADC2_CH6*%
%TO.N,unconnected-(U1-MTMS{slash}GPIO14{slash}ADC2_CH6-Pad12)*%
X112319208Y-100745507D03*
%TO.P,U1,13,MTDI/GPIO12/ADC2_CH5*%
%TO.N,unconnected-(U1-MTDI{slash}GPIO12{slash}ADC2_CH5-Pad13)*%
X112319208Y-103285507D03*
%TO.P,U1,14,GND*%
%TO.N,GND*%
X112319208Y-105825507D03*
%TO.P,U1,15,MTCK/GPIO13/ADC2_CH4*%
%TO.N,unconnected-(U1-MTCK{slash}GPIO13{slash}ADC2_CH4-Pad15)*%
X112319208Y-108365507D03*
%TO.P,U1,16,SD_DATA2/GPIO9*%
%TO.N,unconnected-(U1-SD_DATA2{slash}GPIO9-Pad16)*%
X112319208Y-110905507D03*
%TO.P,U1,17,SD_DATA3/GPIO10*%
%TO.N,unconnected-(U1-SD_DATA3{slash}GPIO10-Pad17)*%
X112319208Y-113445507D03*
%TO.P,U1,18,CMD*%
%TO.N,unconnected-(U1-CMD-Pad18)*%
X112319208Y-115985507D03*
%TO.P,U1,19,5V*%
%TO.N,+5V*%
X112319208Y-118525507D03*
%TO.P,U1,20,SD_CLK/GPIO6*%
%TO.N,unconnected-(U1-SD_CLK{slash}GPIO6-Pad20)*%
X137719208Y-118525507D03*
%TO.P,U1,21,SD_DATA0/GPIO7*%
%TO.N,unconnected-(U1-SD_DATA0{slash}GPIO7-Pad21)*%
X137719208Y-115985507D03*
%TO.P,U1,22,SD_DATA1/GPIO8*%
%TO.N,unconnected-(U1-SD_DATA1{slash}GPIO8-Pad22)*%
X137719208Y-113445507D03*
%TO.P,U1,23,MTDO/GPIO15/ADC2_CH3*%
%TO.N,unconnected-(U1-MTDO{slash}GPIO15{slash}ADC2_CH3-Pad23)*%
X137719208Y-110905507D03*
%TO.P,U1,24,ADC2_CH2/GPIO2*%
%TO.N,unconnected-(U1-ADC2_CH2{slash}GPIO2-Pad24)*%
X137719208Y-108365507D03*
%TO.P,U1,25,GPIO0/BOOT/ADC2_CH1*%
%TO.N,unconnected-(U1-GPIO0{slash}BOOT{slash}ADC2_CH1-Pad25)*%
X137719208Y-105825507D03*
%TO.P,U1,26,ADC2_CH0/GPIO4*%
%TO.N,unconnected-(U1-ADC2_CH0{slash}GPIO4-Pad26)*%
X137719208Y-103285507D03*
%TO.P,U1,27,GPIO16*%
%TO.N,unconnected-(U1-GPIO16-Pad27)*%
X137719208Y-100745507D03*
%TO.P,U1,28,GPIO17*%
%TO.N,unconnected-(U1-GPIO17-Pad28)*%
X137719208Y-98205507D03*
%TO.P,U1,29,GPIO5*%
%TO.N,/LED*%
X137719208Y-95665507D03*
%TO.P,U1,30,GPIO18*%
%TO.N,unconnected-(U1-GPIO18-Pad30)*%
X137719208Y-93125507D03*
%TO.P,U1,31,GPIO19*%
%TO.N,unconnected-(U1-GPIO19-Pad31)*%
X137719208Y-90585507D03*
%TO.P,U1,32,GND*%
%TO.N,GND*%
X137719208Y-88045507D03*
%TO.P,U1,33,GPIO21*%
%TO.N,/SDA*%
X137719208Y-85505507D03*
%TO.P,U1,34,U0RXD/GPIO3*%
%TO.N,unconnected-(U1-U0RXD{slash}GPIO3-Pad34)*%
X137719208Y-82965507D03*
%TO.P,U1,35,U0TXD/GPIO1*%
%TO.N,unconnected-(U1-U0TXD{slash}GPIO1-Pad35)*%
X137719208Y-80425507D03*
%TO.P,U1,36,GPIO22*%
%TO.N,/SCL*%
X137719208Y-77885507D03*
%TO.P,U1,37,GPIO23*%
%TO.N,unconnected-(U1-GPIO23-Pad37)*%
X137719208Y-75345507D03*
D10*
%TO.P,U1,38,GND*%
%TO.N,GND*%
X137719208Y-72805507D03*
%TD*%
%TO.P,J1,1,Pin_1*%
%TO.N,GND*%
X169590279Y-65481827D03*
D11*
%TO.P,J1,2,Pin_2*%
%TO.N,+5V*%
X172130279Y-65481827D03*
%TO.P,J1,3,Pin_3*%
%TO.N,/SCL*%
X174670279Y-65481827D03*
%TO.P,J1,4,Pin_4*%
%TO.N,/SDA*%
X177210279Y-65481827D03*
%TD*%
D12*
%TO.P,Brd1,1,GND*%
%TO.N,GND*%
X157700000Y-75060000D03*
%TO.P,Brd1,2,VCC*%
%TO.N,+5V*%
X160240000Y-75060000D03*
%TO.P,Brd1,3,SCL*%
%TO.N,/SCL*%
X162780000Y-75060000D03*
%TO.P,Brd1,4,SDA*%
%TO.N,/SDA*%
X165320000Y-75060000D03*
%TD*%
D13*
%TO.P,SW1,1,1*%
%TO.N,/SW1*%
X156726351Y-114449741D03*
X150226351Y-114449741D03*
%TO.P,SW1,2,2*%
%TO.N,GND*%
X156726351Y-118949741D03*
X150226351Y-118949741D03*
%TD*%
%TO.P,SW2,1,1*%
%TO.N,/SW2*%
X169501351Y-114449741D03*
X163001351Y-114449741D03*
%TO.P,SW2,2,2*%
%TO.N,GND*%
X169501351Y-118949741D03*
X163001351Y-118949741D03*
%TD*%
%TO.P,SW3,1,1*%
%TO.N,/SW3*%
X182276351Y-114214632D03*
X175776351Y-114214632D03*
%TO.P,SW3,2,2*%
%TO.N,GND*%
X182276351Y-118714632D03*
X175776351Y-118714632D03*
%TD*%
D14*
%TO.N,+5V*%
X130810000Y-119380000D03*
%TO.N,/SW1*%
X146050000Y-125730000D03*
%TO.N,/SW2*%
X157480000Y-124460000D03*
%TO.N,/SW3*%
X172720000Y-121920000D03*
%TO.N,+5V*%
X165100000Y-71120000D03*
%TO.N,/SCL*%
X170180000Y-71120000D03*
%TO.N,/SDA*%
X172720000Y-73015500D03*
%TO.N,/LED*%
X185420000Y-76200000D03*
X172720000Y-81280000D03*
%TD*%
D15*
%TO.N,+5V*%
X130810000Y-119380000D02*
X132080000Y-120650000D01*
X160240000Y-100110000D02*
X160240000Y-75060000D01*
X132080000Y-120650000D02*
X139700000Y-120650000D01*
X139700000Y-120650000D02*
X160240000Y-100110000D01*
D16*
%TO.N,/SW1*%
X146050000Y-125730000D02*
X147320000Y-124460000D01*
X148440259Y-114449741D02*
X150226351Y-114449741D01*
X147320000Y-124460000D02*
X147320000Y-115570000D01*
X147320000Y-115570000D02*
X148440259Y-114449741D01*
%TO.N,/SW2*%
X160020000Y-121920000D02*
X160020000Y-115570000D01*
X161140259Y-114449741D02*
X163001351Y-114449741D01*
X157480000Y-124460000D02*
X160020000Y-121920000D01*
X160020000Y-115570000D02*
X161140259Y-114449741D01*
%TO.N,/SW3*%
X172720000Y-121920000D02*
X172720000Y-115570000D01*
X172720000Y-115570000D02*
X174075368Y-114214632D01*
X174075368Y-114214632D02*
X175776351Y-114214632D01*
D15*
%TO.N,+5V*%
X166492106Y-71120000D02*
X172130279Y-65481827D01*
X165100000Y-71120000D02*
X166492106Y-71120000D01*
%TO.N,GND*%
X157700000Y-75060000D02*
X167278173Y-65481827D01*
X167278173Y-65481827D02*
X169590279Y-65481827D01*
D16*
%TO.N,/SCL*%
X170180000Y-69972106D02*
X174670279Y-65481827D01*
X170180000Y-71120000D02*
X170180000Y-69972106D01*
%TO.N,/SDA*%
X172720000Y-69972106D02*
X177210279Y-65481827D01*
X172720000Y-73015500D02*
X172720000Y-69972106D01*
%TO.N,/LED*%
X180340000Y-81280000D02*
X185420000Y-76200000D01*
X172720000Y-81280000D02*
X180340000Y-81280000D01*
%TD*%
%TA.AperFunction,Conductor*%
%TO.N,GND*%
G36*
X190192539Y-58690185D02*
G01*
X190238294Y-58742989D01*
X190249500Y-58794500D01*
X190249500Y-129165500D01*
X190229815Y-129232539D01*
X190177011Y-129278294D01*
X190125500Y-129289500D01*
X107054500Y-129289500D01*
X106987461Y-129269815D01*
X106941706Y-129217011D01*
X106930500Y-129165500D01*
X106930500Y-125730000D01*
X145144540Y-125730000D01*
X145164326Y-125918256D01*
X145164327Y-125918259D01*
X145222818Y-126098277D01*
X145222821Y-126098284D01*
X145317467Y-126262216D01*
X145444129Y-126402888D01*
X145597265Y-126514148D01*
X145597270Y-126514151D01*
X145770192Y-126591142D01*
X145770197Y-126591144D01*
X145955354Y-126630500D01*
X145955355Y-126630500D01*
X146144644Y-126630500D01*
X146144646Y-126630500D01*
X146329803Y-126591144D01*
X146502730Y-126514151D01*
X146655871Y-126402888D01*
X146782533Y-126262216D01*
X146877179Y-126098284D01*
X146935674Y-125918256D01*
X146953321Y-125750344D01*
X146979904Y-125685734D01*
X146988951Y-125675638D01*
X147703788Y-124960801D01*
X147716042Y-124950986D01*
X147715859Y-124950764D01*
X147721866Y-124945792D01*
X147721877Y-124945786D01*
X147752775Y-124912882D01*
X147769227Y-124895364D01*
X147779671Y-124884918D01*
X147790120Y-124874471D01*
X147794379Y-124868978D01*
X147798152Y-124864561D01*
X147830062Y-124830582D01*
X147839713Y-124813024D01*
X147850396Y-124796761D01*
X147862673Y-124780936D01*
X147881185Y-124738153D01*
X147883738Y-124732941D01*
X147906197Y-124692092D01*
X147911180Y-124672680D01*
X147917481Y-124654280D01*
X147925437Y-124635896D01*
X147932729Y-124589852D01*
X147933906Y-124584171D01*
X147945500Y-124539019D01*
X147945500Y-124518983D01*
X147947027Y-124499582D01*
X147950160Y-124479804D01*
X147948288Y-124460000D01*
X156574540Y-124460000D01*
X156594326Y-124648256D01*
X156594327Y-124648259D01*
X156652818Y-124828277D01*
X156652821Y-124828284D01*
X156747467Y-124992216D01*
X156805899Y-125057111D01*
X156874129Y-125132888D01*
X157027265Y-125244148D01*
X157027270Y-125244151D01*
X157200192Y-125321142D01*
X157200197Y-125321144D01*
X157385354Y-125360500D01*
X157385355Y-125360500D01*
X157574644Y-125360500D01*
X157574646Y-125360500D01*
X157759803Y-125321144D01*
X157932730Y-125244151D01*
X158085871Y-125132888D01*
X158212533Y-124992216D01*
X158307179Y-124828284D01*
X158365674Y-124648256D01*
X158383321Y-124480344D01*
X158409904Y-124415734D01*
X158418951Y-124405638D01*
X160403788Y-122420801D01*
X160416042Y-122410986D01*
X160415859Y-122410764D01*
X160421866Y-122405792D01*
X160421877Y-122405786D01*
X160452775Y-122372882D01*
X160469227Y-122355364D01*
X160479671Y-122344918D01*
X160490120Y-122334471D01*
X160494379Y-122328978D01*
X160498152Y-122324561D01*
X160530062Y-122290582D01*
X160539713Y-122273024D01*
X160550396Y-122256761D01*
X160562673Y-122240936D01*
X160581185Y-122198153D01*
X160583738Y-122192941D01*
X160606197Y-122152092D01*
X160611180Y-122132680D01*
X160617481Y-122114280D01*
X160625437Y-122095896D01*
X160632729Y-122049852D01*
X160633906Y-122044171D01*
X160645500Y-121999019D01*
X160645500Y-121978983D01*
X160647027Y-121959582D01*
X160650160Y-121939804D01*
X160648288Y-121920000D01*
X171814540Y-121920000D01*
X171834326Y-122108256D01*
X171834327Y-122108259D01*
X171892818Y-122288277D01*
X171892821Y-122288284D01*
X171987467Y-122452216D01*
X172114129Y-122592888D01*
X172267265Y-122704148D01*
X172267270Y-122704151D01*
X172440192Y-122781142D01*
X172440197Y-122781144D01*
X172625354Y-122820500D01*
X172625355Y-122820500D01*
X172814644Y-122820500D01*
X172814646Y-122820500D01*
X172999803Y-122781144D01*
X173172730Y-122704151D01*
X173325871Y-122592888D01*
X173452533Y-122452216D01*
X173547179Y-122288284D01*
X173605674Y-122108256D01*
X173625460Y-121920000D01*
X173605674Y-121731744D01*
X173547179Y-121551716D01*
X173452533Y-121387784D01*
X173448031Y-121382784D01*
X173377350Y-121304284D01*
X173347120Y-121241292D01*
X173345500Y-121221312D01*
X173345500Y-118714637D01*
X174271210Y-118714637D01*
X174291736Y-118962361D01*
X174291738Y-118962370D01*
X174352763Y-119203349D01*
X174452617Y-119430996D01*
X174552915Y-119584514D01*
X175250421Y-118887008D01*
X175253235Y-118900547D01*
X175322793Y-119034788D01*
X175425989Y-119145284D01*
X175555170Y-119223841D01*
X175606353Y-119238181D01*
X174906293Y-119938241D01*
X174953119Y-119974687D01*
X174953121Y-119974688D01*
X175171736Y-120092996D01*
X175171747Y-120093001D01*
X175406857Y-120173715D01*
X175652058Y-120214632D01*
X175900644Y-120214632D01*
X176145844Y-120173715D01*
X176380954Y-120093001D01*
X176380965Y-120092996D01*
X176599579Y-119974689D01*
X176599582Y-119974687D01*
X176646407Y-119938241D01*
X175947919Y-119239753D01*
X176064809Y-119188981D01*
X176182090Y-119093566D01*
X176269279Y-118970047D01*
X176299705Y-118884434D01*
X176999785Y-119584514D01*
X177100082Y-119431001D01*
X177199938Y-119203349D01*
X177260963Y-118962370D01*
X177260965Y-118962361D01*
X177281492Y-118714637D01*
X180771210Y-118714637D01*
X180791736Y-118962361D01*
X180791738Y-118962370D01*
X180852763Y-119203349D01*
X180952617Y-119430996D01*
X181052915Y-119584514D01*
X181750421Y-118887008D01*
X181753235Y-118900547D01*
X181822793Y-119034788D01*
X181925989Y-119145284D01*
X182055170Y-119223841D01*
X182106353Y-119238181D01*
X181406293Y-119938241D01*
X181453119Y-119974687D01*
X181453121Y-119974688D01*
X181671736Y-120092996D01*
X181671747Y-120093001D01*
X181906857Y-120173715D01*
X182152058Y-120214632D01*
X182400644Y-120214632D01*
X182645844Y-120173715D01*
X182880954Y-120093001D01*
X182880965Y-120092996D01*
X183099579Y-119974689D01*
X183099582Y-119974687D01*
X183146407Y-119938241D01*
X182447919Y-119239753D01*
X182564809Y-119188981D01*
X182682090Y-119093566D01*
X182769279Y-118970047D01*
X182799705Y-118884434D01*
X183499785Y-119584514D01*
X183600082Y-119431001D01*
X183699938Y-119203349D01*
X183760963Y-118962370D01*
X183760965Y-118962361D01*
X183781492Y-118714637D01*
X183781492Y-118714626D01*
X183760965Y-118466902D01*
X183760963Y-118466893D01*
X183699938Y-118225914D01*
X183600082Y-117998262D01*
X183499785Y-117844748D01*
X182802280Y-118542254D01*
X182799467Y-118528717D01*
X182729909Y-118394476D01*
X182626713Y-118283980D01*
X182497532Y-118205423D01*
X182446348Y-118191082D01*
X183146408Y-117491022D01*
X183146407Y-117491021D01*
X183099580Y-117454575D01*
X182880965Y-117336267D01*
X182880954Y-117336262D01*
X182645844Y-117255548D01*
X182400644Y-117214632D01*
X182152058Y-117214632D01*
X181906857Y-117255548D01*
X181671747Y-117336262D01*
X181671741Y-117336264D01*
X181453112Y-117454581D01*
X181406293Y-117491020D01*
X181406293Y-117491022D01*
X182104782Y-118189510D01*
X181987893Y-118240283D01*
X181870612Y-118335698D01*
X181783423Y-118459217D01*
X181752996Y-118544829D01*
X181052915Y-117844748D01*
X180952618Y-117998264D01*
X180852763Y-118225914D01*
X180791738Y-118466893D01*
X180791736Y-118466902D01*
X180771210Y-118714626D01*
X180771210Y-118714637D01*
X177281492Y-118714637D01*
X177281492Y-118714626D01*
X177260965Y-118466902D01*
X177260963Y-118466893D01*
X177199938Y-118225914D01*
X177100082Y-117998262D01*
X176999785Y-117844748D01*
X176302280Y-118542254D01*
X176299467Y-118528717D01*
X176229909Y-118394476D01*
X176126713Y-118283980D01*
X175997532Y-118205423D01*
X175946348Y-118191082D01*
X176646408Y-117491022D01*
X176646407Y-117491021D01*
X176599580Y-117454575D01*
X176380965Y-117336267D01*
X176380954Y-117336262D01*
X176145844Y-117255548D01*
X175900644Y-117214632D01*
X175652058Y-117214632D01*
X175406857Y-117255548D01*
X175171747Y-117336262D01*
X175171741Y-117336264D01*
X174953112Y-117454581D01*
X174906293Y-117491020D01*
X174906293Y-117491022D01*
X175604782Y-118189510D01*
X175487893Y-118240283D01*
X175370612Y-118335698D01*
X175283423Y-118459217D01*
X175252996Y-118544829D01*
X174552915Y-117844748D01*
X174452618Y-117998264D01*
X174352763Y-118225914D01*
X174291738Y-118466893D01*
X174291736Y-118466902D01*
X174271210Y-118714626D01*
X174271210Y-118714637D01*
X173345500Y-118714637D01*
X173345500Y-115880452D01*
X173365185Y-115813413D01*
X173381819Y-115792771D01*
X173836684Y-115337906D01*
X174261687Y-114912903D01*
X174323008Y-114879420D01*
X174392700Y-114884404D01*
X174448633Y-114926276D01*
X174453175Y-114932765D01*
X174588184Y-115139414D01*
X174603010Y-115155519D01*
X174756607Y-115322370D01*
X174952842Y-115475106D01*
X175171541Y-115593460D01*
X175406737Y-115674203D01*
X175652016Y-115715132D01*
X175900686Y-115715132D01*
X176145965Y-115674203D01*
X176381161Y-115593460D01*
X176599860Y-115475106D01*
X176796095Y-115322370D01*
X176964515Y-115139417D01*
X177100524Y-114931239D01*
X177200414Y-114703513D01*
X177261459Y-114462453D01*
X177262512Y-114449746D01*
X177281994Y-114214637D01*
X180770708Y-114214637D01*
X180791241Y-114462444D01*
X180791243Y-114462456D01*
X180852287Y-114703513D01*
X180952177Y-114931238D01*
X181088184Y-115139414D01*
X181103010Y-115155519D01*
X181256607Y-115322370D01*
X181452842Y-115475106D01*
X181671541Y-115593460D01*
X181906737Y-115674203D01*
X182152016Y-115715132D01*
X182400686Y-115715132D01*
X182645965Y-115674203D01*
X182881161Y-115593460D01*
X183099860Y-115475106D01*
X183296095Y-115322370D01*
X183464515Y-115139417D01*
X183600524Y-114931239D01*
X183700414Y-114703513D01*
X183761459Y-114462453D01*
X183762512Y-114449746D01*
X183781994Y-114214637D01*
X183781994Y-114214626D01*
X183761460Y-113966819D01*
X183761458Y-113966807D01*
X183700414Y-113725750D01*
X183600524Y-113498025D01*
X183464517Y-113289849D01*
X183442908Y-113266376D01*
X183296095Y-113106894D01*
X183099860Y-112954158D01*
X183099858Y-112954157D01*
X183099857Y-112954156D01*
X182881162Y-112835804D01*
X182881153Y-112835801D01*
X182645967Y-112755061D01*
X182400686Y-112714132D01*
X182152016Y-112714132D01*
X181906734Y-112755061D01*
X181671548Y-112835801D01*
X181671539Y-112835804D01*
X181452844Y-112954156D01*
X181256608Y-113106893D01*
X181088184Y-113289849D01*
X180952177Y-113498025D01*
X180852287Y-113725750D01*
X180791243Y-113966807D01*
X180791241Y-113966819D01*
X180770708Y-114214626D01*
X180770708Y-114214637D01*
X177281994Y-114214637D01*
X177281994Y-114214626D01*
X177261460Y-113966819D01*
X177261458Y-113966807D01*
X177200414Y-113725750D01*
X177100524Y-113498025D01*
X176964517Y-113289849D01*
X176942908Y-113266376D01*
X176796095Y-113106894D01*
X176599860Y-112954158D01*
X176599858Y-112954157D01*
X176599857Y-112954156D01*
X176381162Y-112835804D01*
X176381153Y-112835801D01*
X176145967Y-112755061D01*
X175900686Y-112714132D01*
X175652016Y-112714132D01*
X175406734Y-112755061D01*
X175171548Y-112835801D01*
X175171539Y-112835804D01*
X174952844Y-112954156D01*
X174756608Y-113106893D01*
X174588184Y-113289849D01*
X174452175Y-113498028D01*
X174444756Y-113514943D01*
X174399800Y-113568429D01*
X174333064Y-113589118D01*
X174331201Y-113589132D01*
X174158111Y-113589132D01*
X174142490Y-113587407D01*
X174142464Y-113587693D01*
X174134702Y-113586959D01*
X174134701Y-113586959D01*
X174065554Y-113589132D01*
X174036017Y-113589132D01*
X174029134Y-113590001D01*
X174023317Y-113590458D01*
X173976741Y-113591922D01*
X173957497Y-113597513D01*
X173938447Y-113601457D01*
X173918579Y-113603966D01*
X173875252Y-113621120D01*
X173869726Y-113623011D01*
X173824982Y-113636011D01*
X173824978Y-113636013D01*
X173807734Y-113646211D01*
X173790273Y-113654765D01*
X173771642Y-113662142D01*
X173771630Y-113662149D01*
X173733938Y-113689534D01*
X173729055Y-113692741D01*
X173688948Y-113716461D01*
X173674782Y-113730627D01*
X173659992Y-113743259D01*
X173643782Y-113755036D01*
X173643779Y-113755039D01*
X173614078Y-113790941D01*
X173610145Y-113795263D01*
X172336208Y-115069199D01*
X172323951Y-115079020D01*
X172324134Y-115079241D01*
X172318123Y-115084213D01*
X172270772Y-115134636D01*
X172249889Y-115155519D01*
X172249877Y-115155532D01*
X172245621Y-115161017D01*
X172241837Y-115165447D01*
X172209937Y-115199418D01*
X172209936Y-115199420D01*
X172200284Y-115216976D01*
X172189610Y-115233226D01*
X172177329Y-115249061D01*
X172177324Y-115249068D01*
X172158815Y-115291838D01*
X172156245Y-115297084D01*
X172133803Y-115337906D01*
X172128822Y-115357307D01*
X172122521Y-115375710D01*
X172114562Y-115394102D01*
X172114561Y-115394105D01*
X172107271Y-115440127D01*
X172106087Y-115445846D01*
X172094501Y-115490972D01*
X172094500Y-115490982D01*
X172094500Y-115511016D01*
X172092973Y-115530413D01*
X172089840Y-115550196D01*
X172093831Y-115592415D01*
X172094225Y-115596583D01*
X172094500Y-115602421D01*
X172094500Y-121221312D01*
X172074815Y-121288351D01*
X172062650Y-121304284D01*
X171987466Y-121387784D01*
X171892821Y-121551715D01*
X171892818Y-121551722D01*
X171852248Y-121676586D01*
X171834326Y-121731744D01*
X171814540Y-121920000D01*
X160648288Y-121920000D01*
X160645775Y-121893415D01*
X160645500Y-121887577D01*
X160645500Y-118949746D01*
X161496210Y-118949746D01*
X161516736Y-119197470D01*
X161516738Y-119197479D01*
X161577763Y-119438458D01*
X161677617Y-119666105D01*
X161777915Y-119819623D01*
X162475421Y-119122117D01*
X162478235Y-119135656D01*
X162547793Y-119269897D01*
X162650989Y-119380393D01*
X162780170Y-119458950D01*
X162831353Y-119473290D01*
X162131293Y-120173350D01*
X162178119Y-120209796D01*
X162178121Y-120209797D01*
X162396736Y-120328105D01*
X162396747Y-120328110D01*
X162631857Y-120408824D01*
X162877058Y-120449741D01*
X163125644Y-120449741D01*
X163370844Y-120408824D01*
X163605954Y-120328110D01*
X163605965Y-120328105D01*
X163824579Y-120209798D01*
X163824582Y-120209796D01*
X163871407Y-120173350D01*
X163172919Y-119474862D01*
X163289809Y-119424090D01*
X163407090Y-119328675D01*
X163494279Y-119205156D01*
X163524705Y-119119543D01*
X164224785Y-119819623D01*
X164325082Y-119666110D01*
X164424938Y-119438458D01*
X164485963Y-119197479D01*
X164485965Y-119197470D01*
X164506492Y-118949746D01*
X167996210Y-118949746D01*
X168016736Y-119197470D01*
X168016738Y-119197479D01*
X168077763Y-119438458D01*
X168177617Y-119666105D01*
X168277915Y-119819623D01*
X168975421Y-119122117D01*
X168978235Y-119135656D01*
X169047793Y-119269897D01*
X169150989Y-119380393D01*
X169280170Y-119458950D01*
X169331353Y-119473290D01*
X168631293Y-120173350D01*
X168678119Y-120209796D01*
X168678121Y-120209797D01*
X168896736Y-120328105D01*
X168896747Y-120328110D01*
X169131857Y-120408824D01*
X169377058Y-120449741D01*
X169625644Y-120449741D01*
X169870844Y-120408824D01*
X170105954Y-120328110D01*
X170105965Y-120328105D01*
X170324579Y-120209798D01*
X170324582Y-120209796D01*
X170371407Y-120173350D01*
X169672919Y-119474862D01*
X169789809Y-119424090D01*
X169907090Y-119328675D01*
X169994279Y-119205156D01*
X170024705Y-119119543D01*
X170724785Y-119819623D01*
X170825082Y-119666110D01*
X170924938Y-119438458D01*
X170985963Y-119197479D01*
X170985965Y-119197470D01*
X171006492Y-118949746D01*
X171006492Y-118949735D01*
X170985965Y-118702011D01*
X170985963Y-118702002D01*
X170924938Y-118461023D01*
X170825082Y-118233371D01*
X170724785Y-118079857D01*
X170027280Y-118777363D01*
X170024467Y-118763826D01*
X169954909Y-118629585D01*
X169851713Y-118519089D01*
X169722532Y-118440532D01*
X169671348Y-118426191D01*
X170371408Y-117726131D01*
X170371407Y-117726130D01*
X170324580Y-117689684D01*
X170105965Y-117571376D01*
X170105954Y-117571371D01*
X169870844Y-117490657D01*
X169625644Y-117449741D01*
X169377058Y-117449741D01*
X169131857Y-117490657D01*
X168896747Y-117571371D01*
X168896741Y-117571373D01*
X168678112Y-117689690D01*
X168631293Y-117726129D01*
X168631293Y-117726131D01*
X169329782Y-118424619D01*
X169212893Y-118475392D01*
X169095612Y-118570807D01*
X169008423Y-118694326D01*
X168977996Y-118779938D01*
X168277915Y-118079857D01*
X168177618Y-118233373D01*
X168077763Y-118461023D01*
X168016738Y-118702002D01*
X168016736Y-118702011D01*
X167996210Y-118949735D01*
X167996210Y-118949746D01*
X164506492Y-118949746D01*
X164506492Y-118949735D01*
X164485965Y-118702011D01*
X164485963Y-118702002D01*
X164424938Y-118461023D01*
X164325082Y-118233371D01*
X164224785Y-118079857D01*
X163527280Y-118777363D01*
X163524467Y-118763826D01*
X163454909Y-118629585D01*
X163351713Y-118519089D01*
X163222532Y-118440532D01*
X163171348Y-118426191D01*
X163871408Y-117726131D01*
X163871407Y-117726130D01*
X163824580Y-117689684D01*
X163605965Y-117571376D01*
X163605954Y-117571371D01*
X163370844Y-117490657D01*
X163125644Y-117449741D01*
X162877058Y-117449741D01*
X162631857Y-117490657D01*
X162396747Y-117571371D01*
X162396741Y-117571373D01*
X162178112Y-117689690D01*
X162131293Y-117726129D01*
X162131293Y-117726131D01*
X162829782Y-118424619D01*
X162712893Y-118475392D01*
X162595612Y-118570807D01*
X162508423Y-118694326D01*
X162477996Y-118779938D01*
X161777915Y-118079857D01*
X161677618Y-118233373D01*
X161577763Y-118461023D01*
X161516738Y-118702002D01*
X161516736Y-118702011D01*
X161496210Y-118949735D01*
X161496210Y-118949746D01*
X160645500Y-118949746D01*
X160645500Y-115880452D01*
X160665185Y-115813413D01*
X160681819Y-115792771D01*
X161363031Y-115111560D01*
X161424354Y-115078075D01*
X161450712Y-115075241D01*
X161556201Y-115075241D01*
X161623240Y-115094926D01*
X161668995Y-115147730D01*
X161669756Y-115149430D01*
X161677175Y-115166344D01*
X161813184Y-115374523D01*
X161813187Y-115374526D01*
X161981607Y-115557479D01*
X162177842Y-115710215D01*
X162396541Y-115828569D01*
X162631737Y-115909312D01*
X162877016Y-115950241D01*
X163125686Y-115950241D01*
X163370965Y-115909312D01*
X163606161Y-115828569D01*
X163824860Y-115710215D01*
X164021095Y-115557479D01*
X164189515Y-115374526D01*
X164325524Y-115166348D01*
X164425414Y-114938622D01*
X164486459Y-114697562D01*
X164486460Y-114697553D01*
X164506994Y-114449746D01*
X167995708Y-114449746D01*
X168016241Y-114697553D01*
X168016243Y-114697565D01*
X168077287Y-114938622D01*
X168177177Y-115166347D01*
X168313184Y-115374523D01*
X168313187Y-115374526D01*
X168481607Y-115557479D01*
X168677842Y-115710215D01*
X168896541Y-115828569D01*
X169131737Y-115909312D01*
X169377016Y-115950241D01*
X169625686Y-115950241D01*
X169870965Y-115909312D01*
X170106161Y-115828569D01*
X170324860Y-115710215D01*
X170521095Y-115557479D01*
X170689515Y-115374526D01*
X170825524Y-115166348D01*
X170925414Y-114938622D01*
X170986459Y-114697562D01*
X170986460Y-114697553D01*
X171006994Y-114449746D01*
X171006994Y-114449735D01*
X170986460Y-114201928D01*
X170986458Y-114201916D01*
X170925414Y-113960859D01*
X170825524Y-113733134D01*
X170689517Y-113524958D01*
X170616376Y-113445506D01*
X170521095Y-113342003D01*
X170324860Y-113189267D01*
X170324858Y-113189266D01*
X170324857Y-113189265D01*
X170106162Y-113070913D01*
X170106153Y-113070910D01*
X169870967Y-112990170D01*
X169625686Y-112949241D01*
X169377016Y-112949241D01*
X169131734Y-112990170D01*
X168896548Y-113070910D01*
X168896539Y-113070913D01*
X168677844Y-113189265D01*
X168481608Y-113342002D01*
X168313184Y-113524958D01*
X168177177Y-113733134D01*
X168077287Y-113960859D01*
X168016243Y-114201916D01*
X168016241Y-114201928D01*
X167995708Y-114449735D01*
X167995708Y-114449746D01*
X164506994Y-114449746D01*
X164506994Y-114449735D01*
X164486460Y-114201928D01*
X164486458Y-114201916D01*
X164425414Y-113960859D01*
X164325524Y-113733134D01*
X164189517Y-113524958D01*
X164116376Y-113445506D01*
X164021095Y-113342003D01*
X163824860Y-113189267D01*
X163824858Y-113189266D01*
X163824857Y-113189265D01*
X163606162Y-113070913D01*
X163606153Y-113070910D01*
X163370967Y-112990170D01*
X163125686Y-112949241D01*
X162877016Y-112949241D01*
X162631734Y-112990170D01*
X162396548Y-113070910D01*
X162396539Y-113070913D01*
X162177844Y-113189265D01*
X161981608Y-113342002D01*
X161813184Y-113524958D01*
X161677175Y-113733137D01*
X161669756Y-113750052D01*
X161624800Y-113803538D01*
X161558064Y-113824227D01*
X161556201Y-113824241D01*
X161222996Y-113824241D01*
X161207379Y-113822517D01*
X161207352Y-113822803D01*
X161199590Y-113822068D01*
X161130462Y-113824241D01*
X161100909Y-113824241D01*
X161100188Y-113824331D01*
X161094016Y-113825110D01*
X161088204Y-113825567D01*
X161041631Y-113827031D01*
X161041628Y-113827032D01*
X161022385Y-113832622D01*
X161003342Y-113836566D01*
X160983463Y-113839077D01*
X160983462Y-113839078D01*
X160940137Y-113856231D01*
X160934611Y-113858123D01*
X160889867Y-113871124D01*
X160889863Y-113871126D01*
X160872624Y-113881321D01*
X160855157Y-113889878D01*
X160836528Y-113897253D01*
X160836526Y-113897254D01*
X160798823Y-113924647D01*
X160793941Y-113927853D01*
X160753839Y-113951569D01*
X160739667Y-113965741D01*
X160724882Y-113978369D01*
X160708671Y-113990148D01*
X160678968Y-114026051D01*
X160675036Y-114030372D01*
X159636208Y-115069199D01*
X159623951Y-115079020D01*
X159624134Y-115079241D01*
X159618123Y-115084213D01*
X159570772Y-115134636D01*
X159549889Y-115155519D01*
X159549877Y-115155532D01*
X159545621Y-115161017D01*
X159541837Y-115165447D01*
X159509937Y-115199418D01*
X159509936Y-115199420D01*
X159500284Y-115216976D01*
X159489610Y-115233226D01*
X159477329Y-115249061D01*
X159477324Y-115249068D01*
X159458815Y-115291838D01*
X159456245Y-115297084D01*
X159433803Y-115337906D01*
X159428822Y-115357307D01*
X159422521Y-115375710D01*
X159414562Y-115394102D01*
X159414561Y-115394105D01*
X159407271Y-115440127D01*
X159406087Y-115445846D01*
X159394501Y-115490972D01*
X159394500Y-115490982D01*
X159394500Y-115511016D01*
X159392973Y-115530413D01*
X159389840Y-115550196D01*
X159393831Y-115592415D01*
X159394225Y-115596583D01*
X159394500Y-115602421D01*
X159394500Y-121609547D01*
X159374815Y-121676586D01*
X159358181Y-121697228D01*
X157532228Y-123523181D01*
X157470905Y-123556666D01*
X157444547Y-123559500D01*
X157385354Y-123559500D01*
X157352897Y-123566398D01*
X157200197Y-123598855D01*
X157200192Y-123598857D01*
X157027270Y-123675848D01*
X157027265Y-123675851D01*
X156874129Y-123787111D01*
X156747466Y-123927785D01*
X156652821Y-124091715D01*
X156652818Y-124091722D01*
X156612248Y-124216586D01*
X156594326Y-124271744D01*
X156574540Y-124460000D01*
X147948288Y-124460000D01*
X147945775Y-124433415D01*
X147945500Y-124427577D01*
X147945500Y-118949746D01*
X148721210Y-118949746D01*
X148741736Y-119197470D01*
X148741738Y-119197479D01*
X148802763Y-119438458D01*
X148902617Y-119666105D01*
X149002915Y-119819623D01*
X149700421Y-119122117D01*
X149703235Y-119135656D01*
X149772793Y-119269897D01*
X149875989Y-119380393D01*
X150005170Y-119458950D01*
X150056353Y-119473290D01*
X149356293Y-120173350D01*
X149403119Y-120209796D01*
X149403121Y-120209797D01*
X149621736Y-120328105D01*
X149621747Y-120328110D01*
X149856857Y-120408824D01*
X150102058Y-120449741D01*
X150350644Y-120449741D01*
X150595844Y-120408824D01*
X150830954Y-120328110D01*
X150830965Y-120328105D01*
X151049579Y-120209798D01*
X151049582Y-120209796D01*
X151096407Y-120173350D01*
X150397919Y-119474862D01*
X150514809Y-119424090D01*
X150632090Y-119328675D01*
X150719279Y-119205156D01*
X150749705Y-119119543D01*
X151449785Y-119819623D01*
X151550082Y-119666110D01*
X151649938Y-119438458D01*
X151710963Y-119197479D01*
X151710965Y-119197470D01*
X151731492Y-118949746D01*
X155221210Y-118949746D01*
X155241736Y-119197470D01*
X155241738Y-119197479D01*
X155302763Y-119438458D01*
X155402617Y-119666105D01*
X155502915Y-119819623D01*
X156200421Y-119122117D01*
X156203235Y-119135656D01*
X156272793Y-119269897D01*
X156375989Y-119380393D01*
X156505170Y-119458950D01*
X156556353Y-119473290D01*
X155856293Y-120173350D01*
X155903119Y-120209796D01*
X155903121Y-120209797D01*
X156121736Y-120328105D01*
X156121747Y-120328110D01*
X156356857Y-120408824D01*
X156602058Y-120449741D01*
X156850644Y-120449741D01*
X157095844Y-120408824D01*
X157330954Y-120328110D01*
X157330965Y-120328105D01*
X157549579Y-120209798D01*
X157549582Y-120209796D01*
X157596407Y-120173350D01*
X156897919Y-119474862D01*
X157014809Y-119424090D01*
X157132090Y-119328675D01*
X157219279Y-119205156D01*
X157249705Y-119119543D01*
X157949785Y-119819623D01*
X158050082Y-119666110D01*
X158149938Y-119438458D01*
X158210963Y-119197479D01*
X158210965Y-119197470D01*
X158231492Y-118949746D01*
X158231492Y-118949735D01*
X158210965Y-118702011D01*
X158210963Y-118702002D01*
X158149938Y-118461023D01*
X158050082Y-118233371D01*
X157949785Y-118079857D01*
X157252280Y-118777363D01*
X157249467Y-118763826D01*
X157179909Y-118629585D01*
X157076713Y-118519089D01*
X156947532Y-118440532D01*
X156896348Y-118426191D01*
X157596408Y-117726131D01*
X157596407Y-117726130D01*
X157549580Y-117689684D01*
X157330965Y-117571376D01*
X157330954Y-117571371D01*
X157095844Y-117490657D01*
X156850644Y-117449741D01*
X156602058Y-117449741D01*
X156356857Y-117490657D01*
X156121747Y-117571371D01*
X156121741Y-117571373D01*
X155903112Y-117689690D01*
X155856293Y-117726129D01*
X155856293Y-117726131D01*
X156554782Y-118424619D01*
X156437893Y-118475392D01*
X156320612Y-118570807D01*
X156233423Y-118694326D01*
X156202996Y-118779938D01*
X155502915Y-118079857D01*
X155402618Y-118233373D01*
X155302763Y-118461023D01*
X155241738Y-118702002D01*
X155241736Y-118702011D01*
X155221210Y-118949735D01*
X155221210Y-118949746D01*
X151731492Y-118949746D01*
X151731492Y-118949735D01*
X151710965Y-118702011D01*
X151710963Y-118702002D01*
X151649938Y-118461023D01*
X151550082Y-118233371D01*
X151449785Y-118079857D01*
X150752280Y-118777363D01*
X150749467Y-118763826D01*
X150679909Y-118629585D01*
X150576713Y-118519089D01*
X150447532Y-118440532D01*
X150396348Y-118426191D01*
X151096408Y-117726131D01*
X151096407Y-117726130D01*
X151049580Y-117689684D01*
X150830965Y-117571376D01*
X150830954Y-117571371D01*
X150595844Y-117490657D01*
X150350644Y-117449741D01*
X150102058Y-117449741D01*
X149856857Y-117490657D01*
X149621747Y-117571371D01*
X149621741Y-117571373D01*
X149403112Y-117689690D01*
X149356293Y-117726129D01*
X149356293Y-117726131D01*
X150054782Y-118424619D01*
X149937893Y-118475392D01*
X149820612Y-118570807D01*
X149733423Y-118694326D01*
X149702996Y-118779938D01*
X149002915Y-118079857D01*
X148902618Y-118233373D01*
X148802763Y-118461023D01*
X148741738Y-118702002D01*
X148741736Y-118702011D01*
X148721210Y-118949735D01*
X148721210Y-118949746D01*
X147945500Y-118949746D01*
X147945500Y-115880452D01*
X147965185Y-115813413D01*
X147981819Y-115792771D01*
X148663031Y-115111560D01*
X148724354Y-115078075D01*
X148750712Y-115075241D01*
X148781201Y-115075241D01*
X148848240Y-115094926D01*
X148893995Y-115147730D01*
X148894756Y-115149430D01*
X148902175Y-115166344D01*
X149038184Y-115374523D01*
X149038187Y-115374526D01*
X149206607Y-115557479D01*
X149402842Y-115710215D01*
X149621541Y-115828569D01*
X149856737Y-115909312D01*
X150102016Y-115950241D01*
X150350686Y-115950241D01*
X150595965Y-115909312D01*
X150831161Y-115828569D01*
X151049860Y-115710215D01*
X151246095Y-115557479D01*
X151414515Y-115374526D01*
X151550524Y-115166348D01*
X151650414Y-114938622D01*
X151711459Y-114697562D01*
X151711460Y-114697553D01*
X151731994Y-114449746D01*
X155220708Y-114449746D01*
X155241241Y-114697553D01*
X155241243Y-114697565D01*
X155302287Y-114938622D01*
X155402177Y-115166347D01*
X155538184Y-115374523D01*
X155538187Y-115374526D01*
X155706607Y-115557479D01*
X155902842Y-115710215D01*
X156121541Y-115828569D01*
X156356737Y-115909312D01*
X156602016Y-115950241D01*
X156850686Y-115950241D01*
X157095965Y-115909312D01*
X157331161Y-115828569D01*
X157549860Y-115710215D01*
X157746095Y-115557479D01*
X157914515Y-115374526D01*
X158050524Y-115166348D01*
X158150414Y-114938622D01*
X158211459Y-114697562D01*
X158211460Y-114697553D01*
X158231994Y-114449746D01*
X158231994Y-114449735D01*
X158211460Y-114201928D01*
X158211458Y-114201916D01*
X158150414Y-113960859D01*
X158050524Y-113733134D01*
X157914517Y-113524958D01*
X157841376Y-113445506D01*
X157746095Y-113342003D01*
X157549860Y-113189267D01*
X157549858Y-113189266D01*
X157549857Y-113189265D01*
X157331162Y-113070913D01*
X157331153Y-113070910D01*
X157095967Y-112990170D01*
X156850686Y-112949241D01*
X156602016Y-112949241D01*
X156356734Y-112990170D01*
X156121548Y-113070910D01*
X156121539Y-113070913D01*
X155902844Y-113189265D01*
X155706608Y-113342002D01*
X155538184Y-113524958D01*
X155402177Y-113733134D01*
X155302287Y-113960859D01*
X155241243Y-114201916D01*
X155241241Y-114201928D01*
X155220708Y-114449735D01*
X155220708Y-114449746D01*
X151731994Y-114449746D01*
X151731994Y-114449735D01*
X151711460Y-114201928D01*
X151711458Y-114201916D01*
X151650414Y-113960859D01*
X151550524Y-113733134D01*
X151414517Y-113524958D01*
X151341376Y-113445506D01*
X151246095Y-113342003D01*
X151049860Y-113189267D01*
X151049858Y-113189266D01*
X151049857Y-113189265D01*
X150831162Y-113070913D01*
X150831153Y-113070910D01*
X150595967Y-112990170D01*
X150350686Y-112949241D01*
X150102016Y-112949241D01*
X149856734Y-112990170D01*
X149621548Y-113070910D01*
X149621539Y-113070913D01*
X149402844Y-113189265D01*
X149206608Y-113342002D01*
X149038184Y-113524958D01*
X148902175Y-113733137D01*
X148894756Y-113750052D01*
X148849800Y-113803538D01*
X148783064Y-113824227D01*
X148781201Y-113824241D01*
X148522996Y-113824241D01*
X148507379Y-113822517D01*
X148507352Y-113822803D01*
X148499590Y-113822068D01*
X148430462Y-113824241D01*
X148400909Y-113824241D01*
X148400188Y-113824331D01*
X148394016Y-113825110D01*
X148388204Y-113825567D01*
X148341631Y-113827031D01*
X148341628Y-113827032D01*
X148322385Y-113832622D01*
X148303342Y-113836566D01*
X148283463Y-113839077D01*
X148283462Y-113839078D01*
X148240137Y-113856231D01*
X148234611Y-113858123D01*
X148189867Y-113871124D01*
X148189863Y-113871126D01*
X148172624Y-113881321D01*
X148155157Y-113889878D01*
X148136528Y-113897253D01*
X148136526Y-113897254D01*
X148098823Y-113924647D01*
X148093941Y-113927853D01*
X148053839Y-113951569D01*
X148039667Y-113965741D01*
X148024882Y-113978369D01*
X148008671Y-113990148D01*
X147978968Y-114026051D01*
X147975036Y-114030372D01*
X146936208Y-115069199D01*
X146923951Y-115079020D01*
X146924134Y-115079241D01*
X146918123Y-115084213D01*
X146870772Y-115134636D01*
X146849889Y-115155519D01*
X146849877Y-115155532D01*
X146845621Y-115161017D01*
X146841837Y-115165447D01*
X146809937Y-115199418D01*
X146809936Y-115199420D01*
X146800284Y-115216976D01*
X146789610Y-115233226D01*
X146777329Y-115249061D01*
X146777324Y-115249068D01*
X146758815Y-115291838D01*
X146756245Y-115297084D01*
X146733803Y-115337906D01*
X146728822Y-115357307D01*
X146722521Y-115375710D01*
X146714562Y-115394102D01*
X146714561Y-115394105D01*
X146707271Y-115440127D01*
X146706087Y-115445846D01*
X146694501Y-115490972D01*
X146694500Y-115490982D01*
X146694500Y-115511016D01*
X146692973Y-115530413D01*
X146689840Y-115550196D01*
X146693831Y-115592415D01*
X146694225Y-115596583D01*
X146694500Y-115602421D01*
X146694500Y-124149547D01*
X146674815Y-124216586D01*
X146658181Y-124237228D01*
X146102228Y-124793181D01*
X146040905Y-124826666D01*
X146014547Y-124829500D01*
X145955354Y-124829500D01*
X145922897Y-124836398D01*
X145770197Y-124868855D01*
X145770192Y-124868857D01*
X145597270Y-124945848D01*
X145597265Y-124945851D01*
X145444129Y-125057111D01*
X145317466Y-125197785D01*
X145222821Y-125361715D01*
X145222818Y-125361722D01*
X145164327Y-125541740D01*
X145164326Y-125541744D01*
X145144540Y-125730000D01*
X106930500Y-125730000D01*
X106930500Y-118525507D01*
X110963549Y-118525507D01*
X110984144Y-118760910D01*
X110984146Y-118760920D01*
X111045302Y-118989162D01*
X111045304Y-118989166D01*
X111045305Y-118989170D01*
X111135242Y-119182039D01*
X111145173Y-119203337D01*
X111145175Y-119203341D01*
X111232936Y-119328675D01*
X111280713Y-119396908D01*
X111447807Y-119564002D01*
X111544592Y-119631772D01*
X111641373Y-119699539D01*
X111641375Y-119699540D01*
X111641378Y-119699542D01*
X111855545Y-119799410D01*
X112083800Y-119860570D01*
X112272126Y-119877046D01*
X112319207Y-119881166D01*
X112319208Y-119881166D01*
X112319209Y-119881166D01*
X112358442Y-119877733D01*
X112554616Y-119860570D01*
X112782871Y-119799410D01*
X112997038Y-119699542D01*
X113190609Y-119564002D01*
X113357703Y-119396908D01*
X113369542Y-119380000D01*
X129904540Y-119380000D01*
X129924326Y-119568256D01*
X129924327Y-119568259D01*
X129982818Y-119748277D01*
X129982821Y-119748284D01*
X130077467Y-119912216D01*
X130204129Y-120052888D01*
X130357265Y-120164148D01*
X130357270Y-120164151D01*
X130530191Y-120241142D01*
X130530194Y-120241142D01*
X130530197Y-120241144D01*
X130564221Y-120248375D01*
X130595329Y-120254988D01*
X130656811Y-120288180D01*
X130657230Y-120288597D01*
X131504267Y-121135634D01*
X131516048Y-121149266D01*
X131530390Y-121168530D01*
X131570420Y-121202119D01*
X131574392Y-121205759D01*
X131580223Y-121211590D01*
X131580222Y-121211590D01*
X131602027Y-121228830D01*
X131605944Y-121231927D01*
X131664786Y-121281302D01*
X131664794Y-121281306D01*
X131670824Y-121285273D01*
X131670790Y-121285323D01*
X131677137Y-121289366D01*
X131677169Y-121289316D01*
X131683318Y-121293108D01*
X131683320Y-121293109D01*
X131683323Y-121293111D01*
X131752930Y-121325569D01*
X131821567Y-121360040D01*
X131821576Y-121360042D01*
X131828355Y-121362510D01*
X131828334Y-121362567D01*
X131835451Y-121365040D01*
X131835470Y-121364984D01*
X131842330Y-121367257D01*
X131917532Y-121382784D01*
X131992279Y-121400500D01*
X131992288Y-121400500D01*
X131999452Y-121401338D01*
X131999445Y-121401397D01*
X132006946Y-121402163D01*
X132006952Y-121402104D01*
X132014140Y-121402733D01*
X132014143Y-121402732D01*
X132014144Y-121402733D01*
X132090898Y-121400500D01*
X139636295Y-121400500D01*
X139654265Y-121401809D01*
X139678023Y-121405289D01*
X139730068Y-121400735D01*
X139735470Y-121400500D01*
X139743704Y-121400500D01*
X139743709Y-121400500D01*
X139755327Y-121399141D01*
X139776276Y-121396693D01*
X139789028Y-121395577D01*
X139852797Y-121389999D01*
X139852805Y-121389996D01*
X139859866Y-121388539D01*
X139859878Y-121388598D01*
X139867243Y-121386965D01*
X139867229Y-121386906D01*
X139874246Y-121385241D01*
X139874255Y-121385241D01*
X139946423Y-121358974D01*
X140019334Y-121334814D01*
X140019343Y-121334807D01*
X140025882Y-121331760D01*
X140025908Y-121331816D01*
X140032690Y-121328532D01*
X140032663Y-121328478D01*
X140039106Y-121325240D01*
X140039117Y-121325237D01*
X140103283Y-121283034D01*
X140168656Y-121242712D01*
X140168662Y-121242705D01*
X140174325Y-121238229D01*
X140174363Y-121238277D01*
X140180200Y-121233522D01*
X140180161Y-121233475D01*
X140185696Y-121228830D01*
X140238385Y-121172982D01*
X145190457Y-116220910D01*
X160725638Y-100685727D01*
X160739267Y-100673950D01*
X160758530Y-100659610D01*
X160758532Y-100659606D01*
X160758534Y-100659606D01*
X160776663Y-100637999D01*
X160792113Y-100619585D01*
X160795767Y-100615599D01*
X160801591Y-100609776D01*
X160821930Y-100584052D01*
X160871302Y-100525214D01*
X160871306Y-100525205D01*
X160875274Y-100519175D01*
X160875325Y-100519208D01*
X160879369Y-100512860D01*
X160879317Y-100512828D01*
X160883104Y-100506685D01*
X160883111Y-100506677D01*
X160915572Y-100437063D01*
X160950040Y-100368433D01*
X160950041Y-100368427D01*
X160952508Y-100361650D01*
X160952566Y-100361671D01*
X160955043Y-100354544D01*
X160954986Y-100354526D01*
X160957255Y-100347679D01*
X160957256Y-100347674D01*
X160957257Y-100347672D01*
X160972790Y-100272441D01*
X160990500Y-100197721D01*
X160990500Y-100197719D01*
X160991339Y-100190548D01*
X160991398Y-100190554D01*
X160992164Y-100183054D01*
X160992105Y-100183049D01*
X160992734Y-100175859D01*
X160990500Y-100099082D01*
X160990500Y-81280000D01*
X171814540Y-81280000D01*
X171834326Y-81468256D01*
X171834327Y-81468259D01*
X171892818Y-81648277D01*
X171892821Y-81648284D01*
X171987467Y-81812216D01*
X172090830Y-81927012D01*
X172114129Y-81952888D01*
X172267265Y-82064148D01*
X172267270Y-82064151D01*
X172440192Y-82141142D01*
X172440197Y-82141144D01*
X172625354Y-82180500D01*
X172625355Y-82180500D01*
X172814644Y-82180500D01*
X172814646Y-82180500D01*
X172999803Y-82141144D01*
X173172730Y-82064151D01*
X173325871Y-81952888D01*
X173328788Y-81949647D01*
X173331600Y-81946526D01*
X173391087Y-81909879D01*
X173423748Y-81905500D01*
X180257257Y-81905500D01*
X180272877Y-81907224D01*
X180272904Y-81906939D01*
X180280660Y-81907671D01*
X180280667Y-81907673D01*
X180349814Y-81905500D01*
X180379350Y-81905500D01*
X180386228Y-81904630D01*
X180392041Y-81904172D01*
X180438627Y-81902709D01*
X180457869Y-81897117D01*
X180476912Y-81893174D01*
X180496792Y-81890664D01*
X180540122Y-81873507D01*
X180545646Y-81871617D01*
X180549396Y-81870527D01*
X180590390Y-81858618D01*
X180607629Y-81848422D01*
X180625103Y-81839862D01*
X180643727Y-81832488D01*
X180643727Y-81832487D01*
X180643732Y-81832486D01*
X180681449Y-81805082D01*
X180686305Y-81801892D01*
X180726420Y-81778170D01*
X180740589Y-81763999D01*
X180755379Y-81751368D01*
X180771587Y-81739594D01*
X180801299Y-81703676D01*
X180805212Y-81699376D01*
X185367772Y-77136819D01*
X185429095Y-77103334D01*
X185455453Y-77100500D01*
X185514644Y-77100500D01*
X185514646Y-77100500D01*
X185699803Y-77061144D01*
X185872730Y-76984151D01*
X186025871Y-76872888D01*
X186152533Y-76732216D01*
X186247179Y-76568284D01*
X186305674Y-76388256D01*
X186325460Y-76200000D01*
X186305674Y-76011744D01*
X186247179Y-75831716D01*
X186152533Y-75667784D01*
X186025871Y-75527112D01*
X186025870Y-75527111D01*
X185872734Y-75415851D01*
X185872729Y-75415848D01*
X185699807Y-75338857D01*
X185699802Y-75338855D01*
X185554001Y-75307865D01*
X185514646Y-75299500D01*
X185325354Y-75299500D01*
X185292897Y-75306398D01*
X185140197Y-75338855D01*
X185140192Y-75338857D01*
X184967270Y-75415848D01*
X184967265Y-75415851D01*
X184814129Y-75527111D01*
X184687466Y-75667785D01*
X184592821Y-75831715D01*
X184592818Y-75831722D01*
X184566496Y-75912734D01*
X184534326Y-76011744D01*
X184526405Y-76087105D01*
X184516678Y-76179651D01*
X184490093Y-76244266D01*
X184481038Y-76254370D01*
X180117228Y-80618181D01*
X180055905Y-80651666D01*
X180029547Y-80654500D01*
X173423748Y-80654500D01*
X173356709Y-80634815D01*
X173331600Y-80613474D01*
X173325873Y-80607114D01*
X173325869Y-80607110D01*
X173172734Y-80495851D01*
X173172729Y-80495848D01*
X172999807Y-80418857D01*
X172999802Y-80418855D01*
X172854001Y-80387865D01*
X172814646Y-80379500D01*
X172625354Y-80379500D01*
X172592897Y-80386398D01*
X172440197Y-80418855D01*
X172440192Y-80418857D01*
X172267270Y-80495848D01*
X172267265Y-80495851D01*
X172114129Y-80607111D01*
X171987466Y-80747785D01*
X171892821Y-80911715D01*
X171892818Y-80911722D01*
X171834327Y-81091740D01*
X171834326Y-81091744D01*
X171814540Y-81280000D01*
X160990500Y-81280000D01*
X160990500Y-76386662D01*
X161010185Y-76319623D01*
X161043379Y-76285086D01*
X161079140Y-76260046D01*
X161240045Y-76099141D01*
X161240047Y-76099139D01*
X161370568Y-75912734D01*
X161397618Y-75854724D01*
X161443790Y-75802285D01*
X161510983Y-75783133D01*
X161577865Y-75803348D01*
X161622382Y-75854725D01*
X161649429Y-75912728D01*
X161649432Y-75912734D01*
X161779954Y-76099141D01*
X161940858Y-76260045D01*
X161940861Y-76260047D01*
X162127266Y-76390568D01*
X162333504Y-76486739D01*
X162553308Y-76545635D01*
X162715230Y-76559801D01*
X162779998Y-76565468D01*
X162780000Y-76565468D01*
X162780002Y-76565468D01*
X162836673Y-76560509D01*
X163006692Y-76545635D01*
X163226496Y-76486739D01*
X163432734Y-76390568D01*
X163619139Y-76260047D01*
X163780047Y-76099139D01*
X163910568Y-75912734D01*
X163937618Y-75854724D01*
X163983790Y-75802285D01*
X164050983Y-75783133D01*
X164117865Y-75803348D01*
X164162382Y-75854725D01*
X164189429Y-75912728D01*
X164189432Y-75912734D01*
X164319954Y-76099141D01*
X164480858Y-76260045D01*
X164480861Y-76260047D01*
X164667266Y-76390568D01*
X164873504Y-76486739D01*
X165093308Y-76545635D01*
X165255230Y-76559801D01*
X165319998Y-76565468D01*
X165320000Y-76565468D01*
X165320002Y-76565468D01*
X165376673Y-76560509D01*
X165546692Y-76545635D01*
X165766496Y-76486739D01*
X165972734Y-76390568D01*
X166159139Y-76260047D01*
X166320047Y-76099139D01*
X166450568Y-75912734D01*
X166546739Y-75706496D01*
X166605635Y-75486692D01*
X166620500Y-75316784D01*
X166620500Y-74803216D01*
X166605635Y-74633308D01*
X166546739Y-74413504D01*
X166450568Y-74207266D01*
X166320047Y-74020861D01*
X166320045Y-74020858D01*
X166159141Y-73859954D01*
X165972734Y-73729432D01*
X165972732Y-73729431D01*
X165766497Y-73633261D01*
X165766488Y-73633258D01*
X165546697Y-73574366D01*
X165546693Y-73574365D01*
X165546692Y-73574365D01*
X165546691Y-73574364D01*
X165546686Y-73574364D01*
X165320002Y-73554532D01*
X165319998Y-73554532D01*
X165093313Y-73574364D01*
X165093302Y-73574366D01*
X164873511Y-73633258D01*
X164873502Y-73633261D01*
X164667267Y-73729431D01*
X164667265Y-73729432D01*
X164480858Y-73859954D01*
X164319954Y-74020858D01*
X164189432Y-74207265D01*
X164189431Y-74207267D01*
X164183131Y-74220778D01*
X164167051Y-74255263D01*
X164162382Y-74265275D01*
X164116209Y-74317714D01*
X164049016Y-74336866D01*
X163982135Y-74316650D01*
X163937618Y-74265275D01*
X163933131Y-74255652D01*
X163910568Y-74207266D01*
X163780047Y-74020861D01*
X163780045Y-74020858D01*
X163619141Y-73859954D01*
X163432734Y-73729432D01*
X163432732Y-73729431D01*
X163226497Y-73633261D01*
X163226488Y-73633258D01*
X163006697Y-73574366D01*
X163006693Y-73574365D01*
X163006692Y-73574365D01*
X163006691Y-73574364D01*
X163006686Y-73574364D01*
X162780002Y-73554532D01*
X162779998Y-73554532D01*
X162553313Y-73574364D01*
X162553302Y-73574366D01*
X162333511Y-73633258D01*
X162333502Y-73633261D01*
X162127267Y-73729431D01*
X162127265Y-73729432D01*
X161940858Y-73859954D01*
X161779954Y-74020858D01*
X161649432Y-74207265D01*
X161649431Y-74207267D01*
X161643131Y-74220778D01*
X161627051Y-74255263D01*
X161622382Y-74265275D01*
X161576209Y-74317714D01*
X161509016Y-74336866D01*
X161442135Y-74316650D01*
X161397618Y-74265275D01*
X161393131Y-74255652D01*
X161370568Y-74207266D01*
X161240047Y-74020861D01*
X161240045Y-74020858D01*
X161079141Y-73859954D01*
X160892734Y-73729432D01*
X160892732Y-73729431D01*
X160686497Y-73633261D01*
X160686488Y-73633258D01*
X160466697Y-73574366D01*
X160466693Y-73574365D01*
X160466692Y-73574365D01*
X160466691Y-73574364D01*
X160466686Y-73574364D01*
X160240002Y-73554532D01*
X160239998Y-73554532D01*
X160013313Y-73574364D01*
X160013302Y-73574366D01*
X159793511Y-73633258D01*
X159793502Y-73633261D01*
X159587267Y-73729431D01*
X159587265Y-73729432D01*
X159400858Y-73859954D01*
X159239954Y-74020858D01*
X159121662Y-74189799D01*
X159109432Y-74207266D01*
X159087051Y-74255263D01*
X159082106Y-74265867D01*
X159035933Y-74318306D01*
X158968739Y-74337457D01*
X158901858Y-74317241D01*
X158857342Y-74265865D01*
X158830135Y-74207520D01*
X158830134Y-74207518D01*
X158699657Y-74021179D01*
X158538820Y-73860342D01*
X158352482Y-73729865D01*
X158146328Y-73633734D01*
X157950000Y-73581127D01*
X157950000Y-74624498D01*
X157842315Y-74575320D01*
X157735763Y-74560000D01*
X157664237Y-74560000D01*
X157557685Y-74575320D01*
X157450000Y-74624498D01*
X157450000Y-73581127D01*
X157253671Y-73633734D01*
X157047517Y-73729865D01*
X156861179Y-73860342D01*
X156700342Y-74021179D01*
X156569865Y-74207517D01*
X156473734Y-74413673D01*
X156473730Y-74413682D01*
X156414860Y-74633389D01*
X156414858Y-74633400D01*
X156400000Y-74803237D01*
X156400000Y-74810000D01*
X157266314Y-74810000D01*
X157240507Y-74850156D01*
X157200000Y-74988111D01*
X157200000Y-75131889D01*
X157240507Y-75269844D01*
X157266314Y-75310000D01*
X156400000Y-75310000D01*
X156400000Y-75316763D01*
X156414858Y-75486599D01*
X156414860Y-75486610D01*
X156473730Y-75706317D01*
X156473734Y-75706326D01*
X156569865Y-75912482D01*
X156700342Y-76098820D01*
X156861179Y-76259657D01*
X157047517Y-76390134D01*
X157253673Y-76486265D01*
X157253682Y-76486269D01*
X157449999Y-76538872D01*
X157450000Y-76538871D01*
X157450000Y-75495501D01*
X157557685Y-75544680D01*
X157664237Y-75560000D01*
X157735763Y-75560000D01*
X157842315Y-75544680D01*
X157950000Y-75495501D01*
X157950000Y-76538872D01*
X158146317Y-76486269D01*
X158146326Y-76486265D01*
X158352482Y-76390134D01*
X158538820Y-76259657D01*
X158699657Y-76098820D01*
X158830132Y-75912484D01*
X158857341Y-75854134D01*
X158903513Y-75801695D01*
X158970707Y-75782542D01*
X159037588Y-75802757D01*
X159082106Y-75854133D01*
X159109431Y-75912732D01*
X159109432Y-75912734D01*
X159239954Y-76099141D01*
X159400859Y-76260046D01*
X159436621Y-76285086D01*
X159480247Y-76339662D01*
X159489500Y-76386662D01*
X159489500Y-99747770D01*
X159469815Y-99814809D01*
X159453181Y-99835451D01*
X139425451Y-119863181D01*
X139364128Y-119896666D01*
X139337770Y-119899500D01*
X138504746Y-119899500D01*
X138437707Y-119879815D01*
X138391952Y-119827011D01*
X138382008Y-119757853D01*
X138411033Y-119694297D01*
X138433623Y-119673925D01*
X138463282Y-119653157D01*
X138590609Y-119564002D01*
X138757703Y-119396908D01*
X138893243Y-119203337D01*
X138993111Y-118989170D01*
X139054271Y-118760915D01*
X139074867Y-118525507D01*
X139074305Y-118519089D01*
X139054271Y-118290103D01*
X139054271Y-118290099D01*
X138993111Y-118061844D01*
X138893243Y-117847678D01*
X138891192Y-117844748D01*
X138757702Y-117654104D01*
X138590610Y-117487013D01*
X138590604Y-117487008D01*
X138405050Y-117357082D01*
X138361425Y-117302505D01*
X138354231Y-117233007D01*
X138385754Y-117170652D01*
X138405050Y-117153932D01*
X138427234Y-117138398D01*
X138590609Y-117024002D01*
X138757703Y-116856908D01*
X138893243Y-116663337D01*
X138993111Y-116449170D01*
X139054271Y-116220915D01*
X139074867Y-115985507D01*
X139054271Y-115750099D01*
X138993111Y-115521844D01*
X138893243Y-115307678D01*
X138852202Y-115249064D01*
X138757702Y-115114104D01*
X138590610Y-114947013D01*
X138590604Y-114947008D01*
X138405050Y-114817082D01*
X138361425Y-114762505D01*
X138354231Y-114693007D01*
X138385754Y-114630652D01*
X138405050Y-114613932D01*
X138427234Y-114598398D01*
X138590609Y-114484002D01*
X138757703Y-114316908D01*
X138893243Y-114123337D01*
X138993111Y-113909170D01*
X139054271Y-113680915D01*
X139074867Y-113445507D01*
X139054271Y-113210099D01*
X138993111Y-112981844D01*
X138893243Y-112767678D01*
X138757703Y-112574106D01*
X138757702Y-112574104D01*
X138590610Y-112407013D01*
X138590604Y-112407008D01*
X138405050Y-112277082D01*
X138361425Y-112222505D01*
X138354231Y-112153007D01*
X138385754Y-112090652D01*
X138405050Y-112073932D01*
X138427234Y-112058398D01*
X138590609Y-111944002D01*
X138757703Y-111776908D01*
X138893243Y-111583337D01*
X138993111Y-111369170D01*
X139054271Y-111140915D01*
X139074867Y-110905507D01*
X139054271Y-110670099D01*
X138993111Y-110441844D01*
X138893243Y-110227678D01*
X138757703Y-110034106D01*
X138757702Y-110034104D01*
X138590610Y-109867013D01*
X138590604Y-109867008D01*
X138405050Y-109737082D01*
X138361425Y-109682505D01*
X138354231Y-109613007D01*
X138385754Y-109550652D01*
X138405050Y-109533932D01*
X138427234Y-109518398D01*
X138590609Y-109404002D01*
X138757703Y-109236908D01*
X138893243Y-109043337D01*
X138993111Y-108829170D01*
X139054271Y-108600915D01*
X139074867Y-108365507D01*
X139054271Y-108130099D01*
X138993111Y-107901844D01*
X138893243Y-107687678D01*
X138757703Y-107494106D01*
X138757702Y-107494104D01*
X138590610Y-107327013D01*
X138590604Y-107327008D01*
X138405050Y-107197082D01*
X138361425Y-107142505D01*
X138354231Y-107073007D01*
X138385754Y-107010652D01*
X138405050Y-106993932D01*
X138427234Y-106978398D01*
X138590609Y-106864002D01*
X138757703Y-106696908D01*
X138893243Y-106503337D01*
X138993111Y-106289170D01*
X139054271Y-106060915D01*
X139074867Y-105825507D01*
X139054271Y-105590099D01*
X138993111Y-105361844D01*
X138893243Y-105147678D01*
X138757703Y-104954106D01*
X138757702Y-104954104D01*
X138590610Y-104787013D01*
X138590604Y-104787008D01*
X138405050Y-104657082D01*
X138361425Y-104602505D01*
X138354231Y-104533007D01*
X138385754Y-104470652D01*
X138405050Y-104453932D01*
X138427234Y-104438398D01*
X138590609Y-104324002D01*
X138757703Y-104156908D01*
X138893243Y-103963337D01*
X138993111Y-103749170D01*
X139054271Y-103520915D01*
X139074867Y-103285507D01*
X139054271Y-103050099D01*
X138993111Y-102821844D01*
X138893243Y-102607678D01*
X138757703Y-102414106D01*
X138757702Y-102414104D01*
X138590610Y-102247013D01*
X138590604Y-102247008D01*
X138405050Y-102117082D01*
X138361425Y-102062505D01*
X138354231Y-101993007D01*
X138385754Y-101930652D01*
X138405050Y-101913932D01*
X138427234Y-101898398D01*
X138590609Y-101784002D01*
X138757703Y-101616908D01*
X138893243Y-101423337D01*
X138993111Y-101209170D01*
X139054271Y-100980915D01*
X139074867Y-100745507D01*
X139054271Y-100510099D01*
X138993111Y-100281844D01*
X138893243Y-100067678D01*
X138757703Y-99874106D01*
X138757702Y-99874104D01*
X138590610Y-99707013D01*
X138590604Y-99707008D01*
X138405050Y-99577082D01*
X138361425Y-99522505D01*
X138354231Y-99453007D01*
X138385754Y-99390652D01*
X138405050Y-99373932D01*
X138427234Y-99358398D01*
X138590609Y-99244002D01*
X138757703Y-99076908D01*
X138893243Y-98883337D01*
X138993111Y-98669170D01*
X139054271Y-98440915D01*
X139074867Y-98205507D01*
X139054271Y-97970099D01*
X138993111Y-97741844D01*
X138893243Y-97527678D01*
X138757703Y-97334106D01*
X138757702Y-97334104D01*
X138590610Y-97167013D01*
X138590604Y-97167008D01*
X138405050Y-97037082D01*
X138361425Y-96982505D01*
X138354231Y-96913007D01*
X138385754Y-96850652D01*
X138405050Y-96833932D01*
X138427234Y-96818398D01*
X138590609Y-96704002D01*
X138757703Y-96536908D01*
X138893243Y-96343337D01*
X138993111Y-96129170D01*
X139054271Y-95900915D01*
X139074867Y-95665507D01*
X139054271Y-95430099D01*
X138993111Y-95201844D01*
X138893243Y-94987678D01*
X138757703Y-94794106D01*
X138757702Y-94794104D01*
X138590610Y-94627013D01*
X138590604Y-94627008D01*
X138405050Y-94497082D01*
X138361425Y-94442505D01*
X138354231Y-94373007D01*
X138385754Y-94310652D01*
X138405050Y-94293932D01*
X138427234Y-94278398D01*
X138590609Y-94164002D01*
X138757703Y-93996908D01*
X138893243Y-93803337D01*
X138993111Y-93589170D01*
X139054271Y-93360915D01*
X139074867Y-93125507D01*
X139054271Y-92890099D01*
X138993111Y-92661844D01*
X138893243Y-92447678D01*
X138757703Y-92254106D01*
X138757702Y-92254104D01*
X138590610Y-92087013D01*
X138590604Y-92087008D01*
X138405050Y-91957082D01*
X138361425Y-91902505D01*
X138354231Y-91833007D01*
X138385754Y-91770652D01*
X138405050Y-91753932D01*
X138427234Y-91738398D01*
X138590609Y-91624002D01*
X138757703Y-91456908D01*
X138893243Y-91263337D01*
X138993111Y-91049170D01*
X139054271Y-90820915D01*
X139074867Y-90585507D01*
X139054271Y-90350099D01*
X138993111Y-90121844D01*
X138893243Y-89907678D01*
X138757703Y-89714106D01*
X138757702Y-89714104D01*
X138590610Y-89547013D01*
X138590609Y-89547012D01*
X138404613Y-89416776D01*
X138360989Y-89362199D01*
X138353796Y-89292700D01*
X138385318Y-89230346D01*
X138404613Y-89213626D01*
X138590290Y-89083612D01*
X138757313Y-88916589D01*
X138892808Y-88723085D01*
X138992637Y-88508999D01*
X138992640Y-88508993D01*
X139049844Y-88295507D01*
X138152894Y-88295507D01*
X138178701Y-88255351D01*
X138219208Y-88117396D01*
X138219208Y-87973618D01*
X138178701Y-87835663D01*
X138152894Y-87795507D01*
X139049844Y-87795507D01*
X139049843Y-87795506D01*
X138992640Y-87582020D01*
X138992637Y-87582014D01*
X138892808Y-87367929D01*
X138892807Y-87367927D01*
X138757321Y-87174433D01*
X138757316Y-87174427D01*
X138590286Y-87007397D01*
X138404613Y-86877386D01*
X138360988Y-86822809D01*
X138353796Y-86753311D01*
X138385318Y-86690956D01*
X138404614Y-86674237D01*
X138405050Y-86673932D01*
X138590609Y-86544002D01*
X138757703Y-86376908D01*
X138893243Y-86183337D01*
X138993111Y-85969170D01*
X139054271Y-85740915D01*
X139074867Y-85505507D01*
X139054271Y-85270099D01*
X138993111Y-85041844D01*
X138893243Y-84827678D01*
X138757703Y-84634106D01*
X138757702Y-84634104D01*
X138590610Y-84467013D01*
X138590604Y-84467008D01*
X138405050Y-84337082D01*
X138361425Y-84282505D01*
X138354231Y-84213007D01*
X138385754Y-84150652D01*
X138405050Y-84133932D01*
X138427234Y-84118398D01*
X138590609Y-84004002D01*
X138757703Y-83836908D01*
X138893243Y-83643337D01*
X138993111Y-83429170D01*
X139054271Y-83200915D01*
X139074867Y-82965507D01*
X139054271Y-82730099D01*
X138993111Y-82501844D01*
X138893243Y-82287678D01*
X138818197Y-82180500D01*
X138757702Y-82094104D01*
X138590610Y-81927013D01*
X138590604Y-81927008D01*
X138405050Y-81797082D01*
X138361425Y-81742505D01*
X138354231Y-81673007D01*
X138385754Y-81610652D01*
X138405050Y-81593932D01*
X138584529Y-81468259D01*
X138590609Y-81464002D01*
X138757703Y-81296908D01*
X138893243Y-81103337D01*
X138993111Y-80889170D01*
X139054271Y-80660915D01*
X139074867Y-80425507D01*
X139054271Y-80190099D01*
X138993111Y-79961844D01*
X138893243Y-79747678D01*
X138757703Y-79554106D01*
X138757702Y-79554104D01*
X138590610Y-79387013D01*
X138590604Y-79387008D01*
X138405050Y-79257082D01*
X138361425Y-79202505D01*
X138354231Y-79133007D01*
X138385754Y-79070652D01*
X138405050Y-79053932D01*
X138427234Y-79038398D01*
X138590609Y-78924002D01*
X138757703Y-78756908D01*
X138893243Y-78563337D01*
X138993111Y-78349170D01*
X139054271Y-78120915D01*
X139074867Y-77885507D01*
X139054271Y-77650099D01*
X138993111Y-77421844D01*
X138893243Y-77207678D01*
X138843628Y-77136819D01*
X138757702Y-77014104D01*
X138590610Y-76847013D01*
X138590604Y-76847008D01*
X138405050Y-76717082D01*
X138361425Y-76662505D01*
X138354231Y-76593007D01*
X138385754Y-76530652D01*
X138405050Y-76513932D01*
X138444562Y-76486265D01*
X138590609Y-76384002D01*
X138757703Y-76216908D01*
X138893243Y-76023337D01*
X138993111Y-75809170D01*
X139054271Y-75580915D01*
X139074867Y-75345507D01*
X139054271Y-75110099D01*
X138993111Y-74881844D01*
X138893243Y-74667678D01*
X138870395Y-74635048D01*
X138757704Y-74474107D01*
X138697099Y-74413502D01*
X138635387Y-74351790D01*
X138601904Y-74290470D01*
X138606888Y-74220778D01*
X138648759Y-74164844D01*
X138679737Y-74147929D01*
X138811294Y-74098861D01*
X138811301Y-74098857D01*
X138926395Y-74012697D01*
X138926398Y-74012694D01*
X139012558Y-73897600D01*
X139012562Y-73897593D01*
X139062804Y-73762886D01*
X139062806Y-73762879D01*
X139069207Y-73703351D01*
X139069208Y-73703334D01*
X139069208Y-73055507D01*
X138152894Y-73055507D01*
X138178701Y-73015351D01*
X138219208Y-72877396D01*
X138219208Y-72733618D01*
X138178701Y-72595663D01*
X138152894Y-72555507D01*
X139069208Y-72555507D01*
X139069208Y-71907679D01*
X139069207Y-71907662D01*
X139062806Y-71848134D01*
X139062804Y-71848127D01*
X139012562Y-71713420D01*
X139012558Y-71713413D01*
X138926398Y-71598319D01*
X138926395Y-71598316D01*
X138811301Y-71512156D01*
X138811294Y-71512152D01*
X138676587Y-71461910D01*
X138676580Y-71461908D01*
X138617052Y-71455507D01*
X137969208Y-71455507D01*
X137969208Y-72370005D01*
X137861523Y-72320827D01*
X137754971Y-72305507D01*
X137683445Y-72305507D01*
X137576893Y-72320827D01*
X137469208Y-72370005D01*
X137469208Y-71455507D01*
X136821363Y-71455507D01*
X136761835Y-71461908D01*
X136761828Y-71461910D01*
X136627121Y-71512152D01*
X136627114Y-71512156D01*
X136512020Y-71598316D01*
X136512017Y-71598319D01*
X136425857Y-71713413D01*
X136425853Y-71713420D01*
X136375611Y-71848127D01*
X136375609Y-71848134D01*
X136369208Y-71907662D01*
X136369208Y-72555507D01*
X137285522Y-72555507D01*
X137259715Y-72595663D01*
X137219208Y-72733618D01*
X137219208Y-72877396D01*
X137259715Y-73015351D01*
X137285522Y-73055507D01*
X136369208Y-73055507D01*
X136369208Y-73703351D01*
X136375609Y-73762879D01*
X136375611Y-73762886D01*
X136425853Y-73897593D01*
X136425857Y-73897600D01*
X136512017Y-74012694D01*
X136512020Y-74012697D01*
X136627114Y-74098857D01*
X136627121Y-74098861D01*
X136758678Y-74147928D01*
X136814611Y-74189799D01*
X136839029Y-74255263D01*
X136824178Y-74323536D01*
X136803027Y-74351791D01*
X136680711Y-74474107D01*
X136545173Y-74667676D01*
X136545172Y-74667678D01*
X136445306Y-74881842D01*
X136445302Y-74881851D01*
X136384146Y-75110093D01*
X136384144Y-75110103D01*
X136363549Y-75345506D01*
X136363549Y-75345507D01*
X136384144Y-75580910D01*
X136384146Y-75580920D01*
X136445302Y-75809162D01*
X136445304Y-75809166D01*
X136445305Y-75809170D01*
X136493595Y-75912728D01*
X136545173Y-76023337D01*
X136545175Y-76023341D01*
X136680709Y-76216902D01*
X136680714Y-76216909D01*
X136847805Y-76384000D01*
X136847811Y-76384005D01*
X137033366Y-76513932D01*
X137076991Y-76568509D01*
X137084185Y-76638007D01*
X137052662Y-76700362D01*
X137033366Y-76717082D01*
X136847805Y-76847012D01*
X136680713Y-77014104D01*
X136545173Y-77207676D01*
X136545172Y-77207678D01*
X136445306Y-77421842D01*
X136445302Y-77421851D01*
X136384146Y-77650093D01*
X136384144Y-77650103D01*
X136363549Y-77885506D01*
X136363549Y-77885507D01*
X136384144Y-78120910D01*
X136384146Y-78120920D01*
X136445302Y-78349162D01*
X136445304Y-78349166D01*
X136445305Y-78349170D01*
X136545173Y-78563337D01*
X136545175Y-78563341D01*
X136680709Y-78756902D01*
X136680714Y-78756909D01*
X136847805Y-78924000D01*
X136847811Y-78924005D01*
X137033366Y-79053932D01*
X137076991Y-79108509D01*
X137084185Y-79178007D01*
X137052662Y-79240362D01*
X137033366Y-79257082D01*
X136847805Y-79387012D01*
X136680713Y-79554104D01*
X136545173Y-79747676D01*
X136545172Y-79747678D01*
X136445306Y-79961842D01*
X136445302Y-79961851D01*
X136384146Y-80190093D01*
X136384144Y-80190103D01*
X136363549Y-80425506D01*
X136363549Y-80425507D01*
X136384144Y-80660910D01*
X136384146Y-80660920D01*
X136445302Y-80889162D01*
X136445304Y-80889166D01*
X136445305Y-80889170D01*
X136539765Y-81091740D01*
X136545173Y-81103337D01*
X136545175Y-81103341D01*
X136680709Y-81296902D01*
X136680714Y-81296909D01*
X136847805Y-81464000D01*
X136847811Y-81464005D01*
X137033366Y-81593932D01*
X137076991Y-81648509D01*
X137084185Y-81718007D01*
X137052662Y-81780362D01*
X137033366Y-81797082D01*
X136847805Y-81927012D01*
X136680713Y-82094104D01*
X136545173Y-82287676D01*
X136545172Y-82287678D01*
X136445306Y-82501842D01*
X136445302Y-82501851D01*
X136384146Y-82730093D01*
X136384144Y-82730103D01*
X136363549Y-82965506D01*
X136363549Y-82965507D01*
X136384144Y-83200910D01*
X136384146Y-83200920D01*
X136445302Y-83429162D01*
X136445304Y-83429166D01*
X136445305Y-83429170D01*
X136545173Y-83643337D01*
X136545175Y-83643341D01*
X136680709Y-83836902D01*
X136680714Y-83836909D01*
X136847805Y-84004000D01*
X136847811Y-84004005D01*
X137033366Y-84133932D01*
X137076991Y-84188509D01*
X137084185Y-84258007D01*
X137052662Y-84320362D01*
X137033366Y-84337082D01*
X136847805Y-84467012D01*
X136680713Y-84634104D01*
X136545173Y-84827676D01*
X136545172Y-84827678D01*
X136445306Y-85041842D01*
X136445302Y-85041851D01*
X136384146Y-85270093D01*
X136384144Y-85270103D01*
X136363549Y-85505506D01*
X136363549Y-85505507D01*
X136384144Y-85740910D01*
X136384146Y-85740920D01*
X136445302Y-85969162D01*
X136445304Y-85969166D01*
X136445305Y-85969170D01*
X136545173Y-86183337D01*
X136545175Y-86183341D01*
X136680709Y-86376902D01*
X136680714Y-86376909D01*
X136847805Y-86544000D01*
X136847811Y-86544005D01*
X137033802Y-86674237D01*
X137077427Y-86728814D01*
X137084621Y-86798312D01*
X137053098Y-86860667D01*
X137033803Y-86877387D01*
X136848130Y-87007397D01*
X136848128Y-87007398D01*
X136681099Y-87174427D01*
X136681094Y-87174433D01*
X136545608Y-87367927D01*
X136545607Y-87367929D01*
X136445778Y-87582014D01*
X136445775Y-87582020D01*
X136388572Y-87795506D01*
X136388572Y-87795507D01*
X137285522Y-87795507D01*
X137259715Y-87835663D01*
X137219208Y-87973618D01*
X137219208Y-88117396D01*
X137259715Y-88255351D01*
X137285522Y-88295507D01*
X136388572Y-88295507D01*
X136445775Y-88508993D01*
X136445778Y-88508999D01*
X136545607Y-88723085D01*
X136681102Y-88916589D01*
X136848125Y-89083612D01*
X137033803Y-89213626D01*
X137077427Y-89268203D01*
X137084620Y-89337702D01*
X137053098Y-89400056D01*
X137033803Y-89416776D01*
X136847802Y-89547015D01*
X136680713Y-89714104D01*
X136545173Y-89907676D01*
X136545172Y-89907678D01*
X136445306Y-90121842D01*
X136445302Y-90121851D01*
X136384146Y-90350093D01*
X136384144Y-90350103D01*
X136363549Y-90585506D01*
X136363549Y-90585507D01*
X136384144Y-90820910D01*
X136384146Y-90820920D01*
X136445302Y-91049162D01*
X136445304Y-91049166D01*
X136445305Y-91049170D01*
X136545173Y-91263337D01*
X136545175Y-91263341D01*
X136680709Y-91456902D01*
X136680714Y-91456909D01*
X136847805Y-91624000D01*
X136847811Y-91624005D01*
X137033366Y-91753932D01*
X137076991Y-91808509D01*
X137084185Y-91878007D01*
X137052662Y-91940362D01*
X137033366Y-91957082D01*
X136847805Y-92087012D01*
X136680713Y-92254104D01*
X136545173Y-92447676D01*
X136545172Y-92447678D01*
X136445306Y-92661842D01*
X136445302Y-92661851D01*
X136384146Y-92890093D01*
X136384144Y-92890103D01*
X136363549Y-93125506D01*
X136363549Y-93125507D01*
X136384144Y-93360910D01*
X136384146Y-93360920D01*
X136445302Y-93589162D01*
X136445304Y-93589166D01*
X136445305Y-93589170D01*
X136545173Y-93803337D01*
X136545175Y-93803341D01*
X136680709Y-93996902D01*
X136680714Y-93996909D01*
X136847805Y-94164000D01*
X136847811Y-94164005D01*
X137033366Y-94293932D01*
X137076991Y-94348509D01*
X137084185Y-94418007D01*
X137052662Y-94480362D01*
X137033366Y-94497082D01*
X136847805Y-94627012D01*
X136680713Y-94794104D01*
X136545173Y-94987676D01*
X136545172Y-94987678D01*
X136445306Y-95201842D01*
X136445302Y-95201851D01*
X136384146Y-95430093D01*
X136384144Y-95430103D01*
X136363549Y-95665506D01*
X136363549Y-95665507D01*
X136384144Y-95900910D01*
X136384146Y-95900920D01*
X136445302Y-96129162D01*
X136445304Y-96129166D01*
X136445305Y-96129170D01*
X136545173Y-96343337D01*
X136545175Y-96343341D01*
X136680709Y-96536902D01*
X136680714Y-96536909D01*
X136847805Y-96704000D01*
X136847811Y-96704005D01*
X137033366Y-96833932D01*
X137076991Y-96888509D01*
X137084185Y-96958007D01*
X137052662Y-97020362D01*
X137033366Y-97037082D01*
X136847805Y-97167012D01*
X136680713Y-97334104D01*
X136545173Y-97527676D01*
X136545172Y-97527678D01*
X136445306Y-97741842D01*
X136445302Y-97741851D01*
X136384146Y-97970093D01*
X136384144Y-97970103D01*
X136363549Y-98205506D01*
X136363549Y-98205507D01*
X136384144Y-98440910D01*
X136384146Y-98440920D01*
X136445302Y-98669162D01*
X136445304Y-98669166D01*
X136445305Y-98669170D01*
X136545173Y-98883337D01*
X136545175Y-98883341D01*
X136680709Y-99076902D01*
X136680714Y-99076909D01*
X136847805Y-99244000D01*
X136847811Y-99244005D01*
X137033366Y-99373932D01*
X137076991Y-99428509D01*
X137084185Y-99498007D01*
X137052662Y-99560362D01*
X137033366Y-99577082D01*
X136847805Y-99707012D01*
X136680713Y-99874104D01*
X136545173Y-100067676D01*
X136545172Y-100067678D01*
X136445306Y-100281842D01*
X136445302Y-100281851D01*
X136384146Y-100510093D01*
X136384144Y-100510103D01*
X136363549Y-100745506D01*
X136363549Y-100745507D01*
X136384144Y-100980910D01*
X136384146Y-100980920D01*
X136445302Y-101209162D01*
X136445304Y-101209166D01*
X136445305Y-101209170D01*
X136545173Y-101423337D01*
X136545175Y-101423341D01*
X136680709Y-101616902D01*
X136680714Y-101616909D01*
X136847805Y-101784000D01*
X136847811Y-101784005D01*
X137033366Y-101913932D01*
X137076991Y-101968509D01*
X137084185Y-102038007D01*
X137052662Y-102100362D01*
X137033366Y-102117082D01*
X136847805Y-102247012D01*
X136680713Y-102414104D01*
X136545173Y-102607676D01*
X136545172Y-102607678D01*
X136445306Y-102821842D01*
X136445302Y-102821851D01*
X136384146Y-103050093D01*
X136384144Y-103050103D01*
X136363549Y-103285506D01*
X136363549Y-103285507D01*
X136384144Y-103520910D01*
X136384146Y-103520920D01*
X136445302Y-103749162D01*
X136445304Y-103749166D01*
X136445305Y-103749170D01*
X136545173Y-103963337D01*
X136545175Y-103963341D01*
X136680709Y-104156902D01*
X136680714Y-104156909D01*
X136847805Y-104324000D01*
X136847811Y-104324005D01*
X137033366Y-104453932D01*
X137076991Y-104508509D01*
X137084185Y-104578007D01*
X137052662Y-104640362D01*
X137033366Y-104657082D01*
X136847805Y-104787012D01*
X136680713Y-104954104D01*
X136545173Y-105147676D01*
X136545172Y-105147678D01*
X136445306Y-105361842D01*
X136445302Y-105361851D01*
X136384146Y-105590093D01*
X136384144Y-105590103D01*
X136363549Y-105825506D01*
X136363549Y-105825507D01*
X136384144Y-106060910D01*
X136384146Y-106060920D01*
X136445302Y-106289162D01*
X136445304Y-106289166D01*
X136445305Y-106289170D01*
X136545055Y-106503085D01*
X136545173Y-106503337D01*
X136545175Y-106503341D01*
X136680709Y-106696902D01*
X136680714Y-106696909D01*
X136847805Y-106864000D01*
X136847811Y-106864005D01*
X137033366Y-106993932D01*
X137076991Y-107048509D01*
X137084185Y-107118007D01*
X137052662Y-107180362D01*
X137033366Y-107197082D01*
X136847805Y-107327012D01*
X136680713Y-107494104D01*
X136545173Y-107687676D01*
X136545172Y-107687678D01*
X136445306Y-107901842D01*
X136445302Y-107901851D01*
X136384146Y-108130093D01*
X136384144Y-108130103D01*
X136363549Y-108365506D01*
X136363549Y-108365507D01*
X136384144Y-108600910D01*
X136384146Y-108600920D01*
X136445302Y-108829162D01*
X136445304Y-108829166D01*
X136445305Y-108829170D01*
X136545173Y-109043337D01*
X136545175Y-109043341D01*
X136680709Y-109236902D01*
X136680714Y-109236909D01*
X136847805Y-109404000D01*
X136847811Y-109404005D01*
X137033366Y-109533932D01*
X137076991Y-109588509D01*
X137084185Y-109658007D01*
X137052662Y-109720362D01*
X137033366Y-109737082D01*
X136847805Y-109867012D01*
X136680713Y-110034104D01*
X136545173Y-110227676D01*
X136545172Y-110227678D01*
X136445306Y-110441842D01*
X136445302Y-110441851D01*
X136384146Y-110670093D01*
X136384144Y-110670103D01*
X136363549Y-110905506D01*
X136363549Y-110905507D01*
X136384144Y-111140910D01*
X136384146Y-111140920D01*
X136445302Y-111369162D01*
X136445304Y-111369166D01*
X136445305Y-111369170D01*
X136545173Y-111583337D01*
X136545175Y-111583341D01*
X136680709Y-111776902D01*
X136680714Y-111776909D01*
X136847805Y-111944000D01*
X136847811Y-111944005D01*
X137033366Y-112073932D01*
X137076991Y-112128509D01*
X137084185Y-112198007D01*
X137052662Y-112260362D01*
X137033366Y-112277082D01*
X136847805Y-112407012D01*
X136680713Y-112574104D01*
X136545173Y-112767676D01*
X136545172Y-112767678D01*
X136445306Y-112981842D01*
X136445302Y-112981851D01*
X136384146Y-113210093D01*
X136384144Y-113210103D01*
X136363549Y-113445506D01*
X136363549Y-113445507D01*
X136384144Y-113680910D01*
X136384146Y-113680920D01*
X136445302Y-113909162D01*
X136445304Y-113909166D01*
X136445305Y-113909170D01*
X136501823Y-114030372D01*
X136545173Y-114123337D01*
X136545175Y-114123341D01*
X136680709Y-114316902D01*
X136680714Y-114316909D01*
X136847805Y-114484000D01*
X136847811Y-114484005D01*
X137033366Y-114613932D01*
X137076991Y-114668509D01*
X137084185Y-114738007D01*
X137052662Y-114800362D01*
X137033366Y-114817082D01*
X136847805Y-114947012D01*
X136680713Y-115114104D01*
X136545173Y-115307676D01*
X136545172Y-115307678D01*
X136445306Y-115521842D01*
X136445302Y-115521851D01*
X136384146Y-115750093D01*
X136384144Y-115750103D01*
X136363549Y-115985506D01*
X136363549Y-115985507D01*
X136384144Y-116220910D01*
X136384146Y-116220920D01*
X136445302Y-116449162D01*
X136445304Y-116449166D01*
X136445305Y-116449170D01*
X136545173Y-116663337D01*
X136545175Y-116663341D01*
X136680709Y-116856902D01*
X136680714Y-116856909D01*
X136847805Y-117024000D01*
X136847811Y-117024005D01*
X137033366Y-117153932D01*
X137076991Y-117208509D01*
X137084185Y-117278007D01*
X137052662Y-117340362D01*
X137033366Y-117357082D01*
X136847805Y-117487012D01*
X136680713Y-117654104D01*
X136545173Y-117847676D01*
X136545172Y-117847678D01*
X136445306Y-118061842D01*
X136445302Y-118061851D01*
X136384146Y-118290093D01*
X136384144Y-118290103D01*
X136363549Y-118525506D01*
X136363549Y-118525507D01*
X136384144Y-118760910D01*
X136384146Y-118760920D01*
X136445302Y-118989162D01*
X136445304Y-118989166D01*
X136445305Y-118989170D01*
X136535242Y-119182039D01*
X136545173Y-119203337D01*
X136545175Y-119203341D01*
X136680709Y-119396902D01*
X136680714Y-119396909D01*
X136847805Y-119564000D01*
X136847811Y-119564005D01*
X137004793Y-119673925D01*
X137048418Y-119728502D01*
X137055612Y-119798000D01*
X137024089Y-119860355D01*
X136963859Y-119895769D01*
X136933670Y-119899500D01*
X132442230Y-119899500D01*
X132375191Y-119879815D01*
X132354549Y-119863181D01*
X131722770Y-119231402D01*
X131692521Y-119182041D01*
X131637179Y-119011716D01*
X131542533Y-118847784D01*
X131415871Y-118707112D01*
X131374076Y-118676746D01*
X131262734Y-118595851D01*
X131262729Y-118595848D01*
X131089807Y-118518857D01*
X131089802Y-118518855D01*
X130944001Y-118487865D01*
X130904646Y-118479500D01*
X130715354Y-118479500D01*
X130682897Y-118486398D01*
X130530197Y-118518855D01*
X130530192Y-118518857D01*
X130357270Y-118595848D01*
X130357265Y-118595851D01*
X130204129Y-118707111D01*
X130077466Y-118847785D01*
X129982821Y-119011715D01*
X129982818Y-119011722D01*
X129924327Y-119191740D01*
X129924326Y-119191744D01*
X129904540Y-119380000D01*
X113369542Y-119380000D01*
X113493243Y-119203337D01*
X113593111Y-118989170D01*
X113654271Y-118760915D01*
X113674867Y-118525507D01*
X113674305Y-118519089D01*
X113654271Y-118290103D01*
X113654271Y-118290099D01*
X113593111Y-118061844D01*
X113493243Y-117847678D01*
X113491192Y-117844748D01*
X113357702Y-117654104D01*
X113190610Y-117487013D01*
X113190604Y-117487008D01*
X113005050Y-117357082D01*
X112961425Y-117302505D01*
X112954231Y-117233007D01*
X112985754Y-117170652D01*
X113005050Y-117153932D01*
X113027234Y-117138398D01*
X113190609Y-117024002D01*
X113357703Y-116856908D01*
X113493243Y-116663337D01*
X113593111Y-116449170D01*
X113654271Y-116220915D01*
X113674867Y-115985507D01*
X113654271Y-115750099D01*
X113593111Y-115521844D01*
X113493243Y-115307678D01*
X113452202Y-115249064D01*
X113357702Y-115114104D01*
X113190610Y-114947013D01*
X113190604Y-114947008D01*
X113005050Y-114817082D01*
X112961425Y-114762505D01*
X112954231Y-114693007D01*
X112985754Y-114630652D01*
X113005050Y-114613932D01*
X113027234Y-114598398D01*
X113190609Y-114484002D01*
X113357703Y-114316908D01*
X113493243Y-114123337D01*
X113593111Y-113909170D01*
X113654271Y-113680915D01*
X113674867Y-113445507D01*
X113654271Y-113210099D01*
X113593111Y-112981844D01*
X113493243Y-112767678D01*
X113357703Y-112574106D01*
X113357702Y-112574104D01*
X113190610Y-112407013D01*
X113190604Y-112407008D01*
X113005050Y-112277082D01*
X112961425Y-112222505D01*
X112954231Y-112153007D01*
X112985754Y-112090652D01*
X113005050Y-112073932D01*
X113027234Y-112058398D01*
X113190609Y-111944002D01*
X113357703Y-111776908D01*
X113493243Y-111583337D01*
X113593111Y-111369170D01*
X113654271Y-111140915D01*
X113674867Y-110905507D01*
X113654271Y-110670099D01*
X113593111Y-110441844D01*
X113493243Y-110227678D01*
X113357703Y-110034106D01*
X113357702Y-110034104D01*
X113190610Y-109867013D01*
X113190604Y-109867008D01*
X113005050Y-109737082D01*
X112961425Y-109682505D01*
X112954231Y-109613007D01*
X112985754Y-109550652D01*
X113005050Y-109533932D01*
X113027234Y-109518398D01*
X113190609Y-109404002D01*
X113357703Y-109236908D01*
X113493243Y-109043337D01*
X113593111Y-108829170D01*
X113654271Y-108600915D01*
X113674867Y-108365507D01*
X113654271Y-108130099D01*
X113593111Y-107901844D01*
X113493243Y-107687678D01*
X113357703Y-107494106D01*
X113357702Y-107494104D01*
X113190610Y-107327013D01*
X113190609Y-107327012D01*
X113004613Y-107196776D01*
X112960989Y-107142199D01*
X112953796Y-107072700D01*
X112985318Y-107010346D01*
X113004613Y-106993626D01*
X113190290Y-106863612D01*
X113357313Y-106696589D01*
X113492808Y-106503085D01*
X113592637Y-106288999D01*
X113592640Y-106288993D01*
X113649844Y-106075507D01*
X112752894Y-106075507D01*
X112778701Y-106035351D01*
X112819208Y-105897396D01*
X112819208Y-105753618D01*
X112778701Y-105615663D01*
X112752894Y-105575507D01*
X113649844Y-105575507D01*
X113649843Y-105575506D01*
X113592640Y-105362020D01*
X113592637Y-105362014D01*
X113492808Y-105147929D01*
X113492807Y-105147927D01*
X113357321Y-104954433D01*
X113357316Y-104954427D01*
X113190286Y-104787397D01*
X113004613Y-104657386D01*
X112960988Y-104602809D01*
X112953796Y-104533311D01*
X112985318Y-104470956D01*
X113004614Y-104454237D01*
X113005050Y-104453932D01*
X113190609Y-104324002D01*
X113357703Y-104156908D01*
X113493243Y-103963337D01*
X113593111Y-103749170D01*
X113654271Y-103520915D01*
X113674867Y-103285507D01*
X113654271Y-103050099D01*
X113593111Y-102821844D01*
X113493243Y-102607678D01*
X113357703Y-102414106D01*
X113357702Y-102414104D01*
X113190610Y-102247013D01*
X113190604Y-102247008D01*
X113005050Y-102117082D01*
X112961425Y-102062505D01*
X112954231Y-101993007D01*
X112985754Y-101930652D01*
X113005050Y-101913932D01*
X113027234Y-101898398D01*
X113190609Y-101784002D01*
X113357703Y-101616908D01*
X113493243Y-101423337D01*
X113593111Y-101209170D01*
X113654271Y-100980915D01*
X113674867Y-100745507D01*
X113654271Y-100510099D01*
X113593111Y-100281844D01*
X113493243Y-100067678D01*
X113357703Y-99874106D01*
X113357702Y-99874104D01*
X113190610Y-99707013D01*
X113190604Y-99707008D01*
X113005050Y-99577082D01*
X112961425Y-99522505D01*
X112954231Y-99453007D01*
X112985754Y-99390652D01*
X113005050Y-99373932D01*
X113027234Y-99358398D01*
X113190609Y-99244002D01*
X113357703Y-99076908D01*
X113493243Y-98883337D01*
X113593111Y-98669170D01*
X113654271Y-98440915D01*
X113674867Y-98205507D01*
X113654271Y-97970099D01*
X113593111Y-97741844D01*
X113493243Y-97527678D01*
X113357703Y-97334106D01*
X113357702Y-97334104D01*
X113190610Y-97167013D01*
X113190604Y-97167008D01*
X113005050Y-97037082D01*
X112961425Y-96982505D01*
X112954231Y-96913007D01*
X112985754Y-96850652D01*
X113005050Y-96833932D01*
X113027234Y-96818398D01*
X113190609Y-96704002D01*
X113357703Y-96536908D01*
X113493243Y-96343337D01*
X113593111Y-96129170D01*
X113654271Y-95900915D01*
X113674867Y-95665507D01*
X113654271Y-95430099D01*
X113593111Y-95201844D01*
X113493243Y-94987678D01*
X113357703Y-94794106D01*
X113357702Y-94794104D01*
X113190610Y-94627013D01*
X113190604Y-94627008D01*
X113005050Y-94497082D01*
X112961425Y-94442505D01*
X112954231Y-94373007D01*
X112985754Y-94310652D01*
X113005050Y-94293932D01*
X113027234Y-94278398D01*
X113190609Y-94164002D01*
X113357703Y-93996908D01*
X113493243Y-93803337D01*
X113593111Y-93589170D01*
X113654271Y-93360915D01*
X113674867Y-93125507D01*
X113654271Y-92890099D01*
X113593111Y-92661844D01*
X113493243Y-92447678D01*
X113357703Y-92254106D01*
X113357702Y-92254104D01*
X113190610Y-92087013D01*
X113190604Y-92087008D01*
X113005050Y-91957082D01*
X112961425Y-91902505D01*
X112954231Y-91833007D01*
X112985754Y-91770652D01*
X113005050Y-91753932D01*
X113027234Y-91738398D01*
X113190609Y-91624002D01*
X113357703Y-91456908D01*
X113493243Y-91263337D01*
X113593111Y-91049170D01*
X113654271Y-90820915D01*
X113674867Y-90585507D01*
X113654271Y-90350099D01*
X113593111Y-90121844D01*
X113493243Y-89907678D01*
X113357703Y-89714106D01*
X113357702Y-89714104D01*
X113190610Y-89547013D01*
X113190604Y-89547008D01*
X113005050Y-89417082D01*
X112961425Y-89362505D01*
X112954231Y-89293007D01*
X112985754Y-89230652D01*
X113005050Y-89213932D01*
X113027234Y-89198398D01*
X113190609Y-89084002D01*
X113357703Y-88916908D01*
X113493243Y-88723337D01*
X113593111Y-88509170D01*
X113654271Y-88280915D01*
X113674867Y-88045507D01*
X113654271Y-87810099D01*
X113593111Y-87581844D01*
X113493243Y-87367678D01*
X113357703Y-87174106D01*
X113357702Y-87174104D01*
X113190610Y-87007013D01*
X113190604Y-87007008D01*
X113005050Y-86877082D01*
X112961425Y-86822505D01*
X112954231Y-86753007D01*
X112985754Y-86690652D01*
X113005050Y-86673932D01*
X113027234Y-86658398D01*
X113190609Y-86544002D01*
X113357703Y-86376908D01*
X113493243Y-86183337D01*
X113593111Y-85969170D01*
X113654271Y-85740915D01*
X113674867Y-85505507D01*
X113654271Y-85270099D01*
X113593111Y-85041844D01*
X113493243Y-84827678D01*
X113357703Y-84634106D01*
X113357702Y-84634104D01*
X113190610Y-84467013D01*
X113190604Y-84467008D01*
X113005050Y-84337082D01*
X112961425Y-84282505D01*
X112954231Y-84213007D01*
X112985754Y-84150652D01*
X113005050Y-84133932D01*
X113027234Y-84118398D01*
X113190609Y-84004002D01*
X113357703Y-83836908D01*
X113493243Y-83643337D01*
X113593111Y-83429170D01*
X113654271Y-83200915D01*
X113674867Y-82965507D01*
X113654271Y-82730099D01*
X113593111Y-82501844D01*
X113493243Y-82287678D01*
X113418197Y-82180500D01*
X113357702Y-82094104D01*
X113190610Y-81927013D01*
X113190604Y-81927008D01*
X113005050Y-81797082D01*
X112961425Y-81742505D01*
X112954231Y-81673007D01*
X112985754Y-81610652D01*
X113005050Y-81593932D01*
X113184529Y-81468259D01*
X113190609Y-81464002D01*
X113357703Y-81296908D01*
X113493243Y-81103337D01*
X113593111Y-80889170D01*
X113654271Y-80660915D01*
X113674867Y-80425507D01*
X113654271Y-80190099D01*
X113593111Y-79961844D01*
X113493243Y-79747678D01*
X113357703Y-79554106D01*
X113357702Y-79554104D01*
X113190610Y-79387013D01*
X113190604Y-79387008D01*
X113005050Y-79257082D01*
X112961425Y-79202505D01*
X112954231Y-79133007D01*
X112985754Y-79070652D01*
X113005050Y-79053932D01*
X113027234Y-79038398D01*
X113190609Y-78924002D01*
X113357703Y-78756908D01*
X113493243Y-78563337D01*
X113593111Y-78349170D01*
X113654271Y-78120915D01*
X113674867Y-77885507D01*
X113654271Y-77650099D01*
X113593111Y-77421844D01*
X113493243Y-77207678D01*
X113443628Y-77136819D01*
X113357702Y-77014104D01*
X113190610Y-76847013D01*
X113190604Y-76847008D01*
X113005050Y-76717082D01*
X112961425Y-76662505D01*
X112954231Y-76593007D01*
X112985754Y-76530652D01*
X113005050Y-76513932D01*
X113044562Y-76486265D01*
X113190609Y-76384002D01*
X113357703Y-76216908D01*
X113493243Y-76023337D01*
X113593111Y-75809170D01*
X113654271Y-75580915D01*
X113674867Y-75345507D01*
X113654271Y-75110099D01*
X113593111Y-74881844D01*
X113493243Y-74667678D01*
X113470395Y-74635048D01*
X113357704Y-74474107D01*
X113297099Y-74413502D01*
X113235775Y-74352178D01*
X113202292Y-74290858D01*
X113207276Y-74221166D01*
X113249147Y-74165232D01*
X113280123Y-74148317D01*
X113411539Y-74099303D01*
X113526754Y-74013053D01*
X113613004Y-73897838D01*
X113663299Y-73762990D01*
X113669708Y-73703380D01*
X113669707Y-71907635D01*
X113663299Y-71848024D01*
X113647182Y-71804813D01*
X113613005Y-71713178D01*
X113613001Y-71713171D01*
X113526755Y-71597962D01*
X113526752Y-71597959D01*
X113411543Y-71511713D01*
X113411536Y-71511709D01*
X113276690Y-71461415D01*
X113276691Y-71461415D01*
X113217091Y-71455008D01*
X113217089Y-71455007D01*
X113217081Y-71455007D01*
X113217072Y-71455007D01*
X111421337Y-71455007D01*
X111421331Y-71455008D01*
X111361724Y-71461415D01*
X111226879Y-71511709D01*
X111226872Y-71511713D01*
X111111663Y-71597959D01*
X111111660Y-71597962D01*
X111025414Y-71713171D01*
X111025410Y-71713178D01*
X110975116Y-71848024D01*
X110970154Y-71894182D01*
X110968709Y-71907630D01*
X110968708Y-71907642D01*
X110968708Y-73703377D01*
X110968709Y-73703383D01*
X110975116Y-73762990D01*
X111025410Y-73897835D01*
X111025414Y-73897842D01*
X111111660Y-74013051D01*
X111111663Y-74013054D01*
X111226872Y-74099300D01*
X111226879Y-74099304D01*
X111358289Y-74148317D01*
X111414223Y-74190188D01*
X111438640Y-74255652D01*
X111423788Y-74323925D01*
X111402638Y-74352180D01*
X111280711Y-74474107D01*
X111145173Y-74667676D01*
X111145172Y-74667678D01*
X111045306Y-74881842D01*
X111045302Y-74881851D01*
X110984146Y-75110093D01*
X110984144Y-75110103D01*
X110963549Y-75345506D01*
X110963549Y-75345507D01*
X110984144Y-75580910D01*
X110984146Y-75580920D01*
X111045302Y-75809162D01*
X111045304Y-75809166D01*
X111045305Y-75809170D01*
X111093595Y-75912728D01*
X111145173Y-76023337D01*
X111145175Y-76023341D01*
X111280709Y-76216902D01*
X111280714Y-76216909D01*
X111447805Y-76384000D01*
X111447811Y-76384005D01*
X111633366Y-76513932D01*
X111676991Y-76568509D01*
X111684185Y-76638007D01*
X111652662Y-76700362D01*
X111633366Y-76717082D01*
X111447805Y-76847012D01*
X111280713Y-77014104D01*
X111145173Y-77207676D01*
X111145172Y-77207678D01*
X111045306Y-77421842D01*
X111045302Y-77421851D01*
X110984146Y-77650093D01*
X110984144Y-77650103D01*
X110963549Y-77885506D01*
X110963549Y-77885507D01*
X110984144Y-78120910D01*
X110984146Y-78120920D01*
X111045302Y-78349162D01*
X111045304Y-78349166D01*
X111045305Y-78349170D01*
X111145173Y-78563337D01*
X111145175Y-78563341D01*
X111280709Y-78756902D01*
X111280714Y-78756909D01*
X111447805Y-78924000D01*
X111447811Y-78924005D01*
X111633366Y-79053932D01*
X111676991Y-79108509D01*
X111684185Y-79178007D01*
X111652662Y-79240362D01*
X111633366Y-79257082D01*
X111447805Y-79387012D01*
X111280713Y-79554104D01*
X111145173Y-79747676D01*
X111145172Y-79747678D01*
X111045306Y-79961842D01*
X111045302Y-79961851D01*
X110984146Y-80190093D01*
X110984144Y-80190103D01*
X110963549Y-80425506D01*
X110963549Y-80425507D01*
X110984144Y-80660910D01*
X110984146Y-80660920D01*
X111045302Y-80889162D01*
X111045304Y-80889166D01*
X111045305Y-80889170D01*
X111139765Y-81091740D01*
X111145173Y-81103337D01*
X111145175Y-81103341D01*
X111280709Y-81296902D01*
X111280714Y-81296909D01*
X111447805Y-81464000D01*
X111447811Y-81464005D01*
X111633366Y-81593932D01*
X111676991Y-81648509D01*
X111684185Y-81718007D01*
X111652662Y-81780362D01*
X111633366Y-81797082D01*
X111447805Y-81927012D01*
X111280713Y-82094104D01*
X111145173Y-82287676D01*
X111145172Y-82287678D01*
X111045306Y-82501842D01*
X111045302Y-82501851D01*
X110984146Y-82730093D01*
X110984144Y-82730103D01*
X110963549Y-82965506D01*
X110963549Y-82965507D01*
X110984144Y-83200910D01*
X110984146Y-83200920D01*
X111045302Y-83429162D01*
X111045304Y-83429166D01*
X111045305Y-83429170D01*
X111145173Y-83643337D01*
X111145175Y-83643341D01*
X111280709Y-83836902D01*
X111280714Y-83836909D01*
X111447805Y-84004000D01*
X111447811Y-84004005D01*
X111633366Y-84133932D01*
X111676991Y-84188509D01*
X111684185Y-84258007D01*
X111652662Y-84320362D01*
X111633366Y-84337082D01*
X111447805Y-84467012D01*
X111280713Y-84634104D01*
X111145173Y-84827676D01*
X111145172Y-84827678D01*
X111045306Y-85041842D01*
X111045302Y-85041851D01*
X110984146Y-85270093D01*
X110984144Y-85270103D01*
X110963549Y-85505506D01*
X110963549Y-85505507D01*
X110984144Y-85740910D01*
X110984146Y-85740920D01*
X111045302Y-85969162D01*
X111045304Y-85969166D01*
X111045305Y-85969170D01*
X111145173Y-86183337D01*
X111145175Y-86183341D01*
X111280709Y-86376902D01*
X111280714Y-86376909D01*
X111447805Y-86544000D01*
X111447811Y-86544005D01*
X111633366Y-86673932D01*
X111676991Y-86728509D01*
X111684185Y-86798007D01*
X111652662Y-86860362D01*
X111633366Y-86877082D01*
X111447805Y-87007012D01*
X111280713Y-87174104D01*
X111145173Y-87367676D01*
X111145172Y-87367678D01*
X111045306Y-87581842D01*
X111045302Y-87581851D01*
X110984146Y-87810093D01*
X110984144Y-87810103D01*
X110963549Y-88045506D01*
X110963549Y-88045507D01*
X110984144Y-88280910D01*
X110984146Y-88280920D01*
X111045302Y-88509162D01*
X111045304Y-88509166D01*
X111045305Y-88509170D01*
X111145055Y-88723085D01*
X111145173Y-88723337D01*
X111145175Y-88723341D01*
X111280709Y-88916902D01*
X111280714Y-88916909D01*
X111447805Y-89084000D01*
X111447811Y-89084005D01*
X111633366Y-89213932D01*
X111676991Y-89268509D01*
X111684185Y-89338007D01*
X111652662Y-89400362D01*
X111633366Y-89417082D01*
X111447805Y-89547012D01*
X111280713Y-89714104D01*
X111145173Y-89907676D01*
X111145172Y-89907678D01*
X111045306Y-90121842D01*
X111045302Y-90121851D01*
X110984146Y-90350093D01*
X110984144Y-90350103D01*
X110963549Y-90585506D01*
X110963549Y-90585507D01*
X110984144Y-90820910D01*
X110984146Y-90820920D01*
X111045302Y-91049162D01*
X111045304Y-91049166D01*
X111045305Y-91049170D01*
X111145173Y-91263337D01*
X111145175Y-91263341D01*
X111280709Y-91456902D01*
X111280714Y-91456909D01*
X111447805Y-91624000D01*
X111447811Y-91624005D01*
X111633366Y-91753932D01*
X111676991Y-91808509D01*
X111684185Y-91878007D01*
X111652662Y-91940362D01*
X111633366Y-91957082D01*
X111447805Y-92087012D01*
X111280713Y-92254104D01*
X111145173Y-92447676D01*
X111145172Y-92447678D01*
X111045306Y-92661842D01*
X111045302Y-92661851D01*
X110984146Y-92890093D01*
X110984144Y-92890103D01*
X110963549Y-93125506D01*
X110963549Y-93125507D01*
X110984144Y-93360910D01*
X110984146Y-93360920D01*
X111045302Y-93589162D01*
X111045304Y-93589166D01*
X111045305Y-93589170D01*
X111145173Y-93803337D01*
X111145175Y-93803341D01*
X111280709Y-93996902D01*
X111280714Y-93996909D01*
X111447805Y-94164000D01*
X111447811Y-94164005D01*
X111633366Y-94293932D01*
X111676991Y-94348509D01*
X111684185Y-94418007D01*
X111652662Y-94480362D01*
X111633366Y-94497082D01*
X111447805Y-94627012D01*
X111280713Y-94794104D01*
X111145173Y-94987676D01*
X111145172Y-94987678D01*
X111045306Y-95201842D01*
X111045302Y-95201851D01*
X110984146Y-95430093D01*
X110984144Y-95430103D01*
X110963549Y-95665506D01*
X110963549Y-95665507D01*
X110984144Y-95900910D01*
X110984146Y-95900920D01*
X111045302Y-96129162D01*
X111045304Y-96129166D01*
X111045305Y-96129170D01*
X111145173Y-96343337D01*
X111145175Y-96343341D01*
X111280709Y-96536902D01*
X111280714Y-96536909D01*
X111447805Y-96704000D01*
X111447811Y-96704005D01*
X111633366Y-96833932D01*
X111676991Y-96888509D01*
X111684185Y-96958007D01*
X111652662Y-97020362D01*
X111633366Y-97037082D01*
X111447805Y-97167012D01*
X111280713Y-97334104D01*
X111145173Y-97527676D01*
X111145172Y-97527678D01*
X111045306Y-97741842D01*
X111045302Y-97741851D01*
X110984146Y-97970093D01*
X110984144Y-97970103D01*
X110963549Y-98205506D01*
X110963549Y-98205507D01*
X110984144Y-98440910D01*
X110984146Y-98440920D01*
X111045302Y-98669162D01*
X111045304Y-98669166D01*
X111045305Y-98669170D01*
X111145173Y-98883337D01*
X111145175Y-98883341D01*
X111280709Y-99076902D01*
X111280714Y-99076909D01*
X111447805Y-99244000D01*
X111447811Y-99244005D01*
X111633366Y-99373932D01*
X111676991Y-99428509D01*
X111684185Y-99498007D01*
X111652662Y-99560362D01*
X111633366Y-99577082D01*
X111447805Y-99707012D01*
X111280713Y-99874104D01*
X111145173Y-100067676D01*
X111145172Y-100067678D01*
X111045306Y-100281842D01*
X111045302Y-100281851D01*
X110984146Y-100510093D01*
X110984144Y-100510103D01*
X110963549Y-100745506D01*
X110963549Y-100745507D01*
X110984144Y-100980910D01*
X110984146Y-100980920D01*
X111045302Y-101209162D01*
X111045304Y-101209166D01*
X111045305Y-101209170D01*
X111145173Y-101423337D01*
X111145175Y-101423341D01*
X111280709Y-101616902D01*
X111280714Y-101616909D01*
X111447805Y-101784000D01*
X111447811Y-101784005D01*
X111633366Y-101913932D01*
X111676991Y-101968509D01*
X111684185Y-102038007D01*
X111652662Y-102100362D01*
X111633366Y-102117082D01*
X111447805Y-102247012D01*
X111280713Y-102414104D01*
X111145173Y-102607676D01*
X111145172Y-102607678D01*
X111045306Y-102821842D01*
X111045302Y-102821851D01*
X110984146Y-103050093D01*
X110984144Y-103050103D01*
X110963549Y-103285506D01*
X110963549Y-103285507D01*
X110984144Y-103520910D01*
X110984146Y-103520920D01*
X111045302Y-103749162D01*
X111045304Y-103749166D01*
X111045305Y-103749170D01*
X111145173Y-103963337D01*
X111145175Y-103963341D01*
X111280709Y-104156902D01*
X111280714Y-104156909D01*
X111447805Y-104324000D01*
X111447811Y-104324005D01*
X111633802Y-104454237D01*
X111677427Y-104508814D01*
X111684621Y-104578312D01*
X111653098Y-104640667D01*
X111633803Y-104657387D01*
X111448130Y-104787397D01*
X111448128Y-104787398D01*
X111281099Y-104954427D01*
X111281094Y-104954433D01*
X111145608Y-105147927D01*
X111145607Y-105147929D01*
X111045778Y-105362014D01*
X111045775Y-105362020D01*
X110988572Y-105575506D01*
X110988572Y-105575507D01*
X111885522Y-105575507D01*
X111859715Y-105615663D01*
X111819208Y-105753618D01*
X111819208Y-105897396D01*
X111859715Y-106035351D01*
X111885522Y-106075507D01*
X110988572Y-106075507D01*
X111045775Y-106288993D01*
X111045778Y-106288999D01*
X111145607Y-106503085D01*
X111281102Y-106696589D01*
X111448125Y-106863612D01*
X111633803Y-106993626D01*
X111677427Y-107048203D01*
X111684620Y-107117702D01*
X111653098Y-107180056D01*
X111633803Y-107196776D01*
X111447802Y-107327015D01*
X111280713Y-107494104D01*
X111145173Y-107687676D01*
X111145172Y-107687678D01*
X111045306Y-107901842D01*
X111045302Y-107901851D01*
X110984146Y-108130093D01*
X110984144Y-108130103D01*
X110963549Y-108365506D01*
X110963549Y-108365507D01*
X110984144Y-108600910D01*
X110984146Y-108600920D01*
X111045302Y-108829162D01*
X111045304Y-108829166D01*
X111045305Y-108829170D01*
X111145173Y-109043337D01*
X111145175Y-109043341D01*
X111280709Y-109236902D01*
X111280714Y-109236909D01*
X111447805Y-109404000D01*
X111447811Y-109404005D01*
X111633366Y-109533932D01*
X111676991Y-109588509D01*
X111684185Y-109658007D01*
X111652662Y-109720362D01*
X111633366Y-109737082D01*
X111447805Y-109867012D01*
X111280713Y-110034104D01*
X111145173Y-110227676D01*
X111145172Y-110227678D01*
X111045306Y-110441842D01*
X111045302Y-110441851D01*
X110984146Y-110670093D01*
X110984144Y-110670103D01*
X110963549Y-110905506D01*
X110963549Y-110905507D01*
X110984144Y-111140910D01*
X110984146Y-111140920D01*
X111045302Y-111369162D01*
X111045304Y-111369166D01*
X111045305Y-111369170D01*
X111145173Y-111583337D01*
X111145175Y-111583341D01*
X111280709Y-111776902D01*
X111280714Y-111776909D01*
X111447805Y-111944000D01*
X111447811Y-111944005D01*
X111633366Y-112073932D01*
X111676991Y-112128509D01*
X111684185Y-112198007D01*
X111652662Y-112260362D01*
X111633366Y-112277082D01*
X111447805Y-112407012D01*
X111280713Y-112574104D01*
X111145173Y-112767676D01*
X111145172Y-112767678D01*
X111045306Y-112981842D01*
X111045302Y-112981851D01*
X110984146Y-113210093D01*
X110984144Y-113210103D01*
X110963549Y-113445506D01*
X110963549Y-113445507D01*
X110984144Y-113680910D01*
X110984146Y-113680920D01*
X111045302Y-113909162D01*
X111045304Y-113909166D01*
X111045305Y-113909170D01*
X111101823Y-114030372D01*
X111145173Y-114123337D01*
X111145175Y-114123341D01*
X111280709Y-114316902D01*
X111280714Y-114316909D01*
X111447805Y-114484000D01*
X111447811Y-114484005D01*
X111633366Y-114613932D01*
X111676991Y-114668509D01*
X111684185Y-114738007D01*
X111652662Y-114800362D01*
X111633366Y-114817082D01*
X111447805Y-114947012D01*
X111280713Y-115114104D01*
X111145173Y-115307676D01*
X111145172Y-115307678D01*
X111045306Y-115521842D01*
X111045302Y-115521851D01*
X110984146Y-115750093D01*
X110984144Y-115750103D01*
X110963549Y-115985506D01*
X110963549Y-115985507D01*
X110984144Y-116220910D01*
X110984146Y-116220920D01*
X111045302Y-116449162D01*
X111045304Y-116449166D01*
X111045305Y-116449170D01*
X111145173Y-116663337D01*
X111145175Y-116663341D01*
X111280709Y-116856902D01*
X111280714Y-116856909D01*
X111447805Y-117024000D01*
X111447811Y-117024005D01*
X111633366Y-117153932D01*
X111676991Y-117208509D01*
X111684185Y-117278007D01*
X111652662Y-117340362D01*
X111633366Y-117357082D01*
X111447805Y-117487012D01*
X111280713Y-117654104D01*
X111145173Y-117847676D01*
X111145172Y-117847678D01*
X111045306Y-118061842D01*
X111045302Y-118061851D01*
X110984146Y-118290093D01*
X110984144Y-118290103D01*
X110963549Y-118525506D01*
X110963549Y-118525507D01*
X106930500Y-118525507D01*
X106930500Y-71120000D01*
X164194540Y-71120000D01*
X164214326Y-71308256D01*
X164214327Y-71308259D01*
X164272818Y-71488277D01*
X164272821Y-71488284D01*
X164367467Y-71652216D01*
X164458244Y-71753034D01*
X164494129Y-71792888D01*
X164647265Y-71904148D01*
X164647270Y-71904151D01*
X164820192Y-71981142D01*
X164820197Y-71981144D01*
X165005354Y-72020500D01*
X165005355Y-72020500D01*
X165194644Y-72020500D01*
X165194646Y-72020500D01*
X165379803Y-71981144D01*
X165552730Y-71904151D01*
X165554776Y-71902664D01*
X165566452Y-71894182D01*
X165632258Y-71870702D01*
X165639337Y-71870500D01*
X166428401Y-71870500D01*
X166446371Y-71871809D01*
X166470129Y-71875289D01*
X166522174Y-71870735D01*
X166527576Y-71870500D01*
X166535810Y-71870500D01*
X166535815Y-71870500D01*
X166547433Y-71869141D01*
X166568382Y-71866693D01*
X166581134Y-71865577D01*
X166644903Y-71859999D01*
X166644911Y-71859996D01*
X166651972Y-71858539D01*
X166651984Y-71858598D01*
X166659349Y-71856965D01*
X166659335Y-71856906D01*
X166666352Y-71855241D01*
X166666361Y-71855241D01*
X166738529Y-71828974D01*
X166811440Y-71804814D01*
X166811449Y-71804807D01*
X166817988Y-71801760D01*
X166818014Y-71801816D01*
X166824796Y-71798532D01*
X166824769Y-71798478D01*
X166831212Y-71795240D01*
X166831223Y-71795237D01*
X166895389Y-71753034D01*
X166960762Y-71712712D01*
X166960768Y-71712705D01*
X166966431Y-71708229D01*
X166966469Y-71708277D01*
X166972306Y-71703522D01*
X166972267Y-71703475D01*
X166977802Y-71698830D01*
X167030491Y-71642983D01*
X169424633Y-69248839D01*
X171818778Y-66854694D01*
X171880099Y-66821211D01*
X171917263Y-66818849D01*
X172065598Y-66831827D01*
X172130278Y-66837486D01*
X172130666Y-66837486D01*
X172130830Y-66837534D01*
X172135673Y-66837958D01*
X172135587Y-66838931D01*
X172197705Y-66857171D01*
X172243460Y-66909975D01*
X172253404Y-66979133D01*
X172224379Y-67042689D01*
X172218347Y-67049167D01*
X169796208Y-69471305D01*
X169783951Y-69481126D01*
X169784134Y-69481347D01*
X169778123Y-69486319D01*
X169730772Y-69536742D01*
X169709889Y-69557625D01*
X169709877Y-69557638D01*
X169705621Y-69563123D01*
X169701837Y-69567553D01*
X169669937Y-69601524D01*
X169669936Y-69601526D01*
X169660284Y-69619082D01*
X169649610Y-69635332D01*
X169637329Y-69651167D01*
X169637324Y-69651174D01*
X169618815Y-69693944D01*
X169616245Y-69699190D01*
X169593803Y-69740012D01*
X169588822Y-69759413D01*
X169582521Y-69777816D01*
X169574562Y-69796208D01*
X169574561Y-69796211D01*
X169567271Y-69842233D01*
X169566087Y-69847952D01*
X169554501Y-69893078D01*
X169554500Y-69893088D01*
X169554500Y-69913122D01*
X169552973Y-69932521D01*
X169549840Y-69952300D01*
X169549840Y-69952301D01*
X169554225Y-69998689D01*
X169554500Y-70004527D01*
X169554500Y-70421312D01*
X169534815Y-70488351D01*
X169522650Y-70504284D01*
X169447466Y-70587784D01*
X169352821Y-70751715D01*
X169352818Y-70751722D01*
X169294327Y-70931740D01*
X169294326Y-70931744D01*
X169274540Y-71120000D01*
X169294326Y-71308256D01*
X169294327Y-71308259D01*
X169352818Y-71488277D01*
X169352821Y-71488284D01*
X169447467Y-71652216D01*
X169538244Y-71753034D01*
X169574129Y-71792888D01*
X169727265Y-71904148D01*
X169727270Y-71904151D01*
X169900192Y-71981142D01*
X169900197Y-71981144D01*
X170085354Y-72020500D01*
X170085355Y-72020500D01*
X170274644Y-72020500D01*
X170274646Y-72020500D01*
X170459803Y-71981144D01*
X170632730Y-71904151D01*
X170785871Y-71792888D01*
X170912533Y-71652216D01*
X171007179Y-71488284D01*
X171065674Y-71308256D01*
X171085460Y-71120000D01*
X171065674Y-70931744D01*
X171007179Y-70751716D01*
X170912533Y-70587784D01*
X170837350Y-70504284D01*
X170807120Y-70441292D01*
X170805500Y-70421312D01*
X170805500Y-70282558D01*
X170825185Y-70215519D01*
X170841819Y-70194877D01*
X171565391Y-69471305D01*
X174214633Y-66822062D01*
X174275954Y-66788579D01*
X174334402Y-66789969D01*
X174434871Y-66816890D01*
X174605598Y-66831827D01*
X174670278Y-66837486D01*
X174670666Y-66837486D01*
X174670830Y-66837534D01*
X174675673Y-66837958D01*
X174675587Y-66838931D01*
X174737705Y-66857171D01*
X174783460Y-66909975D01*
X174793404Y-66979133D01*
X174764379Y-67042689D01*
X174758347Y-67049167D01*
X172336208Y-69471305D01*
X172323951Y-69481126D01*
X172324134Y-69481347D01*
X172318123Y-69486319D01*
X172270772Y-69536742D01*
X172249889Y-69557625D01*
X172249877Y-69557638D01*
X172245621Y-69563123D01*
X172241837Y-69567553D01*
X172209937Y-69601524D01*
X172209936Y-69601526D01*
X172200284Y-69619082D01*
X172189610Y-69635332D01*
X172177329Y-69651167D01*
X172177324Y-69651174D01*
X172158815Y-69693944D01*
X172156245Y-69699190D01*
X172133803Y-69740012D01*
X172128822Y-69759413D01*
X172122521Y-69777816D01*
X172114562Y-69796208D01*
X172114561Y-69796211D01*
X172107271Y-69842233D01*
X172106087Y-69847952D01*
X172094501Y-69893078D01*
X172094500Y-69893088D01*
X172094500Y-69913122D01*
X172092973Y-69932521D01*
X172089840Y-69952300D01*
X172089840Y-69952301D01*
X172094225Y-69998689D01*
X172094500Y-70004527D01*
X172094500Y-72316812D01*
X172074815Y-72383851D01*
X172062650Y-72399784D01*
X171987466Y-72483284D01*
X171892821Y-72647215D01*
X171892818Y-72647222D01*
X171834327Y-72827240D01*
X171834326Y-72827244D01*
X171814540Y-73015500D01*
X171834326Y-73203756D01*
X171834327Y-73203759D01*
X171892818Y-73383777D01*
X171892821Y-73383784D01*
X171987467Y-73547716D01*
X172064918Y-73633734D01*
X172114129Y-73688388D01*
X172267265Y-73799648D01*
X172267270Y-73799651D01*
X172440192Y-73876642D01*
X172440197Y-73876644D01*
X172625354Y-73916000D01*
X172625355Y-73916000D01*
X172814644Y-73916000D01*
X172814646Y-73916000D01*
X172999803Y-73876644D01*
X173172730Y-73799651D01*
X173325871Y-73688388D01*
X173452533Y-73547716D01*
X173547179Y-73383784D01*
X173605674Y-73203756D01*
X173625460Y-73015500D01*
X173605674Y-72827244D01*
X173547179Y-72647216D01*
X173452533Y-72483284D01*
X173444812Y-72474709D01*
X173377350Y-72399784D01*
X173347120Y-72336792D01*
X173345500Y-72316812D01*
X173345500Y-70282558D01*
X173365185Y-70215519D01*
X173381819Y-70194877D01*
X174105391Y-69471305D01*
X176754633Y-66822062D01*
X176815954Y-66788579D01*
X176874402Y-66789969D01*
X176974871Y-66816890D01*
X177145598Y-66831827D01*
X177210278Y-66837486D01*
X177210279Y-66837486D01*
X177210280Y-66837486D01*
X177274960Y-66831827D01*
X177445687Y-66816890D01*
X177673942Y-66755730D01*
X177888109Y-66655862D01*
X178081680Y-66520322D01*
X178248774Y-66353228D01*
X178384314Y-66159657D01*
X178484182Y-65945490D01*
X178545342Y-65717235D01*
X178565938Y-65481827D01*
X178545342Y-65246419D01*
X178484182Y-65018164D01*
X178384314Y-64803998D01*
X178378704Y-64795985D01*
X178248773Y-64610424D01*
X178081681Y-64443333D01*
X178081674Y-64443328D01*
X177888113Y-64307794D01*
X177888109Y-64307792D01*
X177817006Y-64274636D01*
X177673942Y-64207924D01*
X177673938Y-64207923D01*
X177673934Y-64207921D01*
X177445692Y-64146765D01*
X177445682Y-64146763D01*
X177210280Y-64126168D01*
X177210278Y-64126168D01*
X176974875Y-64146763D01*
X176974865Y-64146765D01*
X176746623Y-64207921D01*
X176746614Y-64207925D01*
X176532450Y-64307791D01*
X176532448Y-64307792D01*
X176338876Y-64443332D01*
X176171784Y-64610424D01*
X176041854Y-64795985D01*
X175987277Y-64839610D01*
X175917779Y-64846804D01*
X175855424Y-64815281D01*
X175838704Y-64795985D01*
X175708773Y-64610424D01*
X175541681Y-64443333D01*
X175541674Y-64443328D01*
X175348113Y-64307794D01*
X175348109Y-64307792D01*
X175277006Y-64274636D01*
X175133942Y-64207924D01*
X175133938Y-64207923D01*
X175133934Y-64207921D01*
X174905692Y-64146765D01*
X174905682Y-64146763D01*
X174670280Y-64126168D01*
X174670278Y-64126168D01*
X174434875Y-64146763D01*
X174434865Y-64146765D01*
X174206623Y-64207921D01*
X174206614Y-64207925D01*
X173992450Y-64307791D01*
X173992448Y-64307792D01*
X173798876Y-64443332D01*
X173631784Y-64610424D01*
X173501854Y-64795985D01*
X173447277Y-64839610D01*
X173377779Y-64846804D01*
X173315424Y-64815281D01*
X173298704Y-64795985D01*
X173168773Y-64610424D01*
X173001681Y-64443333D01*
X173001674Y-64443328D01*
X172808113Y-64307794D01*
X172808109Y-64307792D01*
X172737006Y-64274636D01*
X172593942Y-64207924D01*
X172593938Y-64207923D01*
X172593934Y-64207921D01*
X172365692Y-64146765D01*
X172365682Y-64146763D01*
X172130280Y-64126168D01*
X172130278Y-64126168D01*
X171894875Y-64146763D01*
X171894865Y-64146765D01*
X171666623Y-64207921D01*
X171666614Y-64207925D01*
X171452450Y-64307791D01*
X171452448Y-64307792D01*
X171258879Y-64443330D01*
X171136563Y-64565646D01*
X171075240Y-64599130D01*
X171005548Y-64594146D01*
X170949615Y-64552274D01*
X170932700Y-64521297D01*
X170883633Y-64389740D01*
X170883629Y-64389733D01*
X170797469Y-64274639D01*
X170797466Y-64274636D01*
X170682372Y-64188476D01*
X170682365Y-64188472D01*
X170547658Y-64138230D01*
X170547651Y-64138228D01*
X170488123Y-64131827D01*
X169840279Y-64131827D01*
X169840279Y-65046325D01*
X169732594Y-64997147D01*
X169626042Y-64981827D01*
X169554516Y-64981827D01*
X169447964Y-64997147D01*
X169340279Y-65046325D01*
X169340279Y-64131827D01*
X168692434Y-64131827D01*
X168632906Y-64138228D01*
X168632899Y-64138230D01*
X168498192Y-64188472D01*
X168498185Y-64188476D01*
X168383091Y-64274636D01*
X168383088Y-64274639D01*
X168296928Y-64389733D01*
X168296924Y-64389740D01*
X168246682Y-64524447D01*
X168246680Y-64524454D01*
X168240279Y-64583982D01*
X168240279Y-65231827D01*
X169156593Y-65231827D01*
X169130786Y-65271983D01*
X169090279Y-65409938D01*
X169090279Y-65553716D01*
X169130786Y-65691671D01*
X169156593Y-65731827D01*
X168240279Y-65731827D01*
X168240279Y-66379671D01*
X168246680Y-66439199D01*
X168246682Y-66439206D01*
X168296924Y-66573913D01*
X168296928Y-66573920D01*
X168383088Y-66689014D01*
X168383091Y-66689017D01*
X168498185Y-66775177D01*
X168498192Y-66775181D01*
X168632899Y-66825423D01*
X168632906Y-66825425D01*
X168692434Y-66831826D01*
X168692451Y-66831827D01*
X169419549Y-66831827D01*
X169486588Y-66851512D01*
X169532343Y-66904316D01*
X169542287Y-66973474D01*
X169513262Y-67037030D01*
X169507230Y-67043508D01*
X166217557Y-70333181D01*
X166156234Y-70366666D01*
X166129876Y-70369500D01*
X165639337Y-70369500D01*
X165572298Y-70349815D01*
X165566452Y-70345818D01*
X165552734Y-70335851D01*
X165552729Y-70335848D01*
X165379807Y-70258857D01*
X165379802Y-70258855D01*
X165234001Y-70227865D01*
X165194646Y-70219500D01*
X165005354Y-70219500D01*
X164972897Y-70226398D01*
X164820197Y-70258855D01*
X164820192Y-70258857D01*
X164647270Y-70335848D01*
X164647265Y-70335851D01*
X164494129Y-70447111D01*
X164367466Y-70587785D01*
X164272821Y-70751715D01*
X164272818Y-70751722D01*
X164214327Y-70931740D01*
X164214326Y-70931744D01*
X164194540Y-71120000D01*
X106930500Y-71120000D01*
X106930500Y-58794500D01*
X106950185Y-58727461D01*
X107002989Y-58681706D01*
X107054500Y-58670500D01*
X190125500Y-58670500D01*
X190192539Y-58690185D01*
G37*
%TD.AperFunction*%
%TD*%
M02*
